<svg width="449" height="131" viewBox="0 0 449 131" fill="none" xmlns="http://www.w3.org/2000/svg">
<path d="M322.511 0.215036C316.215 0.354817 310.137 0.685208 304.248 1.18079C298.359 1.67638 286.77 3.17585 269.438 5.67919C252.12 8.18254 239.295 10.1395 230.963 11.5754C222.632 12.9986 214.503 14.4981 206.579 16.0738C198.654 17.6495 188.359 19.8987 175.695 22.8214C163.03 25.7441 152.037 28.4635 142.731 30.9668C133.41 33.4702 124.831 35.8973 116.994 38.2481C109.157 40.599 101.392 43.0642 93.7145 45.6438C86.0371 48.2107 77.9816 51.108 69.5771 54.3229C61.1581 57.5379 53.3207 60.791 46.0504 64.0695C38.78 67.3479 32.6875 70.3469 27.7873 73.0663C22.8871 75.7856 18.6849 78.3906 15.1661 80.8813C11.6472 83.3846 9.11716 85.3797 7.56131 86.8791C6.00547 88.3786 4.74043 89.7764 3.76621 91.0599C2.79199 92.3433 1.96317 93.703 1.30884 95.1262C0.654516 96.5494 0.247378 97.6931 0.0874314 98.5572C-0.0725155 99.4213 0.000187628 100.845 0.334622 102.84C0.654516 104.835 1.1489 106.372 1.80323 107.44C2.45755 108.507 3.43178 109.651 4.74043 110.871C6.04909 112.09 7.43045 113.158 8.91359 114.086C10.3822 115.013 12.0544 115.903 13.9446 116.767C15.8204 117.618 19.092 118.762 23.745 120.198C28.398 121.621 33.4727 122.879 38.94 123.946C44.4073 125.014 50.9505 126.018 58.5407 126.945C66.1455 127.873 74.6372 128.661 84.0305 129.296C93.4237 129.944 104.169 130.402 116.267 130.694C128.365 130.974 139.27 131.088 148.983 131.012C158.711 130.936 169.82 130.694 182.311 130.262C194.815 129.83 207.059 129.258 219.069 128.547C231.08 127.835 243.454 126.945 256.206 125.865C268.958 124.798 280.271 123.718 290.158 122.65C300.046 121.583 310.094 120.363 320.301 119.003C330.509 117.644 340.978 116.081 351.68 114.289C362.382 112.51 371.775 110.756 379.859 109.041C387.944 107.325 395.636 105.47 402.906 103.475C410.177 101.48 415.528 99.866 418.959 98.6588C422.391 97.4389 426.142 95.8759 430.243 93.9444C434.329 92.0129 437.222 90.4753 438.938 89.3444C440.654 88.2007 442.413 86.7012 444.216 84.8459C446.005 82.9907 447.284 81.1735 448.011 79.3818C448.753 77.6028 449.073 75.811 448.986 74.032C448.913 72.253 448.622 70.7789 448.128 69.6353C447.633 68.4916 447.023 67.4242 446.281 66.4203C445.54 65.4164 444.202 64.0695 442.239 62.354C440.276 60.6385 438.022 59.0373 435.492 57.5379C432.962 56.0384 429.981 54.5389 426.549 53.0395C423.118 51.54 419.526 50.1422 415.76 48.8588C412.009 47.5753 407.225 46.1394 401.423 44.5764C395.622 43.0007 387.043 41.0437 375.686 38.6802C364.33 36.3293 355.548 34.7155 349.339 33.8641C343.13 33.0127 336.514 32.263 329.491 31.6149C322.468 30.9668 318.745 30.7635 318.338 30.9668C317.931 31.1828 317.684 31.5005 317.597 31.9326C317.509 32.3646 317.756 32.784 318.338 33.216C318.905 33.6481 330.552 36.2149 353.265 40.9294C375.977 45.6438 390.925 48.9604 398.123 50.8919C405.32 52.8234 410.904 54.5008 414.917 55.924C418.916 57.3473 422.027 58.5672 424.223 59.571C426.433 60.5749 428.629 61.7186 430.839 63.002C433.049 64.2855 434.809 65.4673 436.117 66.5347C437.426 67.6021 438.531 68.7458 439.418 69.9657C440.319 71.1856 440.887 72.2149 441.134 73.0663C441.381 73.9176 441.468 74.6674 441.381 75.3155C441.294 75.9635 440.814 76.9928 439.912 78.416C439.011 79.8393 437.629 81.2752 435.739 82.6984C433.863 84.1216 431.988 85.3415 430.097 86.3454C428.222 87.3493 425.037 88.7344 420.544 90.5261C416.051 92.3052 409.711 94.3511 401.554 96.6257C393.382 98.913 385.589 100.844 378.144 102.408C370.713 103.983 362.629 105.508 353.875 107.008C345.136 108.507 336.194 109.905 327.033 111.188C317.887 112.472 308.363 113.692 298.476 114.835C288.588 115.979 277.799 117.084 266.123 118.152C254.447 119.219 243.454 120.122 233.159 120.833C222.864 121.545 211.552 122.193 199.207 122.765C186.876 123.337 175.724 123.73 165.749 123.946C155.788 124.162 145.072 124.226 133.643 124.162C122.2 124.086 112.646 123.908 104.969 123.629C97.2915 123.349 89.934 122.955 82.9108 122.447C75.8877 121.951 69.4753 121.38 63.6736 120.731C57.8719 120.083 52.361 119.334 47.1264 118.482C41.8917 117.631 36.8752 116.589 32.0477 115.382C27.2202 114.162 23.2216 112.916 20.0372 111.633C16.8528 110.35 14.7298 109.384 13.6684 108.736C12.6069 108.088 11.5454 107.274 10.484 106.271C9.42251 105.267 8.68094 104.301 8.2738 103.373C7.86667 102.446 7.6631 101.62 7.6631 100.908C7.6631 100.196 7.82304 99.3705 8.15748 98.4428C8.47737 97.5152 9.059 96.4732 9.87327 95.3422C10.6875 94.1986 12.2434 92.5974 14.5263 90.5261C16.8092 88.4548 20.0808 86.0659 24.3267 83.3465C28.5725 80.6271 33.4 77.9205 38.78 75.2011C44.1746 72.4817 49.5256 69.9911 54.8329 67.7038C60.1402 65.4164 65.5784 63.2053 71.1329 61.0578C76.6874 58.9103 83.6379 56.4196 91.9696 53.5605C100.301 50.7013 110.233 47.5626 121.749 44.1316C133.265 40.7006 145.683 37.3078 159.002 33.953C172.321 30.5983 185.684 27.5231 199.076 24.7402C212.468 21.9573 226.194 19.4158 240.255 17.1412C254.301 14.8539 264.029 13.3926 269.423 12.7445C274.818 12.0964 279.107 11.7152 282.292 11.5627C285.476 11.4102 290.871 11.3848 298.476 11.461C306.08 11.5373 316.201 11.855 328.866 12.4268C341.53 12.9986 349.615 13.2528 353.134 13.1765C356.653 13.1003 359.299 12.9605 361.102 12.7445C362.905 12.5285 364.534 12.1726 366.002 11.6771C367.471 11.1815 368.489 10.6096 369.07 9.96157C369.637 9.3135 369.928 8.64001 369.928 7.92839C369.928 7.21678 369.812 6.68307 369.565 6.32727C369.318 5.97146 368.503 5.36151 367.107 4.51012C365.726 3.65873 364.33 3.01065 362.949 2.5786C361.553 2.14655 359.677 1.72721 357.307 1.29516C354.937 0.863111 352.494 0.545427 349.949 0.329402C347.419 0.113377 343.784 0.0117188 339.044 0.0117188C334.304 0.0117188 328.793 0.0879628 322.497 0.227744L322.511 0.215036Z" fill="#FFFCF9"/>
</svg>
