<svg width="299" height="17" viewBox="0 0 299 17" fill="none" xmlns="http://www.w3.org/2000/svg">
<g clip-path="url(#clip0_108_7250)">
<path d="M166.125 5.71983C166.062 5.67017 166.006 5.62051 165.942 5.57085C165.878 5.52119 165.823 5.47153 165.759 5.42188C165.695 5.47153 165.639 5.52119 165.576 5.57085C165.512 5.62051 165.456 5.67017 165.392 5.71983H166.125Z" fill="#FFC35C"/>
<path d="M299 10.3865C298.936 10.3865 298.881 10.3948 298.817 10.4031C298.657 8.15188 298.387 6.05792 298.387 6.05792C298.387 6.05792 298.331 6.05792 298.235 6.0662C298.275 5.18888 298.036 4.16259 297.773 3.1363C297.159 0.719557 287.008 1.86172 276.116 2.87973C267.415 3.69083 234.746 4.26191 215.599 4.51849H214.921C214.921 4.51849 214.921 4.51849 214.921 4.52676C210.404 4.5847 206.691 4.63436 204.3 4.65091C203.95 4.65091 203.583 4.65091 203.208 4.66746H200.3C200.3 4.66746 200.3 4.70057 200.308 4.71712C199.774 4.7254 199.216 4.74195 198.651 4.75023V4.66746H198.284C198.077 4.66746 197.854 4.70885 197.607 4.77506C193.878 4.8661 189.655 4.98197 185.472 5.12267C185.448 5.12267 185.424 5.12267 185.4 5.12267H184.213V5.16406C183.83 5.17233 183.448 5.18888 183.065 5.20544C183.01 5.13095 182.906 5.08129 182.755 5.05646C182.635 5.03163 182.508 5.0068 182.388 4.98197C182.364 5.06474 182.34 5.1475 182.308 5.23854C181.966 5.24682 181.631 5.26337 181.288 5.27165V4.98197H179.735C178.699 4.98197 178.061 5.05646 177.814 5.20544C177.711 5.27165 177.607 5.32959 177.504 5.3958C177.48 5.3958 177.456 5.3958 177.432 5.3958C177.408 5.32959 177.376 5.26337 177.352 5.20544C177.32 5.13095 177.288 5.05646 177.265 4.98197C177.201 5.05646 177.145 5.13095 177.081 5.20544C176.962 5.35442 176.595 5.35442 175.982 5.20544C175.679 5.13095 175.376 5.05646 175.065 4.98197V5.20544C175.065 5.30476 175.177 5.3958 175.384 5.47029C173.376 5.54478 171.496 5.61099 169.846 5.66892C169.822 5.63582 169.791 5.61099 169.767 5.57788C169.727 5.61099 169.687 5.64409 169.647 5.6772C168.882 5.70203 168.157 5.73514 167.496 5.75997C167.52 5.70203 167.544 5.64409 167.568 5.58616H166.651V5.79307C165.002 5.85928 163.807 5.90067 163.217 5.9255C163.129 5.90067 163.034 5.88411 162.906 5.88411H162.452V6.33932H161.719V6.04137H161.169V6.33932C160.986 6.28966 160.803 6.24 160.619 6.19035C160.253 6.09103 160.038 6.09103 159.982 6.19035C159.95 6.24 159.918 6.28966 159.894 6.33932C159.775 6.26483 159.647 6.19035 159.528 6.11586C159.408 6.04137 159.281 5.96688 159.161 5.89239C159.129 5.96688 159.098 6.04137 159.074 6.11586C159.01 6.26483 157.918 6.36415 155.783 6.41381C153.647 6.46347 152.556 6.53796 152.492 6.63728C152.428 6.7366 152.277 6.78626 152.038 6.78626H151.671V6.4883C151.608 6.53796 151.552 6.58762 151.488 6.63728C151.369 6.7366 150.054 6.78626 147.56 6.78626C145.066 6.78626 143.783 6.7366 143.719 6.63728C143.655 6.53796 142.835 6.4883 141.249 6.4883C139.663 6.4883 138.843 6.43864 138.779 6.33932C138.715 6.24 138.532 6.21518 138.229 6.26483C138.078 6.28966 137.926 6.31449 137.775 6.33932V6.04137C137.504 6.11586 137.225 6.19035 136.954 6.26483C136.405 6.41381 135.982 6.41381 135.672 6.26483C135.393 6.13241 135.098 6.0993 134.771 6.16552C133.719 5.69375 131.13 5.26337 127.464 4.85782C127.464 4.85782 127.456 4.84127 127.449 4.83299C127.417 4.78333 127.385 4.73368 127.361 4.68402C127.329 4.73368 127.297 4.78333 127.273 4.83299C113.807 3.35977 86.3096 2.23416 67.7521 1.10855C43.8082 -0.356392 14.215 -0.199138 8.71703 0.587133C8.71703 0.587133 2.91631 0.843705 1.20319 1.72929C-0.501967 2.62316 -0.135438 9.10369 0.71714 12.7867C1.13148 14.5828 1.64143 15.4021 2.50198 15.7415C2.47011 15.9484 2.50995 16.1222 2.62947 16.2463C2.81273 16.445 3.05974 16.5443 3.36252 16.5443C3.66531 16.5443 4.03184 16.4201 4.46211 16.1718C4.89238 15.9235 7.41825 15.6918 12.0477 15.4932C16.6771 15.2945 19.0197 15.1456 19.0834 15.0462C19.1153 14.9966 19.1472 14.9469 19.1711 14.8973C19.2348 14.9469 19.2906 14.9966 19.3543 15.0462C19.4739 15.1456 19.936 15.1952 20.7248 15.1952C21.5137 15.1952 21.9758 15.1456 22.0953 15.0462C22.2149 14.9469 23.434 14.8724 25.7527 14.8228C28.0714 14.7731 29.3781 14.6986 29.6809 14.5993C29.9837 14.5 30.6849 14.4752 31.7845 14.5248C32.884 14.5745 33.6729 14.5496 34.1589 14.4503C34.4059 14.4007 34.645 14.351 34.892 14.3013V14.5993C35.6569 14.5745 36.4139 14.5496 37.1788 14.5248C38.7007 14.4752 39.4975 14.5 39.5533 14.5993C39.617 14.6986 39.9198 14.7483 40.4696 14.7483C41.0194 14.7483 41.3222 14.6986 41.3859 14.5993C41.4178 14.5496 41.4497 14.5 41.4736 14.4503C41.5612 14.5 41.6568 14.5496 41.7445 14.5993C41.9277 14.6986 42.2305 14.7483 42.6608 14.7483C43.0911 14.7483 43.3301 14.6986 43.3939 14.5993C43.4576 14.5 43.7604 14.5 44.3102 14.5993C44.86 14.6986 45.3142 14.6986 45.6807 14.5993C46.0472 14.5 46.3181 14.5 46.5014 14.5993C46.6847 14.6986 46.9317 14.6986 47.2344 14.5993C47.5372 14.5 47.9356 14.5 48.4217 14.5993C48.9077 14.6986 49.6727 14.6986 50.7085 14.5993C51.7444 14.5 52.2941 14.5 52.3499 14.5993C52.4137 14.6986 52.6208 14.7483 52.9874 14.7483C53.3539 14.7483 53.5929 14.6986 53.7204 14.5993C53.7842 14.5496 53.8399 14.5 53.9037 14.4503C53.9356 14.5248 53.9674 14.5993 53.9913 14.6738C54.0551 14.8228 55.816 14.8724 59.2901 14.8228C62.7641 14.7731 64.5888 14.8228 64.7721 14.9717C64.9553 15.1207 65.5051 15.1456 66.4135 15.0462C67.3298 14.9469 67.8477 14.9717 67.9672 15.1207C68.0868 15.2697 69.5848 15.3442 72.4453 15.3442C75.3058 15.3442 76.7719 15.3938 76.8357 15.4932C76.8675 15.5428 76.8994 15.5925 76.9233 15.6421C77.0428 15.5925 77.1703 15.5428 77.2898 15.4932C77.5368 15.3938 77.9591 15.3442 78.5727 15.3442C79.1862 15.3442 79.5448 15.3938 79.6723 15.4932C79.7918 15.5925 80.6444 15.5925 82.23 15.4932C83.8156 15.3938 84.6363 15.3938 84.7001 15.4932C84.7638 15.5925 85.9829 15.667 88.3574 15.7166C90.7319 15.7663 92.2538 15.7663 92.9231 15.7166C93.5924 15.667 93.9589 15.5925 94.0227 15.4932C94.0864 15.3938 94.2697 15.3442 94.5725 15.3442C94.8753 15.3442 95.0585 15.3938 95.1223 15.4932C95.1541 15.5428 95.186 15.5925 95.2099 15.6421C95.2737 15.5925 95.3294 15.5428 95.3932 15.4932C95.5127 15.3938 95.696 15.3938 95.943 15.4932C96.19 15.5925 96.7637 15.6421 97.68 15.6421C98.5963 15.6421 99.1142 15.5925 99.2338 15.4932C99.2975 15.4435 99.3533 15.3939 99.417 15.3442V15.6421H102.254C104.142 15.6421 105.266 15.6918 105.632 15.7911C105.999 15.8904 107.584 15.9153 110.381 15.8656C113.186 15.816 114.676 15.8408 114.859 15.9401C115.042 16.0394 115.313 16.0394 115.68 15.9401C116.046 15.8408 116.317 15.8408 116.5 15.9401C116.684 16.0394 116.955 16.0394 117.321 15.9401C117.688 15.8408 117.959 15.8408 118.142 15.9401C118.23 15.9898 118.325 16.0394 118.413 16.0891C118.445 16.0394 118.477 15.9898 118.5 15.9401C118.564 15.8408 119.018 15.7911 119.871 15.7911C120.724 15.7911 121.178 15.8408 121.241 15.9401C121.305 16.0394 123.098 16.1387 126.636 16.2381C130.166 16.3374 132.484 16.387 133.584 16.387H135.225V16.0891H135.592C135.839 16.0891 136.293 16.1139 136.962 16.1636C137.632 16.2132 137.998 16.2877 138.062 16.387C138.126 16.4864 138.46 16.536 139.066 16.536H139.982V16.2381C140.134 16.2877 140.285 16.3374 140.436 16.387C140.739 16.4864 141.018 16.4864 141.257 16.387C141.377 16.3374 141.504 16.2877 141.624 16.2381V16.387C141.624 16.4864 141.743 16.5608 141.99 16.6105C142.237 16.6602 142.572 16.6602 142.994 16.6105C143.424 16.5608 143.663 16.4864 143.727 16.387C143.759 16.3374 143.791 16.2877 143.815 16.2381C143.879 16.2877 143.934 16.3374 143.998 16.387C144.118 16.4864 144.269 16.4864 144.452 16.387C144.636 16.2877 144.819 16.2877 145.002 16.387C145.185 16.4864 145.608 16.4864 146.285 16.387C146.954 16.2877 147.321 16.3125 147.385 16.4615C147.416 16.536 147.448 16.6105 147.472 16.685C147.536 16.6105 147.592 16.536 147.655 16.4615C147.775 16.3125 148.11 16.2381 148.659 16.2381C149.209 16.2381 149.512 16.3125 149.576 16.4615C149.608 16.536 149.639 16.6105 149.663 16.685C149.727 16.6105 149.783 16.536 149.847 16.4615C149.91 16.387 149.966 16.3125 150.03 16.2381C150.149 16.3125 150.277 16.387 150.396 16.4615C150.643 16.6105 151.281 16.685 152.317 16.685C153.353 16.685 153.902 16.6105 153.958 16.4615C153.99 16.387 154.022 16.3125 154.046 16.2381V16.6933C154.229 16.6684 154.412 16.6436 154.596 16.6188C154.962 16.5691 155.36 16.6188 155.783 16.7678C156.205 16.9167 156.572 16.9912 156.882 16.9912H157.337V16.6933C157.488 16.7429 157.639 16.7926 157.791 16.8422C158.094 16.9416 158.341 16.9416 158.524 16.8422C158.707 16.7429 159.225 16.7429 160.078 16.8422C160.93 16.9416 161.384 16.9416 161.448 16.8422C161.512 16.7429 161.751 16.6684 162.181 16.6188C162.611 16.5691 163.217 16.5939 164.006 16.6933C164.404 16.7429 164.795 16.7926 165.193 16.8422V16.5443H165.743C166.109 16.5443 166.324 16.4946 166.38 16.3953C166.444 16.296 166.779 16.296 167.384 16.3953C167.99 16.4946 168.42 16.4698 168.667 16.3208C168.914 16.1718 169.488 16.1222 170.404 16.1718C171.32 16.2215 172.077 16.2215 172.691 16.1718C173.297 16.1222 173.639 16.0477 173.695 15.9484C173.759 15.8491 173.91 15.7994 174.149 15.7994C174.388 15.7994 174.571 15.8739 174.699 16.0229C174.763 16.0974 174.818 16.1718 174.882 16.2463C174.946 16.1718 175.002 16.0974 175.065 16.0229C175.185 15.8739 176.038 15.7994 177.623 15.7994C179.209 15.7994 180.181 15.7249 180.547 15.5759C180.914 15.427 181.798 15.4021 183.201 15.5014C184.603 15.6008 185.336 15.6008 185.392 15.5014C185.456 15.4021 186.213 15.3276 187.679 15.278C188.412 15.2531 189.145 15.2283 189.87 15.2035V15.5014C190.539 15.4766 191.209 15.4518 191.878 15.427C193.217 15.3773 193.981 15.4021 194.165 15.5014C194.348 15.6008 194.651 15.5759 195.081 15.427C195.511 15.278 195.814 15.278 195.997 15.427C196.085 15.5014 196.181 15.5759 196.268 15.6504C196.356 15.5759 196.452 15.5014 196.539 15.427C196.627 15.3525 196.723 15.278 196.81 15.2035C196.874 15.2531 196.93 15.3028 196.993 15.3525C197.057 15.4021 197.113 15.4518 197.177 15.5014C197.209 15.4518 197.24 15.4021 197.264 15.3525C197.328 15.2531 197.631 15.1787 198.181 15.129C198.73 15.0793 199.216 15.1042 199.639 15.2035C200.069 15.3028 200.46 15.2531 200.826 15.0545C201.193 14.8559 201.83 14.7566 202.746 14.7566C203.663 14.7566 204.212 14.8062 204.388 14.9055C204.475 14.9552 204.571 15.0049 204.659 15.0545C204.627 14.9552 204.595 14.8559 204.571 14.7566C204.539 14.6572 204.507 14.5579 204.483 14.4586C204.882 14.5331 205.272 14.6076 205.671 14.6821C206.459 14.831 206.922 14.8062 207.041 14.6076C207.161 14.4089 207.527 14.3096 208.141 14.3096C208.754 14.3096 209.089 14.3841 209.145 14.5331C209.177 14.6076 209.208 14.6821 209.232 14.7566C209.32 14.7317 209.416 14.7069 209.503 14.6821C209.543 14.6738 209.583 14.6655 209.623 14.6572C209.591 14.6738 209.567 14.6903 209.535 14.7069C209.535 14.7069 209.647 14.7069 209.87 14.6986C209.902 14.7152 209.934 14.7317 209.965 14.7566C210.085 14.8559 210.236 14.9055 210.42 14.9055H210.69V14.6821C211.312 14.6655 212.157 14.649 213.184 14.6407C213.392 14.7069 213.686 14.7235 214.069 14.6821C214.26 14.6655 214.427 14.6407 214.555 14.6159C215.431 14.6076 216.396 14.5993 217.439 14.591C217.503 14.6407 217.567 14.6986 217.631 14.7483C217.662 14.6986 217.694 14.6407 217.726 14.591C220.73 14.5827 224.3 14.6076 228.005 14.6986C237.67 14.9552 278.164 17.2395 287.837 16.9829C297.502 16.7264 297.136 16.2215 298.363 15.8408C298.777 15.7084 298.912 14.5579 298.904 13.093H298.976C298.952 13.035 298.928 12.9771 298.904 12.9192C298.904 12.315 298.873 11.6611 298.833 11.0073C298.928 10.8335 298.976 10.7093 298.976 10.61V10.3865H299ZM26.3901 6.0993C26.5734 6.04964 26.7248 6.07447 26.8443 6.17379C26.908 6.22345 26.9638 6.27311 27.0275 6.32277C26.9399 6.39726 26.8443 6.47175 26.7566 6.54624C26.669 6.62073 26.5734 6.69521 26.4857 6.7697C26.422 6.67038 26.3662 6.57107 26.3025 6.47175C26.2387 6.37243 26.1829 6.27311 26.1192 6.17379C26.2068 6.14896 26.3025 6.12413 26.3901 6.0993ZM25.5694 6.02482H25.7527C25.7208 6.07447 25.6889 6.12413 25.665 6.17379C25.6331 6.22345 25.6013 6.27311 25.5774 6.32277C25.5455 6.27311 25.5136 6.22345 25.4897 6.17379C25.4578 6.12413 25.426 6.07447 25.4021 6.02482H25.5853H25.5694ZM23.928 6.02482H24.2945V6.77798C24.2069 6.75315 24.1113 6.72832 24.0236 6.70349C23.8403 6.65383 23.7208 6.52968 23.6571 6.33105C23.6252 6.23173 23.5933 6.13241 23.5694 6.03309H23.936L23.928 6.02482ZM17.7129 5.42063V5.27165H18.6293V5.56961H17.7129V5.42063ZM16.2468 5.27165C16.4938 5.27165 16.6452 5.34614 16.701 5.49512C16.7329 5.56961 16.7647 5.64409 16.7886 5.71858C16.701 5.74341 16.6054 5.76824 16.5177 5.79307C16.3345 5.84273 16.1831 5.76824 16.0636 5.56961C15.9998 5.47029 15.944 5.37097 15.8803 5.27165H16.2468ZM14.1433 5.42063C14.207 5.32131 14.3265 5.27165 14.5098 5.27165H14.7807V5.72686C14.6612 5.70203 14.5337 5.6772 14.4142 5.65237C14.2946 5.62754 14.1672 5.60271 14.0476 5.57788C14.0795 5.52822 14.1114 5.47856 14.1353 5.4289L14.1433 5.42063ZM13.3225 6.69521V6.47175H13.6891V6.91868H13.3225V6.69521ZM13.1393 7.52287V7.37389H13.6891V7.67185H13.1393V7.52287ZM11.4979 5.86756V5.71858C11.6493 5.76824 11.8007 5.8179 11.9521 5.86756C12.1034 5.91722 12.2548 5.96688 12.4062 6.01654H11.4899V5.86756H11.4979ZM9.02779 7.07593C8.96404 7.17525 8.84452 7.20008 8.66126 7.15042C8.57361 7.12559 8.47799 7.10076 8.39035 7.07593C8.42222 7.00145 8.45409 6.92696 8.47799 6.85247C8.50987 6.77798 8.54174 6.70349 8.56564 6.629C8.65329 6.67866 8.74891 6.72832 8.83655 6.77798C9.01982 6.8773 9.08356 6.97662 9.01982 7.07593H9.02779ZM8.02382 6.17379C8.05569 6.22345 8.08756 6.27311 8.11146 6.32277C8.14334 6.37243 8.17521 6.42209 8.19911 6.47175H7.93617L7.96804 6.24828C7.96804 6.24828 7.99991 6.19035 8.01585 6.16552L8.02382 6.17379ZM7.77681 7.77116C7.85649 7.83738 7.94414 7.91186 8.02382 7.97808C7.9282 8.01118 7.83258 8.04429 7.73697 8.0774L7.77681 7.77944V7.77116ZM7.9282 13.8379H7.65729C7.68916 13.7882 7.72103 13.7385 7.74494 13.6889C7.77681 13.6392 7.80868 13.5896 7.83258 13.5399C7.89633 13.5896 7.9521 13.6392 8.01585 13.6889C8.07959 13.7385 8.13537 13.7882 8.19911 13.8379H7.9282ZM8.47799 8.88022C8.44612 8.92988 8.41425 8.97954 8.39035 9.0292C8.35847 8.97954 8.3266 8.92988 8.3027 8.88022C8.27083 8.83056 8.23895 8.7809 8.21505 8.73124H8.58158C8.54971 8.7809 8.51783 8.83056 8.49393 8.88022H8.47799ZM9.57758 8.80573C9.14731 8.85539 8.81265 8.73124 8.57361 8.43329C8.45409 8.28431 8.3266 8.13533 8.20708 7.97808H8.75687C9.1234 7.97808 9.45806 8.10223 9.76085 8.35052C9.91224 8.47467 10.0636 8.59882 10.215 8.73124C9.99989 8.75607 9.79272 8.7809 9.57758 8.80573ZM9.84849 7.22491V6.62073C9.96801 6.67038 10.0955 6.72004 10.215 6.7697C10.3345 6.81936 10.462 6.86902 10.5816 6.91868C10.462 6.96834 10.3345 7.018 10.215 7.06766C10.0955 7.11732 9.96801 7.16698 9.84849 7.21664V7.22491ZM10.6692 8.27603H10.3983V7.97808C10.4859 8.02774 10.5816 8.0774 10.6692 8.12705C10.7568 8.17671 10.8525 8.22637 10.9401 8.27603H10.6692ZM10.9481 6.02482H10.5816C10.6134 5.97516 10.6453 5.9255 10.6692 5.87584C10.7011 5.82618 10.7329 5.77652 10.7568 5.72686C10.8445 5.77652 10.9401 5.82618 11.0278 5.87584C11.1154 5.9255 11.211 5.97516 11.2987 6.02482H10.9321H10.9481ZM12.223 13.093V13.242C12.1353 13.1923 12.0397 13.1426 11.9521 13.093C11.8644 13.0433 11.7688 12.9937 11.6811 12.944H12.2309V13.093H12.223ZM12.7728 7.15042C12.8923 7.2994 12.956 7.44838 12.956 7.60563V7.8291H12.5895C12.6214 7.95325 12.6532 8.0774 12.6771 8.20154C12.709 8.32569 12.7409 8.44984 12.7648 8.58226H12.0317V6.92696H11.4819C11.5138 6.85247 11.5457 6.77798 11.5696 6.70349C11.6333 6.55451 11.8724 6.50485 12.3026 6.55451C12.5178 6.57934 12.7329 6.60417 12.9401 6.629C12.8763 6.67866 12.8206 6.72832 12.7568 6.77798C12.6373 6.8773 12.6373 7.00145 12.7568 7.1587L12.7728 7.15042ZM13.6891 13.3909H13.3225C13.3863 13.2916 13.4421 13.1923 13.5058 13.093C13.5696 12.9937 13.6253 12.8943 13.6891 12.795C13.7528 12.8943 13.8086 12.9937 13.8723 13.093C13.9361 13.1923 13.9919 13.2916 14.0556 13.3909H13.6891ZM13.96 8.58226C13.7449 8.63192 13.5377 8.68158 13.3225 8.73124C13.2907 8.60709 13.2588 8.48295 13.2349 8.35052C13.203 8.22637 13.1712 8.10223 13.1473 7.97808H13.6014C13.9042 7.97808 14.0875 7.90359 14.1512 7.75461C14.1831 7.68012 14.215 7.60563 14.2389 7.53114C14.3026 7.55597 14.3584 7.5808 14.4221 7.60563C14.5417 7.65529 14.6054 7.80427 14.6054 8.05257C14.6054 8.30086 14.3903 8.48295 13.968 8.58226H13.96ZM14.8763 6.69521C14.7249 6.72004 14.5735 6.74487 14.4221 6.7697C14.454 6.67038 14.4859 6.57107 14.5098 6.47175C14.5417 6.37243 14.5735 6.27311 14.5974 6.17379C14.717 6.24828 14.8444 6.32277 14.964 6.39726C15.0835 6.47175 15.211 6.54624 15.3305 6.62073C15.1791 6.64556 15.0277 6.67038 14.8763 6.69521ZM15.697 7.97808H16.2468V8.58226H16.0636C15.944 8.58226 15.8484 8.48295 15.7926 8.28431C15.7608 8.18499 15.7289 8.08567 15.705 7.98635L15.697 7.97808ZM16.1592 13.3909H15.8883V13.093C15.9759 13.1426 16.0715 13.1923 16.1592 13.242C16.2468 13.2916 16.3424 13.3413 16.4301 13.3909H16.1592ZM16.9799 7.97808V8.27603C16.8922 8.2512 16.7966 8.22637 16.709 8.20154C16.6213 8.17671 16.5257 8.15188 16.438 8.12705C16.4699 8.05257 16.5018 7.97808 16.5257 7.90359C16.5894 7.75461 16.6771 7.68012 16.7966 7.68012H16.9799V7.97808ZM16.2468 6.69521C16.1273 6.54624 16.1273 6.42209 16.2468 6.32277C16.3663 6.22345 16.6452 6.14896 17.0675 6.0993C17.4978 6.04964 18.1034 6.04964 18.8922 6.0993C19.681 6.14896 20.1113 6.22345 20.175 6.32277C20.2069 6.37243 20.2388 6.42209 20.2627 6.47175H19.5296C19.5615 6.54624 19.5934 6.62073 19.6173 6.69521C19.6492 6.7697 19.681 6.84419 19.7049 6.91868H19.434C19.2508 6.91868 19.0994 6.84419 18.9798 6.69521C18.8603 6.54624 18.5814 6.47175 18.1591 6.47175C17.7368 6.47175 17.3384 6.54624 16.9719 6.69521C16.6054 6.84419 16.3663 6.84419 16.2388 6.69521H16.2468ZM17.7129 8.12705V7.97808H17.9838C18.1671 7.97808 18.3185 8.05257 18.438 8.20154C18.5018 8.27603 18.5575 8.35052 18.6213 8.42501C18.4699 8.40018 18.3185 8.37535 18.1671 8.35052C17.8643 8.30086 17.7129 8.22637 17.7129 8.12705ZM19.1711 13.1675V13.3909C19.0834 13.3164 18.9878 13.242 18.9002 13.1675C18.8125 13.093 18.7169 13.0185 18.6293 12.944H19.179V13.1675H19.1711ZM19.9041 7.97808C19.9041 8.17671 19.8165 8.30086 19.6332 8.35052C19.5456 8.37535 19.45 8.40018 19.3623 8.42501C19.3304 8.35052 19.2986 8.27603 19.2747 8.20154C19.2109 8.05257 19.2428 7.92842 19.3623 7.8291C19.4818 7.72978 19.6093 7.68012 19.7288 7.68012H19.9121V7.97808H19.9041ZM20.4539 7.22491V7.37389H19.5376C19.5695 7.32423 19.6014 7.27457 19.6253 7.22491C19.689 7.12559 19.8404 7.07593 20.0794 7.07593H20.446V7.22491H20.4539ZM20.6372 6.32277V6.02482C20.7248 6.04964 20.8205 6.07447 20.9081 6.0993C20.9958 6.12413 21.0914 6.14896 21.179 6.17379C21.0914 6.19862 20.9958 6.22345 20.9081 6.24828C20.8205 6.27311 20.7248 6.29794 20.6372 6.32277ZM21.2746 12.9357H21.0037C21.0356 12.8861 21.0675 12.8364 21.0914 12.7867C21.1232 12.7371 21.1551 12.6874 21.179 12.6378C21.2428 12.6874 21.2985 12.7371 21.3623 12.7867C21.426 12.8364 21.4818 12.8861 21.5455 12.9357H21.2746ZM21.7288 6.24828V6.02482C21.8165 6.04964 21.9121 6.07447 21.9997 6.0993C22.0874 6.12413 22.183 6.14896 22.2706 6.17379C22.2388 6.22345 22.2069 6.27311 22.183 6.32277C22.1192 6.42209 22.0316 6.47175 21.9121 6.47175H21.7288V6.24828ZM23.4658 13.093C23.3782 13.1426 23.2826 13.1923 23.1949 13.242C23.2268 13.1675 23.2587 13.093 23.2826 13.0185C23.3144 12.944 23.3463 12.8695 23.3702 12.795C23.434 12.8198 23.4897 12.8447 23.5535 12.8695C23.6172 12.8943 23.673 12.9192 23.7368 12.944C23.6491 12.9937 23.5535 13.0433 23.4658 13.093ZM24.4698 7.59736V7.82082H23.92C23.9519 7.89531 23.9838 7.9698 24.0077 8.04429C24.0395 8.11878 24.0714 8.19327 24.0953 8.26776H23.4579C23.0276 8.26776 22.669 8.16844 22.3583 7.9698C22.2069 7.87048 22.0555 7.77116 21.9041 7.67185H22.7248C23.2746 7.67185 23.5774 7.62219 23.6411 7.52287C23.7049 7.42355 23.8563 7.37389 24.0953 7.37389H24.4618V7.59736H24.4698ZM28.0395 7.67185C27.9757 7.87048 27.7048 7.99463 27.2188 8.04429C26.9718 8.06912 26.7327 8.09395 26.4857 8.11878C26.5176 8.01946 26.5495 7.92014 26.5734 7.82082C26.6052 7.7215 26.6371 7.62219 26.661 7.52287H26.2945C26.0475 7.52287 25.7766 7.64702 25.4738 7.89531C25.3224 8.01946 25.171 8.14361 25.0196 8.27603C25.0515 8.10223 25.0834 7.92842 25.1073 7.74633C25.171 7.39872 25.4419 7.16698 25.928 7.06766C26.414 6.96834 26.9001 6.99317 27.3861 7.14215C27.8722 7.29112 28.0873 7.46493 28.0235 7.67185H28.0395ZM29.6809 7.90359C29.6172 8.05257 29.5295 8.12705 29.41 8.12705C29.2905 8.12705 29.1948 8.00291 29.1391 7.74633C29.0753 7.49804 28.9558 7.37389 28.7725 7.37389H28.5016C28.5654 7.24974 28.6212 7.12559 28.6849 7.00145C28.8044 6.75315 28.9319 6.62073 29.0514 6.62073H29.2347V7.00145C29.2347 7.24974 29.3223 7.42355 29.5056 7.53114C29.6889 7.63046 29.7526 7.75461 29.6889 7.90359H29.6809ZM30.2307 7.67185H29.9598V7.06766H30.143C30.2626 7.06766 30.3582 7.16698 30.414 7.36561C30.4458 7.46493 30.4777 7.56425 30.5016 7.66357H30.2307V7.67185ZM32.7008 7.67185C32.5813 7.62219 32.4538 7.57253 32.3343 7.52287C32.0872 7.42355 31.8801 7.42355 31.6968 7.52287C31.6092 7.57253 31.5135 7.62219 31.4259 7.67185C31.3621 7.59736 31.3064 7.52287 31.2426 7.44838C31.1231 7.2994 31.1231 7.15042 31.2426 6.99317C31.3622 6.84419 31.641 6.84419 32.0633 6.99317C32.4936 7.14215 32.7008 7.29112 32.7008 7.44838V7.67185ZM32.7008 5.56961H32.3343C32.3661 5.51995 32.398 5.47029 32.4219 5.42063C32.4538 5.37097 32.4856 5.32131 32.5095 5.27165C32.5972 5.32131 32.6928 5.37097 32.7805 5.42063C32.8681 5.47029 32.9637 5.51995 33.0514 5.56961H32.6848H32.7008ZM34.3422 7.67185H33.7924V6.91868C33.88 6.94351 33.9757 6.96834 34.0633 6.99317C34.2466 7.04283 34.3342 7.16698 34.3342 7.36561V7.66357L34.3422 7.67185ZM35.4418 12.6378V12.7867H34.892V12.4888H35.4418V12.6378ZM37.0832 6.62073C37.0832 6.72004 36.9318 6.86902 36.629 7.07593C36.4776 7.17525 36.3262 7.27457 36.1748 7.37389C36.2067 7.22491 36.2386 7.07593 36.2625 6.91868C36.3262 6.62073 36.4776 6.47175 36.7167 6.47175H37.0832V6.62073ZM36.8999 6.02482H36.7167C36.7485 5.97516 36.7804 5.9255 36.8043 5.87584C36.8362 5.82618 36.8681 5.77652 36.892 5.72686C36.9238 5.77652 36.9557 5.82618 36.9796 5.87584C37.0115 5.9255 37.0434 5.97516 37.0673 6.02482H36.884H36.8999ZM37.2665 7.37389V6.47175H37.633V7.37389H37.2665ZM38.366 12.5633C38.2465 12.7123 38.119 12.7867 37.9995 12.7867C37.88 12.7867 37.7844 12.6626 37.7286 12.406C37.6967 12.2819 37.6649 12.1577 37.641 12.0336C37.7047 12.1081 37.7605 12.1826 37.8242 12.257C37.9437 12.406 38.0951 12.4557 38.2784 12.406C38.366 12.3812 38.4617 12.3564 38.5493 12.3315C38.4856 12.406 38.4298 12.4805 38.366 12.555V12.5633ZM38.637 7.52287C38.4218 7.47321 38.2067 7.42355 37.9995 7.37389C38.0872 7.24974 38.1828 7.12559 38.2704 7.00145C38.4537 6.75315 38.637 6.65383 38.8202 6.70349C39.0035 6.75315 39.123 6.92696 39.1867 7.23319C39.2186 7.38217 39.2505 7.53114 39.2744 7.6884C39.0593 7.63874 38.8441 7.58908 38.637 7.53942V7.52287ZM40.1907 7.59736C40.127 7.57253 40.0712 7.5477 40.0075 7.52287C40.0393 7.47321 40.0712 7.42355 40.0951 7.37389C40.127 7.32423 40.1588 7.27457 40.1828 7.22491C40.2146 7.2994 40.2465 7.37389 40.2704 7.44838C40.3023 7.52287 40.3341 7.59736 40.358 7.67185C40.2943 7.64702 40.2385 7.62219 40.1748 7.59736H40.1907ZM42.2943 5.86756C42.3261 5.8179 42.358 5.76824 42.3819 5.71858C42.4696 5.76824 42.5652 5.8179 42.6528 5.86756C42.7405 5.91722 42.8361 5.96688 42.9237 6.01654H42.1907C42.2226 5.96688 42.2544 5.91722 42.2783 5.86756H42.2943ZM42.7485 6.92696H42.3819C42.4138 6.8773 42.4457 6.82764 42.4696 6.77798C42.5014 6.72832 42.5333 6.67866 42.5572 6.629C42.5891 6.67866 42.621 6.72832 42.6449 6.77798C42.6767 6.82764 42.7086 6.8773 42.7325 6.92696H42.7485ZM40.5572 6.02482C40.5891 5.97516 40.621 5.9255 40.6449 5.87584C40.7086 5.77652 40.86 5.72686 41.0991 5.72686H41.4656V6.02482H40.5493H40.5572ZM41.1947 7.37389C41.1628 7.27457 41.1309 7.17525 41.107 7.07593H41.5612C41.864 7.07593 42.111 7.15042 42.2943 7.2994C42.3819 7.37389 42.4775 7.44838 42.5652 7.52287C42.3501 7.5477 42.1349 7.57253 41.9277 7.59736C41.4975 7.64702 41.2584 7.57253 41.1947 7.37389ZM43.7524 12.5633C43.7206 12.6378 43.6887 12.7123 43.6648 12.7867C43.5771 12.7123 43.4815 12.6378 43.3939 12.5633C43.3062 12.4888 43.2106 12.4143 43.1229 12.3398V12.795H42.5732C42.605 12.6709 42.6369 12.5467 42.6608 12.4143C42.6927 12.2902 42.7246 12.166 42.7485 12.0419C42.9317 12.0915 43.115 12.1412 43.2982 12.1908C43.4815 12.2405 43.6648 12.2902 43.848 12.3398C43.8162 12.4143 43.7843 12.4888 43.7604 12.5633H43.7524ZM43.7524 6.02482H43.4815C43.5134 5.97516 43.5453 5.9255 43.5692 5.87584C43.601 5.82618 43.6329 5.77652 43.6568 5.72686C43.7206 5.77652 43.7763 5.82618 43.8401 5.87584C43.9038 5.9255 43.9596 5.97516 44.0233 6.02482H43.7524ZM44.7644 6.7697V6.62073C44.852 6.67038 44.9476 6.72004 45.0353 6.7697C45.1229 6.81936 45.2185 6.86902 45.3062 6.91868H44.7564V6.7697H44.7644ZM45.4895 12.2653V12.4888H45.2185C45.0353 12.4888 44.9158 12.4143 44.852 12.2653C44.8201 12.1908 44.7883 12.1163 44.7644 12.0419H45.4974V12.2653H45.4895ZM47.3221 6.02482H47.5054C47.4735 6.07447 47.4416 6.12413 47.4177 6.17379C47.3858 6.22345 47.354 6.27311 47.3301 6.32277C47.2982 6.27311 47.2663 6.22345 47.2424 6.17379C47.2105 6.12413 47.1787 6.07447 47.1548 6.02482H47.338H47.3221ZM46.2225 6.02482H46.4058C46.3739 6.07447 46.342 6.12413 46.3181 6.17379C46.2863 6.22345 46.2544 6.27311 46.2305 6.32277C46.1986 6.27311 46.1667 6.22345 46.1428 6.17379C46.111 6.12413 46.0791 6.07447 46.0552 6.02482H46.2384H46.2225ZM47.4097 12.6378C47.1946 12.5881 46.9795 12.5384 46.7723 12.4888C46.8042 12.4391 46.836 12.3895 46.86 12.3398C46.9237 12.2405 47.107 12.2157 47.4097 12.2653C47.7125 12.315 47.8958 12.4143 47.9595 12.5633C47.9914 12.6378 48.0233 12.7123 48.0472 12.7867C47.8321 12.7371 47.6169 12.6874 47.4097 12.6378ZM48.3261 7.52287C48.2942 7.42355 48.2623 7.32423 48.2384 7.22491V7.8291H47.601C47.1707 7.8291 46.8998 7.77944 46.7803 7.68012C46.6608 7.5808 46.5094 7.5808 46.3261 7.68012C46.2384 7.72978 46.1428 7.77944 46.0552 7.8291V6.92696C46.3261 6.97662 46.605 7.02628 46.8759 7.07593C47.4257 7.17525 47.7285 7.17525 47.7922 7.07593C47.856 6.97662 48.0392 6.95179 48.342 7.00145C48.4934 7.02628 48.6448 7.05111 48.7962 7.07593V6.62073H49.346V6.84419C49.346 6.99317 49.4336 7.09249 49.6169 7.14215C49.8002 7.19181 49.8878 7.31595 49.8878 7.51459V7.81255H49.1547C48.6687 7.81255 48.3898 7.71323 48.334 7.51459L48.3261 7.52287ZM49.5133 12.8612C49.0273 12.8116 48.7245 12.7123 48.597 12.5633C48.5332 12.4888 48.4775 12.4143 48.4137 12.3398C48.5014 12.2902 48.597 12.2405 48.6846 12.1908C48.8679 12.0915 49.0193 12.0419 49.1388 12.0419H49.3221V12.646C49.4416 12.5964 49.5691 12.5467 49.6886 12.4971C49.8081 12.4474 49.9356 12.3977 50.0551 12.3481C50.087 12.4474 50.1189 12.5467 50.1428 12.646C50.1746 12.7454 50.2065 12.8447 50.2304 12.944C49.9834 12.9192 49.7444 12.8943 49.4974 12.8695L49.5133 12.8612ZM50.9715 12.6378V12.7867H50.4217V12.4888H50.9715V12.6378ZM51.9834 12.7123C51.832 12.7371 51.6806 12.7619 51.5292 12.7867V12.3315C51.6806 12.3812 51.832 12.4309 51.9834 12.4805C52.1348 12.5302 52.2862 12.5798 52.4376 12.6295C52.2862 12.6543 52.1348 12.6791 51.9834 12.704V12.7123ZM53.4415 12.8612C53.2583 12.8116 53.1945 12.6874 53.2583 12.4888C53.2901 12.3895 53.322 12.2902 53.3459 12.1908C53.4097 12.315 53.4654 12.4391 53.5292 12.5633C53.5929 12.6874 53.6487 12.8116 53.7125 12.944C53.6248 12.9192 53.5292 12.8943 53.4415 12.8695V12.8612ZM53.2583 7.59736C53.0431 7.52287 52.828 7.44838 52.6208 7.37389V7.8291H52.3499C52.1667 7.8291 51.9834 7.75461 51.8001 7.60563C51.7125 7.53114 51.6169 7.45666 51.5292 7.38217V7.83738H51.346C51.2264 7.83738 51.075 7.71323 50.8918 7.46493C50.7085 7.21664 50.6448 7.00972 50.7085 6.86074C50.7723 6.71177 50.9236 6.63728 51.1627 6.63728H51.5292V7.24147C51.9834 7.19181 52.4455 7.14215 52.8997 7.09249C53.3539 7.04283 53.816 6.99317 54.2702 6.94351V7.39872H54.4535C54.573 7.39872 54.7005 7.34906 54.82 7.24974C54.8838 7.20008 54.9395 7.15042 55.0033 7.10076C55.0351 7.20008 55.067 7.2994 55.0909 7.39872C55.1228 7.49804 55.1547 7.59736 55.1786 7.69667C54.9634 7.7215 54.7483 7.74633 54.5411 7.77116C54.1109 7.82082 53.6885 7.77116 53.2583 7.62219V7.59736ZM55.2742 12.9357C55.1865 12.8364 55.0909 12.7371 55.0033 12.6378H55.1865C55.3061 12.6378 55.4017 12.7371 55.4575 12.9357C55.4893 13.035 55.5212 13.1344 55.5451 13.2337C55.4575 13.1344 55.3618 13.035 55.2742 12.9357ZM55.5451 7.8291C55.6088 7.70495 55.6646 7.5808 55.7284 7.45666C55.7921 7.33251 55.8479 7.20836 55.9116 7.07593C55.9993 7.17525 56.0949 7.27457 56.1825 7.37389C56.2702 7.47321 56.3658 7.57253 56.4535 7.67185C56.3021 7.69668 56.1507 7.7215 55.9993 7.74633C55.8479 7.77116 55.6965 7.79599 55.5451 7.82082V7.8291ZM56.5491 13.242H56.0949V12.4888C56.2463 12.6129 56.3977 12.7371 56.5491 12.8612C56.7005 12.9854 56.8519 13.1095 57.0032 13.2337H56.5491V13.242ZM57.2821 7.59736C57.0989 7.64702 56.9793 7.62219 56.9156 7.52287C56.8837 7.47321 56.8519 7.42355 56.8279 7.37389C56.9475 7.39872 57.075 7.42355 57.1945 7.44838C57.314 7.47321 57.4415 7.49804 57.561 7.52287C57.4734 7.5477 57.3777 7.57253 57.2901 7.59736H57.2821ZM59.1068 8.05257C58.804 8.10222 58.5889 8.00291 58.4694 7.75461C58.4056 7.63046 58.3498 7.50631 58.2861 7.38217C58.4694 7.407 58.6526 7.43183 58.8359 7.45666C59.2024 7.50631 59.4176 7.60563 59.4733 7.75461C59.5052 7.8291 59.5371 7.90359 59.561 7.97808C59.4096 8.00291 59.2582 8.02774 59.1068 8.05257ZM61.8478 12.9357H61.5769C61.6088 12.8861 61.6406 12.8364 61.6645 12.7867C61.6964 12.7371 61.7283 12.6874 61.7522 12.6378C61.8159 12.6874 61.8717 12.7371 61.9355 12.7867C61.9992 12.8364 62.055 12.8861 62.1187 12.9357H61.8478ZM62.4932 12.9357H62.3099C62.3418 12.8861 62.3737 12.8364 62.3976 12.7867C62.4295 12.7371 62.4613 12.6874 62.4852 12.6378C62.5171 12.6874 62.549 12.7371 62.5729 12.7867C62.6048 12.8364 62.6366 12.8861 62.6605 12.9357H62.4773H62.4932ZM63.5848 8.05257V8.27603H63.2183V7.97808C63.2183 7.77944 63.3378 7.63046 63.5848 7.52287C63.8318 7.42355 64.0151 7.37389 64.1346 7.37389H64.3179V7.8291H63.5848V8.05257ZM64.5012 12.6378V12.7867H63.9514V12.4888H64.5012V12.6378ZM66.1426 13.242H65.776C65.529 13.242 65.3458 13.1675 65.2262 13.0185C65.1625 12.944 65.1067 12.8695 65.043 12.795C65.2262 12.8198 65.4095 12.8447 65.5928 12.8695C65.9593 12.9192 66.1426 12.9937 66.1426 13.093V13.242ZM66.0549 7.97808C65.8717 7.97808 65.7521 7.90359 65.6884 7.75461C65.6565 7.68012 65.6246 7.60563 65.6007 7.53114H65.8717C66.0549 7.53114 66.1744 7.60563 66.2382 7.75461C66.2701 7.8291 66.3019 7.90359 66.3258 7.97808H66.0549ZM180.173 6.32277C179.782 6.3476 179.4 6.37243 179.018 6.39726C178.261 6.44692 177.814 6.39726 177.671 6.26483C178.484 6.28139 179.32 6.30622 180.181 6.32277H180.173ZM178.372 6.92696H178.006C178.037 6.8773 178.069 6.82764 178.093 6.77798C178.125 6.72832 178.157 6.67866 178.181 6.629C178.213 6.67866 178.245 6.72832 178.269 6.77798C178.3 6.82764 178.332 6.8773 178.356 6.92696H178.372ZM176.356 6.54624C176.42 6.57107 176.476 6.5959 176.54 6.62073C176.476 6.67038 176.42 6.72004 176.356 6.7697C176.237 6.86902 175.99 6.91868 175.623 6.91868H175.073V6.7697C175.073 6.67038 175.257 6.5959 175.623 6.54624C175.99 6.49658 176.229 6.49658 176.356 6.54624ZM175.687 6.22345C175.687 6.22345 175.703 6.24 175.719 6.24828C175.806 6.32277 175.902 6.39726 175.99 6.47175H175.623C175.376 6.47175 175.169 6.39726 174.986 6.24828C174.97 6.23173 174.946 6.22345 174.922 6.2069C175.169 6.2069 175.424 6.21518 175.687 6.22345ZM173.026 6.16552C172.866 6.22345 172.731 6.30622 172.611 6.40554C172.46 6.52968 172.308 6.65383 172.157 6.77798C171.974 6.629 171.791 6.48002 171.607 6.33105C171.528 6.26483 171.448 6.19862 171.368 6.13241C171.902 6.14069 172.452 6.15724 173.034 6.17379L173.026 6.16552ZM169.966 6.39726C170.085 6.32277 170.213 6.24828 170.332 6.17379C170.309 6.14896 170.285 6.12413 170.261 6.0993C170.524 6.0993 170.787 6.10758 171.057 6.11586V6.24828C171.057 6.49658 170.938 6.64556 170.691 6.70349C170.444 6.75315 170.205 6.75315 169.958 6.70349C169.838 6.67866 169.711 6.65383 169.591 6.629C169.711 6.55451 169.838 6.48002 169.958 6.40554L169.966 6.39726ZM165.026 6.17379V5.97516C165.504 5.98343 166.054 5.99999 166.667 6.01654V6.32277C166.85 6.29794 167.034 6.27311 167.217 6.24828C167.4 6.22345 167.583 6.19862 167.767 6.17379V6.47175H165.026V6.17379ZM163.831 5.95033C163.743 5.98343 163.679 6.03309 163.655 6.0993C163.623 6.17379 163.591 6.24828 163.568 6.32277C163.536 6.24828 163.504 6.17379 163.48 6.0993C163.448 6.03309 163.392 5.97516 163.313 5.94205C163.456 5.94205 163.631 5.94205 163.831 5.95033ZM158.994 6.7697V6.62073H160.635V6.91868H158.994V6.7697ZM157.353 6.7697V6.62073H158.452V6.91868H157.353V6.7697ZM154.428 7.07593V6.92696C154.795 6.95179 155.161 6.97662 155.528 7.00145C155.894 7.02628 156.261 7.05111 156.627 7.07593C156.261 7.10076 155.894 7.12559 155.528 7.15042C155.161 7.17525 154.795 7.20008 154.428 7.22491V7.07593ZM152.779 7.07593V6.92696H153.329V7.22491H152.779V7.07593ZM143.185 6.92696H144.006V7.22491H143.273C142.787 7.22491 142.508 7.17525 142.452 7.07593C142.42 7.02628 142.389 6.97662 142.365 6.92696H143.185ZM141.815 6.92696H141.998C141.966 6.97662 141.934 7.02628 141.91 7.07593C141.879 7.12559 141.847 7.17525 141.823 7.22491C141.791 7.17525 141.759 7.12559 141.735 7.07593C141.703 7.02628 141.671 6.97662 141.648 6.92696H141.831H141.815ZM137.791 6.7697V6.62073H138.428C138.859 6.62073 139.098 6.67038 139.162 6.7697C139.193 6.81936 139.225 6.86902 139.249 6.91868H137.783V6.7697H137.791ZM136.97 6.7697C137.002 6.72004 137.034 6.67038 137.058 6.62073C137.146 6.67038 137.241 6.72004 137.329 6.7697C137.417 6.81936 137.512 6.86902 137.6 6.91868H136.867C136.899 6.86902 136.93 6.81936 136.954 6.7697H136.97ZM135.329 6.7697C135.361 6.72004 135.393 6.67038 135.417 6.62073C135.504 6.67038 135.6 6.72004 135.687 6.7697C135.775 6.81936 135.871 6.86902 135.958 6.91868H135.225C135.257 6.86902 135.289 6.81936 135.313 6.7697H135.329ZM108.915 8.12705V7.97808H109.465V8.27603H108.915V8.12705ZM107.632 8.12705V7.97808H108.182V8.27603H107.632V8.12705ZM72.9074 7.44838C72.9712 7.32423 73.0269 7.20008 73.0907 7.06766C73.1226 7.19181 73.1544 7.31595 73.1783 7.44838C73.2102 7.57253 73.2421 7.69667 73.266 7.82082H72.7162C72.7799 7.69667 72.8357 7.57253 72.8994 7.44838H72.9074ZM72.0867 8.27603C72.1186 8.17671 72.1505 8.0774 72.1744 7.97808C72.2381 8.02774 72.2939 8.0774 72.3576 8.12705C72.4771 8.22637 72.756 8.27603 73.1783 8.27603H73.8158V8.73124C73.513 8.70641 73.2102 8.68158 72.8994 8.65675C72.5967 8.63192 72.2939 8.60709 71.9831 8.58226C72.015 8.48295 72.0469 8.38363 72.0708 8.28431L72.0867 8.27603ZM71.4493 7.22491C71.3855 7.2994 71.3298 7.37389 71.266 7.44838C71.1465 7.59736 71.019 7.64702 70.8995 7.59736C70.78 7.5477 70.7481 7.44838 70.8118 7.2994C70.8437 7.22491 70.8756 7.15042 70.8995 7.07593C70.9871 7.10076 71.0827 7.12559 71.1704 7.15042C71.258 7.17525 71.3537 7.20008 71.4413 7.22491H71.4493ZM70.3497 6.17379V6.02482C70.4373 6.04964 70.5329 6.07447 70.6206 6.0993C70.7082 6.12413 70.8039 6.14896 70.8915 6.17379C70.8039 6.19862 70.7082 6.22345 70.6206 6.24828C70.5329 6.27311 70.4373 6.29794 70.3497 6.32277V6.17379ZM70.3497 7.97808H70.8039C71.1066 7.97808 71.3218 8.0774 71.4413 8.27603C71.5051 8.37535 71.5608 8.47467 71.6246 8.57399C71.4094 8.52433 71.1943 8.47467 70.9871 8.42501C70.5648 8.32569 70.3497 8.22637 70.3497 8.12705V7.97808ZM68.1585 8.12705V7.97808H68.7083V8.27603H68.1585V8.12705ZM66.6047 6.85247C66.5728 6.72832 66.541 6.60417 66.5171 6.48002H67.0669C67.0031 6.60417 66.9473 6.72832 66.8836 6.85247C66.8199 6.97662 66.7641 7.10076 66.7003 7.22491C66.6685 7.10076 66.6366 6.97662 66.6127 6.85247H66.6047ZM67.3298 13.0102C67.2979 13.0847 67.2661 13.1592 67.2422 13.2337C67.1784 13.1592 67.1226 13.0847 67.0589 13.0102C66.9951 12.9357 66.9394 12.8612 66.8756 12.7867H67.4254C67.3935 12.8612 67.3617 12.9357 67.3378 13.0102H67.3298ZM67.0589 8.12705V7.8291C67.1784 7.85393 67.3059 7.87876 67.4254 7.90359C67.5449 7.92842 67.6724 7.95325 67.7919 7.97808C67.6724 8.00291 67.5449 8.02774 67.4254 8.05257C67.3059 8.07739 67.1784 8.10222 67.0589 8.12705ZM68.3417 13.3164C68.1585 13.2916 67.9752 13.2668 67.7919 13.242C67.8557 13.1178 67.9115 12.9937 67.9752 12.8695C68.039 12.7454 68.0947 12.6212 68.1585 12.4971C68.278 12.646 68.4055 12.795 68.525 12.9523C68.6445 13.1013 68.772 13.2502 68.8915 13.3992C68.7083 13.3744 68.525 13.3495 68.3417 13.3247V13.3164ZM69.1625 6.92696C69.2262 6.72832 69.3457 6.629 69.529 6.629H69.7999V6.77798C69.7999 6.8773 69.6804 6.97662 69.4334 7.07593C69.3138 7.12559 69.1864 7.17525 69.0668 7.22491C69.0987 7.12559 69.1306 7.02628 69.1545 6.92696H69.1625ZM73.2739 13.3164V13.6889H72.9074C72.6604 13.6889 72.4771 13.6144 72.3576 13.4654C72.2939 13.3909 72.2381 13.3164 72.1744 13.242V13.6972H71.8078C71.5608 13.6972 71.3218 13.6227 71.0748 13.4737C70.9553 13.3992 70.8278 13.3247 70.7082 13.2502C70.6445 13.3247 70.5887 13.3992 70.525 13.4737C70.4612 13.5482 70.4055 13.6227 70.3417 13.6972C70.3098 13.5978 70.278 13.4985 70.2541 13.3992C70.1903 13.2006 70.0071 13.1261 69.7043 13.1757C69.5529 13.2006 69.4015 13.2254 69.2501 13.2502C69.3138 13.1509 69.3696 13.0516 69.4334 12.9523C69.5529 12.7536 69.9194 12.7288 70.5329 12.8778C71.1385 13.0268 71.7521 13.0764 72.3576 13.0268C72.6604 13.0019 72.9632 12.9771 73.2739 12.9523V13.3247V13.3164ZM76.0149 13.7634C74.5488 13.7137 73.76 13.5647 73.6405 13.3082C73.5767 13.184 73.521 13.0599 73.4572 12.9357C74.2221 12.9605 74.9791 12.9854 75.744 13.0102C77.2659 13.0599 78.0627 13.2088 78.1185 13.4654C78.1504 13.5896 78.1823 13.7137 78.2062 13.8379C77.4731 13.813 76.74 13.7882 76.0149 13.7634ZM79.3934 13.8379H78.3894V13.2337C78.5089 13.2585 78.6364 13.2833 78.7559 13.3082C79.003 13.3578 79.1544 13.333 79.2101 13.2337C79.2739 13.1344 79.4571 13.0847 79.7599 13.0847C80.0627 13.0847 80.246 13.2088 80.3097 13.4571C80.3416 13.5813 80.3735 13.7054 80.3974 13.8296H79.3934V13.8379ZM81.5926 13.7634C81.2579 13.7385 80.9232 13.7137 80.5886 13.6889C80.6205 13.6144 80.6523 13.5399 80.6762 13.4654C80.74 13.3164 80.8914 13.2171 81.1304 13.1675C81.3774 13.1178 81.6802 13.2171 82.0467 13.4654C82.23 13.5896 82.4133 13.7137 82.5965 13.8379C82.2619 13.813 81.9272 13.7882 81.5926 13.7634ZM81.8635 8.42501C81.6165 8.62365 80.9472 8.69814 79.8555 8.64848C78.7559 8.59882 78.2141 8.4995 78.2141 8.35052V8.12705C77.7599 8.15188 77.2978 8.17671 76.8436 8.20154C75.9273 8.2512 75.2899 8.2512 74.9233 8.20154C74.5568 8.15188 74.3735 8.05257 74.3735 7.90359V7.68012H73.8237V7.07593H74.3735V7.53114H75.4731V7.98635C75.5608 7.88703 75.6564 7.78772 75.744 7.6884C75.9273 7.48976 76.3496 7.39044 77.0269 7.39044H78.0309V7.6884C78.1823 7.66357 78.3336 7.63874 78.485 7.61391C78.7878 7.56425 78.9711 7.58908 79.0348 7.6884C79.0667 7.73806 79.0986 7.78772 79.1225 7.83738C79.1862 7.78772 79.242 7.73806 79.3057 7.6884C79.4253 7.58908 79.7599 7.58908 80.3097 7.6884C80.5806 7.73806 80.8595 7.78772 81.1304 7.83738V7.53942H82.5009C83.4172 7.53942 83.9352 7.61391 84.0547 7.76289C84.1742 7.91186 84.5089 7.96152 85.0587 7.91187C85.3296 7.88704 85.6084 7.86221 85.8794 7.83738C85.8475 7.91186 85.8156 7.98635 85.7917 8.06084C85.7598 8.13533 85.728 8.20982 85.7041 8.28431C85.8236 8.20982 85.9511 8.13533 86.0706 8.06084C86.1901 7.98635 86.3176 7.91186 86.4371 7.83738C86.469 7.98635 86.5009 8.13533 86.5248 8.29259C86.5566 8.44156 86.5885 8.59054 86.6124 8.74779C86.3415 8.69814 86.0626 8.64848 85.7917 8.59882C85.2419 8.4995 84.6682 8.4995 84.0547 8.59882C83.4491 8.69814 82.987 8.64848 82.6842 8.44984C82.3814 8.2512 82.1025 8.2512 81.8635 8.44984V8.42501ZM84.4212 13.7634C83.3216 13.7137 82.7798 13.6392 82.7798 13.5399V13.3909H83.8794C84.6124 13.3909 85.0029 13.3413 85.0666 13.242C85.0985 13.1923 85.1304 13.1426 85.1543 13.093C85.3057 13.2171 85.4571 13.3413 85.6084 13.4654C85.7598 13.5896 85.9112 13.7137 86.0626 13.8379C85.5128 13.813 84.963 13.7882 84.4212 13.7634ZM87.5287 13.6144V13.8379H86.2459C86.2778 13.7137 86.3096 13.5896 86.3335 13.4654C86.3654 13.3413 86.3973 13.2171 86.4212 13.093C86.5088 13.1178 86.6044 13.1426 86.6921 13.1675C86.7797 13.1923 86.8754 13.2171 86.963 13.242C86.9311 13.2916 86.8993 13.3413 86.8754 13.3909C86.8435 13.4406 86.8116 13.4902 86.7877 13.5399C86.9072 13.5151 87.0347 13.4902 87.1542 13.4654C87.2738 13.4406 87.4012 13.4158 87.5208 13.3909V13.6144H87.5287ZM88.0785 8.58226C87.473 8.48295 87.1622 8.3588 87.1622 8.20154V7.97808H87.9829C88.5327 7.97808 88.8355 8.10223 88.8992 8.35052C88.9311 8.47467 88.963 8.59882 88.9869 8.73124C88.6841 8.68158 88.3813 8.63192 88.0706 8.58226H88.0785ZM89.0825 13.8379H88.8116V13.3827C88.8992 13.4571 88.9949 13.5316 89.0825 13.6061C89.1702 13.6806 89.2658 13.7551 89.3534 13.8296H89.0825V13.8379ZM92.6522 13.5399C92.6522 13.6392 92.1343 13.7137 91.0984 13.7634C90.5805 13.7882 90.0626 13.813 89.5446 13.8379C89.6084 13.7634 89.6642 13.6889 89.7279 13.6144C89.8474 13.4654 90.3653 13.3909 91.2817 13.3909H92.6522V13.5399ZM89.9032 9.17817V8.88022H90.453V9.17817H89.9032ZM93.1064 13.8379H92.8354C92.8673 13.7882 92.8992 13.7385 92.9231 13.6889C92.955 13.6392 92.9868 13.5896 93.0107 13.5399C93.0745 13.5896 93.1303 13.6392 93.194 13.6889C93.2577 13.7385 93.3135 13.7882 93.3773 13.8379H93.1064ZM94.198 13.8379H93.9271C93.9908 13.7634 94.0466 13.6889 94.1103 13.6144C94.1741 13.5399 94.2298 13.4654 94.2936 13.3909C94.3255 13.4654 94.3573 13.5399 94.3812 13.6144C94.4131 13.6889 94.445 13.7634 94.4689 13.8379H94.198ZM93.5605 8.73124H89.3534C89.3853 8.65675 89.4172 8.58226 89.4411 8.50777C89.5048 8.3588 90.7478 8.28431 93.186 8.28431C95.6242 8.28431 96.8752 8.23465 96.931 8.13533C96.9948 8.03601 97.2338 7.98635 97.6641 7.98635C98.0943 7.98635 98.3971 8.03601 98.5804 8.13533C98.668 8.18499 98.7636 8.23465 98.8513 8.28431C98.8832 8.23465 98.915 8.18499 98.9389 8.13533C98.9708 8.08567 99.0027 8.03601 99.0266 7.98635C99.1142 8.03601 99.2099 8.08567 99.2975 8.13533C99.3852 8.18499 99.4808 8.23465 99.5684 8.28431C99.6003 8.23465 99.6322 8.18499 99.6561 8.13533C99.7198 8.03601 99.9907 7.96152 100.477 7.91187C100.963 7.86221 101.999 7.83738 103.584 7.83738C105.17 7.83738 106.174 7.86221 106.596 7.91187C107.026 7.96152 107.234 8.03601 107.234 8.13533V8.28431H104.222C102.214 8.28431 101.05 8.33397 100.748 8.43329C100.445 8.5326 100.198 8.5326 100.015 8.43329C99.927 8.38363 99.8314 8.33397 99.7437 8.28431C99.7118 8.33397 99.68 8.38363 99.6561 8.43329C99.5923 8.5326 99.4091 8.58226 99.1063 8.58226C98.8035 8.58226 98.5565 8.5326 98.3732 8.43329C98.2856 8.38363 98.19 8.33397 98.1023 8.28431C98.0386 8.3588 97.9828 8.43329 97.919 8.50777C97.7995 8.65675 96.3334 8.73124 93.5287 8.73124H93.5605ZM101.058 8.88022V9.17817H100.142C100.174 9.12852 100.206 9.07886 100.23 9.0292C100.294 8.92988 100.445 8.88022 100.684 8.88022H101.05H101.058ZM95.3932 13.6144V13.8379C95.2737 13.813 95.1462 13.7882 95.0266 13.7634C94.9071 13.7385 94.7796 13.7137 94.6601 13.6889C94.692 13.6392 94.7239 13.5896 94.7478 13.5399C94.8115 13.4406 94.931 13.3909 95.1143 13.3909H95.3852V13.6144H95.3932ZM95.3932 9.32715V9.17817C95.6402 9.203 95.8792 9.22783 96.1262 9.25266C96.3732 9.27749 96.6123 9.30232 96.8593 9.32715C96.6123 9.35198 96.3732 9.37681 96.1262 9.40164C95.8792 9.42647 95.6402 9.4513 95.3932 9.47613V9.32715ZM98.4051 13.6889C98.2218 13.7882 97.7358 13.8379 96.939 13.8379C96.1422 13.8379 95.7199 13.7634 95.6561 13.6144C95.6243 13.5399 95.5924 13.4654 95.5685 13.3909H96.1183C96.4848 13.3909 96.6999 13.3413 96.7557 13.242C96.7876 13.1923 96.8195 13.1426 96.8434 13.093C96.9629 13.1675 97.0904 13.242 97.2099 13.3164C97.4569 13.4654 97.7597 13.5399 98.1262 13.5399H98.676C98.5883 13.5896 98.4927 13.6392 98.4051 13.6889ZM99.4091 9.0292V9.17817H98.8593V8.88022H99.4091V9.0292ZM99.5923 9.17817C99.6242 9.12852 99.6561 9.07886 99.68 9.0292C99.7118 8.97954 99.7437 8.92988 99.7676 8.88022C99.7995 8.92988 99.8314 8.97954 99.8553 9.0292C99.8871 9.07886 99.919 9.12852 99.9429 9.17817H99.5764H99.5923ZM104.708 13.8379C104.708 13.9372 104.07 14.0117 102.787 14.0613C101.505 14.111 100.78 14.0862 100.596 13.9868C100.413 13.8875 100.262 13.8875 100.142 13.9868C100.078 14.0365 100.023 14.0862 99.9588 14.1358V13.3827C100.564 13.4075 101.178 13.4323 101.784 13.4571C103.003 13.5068 103.64 13.5813 103.704 13.6806C103.768 13.7799 103.951 13.8048 104.254 13.7551C104.405 13.7303 104.556 13.7054 104.708 13.6806V13.8296V13.8379ZM111.106 13.9206V14.1441H104.891V13.6889C105.289 13.7137 105.68 13.7385 106.078 13.7634C106.867 13.813 107.329 13.7634 107.449 13.6144C107.513 13.5399 107.568 13.4654 107.632 13.3909C107.696 13.4654 107.752 13.5399 107.815 13.6144C107.935 13.7634 108.118 13.7882 108.365 13.6889C108.612 13.5896 108.819 13.5896 109.003 13.6889C109.186 13.7882 109.584 13.813 110.19 13.7634C110.493 13.7385 110.795 13.7137 111.106 13.6889V13.9124V13.9206ZM112.206 14.2186C112.022 14.1938 111.839 14.1689 111.656 14.1441C111.744 14.0696 111.839 13.9951 111.927 13.9206C112.11 13.7716 112.261 13.6972 112.381 13.6972C112.501 13.6972 112.596 13.7965 112.652 13.9951C112.684 14.0944 112.716 14.1938 112.74 14.2931C112.556 14.2682 112.373 14.2434 112.19 14.2186H112.206ZM114.493 14.2931H114.038C114.07 14.2434 114.102 14.1938 114.126 14.1441C114.158 14.0944 114.19 14.0448 114.214 13.9951C114.333 14.0448 114.461 14.0944 114.58 14.1441C114.7 14.1938 114.827 14.2434 114.947 14.2931H114.493ZM118.237 14.0696V14.2931C117.99 14.2682 117.751 14.2434 117.504 14.2186C117.018 14.1689 116.771 14.0944 116.771 13.9951V13.8461H118.237V14.0696ZM118.787 14.0696V14.2931H118.421V13.8379H118.787V14.0613V14.0696ZM122.261 14.2186C122.142 14.1938 122.014 14.1689 121.895 14.1441C121.927 14.0944 121.959 14.0448 121.982 13.9951C122.014 13.9455 122.046 13.8958 122.07 13.8461C122.158 13.9206 122.253 13.9951 122.341 14.0696C122.429 14.1441 122.524 14.2186 122.612 14.2931C122.492 14.2682 122.365 14.2434 122.245 14.2186H122.261ZM124.174 14.3676C123.959 14.3427 123.743 14.3179 123.536 14.2931C123.568 14.2434 123.6 14.1938 123.624 14.1441C123.688 14.0448 123.871 13.9951 124.174 13.9951C124.476 13.9951 124.66 14.0696 124.723 14.2186C124.755 14.2931 124.787 14.3676 124.811 14.442C124.596 14.4172 124.381 14.3924 124.174 14.3676ZM126.923 14.3676C126.859 14.5165 126.556 14.5662 126.006 14.5165C125.735 14.4917 125.457 14.4669 125.186 14.442C125.401 14.3676 125.616 14.2931 125.823 14.2186C126.253 14.0696 126.556 14.0199 126.739 14.0696C126.827 14.0944 126.923 14.1193 127.01 14.1441C126.978 14.2186 126.947 14.2931 126.923 14.3676ZM127.743 14.74H127.377V14.2848H127.648C127.831 14.2848 127.951 14.3593 128.014 14.5083C128.046 14.5828 128.078 14.6572 128.102 14.7317H127.735L127.743 14.74ZM143.552 14.591C143.52 14.6407 143.488 14.6903 143.464 14.74C143.432 14.6655 143.4 14.591 143.377 14.5165C143.345 14.442 143.313 14.3676 143.289 14.2931C143.353 14.3179 143.408 14.3427 143.472 14.3676C143.536 14.3924 143.592 14.4172 143.655 14.442C143.624 14.4917 143.592 14.5414 143.568 14.591H143.552ZM150.317 14.74H150.046C150.078 14.6903 150.11 14.6407 150.133 14.591C150.165 14.5414 150.197 14.4917 150.221 14.442C150.285 14.4917 150.341 14.5414 150.404 14.591C150.468 14.6407 150.524 14.6903 150.588 14.74H150.317ZM180.014 9.40164C180.014 9.55062 179.95 9.67477 179.83 9.77409C179.711 9.8734 179.432 9.8734 179.01 9.77409C178.579 9.67477 178.245 9.67477 178.006 9.77409C177.759 9.8734 177.488 9.8734 177.185 9.77409C177.034 9.72443 176.882 9.67477 176.731 9.62511V10.0803H175.631C174.898 10.0803 174.38 9.981 174.077 9.78236C173.926 9.68304 173.775 9.58372 173.623 9.48441C173.559 9.5589 173.504 9.63338 173.44 9.70787C173.32 9.85685 173.137 9.90651 172.89 9.85685C172.643 9.80719 172.492 9.83202 172.436 9.93134C172.372 10.0307 172.285 10.0803 172.165 10.0803H171.982V9.62511C171.862 9.64994 171.735 9.67477 171.615 9.6996C171.368 9.74926 171.217 9.84857 171.161 9.99755C171.129 10.072 171.097 10.1465 171.073 10.221C170.89 10.1714 170.707 10.1217 170.524 10.072C170.157 9.97272 169.822 10.0224 169.52 10.221C169.217 10.4197 168.882 10.4693 168.516 10.37C168.149 10.2707 167.846 10.2707 167.599 10.37C167.352 10.4693 167.177 10.4445 167.05 10.2955C166.986 10.221 166.93 10.1465 166.866 10.072C166.834 10.1217 166.803 10.1714 166.779 10.221C166.715 10.3203 166.508 10.37 166.141 10.37C165.775 10.37 165.536 10.4445 165.408 10.5935C165.289 10.7424 164.675 10.7673 163.583 10.668C162.484 10.5686 161.878 10.5686 161.759 10.668C161.639 10.7673 161.153 10.8418 160.301 10.8914C159.448 10.9411 158.866 10.8914 158.564 10.7424C158.261 10.5935 157.894 10.5686 157.464 10.668C157.034 10.7673 156.643 10.7424 156.277 10.5935C155.91 10.4445 155.241 10.3948 154.269 10.4445C153.297 10.4941 152.747 10.4445 152.627 10.2955C152.564 10.221 152.508 10.1465 152.444 10.072C152.38 10.1465 152.325 10.221 152.261 10.2955C152.141 10.4445 151.926 10.519 151.623 10.519C151.321 10.519 151.137 10.4693 151.074 10.37C151.01 10.2707 150.038 10.2458 148.149 10.2955C146.261 10.3452 145.257 10.2955 145.138 10.1465C145.074 10.072 145.018 9.99755 144.954 9.92306C144.835 9.99755 144.707 10.072 144.588 10.1465C144.341 10.2955 143.823 10.37 143.034 10.37C142.245 10.37 141.783 10.3203 141.663 10.221C141.6 10.1714 141.544 10.1217 141.48 10.072C141.448 10.1217 141.416 10.1714 141.393 10.221C141.329 10.3203 140.875 10.37 140.022 10.37C139.169 10.37 138.683 10.3203 138.556 10.221C138.492 10.1714 138.436 10.1217 138.373 10.072C138.309 10.1217 138.253 10.1714 138.189 10.221C138.07 10.3203 137.791 10.2955 137.369 10.1465C136.938 9.99755 136.668 9.99755 136.548 10.1465C136.428 10.2955 136.15 10.3203 135.727 10.221C135.297 10.1217 134.994 10.1217 134.811 10.221C134.628 10.3203 134.444 10.3203 134.261 10.221C134.078 10.1217 133.927 10.1217 133.807 10.221C133.687 10.3203 133.504 10.3203 133.257 10.221C133.01 10.1217 132.827 10.1217 132.707 10.221C132.644 10.2707 132.588 10.3203 132.524 10.37C132.492 10.3203 132.46 10.2707 132.437 10.221C132.373 10.1217 130.915 10.0472 128.046 9.99755C125.186 9.94789 123.719 9.8734 123.656 9.77409C123.624 9.72443 123.592 9.67477 123.568 9.62511C123.504 9.67477 123.449 9.72443 123.385 9.77409C123.265 9.8734 123.082 9.8734 122.835 9.77409C122.588 9.67477 121.767 9.62511 120.365 9.62511C118.963 9.62511 118.11 9.67477 117.807 9.77409C117.504 9.8734 117.321 9.8734 117.257 9.77409C117.194 9.67477 116.708 9.60028 115.791 9.55062C114.875 9.50096 112.564 9.47613 108.843 9.47613H103.266V9.17817H101.624V8.73124H104.819C106.955 8.73124 108.046 8.68158 108.11 8.58226C108.174 8.48295 108.357 8.48295 108.66 8.58226C108.963 8.68158 109.242 8.68158 109.481 8.58226C109.728 8.48295 110.819 8.48295 112.771 8.58226C114.724 8.68158 115.728 8.68158 115.783 8.58226C115.847 8.48295 116.03 8.43329 116.333 8.43329C116.636 8.43329 116.819 8.48295 116.883 8.58226C116.947 8.68158 117.218 8.73124 117.704 8.73124H118.437V8.43329H118.708C118.891 8.43329 119.01 8.48295 119.074 8.58226C119.138 8.68158 119.321 8.73124 119.624 8.73124H120.078V8.43329H120.994V8.58226C120.994 8.68158 121.576 8.75607 122.731 8.80573C123.887 8.85539 126.357 8.88022 130.134 8.88022C133.911 8.88022 135.831 8.92988 135.895 9.0292C135.958 9.12852 137.751 9.22783 141.289 9.32715C144.819 9.42647 147.353 9.42647 148.875 9.32715C150.396 9.22783 152.102 9.203 153.99 9.25266C155.878 9.30232 156.978 9.25266 157.281 9.10369C157.584 8.95471 157.799 8.92988 157.918 9.0292C157.982 9.07886 158.038 9.12852 158.102 9.17817C158.165 9.12852 158.221 9.07886 158.285 9.0292C158.404 8.92988 158.739 8.88022 159.289 8.88022C159.839 8.88022 160.205 8.95471 160.388 9.10369C160.572 9.25266 160.874 9.32715 161.305 9.32715C161.735 9.32715 162.093 9.22783 162.404 9.0292C162.707 8.83056 163.042 8.73124 163.408 8.73124C163.775 8.73124 163.99 8.80573 164.046 8.95471C164.109 9.10369 164.5 9.12852 165.233 9.0292C165.966 8.92988 166.356 8.97954 166.42 9.17817C166.484 9.37681 166.572 9.47613 166.691 9.47613H166.874C166.842 9.42647 166.811 9.37681 166.787 9.32715C166.755 9.27749 166.723 9.22783 166.699 9.17817H167.432V9.0292C167.432 8.92988 167.647 8.85539 168.069 8.80573C168.492 8.75607 168.739 8.7809 168.803 8.88022C168.834 8.92988 168.866 8.97954 168.89 9.0292C168.954 8.97954 169.01 8.92988 169.073 8.88022C169.137 8.83056 169.193 8.7809 169.257 8.73124V9.0292C169.504 9.00437 169.743 8.97954 169.99 8.95471C170.476 8.90505 170.779 8.92988 170.906 9.0292C171.026 9.12852 171.209 9.12852 171.456 9.0292C171.703 8.92988 171.886 8.95471 172.006 9.10369C172.125 9.25266 173.496 9.30232 176.117 9.25266C177.424 9.22783 178.739 9.203 180.045 9.17817V9.40164H180.014ZM180.292 7.07593C179.99 7.17525 179.775 7.12559 179.655 6.92696C179.591 6.82764 179.535 6.72832 179.472 6.629C179.591 6.57934 179.719 6.52968 179.838 6.48002C179.958 6.43036 180.077 6.38071 180.197 6.33105C180.34 6.33105 180.484 6.33105 180.635 6.33932C180.643 6.38898 180.651 6.43036 180.667 6.48002C180.731 6.77798 180.603 6.97662 180.3 7.08421L180.292 7.07593ZM180.834 5.27165C180.778 5.27165 180.715 5.27165 180.659 5.27165C180.627 5.22199 180.595 5.17233 180.571 5.12267H180.938C180.906 5.17233 180.874 5.22199 180.85 5.27165H180.834ZM181.846 9.47613C181.846 9.57545 181.695 9.67477 181.392 9.77409C181.241 9.82374 181.089 9.8734 180.938 9.92306C180.97 9.82374 181.002 9.72443 181.025 9.62511C181.089 9.42647 181.241 9.32715 181.48 9.32715H181.846V9.47613ZM184.954 9.47613V9.62511H184.037V9.32715H184.954V9.47613ZM184.858 6.54624C184.555 6.69521 184.093 6.69521 183.488 6.54624C182.882 6.39726 182.42 6.37243 182.117 6.47175C181.822 6.57107 181.504 6.52141 181.161 6.3476C182.42 6.37243 183.735 6.40554 185.089 6.43864C185.017 6.48002 184.938 6.51313 184.866 6.54624H184.858ZM187.328 9.47613V9.62511H186.045V9.32715H187.328V9.47613ZM187.233 6.54624C187.049 6.49658 186.747 6.54624 186.316 6.69521C185.886 6.84419 185.615 6.81936 185.496 6.62073C185.456 6.56279 185.424 6.50485 185.384 6.43864C186.109 6.45519 186.842 6.47175 187.583 6.4883C187.48 6.56279 187.36 6.57934 187.225 6.54624H187.233ZM188.061 6.62073H187.878V6.49658C188.021 6.49658 188.165 6.49658 188.308 6.50485C188.252 6.57934 188.165 6.62073 188.061 6.62073ZM191.711 9.40164C191.464 9.4513 191.312 9.42647 191.256 9.32715C191.225 9.27749 191.193 9.22783 191.169 9.17817C191.32 9.203 191.472 9.22783 191.623 9.25266C191.774 9.27749 191.926 9.30232 192.077 9.32715C191.958 9.35198 191.83 9.37681 191.711 9.40164ZM194.452 9.0292C194.452 9.12852 194.268 9.25266 193.902 9.40992C193.719 9.48441 193.535 9.5589 193.352 9.63338V8.88022H194.452V9.0292ZM195.185 9.32715C195.065 9.52579 194.938 9.62511 194.818 9.62511H194.635V8.87194C194.754 8.89677 194.882 8.9216 195.001 8.94643C195.121 8.97126 195.248 8.99609 195.368 9.02092C195.304 9.12024 195.248 9.21956 195.185 9.31888V9.32715ZM196.101 9.10369V9.32715C196.013 9.25266 195.918 9.17817 195.83 9.10369C195.742 9.0292 195.647 8.95471 195.559 8.88022H196.109V9.10369H196.101ZM197.193 6.7697V6.70349C197.384 6.70349 197.567 6.71177 197.758 6.72004C197.567 6.7366 197.376 6.75315 197.193 6.7697ZM197.926 9.0292V9.17817H197.376V8.88022H197.926V9.0292ZM199.846 9.25266C199.631 9.22783 199.416 9.203 199.209 9.17817C199.24 9.12852 199.272 9.07886 199.296 9.0292C199.36 8.92988 199.543 8.88022 199.846 8.88022C200.149 8.88022 200.332 8.95471 200.396 9.10369C200.428 9.17817 200.46 9.25266 200.483 9.32715C200.268 9.30232 200.053 9.27749 199.846 9.25266ZM201.033 9.17817H200.85C200.882 9.12852 200.914 9.07886 200.938 9.0292C200.961 8.97954 201.001 8.92988 201.025 8.88022C201.057 8.92988 201.089 8.97954 201.113 9.0292C201.137 9.07886 201.177 9.12852 201.201 9.17817H201.017H201.033ZM205.878 8.95471C205.79 8.97954 205.695 9.00437 205.607 9.0292V8.73124C205.695 8.75607 205.79 8.7809 205.878 8.80573C205.965 8.83056 206.061 8.85539 206.149 8.88022C206.061 8.90505 205.965 8.92988 205.878 8.95471ZM214.101 8.73124H213.83V8.43329C213.917 8.48295 214.013 8.5326 214.101 8.58226C214.188 8.63192 214.284 8.68158 214.372 8.73124H214.101ZM215.471 8.73124H215.288C215.32 8.68158 215.352 8.63192 215.376 8.58226C215.408 8.5326 215.439 8.48295 215.463 8.43329C215.495 8.48295 215.527 8.5326 215.551 8.58226C215.583 8.63192 215.615 8.68158 215.639 8.73124H215.455H215.471ZM249.471 8.95471V9.17817C249.383 9.10369 249.288 9.0292 249.2 8.95471C249.112 8.88022 249.017 8.80573 248.929 8.73124H249.479V8.95471H249.471ZM254.586 9.1699C254.459 9.17817 254.331 9.18645 254.204 9.203C254.172 9.15334 254.148 9.10369 254.132 9.0292C254.1 8.92988 254.068 8.83056 254.036 8.73124C254.132 8.75607 254.22 8.7809 254.307 8.80573C254.491 8.85539 254.578 8.95471 254.578 9.10369V9.1699H254.586ZM256.355 9.0292C256.347 8.97954 256.331 8.92988 256.323 8.88022C256.291 8.73124 256.26 8.58226 256.236 8.43329C256.419 8.48295 256.602 8.5326 256.785 8.58226C257.144 8.68158 257.351 8.80573 257.423 8.94643C257.072 8.97126 256.714 9.00437 256.363 9.0292H256.355ZM258.451 8.86367C258.443 8.82228 258.435 8.77262 258.427 8.73124H259.16C259.646 8.73124 259.917 8.68158 259.981 8.58226C260.013 8.5326 260.044 8.48295 260.068 8.43329C260.132 8.50777 260.188 8.58226 260.252 8.65675C260.267 8.68158 260.299 8.69814 260.323 8.72297C259.702 8.77262 259.08 8.82228 258.451 8.87194V8.86367ZM263.909 8.44156C263.734 8.45812 263.558 8.46639 263.383 8.48295C263.447 8.44984 263.534 8.43329 263.638 8.43329H263.909V8.44156Z" fill="#FFC35C"/>
</g>
<defs>
<clipPath id="clip0_108_7250">
<rect width="299" height="17" fill="white"/>
</clipPath>
</defs>
</svg>
