<svg width="45" height="45" viewBox="0 0 45 45" fill="none" xmlns="http://www.w3.org/2000/svg">
<g clip-path="url(#clip0_14486_3533)">
<path d="M17.5988 18.958C16.9876 19.011 16.4186 19.2912 16.004 19.7433C15.5894 20.1954 15.3594 20.7866 15.3594 21.4C15.3594 22.0134 15.5894 22.6045 16.004 23.0567C16.4186 23.5088 16.9876 23.789 17.5988 23.842C17.9065 23.8293 18.2088 23.756 18.4882 23.6263C18.7676 23.4966 19.0187 23.3131 19.2271 23.0863C19.4356 22.8595 19.5972 22.5938 19.7029 22.3045C19.8085 22.0151 19.856 21.7077 19.8428 21.4C19.8578 21.0918 19.8114 20.7838 19.7064 20.4937C19.6014 20.2036 19.4399 19.9372 19.2311 19.71C19.0224 19.4828 18.7706 19.2994 18.4904 19.1703C18.2101 19.0412 17.9071 18.969 17.5988 18.958ZM25.6288 18.958C25.1369 18.9163 24.6439 19.024 24.2142 19.2672C23.7846 19.5103 23.4384 19.8775 23.221 20.3207C23.0036 20.7639 22.925 21.2624 22.9956 21.751C23.0662 22.2396 23.2827 22.6954 23.6167 23.0589C23.9507 23.4224 24.3867 23.6766 24.8676 23.7881C25.3485 23.8997 25.8518 23.8635 26.3118 23.6842C26.7717 23.5049 27.1668 23.1909 27.4453 22.7834C27.7239 22.3758 27.8728 21.8936 27.8728 21.4C27.886 21.0922 27.8385 20.7849 27.7329 20.4955C27.6272 20.2062 27.4656 19.9405 27.2571 19.7137C27.0487 19.4868 26.7976 19.3033 26.5182 19.1737C26.2388 19.044 25.9365 18.9707 25.6288 18.958Z" fill="#303454"/>
<path d="M36.322 0.5H6.84205C6.24834 0.501443 5.66073 0.619811 5.11277 0.848347C4.56481 1.07688 4.06723 1.41111 3.64843 1.83194C3.22964 2.25278 2.89784 2.75198 2.67197 3.30105C2.44611 3.85012 2.3306 4.43829 2.33204 5.032V34.7833C2.3306 35.377 2.44611 35.9652 2.67197 36.5143C2.89784 37.0634 3.22964 37.5626 3.64843 37.9834C4.06723 38.4042 4.56481 38.7385 5.11277 38.967C5.66073 39.1955 6.24834 39.3139 6.84205 39.3153H31.79L30.624 35.2453L33.44 37.8633L36.102 40.32L40.8321 44.5V5.032C40.8335 4.43829 40.718 3.85012 40.4921 3.30105C40.2663 2.75198 39.9345 2.25278 39.5157 1.83194C39.0969 1.41111 38.5993 1.07688 38.0513 0.848347C37.5034 0.619811 36.9158 0.501443 36.322 0.5ZM27.83 29.232C27.83 29.232 27.038 28.286 26.378 27.45C27.9727 27.0745 29.3832 26.1471 30.36 24.832C29.5684 25.3588 28.7197 25.7943 27.83 26.13C26.8066 26.5668 25.7362 26.8843 24.64 27.076C22.7559 27.4229 20.8235 27.4155 18.942 27.054C17.84 26.8374 16.7599 26.5208 15.7154 26.108C14.8332 25.7711 13.9919 25.3356 13.2074 24.81C14.1489 26.0977 15.5107 27.0159 17.0574 27.406C16.3974 28.242 15.5907 29.2393 15.5907 29.2393C14.2839 29.2745 12.9884 28.9879 11.8184 28.4048C10.6483 27.8216 9.63951 26.9599 8.88071 25.8953C8.95104 21.4328 10.0343 17.0446 12.0487 13.062C13.8205 11.6705 15.9806 10.8633 18.2307 10.752L18.4507 11.016C16.3287 11.5381 14.348 12.5222 12.65 13.898C12.65 13.898 13.134 13.634 13.948 13.26C15.529 12.5356 17.2144 12.0654 18.942 11.8667C19.0628 11.8416 19.1855 11.8269 19.3087 11.8227C20.783 11.6306 22.2749 11.6158 23.7527 11.7787C26.0797 12.0454 28.3319 12.7654 30.382 13.898C28.7744 12.5894 26.9072 11.637 24.904 11.104L25.212 10.752C27.4622 10.8633 29.6223 11.6705 31.394 13.062C33.4085 17.0446 34.4917 21.4328 34.562 25.8953C33.7964 26.9576 32.783 27.8168 31.6097 28.3983C30.4365 28.9798 29.139 29.266 27.83 29.232Z" fill="#303454"/>
</g>
<defs>
<clipPath id="clip0_14486_3533">
<rect width="44" height="44" fill="white" transform="translate(0.5 0.5)"/>
</clipPath>
</defs>
</svg>
