<svg width="45" height="43" viewBox="0 0 45 43" fill="none" xmlns="http://www.w3.org/2000/svg">
<path fill-rule="evenodd" clip-rule="evenodd" d="M22.5 0.046875C10.4 0.046875 0.5 9.94688 0.5 22.0469C0.5 31.7635 6.73333 40.0135 15.5333 42.9469C16.6333 43.1302 17 42.3969 17 41.8469C17 41.2969 17 40.0135 17 38.1802C10.95 39.4635 9.66667 35.2469 9.66667 35.2469C8.75 32.6802 7.28333 31.9469 7.28333 31.9469C5.08333 30.6635 7.28333 30.6635 7.28333 30.6635C9.48333 30.8469 10.5833 32.8635 10.5833 32.8635C12.6 36.1635 15.7167 35.2469 17 34.6969C17.1833 33.2302 17.7333 32.3135 18.4667 31.7635C13.5167 31.2135 8.38333 29.3802 8.38333 20.9469C8.38333 18.5635 9.3 16.5469 10.5833 15.0802C10.5833 14.3469 9.66667 12.1469 10.95 9.21354C10.95 9.21354 12.7833 8.66354 17 11.4135C18.8333 10.8635 20.6667 10.6802 22.5 10.6802C24.3333 10.6802 26.1667 10.8635 28 11.4135C32.2167 8.48021 34.05 9.21354 34.05 9.21354C35.3333 12.3302 34.4167 14.5302 34.2333 15.0802C35.7 16.5469 36.4333 18.5635 36.4333 20.9469C36.4333 29.3802 31.3 31.2135 26.35 31.7635C27.0833 32.4969 27.8167 33.7802 27.8167 35.7969C27.8167 38.7302 27.8167 41.1135 27.8167 41.8469C27.8167 42.3969 28.1833 43.1302 29.2833 42.9469C38.0833 40.0135 44.3167 31.7635 44.3167 22.0469C44.5 9.94688 34.6 0.046875 22.5 0.046875Z" fill="#303454"/>
</svg>
