<svg width="21" height="21" viewBox="0 0 21 21" fill="none" xmlns="http://www.w3.org/2000/svg">
<path d="M19.4203 0.879998C18.2977 0.628567 17.1508 0.501137 16.0003 0.499998C14.9138 0.431012 13.8244 0.577497 12.7947 0.931027C11.765 1.28456 10.8153 1.83816 10.0003 2.56C8.92699 3.63333 7.86366 4.70333 6.81032 5.77C5.60032 5.64 2.73032 5.57 0.810324 7.51C0.624073 7.69736 0.519531 7.95081 0.519531 8.215C0.519531 8.47918 0.624073 8.73264 0.810324 8.92L12.1103 20.24C12.2977 20.4262 12.5511 20.5308 12.8153 20.5308C13.0795 20.5308 13.333 20.4262 13.5203 20.24C15.4703 18.24 15.4103 15.42 15.2903 14.24L18.5003 11.04C21.6903 7.85 20.2403 1.86 20.1803 1.61C20.1342 1.42963 20.0386 1.26574 19.9043 1.13677C19.77 1.00779 19.6024 0.918867 19.4203 0.879998ZM17.0603 9.63L13.5003 13.17C13.385 13.2864 13.3001 13.4294 13.253 13.5863C13.206 13.7432 13.1982 13.9093 13.2303 14.07C13.4463 15.4078 13.2583 16.7796 12.6903 18.01L3.02032 8.32C4.27017 7.74477 5.66733 7.57012 7.02032 7.82C7.1804 7.84084 7.34314 7.82262 7.49464 7.7669C7.64615 7.71117 7.78191 7.6196 7.89032 7.5C7.89032 7.5 9.29032 6.05 11.4003 3.94C12.6977 2.89811 14.3404 2.38389 16.0003 2.5C16.7811 2.50387 17.5603 2.57075 18.3303 2.7C18.5703 4.13 18.9503 7.74 17.0603 9.63Z" fill="white"/>
<path d="M14.2303 8.80005C15.3349 8.80005 16.2303 7.90462 16.2303 6.80005C16.2303 5.69548 15.3349 4.80005 14.2303 4.80005C13.1257 4.80005 12.2303 5.69548 12.2303 6.80005C12.2303 7.90462 13.1257 8.80005 14.2303 8.80005Z" fill="white"/>
<path d="M3.50031 14.5C1.50031 15.5 1.50031 19.5 1.50031 19.5C3.35137 19.4472 5.12345 18.7384 6.50031 17.5L3.50031 14.5Z" fill="white"/>
</svg>
