<?xml version="1.0" ?><svg id="Layer_1" style="enable-background:new 0 0 30 30;" version="1.1" viewBox="0 0 30 30" xml:space="preserve" xmlns="http://www.w3.org/2000/svg" xmlns:xlink="http://www.w3.org/1999/xlink"><style type="text/css">
	.st0{fill:#FD6A7E;}
	.st1{fill:#17B978;}
	.st2{fill:#8797EE;}
	.st3{fill:#41A6F9;}
	.st4{fill:#37E0FF;}
	.st5{fill:#2FD9B9;}
	.st6{fill:#F498BD;}
	.st7{fill:#FFDF1D;}
	.st8{fill:#C6C9CC;}
</style><path class="st7" d="M27,8h-2c-2.2,0-4,1.8-4,4v7c0,0.6-0.4,1-1,1h-1V5c0-0.6-0.4-1-1-1H6C5.4,4,5,4.4,5,5v20H4c-0.6,0-1,0.4-1,1v1  h18v-1c0-0.6-0.4-1-1-1h-1v-3h1c1.7,0,3-1.3,3-3v-7h1c1.1,0,2-0.9,2-2h1c0.6,0,1-0.4,1-1S27.6,8,27,8z M8,11c0-2.2,1.8-4,4-4  s4,1.8,4,4v1h-2.9c0-0.2-0.1-0.3-0.2-0.4l-1.3-1.9c-0.2-0.2-0.5-0.4-0.8-0.3c-0.4,0.1-0.6,0.5-0.4,0.9L11,12H8V11z"/></svg>