<svg width="428" height="771" fill="none" xmlns="http://www.w3.org/2000/svg"><path d="M-103.965 156.063c.638-.33 1.28-.657 1.919-.984 1.267-.462 2.528-.944 3.807-1.377.604-.202 1.255-.462 1.859-.413.992.076 1.967.393 2.952.589 1.225.244 2.443.617 3.676.665 1.713.068 1.911-.312 1.477-2.032-.023-.091.067-.21.13-.385 2.268-.132 4.483.285 6.678.884 1.325.361 2.644.755 3.98 1.068.444.101 1.109.191 1.375-.049.951-.851 1.974-.658 3.045-.5.344.05.783.098 1.053-.064 2.037-1.23 3.963-.191 5.883.283 1.905.472 3.731 1.291 5.65 1.663 3.182.616 5.964 2.024 8.628 3.76 1.95 1.271 3.985 2.43 5.833 3.837 2.08 1.585 4.114 3.269 5.935 5.137 2.335 2.388 4.448 4.994 6.635 7.526.66.766 1.335 1.546 1.856 2.408 1.705 2.81 3.337 5.664 5.015 8.491.622 1.052 1.292 2.074 1.98 3.177.901-.871-.138-1.724.419-2.633.812 2.048 2.618 3.334 3.248 5.383.085.28.214.614.43.776 1.267.96 1.637 2.459 2.332 3.76 2.027 3.805 3.824 7.704 5.08 11.844.468 1.54 1.114 3.029 1.656 4.548.406 1.133.958 2.074 2.423 1.95.307.85.583 1.636.868 2.418.306.844.57 1.707.956 2.513.146.308.555.626.881.669.235.031.62-.333.777-.612.16-.292.176-.69.173-1.042-.004-.656-.075-1.314-.102-1.968-.002-.075.1-.154.122-.188.448.265.885.522 1.379.812.215-.392.401-.633.488-.907.417-1.303.756-2.628 1.214-3.913a289.917 289.917 0 0 1 2.637-7.018c1.514-3.903 2.977-7.829 4.61-11.685.787-1.857 2.01-3.526 2.862-5.358 3.687-7.914 7.31-15.862 10.962-23.794.4-.867.783-1.651 1.845-2.037.654-.238 1.179-.992 1.627-1.61 2.875-3.974 5.692-7.987 8.561-11.964a3151.42 3151.42 0 0 1 11.82-16.256c.455-.621 1.01-1.175 1.56-1.713 1.236-1.208 2.577-2.316 3.737-3.59 2.338-2.562 4.525-5.265 6.882-7.81 3.531-3.817 7.5-7.221 10.63-11.41a5.654 5.654 0 0 1 1.005-1.024c.312-.253.697-.419 1.056-.614.775-.423 1.612-.763 2.322-1.274 1.261-.91 2.436-1.936 3.665-2.891 1.028-.798 2.077-1.568 3.12-2.351.018.12.035.243.054.362.43.085.872.268 1.293.229.323-.028.624-.329.932-.514 4.006-2.398 7.98-4.843 12.024-7.172 1.547-.89 3.226-1.556 4.881-2.235 1.1-.452 2.29-.682 3.395-1.124 2.221-.892 4.386-1.923 6.618-2.781 4.689-1.805 9.422-3.504 14.363-4.5 4.043-.818 8.117-1.486 12.176-2.248 1.4-.263 2.771-.736 4.177-.897 3.339-.38 6.706-.386 10.015.19 4.933.86 9.998.882 14.836 2.335.45.135.94.147 1.414.187.065.005.143-.14.211-.219l-1.101-.959c.625.011.91-.026 1.179.026 1.639.328 3.262.754 4.914.999 4.106.605 8.087 1.668 11.868 3.344a200.568 200.568 0 0 1 10.492 5.02c8.149 4.192 15.34 9.672 21.671 16.301 6.717 7.031 11.694 15.224 16.135 23.79.988 1.907 1.925 3.838 2.897 5.753.229.45.529.801 1.127.413-.637-1.618-1.254-3.218-1.901-4.805-.109-.268-.349-.477-.513-.724-.257-.389-.563-.764-.743-1.19-1.397-3.309-3.125-6.432-4.995-9.504-2.838-4.665-6.287-8.859-9.633-13.134-1.701-2.174-3.392-4.359-5.272-6.411-1.336-1.46-2.764-2.772-4.228-4.07-.673-.598-1.365-1.18-2.048-1.767l.263-.304c.922.72 1.808 1.494 2.769 2.151 3.224 2.199 6.073 4.815 8.678 7.699 3.316 3.675 6.483 7.489 9.875 11.091a34.524 34.524 0 0 1 5.504 7.701c2.12 4.063 4.162 8.197 5.555 12.596.125.396.297.8.543 1.129.755 1.009 1.449 2.013 1.681 3.308.132.742.753 1.037 1.519.886.352-.069.697-.178 1.048-.247 6.284-1.216 12.555-2.539 19.021-1.78.528.062 1.099.078 1.564.298 1.402.665 2.858.753 4.374.728 1.25-.021 2.502.16 3.752.229.708.038 1.42.031 2.129.045 2.733 5.321 5.464 10.644 8.196 15.962-.601 1.23-.653 2.151-.155 2.765l.645-1.808 3.77 7.342c-.949 1.297-1.864 2.622-2.855 3.888-3.1 3.947-6.27 7.842-9.342 11.811-3.967 5.126-8.327 9.87-13.328 14.008-4.008 3.316-8.047 6.591-12.03 9.936-.555.465-.977 1.179-1.258 1.86-.331.802-.442 1.696-.647 2.549.341.515.58 1.079.559 1.636-.018.509-.231 1.058-.505 1.503-.399.65-.493 1.257-.412 2.029.275 2.566.158 5.116-.598 7.622-.483 1.602-.831 3.243-1.212 4.871-.074.319-.018.671-.029 1.278 1.094-.76 1.889-1.464 2.363-2.43 1.164-2.356 2.359-4.702 2.799-7.346.138-.835.536-1.629.814-2.444.31.223.383.377.389.536.101 2.362-.4 4.644-1.105 6.87-1.14 3.587-2.392 7.139-3.574 10.716-.184.554-.425 1.178-.33 1.714.138.788-.14 1.217-.698 1.676-.989.815-1.503 2.109-1.34 3.175.136.879.004 1.585-.131 2.375-.083.487-.064.992-.092 1.49l.396.106c.281-.489.542-.99.843-1.464 1.515-2.355 3.043-4.705 4.566-7.058l-.061-.015c-.134 1.157-.268 2.314-.433 3.758.517-.825.882-1.414 1.251-2.001l.38.217c-.197.529-.377 1.065-.604 1.582-.287.661-.313 1.252.31 1.741-1.285.038-1.331.988-1.318 1.973.426-.68.856-1.361 1.283-2.041-.29.907-.523 1.841-.883 2.721-1.831 4.476-3.695 8.937-5.552 13.413.122.069.313.183.709.411-.678.849-1.252 1.757-2.011 2.473-1.208 1.142-1.66 2.632-2.158 4.176.49-.303.977-.604 1.468-.903-.231.926-.615 1.663-1.043 2.373-1.384 2.308-2.756 4.62-4.18 6.902-1.896 3.039-3.773 6.098-5.779 9.067-1.905 2.818-3.973 5.526-5.958 8.293-.778 1.083-.752 1.446.347 2.185 1.434.963 2.874 1.958 4.429 2.7 2.309 1.1 4.41 2.548 6.73 3.645 2.806 1.326 5.66 1.737 8.664 1.682.219-.005.436-.239.901-.512-1.893-.564-2.778-2.322-4.601-2.489-.011-.001-.006-.195-.01-.435.659.077 1.301.212 1.941.209.674-.004 1.347-.143 2.25-.252-.753-1.139-1.616-1.233-2.515-1.205-.709.018-1.374.005-1.708-1.109 1.952-.105 3.729-.176 5.501-.31.939-.071 1.873-.256 3.032-.421-1.333-1.173-2.655-.772-3.867-.933-1.166-.156-2.328-.336-3.492-.506l.035-.266c.694-.252 1.389-.509 2.169-.792-.233-.607-.396-1.026-.525-1.359l7.831-2.591c-.078-1.92-.008-1.99 1.568-2.419.44-.122 1.126-.301 1.209-.595.32-1.111 1.188-1.039 1.994-1.138 1.127-.139 2.26-.24 3.389-.361 3.03-.324 6.119-.38 9.073-1.045 3.995-.898 7.948-.806 11.943-.461 1.302.111 2.614.224 3.893.477 1.515.299 3.005.737 4.499 1.143 1.551.419 3.18.683 4.622 1.347 3.669 1.697 7.396 3.351 10.226 6.404l.005-.042c-2.368-.624-4.733-1.244-7.101-1.867-.048.117-.094.234-.141.354 1.741 1.25 3.735 1.99 5.861 2.628.062 1.466 1.612 1.546 2.379 2.377-.616 1.872 1.377 2.943 1.412 4.594-.845.205-1.596.391-2.467.602.973 2.173 3.384 2.985 3.924 5.173l-.7.362c.477 1.641 1.226 3.106 1.255 4.586.042 2.236.585 4.34 1.038 6.474.173.816.031 1.323-.546 1.898-.598.6-1.23 1.138-1.313 2.202-.102 1.316-.682 2.591-.99 3.898-.144.613-.468.767-1.136.672-.073-.667-.304-1.391-.188-2.049.168-.94-.13-1.722-.664-2.326-.647-.734-1.1-1.433-.662-2.713-.878.344-1.444.563-1.978.772.056.289.079.403.103.52.264 1.338.945 2.6.151 4.064-.403.744-.256 1.793.39 2.524 1.009 1.149 1.619 2.471 2.011 3.928.089.334.274.672.5.939.405.475.403.92.17 1.483-.796 1.908-1.824 3.616-3.78 4.54-1.026.487-2.092.891-3.124 1.367-.476.22-1.002.438-1.354.802-.527.543-1.016.756-1.745.454-.244-.102-.582-.013-.87.039-2.99.562-5.981 1.117-8.964 1.711-5.182 1.035-10.416 1.514-15.691 1.582-.41.006-.82-.122-1.23-.185a.796.796 0 0 1 .561-.247c5.447-.259 10.859-.758 16.087-2.467a3.674 3.674 0 0 1 1.058-.189c2.518-.047 4.739-1.13 7.011-2.019.267-.105.453-.419.913-.868-4.591 1.001-8.8 2.029-13.053 2.813-4.337.8-8.703 1.48-13.124 1.642 3.256-.695 6.519-1.331 9.802-1.832 4.045-.616 7.93-1.785 11.724-3.251 1.19-.459 2.286-1.203 3.355-1.92.857-.571.885-1.062.331-1.924-.221-.345-.474-.668-.785-1.105-.872.215-1.745.391-2.59.645-1.547.465-3.063 1.036-4.622 1.454-2.413.647-4.723 1.68-7.287 1.774-1.245.044-2.485.32-3.72.544-1.412.253-2.773.073-4.139-.31.508-.196 1.017-.261 1.53-.307 1.843-.161 3.71-.179 5.528-.499 2.818-.499 5.599-1.19 8.389-1.824.462-.106 1.04-.199 1.317-.514.909-1.028 2.072-1.245 3.328-1.384.366-.04.701-.372 1.05-.568-.585-.922.733-.607.76-1.279-.158-.127-.374-.448-.584-.446-1.465.016-2.949-.025-4.391.19-3.37.506-6.723 1.126-10.075 1.752a4.643 4.643 0 0 0-1.764.732c-1.512 1.071-3.068 1.66-4.994 1.397-1.083-.148-2.244.143-3.35.341-1.042.187-2.059.513-3.09.771-.402.102-.808.179-1.214.266l.06.34 3.783-.167c-1.315 2.288-3.748 1.736-5.538 2.385.202 1.916 1.357 2.359 2.787 2.443.598.036 1.195.065 1.793.087 2.522.09 5.047.172 7.568.26-3.388.856-6.829.512-10.338.498.038.497-.05.922.1 1.04.948.727.716 1.587.44 2.52-.233.799-.548 1.645-.485 2.446.101 1.254-.273 2.211-1.144 3.044-.514.49-.775 1.012-.411 1.749.351.712.918.906 1.616.86 1.485-.099 2.99-.112 4.448-.379 1.173-.215 2.053-.101 2.895.818.88.96 2.117 1.274 3.27.672 1.215-.633 2.011-.29 2.816.597.765.839 1.669 1.565 2.322 2.478.536.749.997 1.668 1.122 2.565.161 1.144.653 1.713 1.763 1.742-.287 1.431.044 1.849 1.331 1.872.943.02 1.888.015 2.825.113.731.076 1.493 1.038 1.124 1.496-.749.929.002 1.404.331 2.015.323.607.723 1.171 1.051 1.689-.832 1.141-1.573.121-2.092.085-.435.919-.973 1.692-1.173 2.543-.447 1.91-1.893 2.796-3.382 3.713-.549.336-1.054.762-1.518 1.21-1.207 1.168-2.348 2.313-4.298 2.073-1.216-.149-1.479.36-1.364 1.636.055.587-.07 1.191-.124 1.919-1.557-.482-2.813-.555-4.069.133-.331.181-.897-.089-1.358-.122-.164-.011-.34.073-.563.128l-.312 1.305c-.851.185-1.601.42-2.367.501-1.539.166-2.764-1.278-4.363-.905-.577-1.009-1.49-.713-2.378-.664-.886.047-1.775-.053-2.667-.049-1.353.008-2.743-.128-4.046.144-.851.179-1.55.126-2.215-.245-1.106-.616-2.287-.711-3.479-.628-3.578.25-7.153.538-10.728.846-3.391.292-6.78.646-10.172.935-1.547.134-3.103.266-4.65.238-1.453-.024-1.999.751-2.261 1.994 1.942 1.513 4.319 1.648 6.519 2.299 3.09.914 6.184 1.843 9.215 2.937 2.414.867 4.742 1.973 7.098 2.999a533.168 533.168 0 0 1 6.879 3.059c.307.139.822.554.804.584-.653 1.094.507.994.899 1.291.515.389 1.17.594 1.747.904 2.051 1.107 4.221 2.047 6.112 3.382 2.579 1.823 4.95 3.942 7.402 5.947a219.972 219.972 0 0 1 4.255 3.557c1.989 1.717 3.979 3.438 5.92 5.21 1.19 1.086 2.31 2.25 3.415 3.422.426.455.902.973.519 1.987a1347.6 1347.6 0 0 0-3.289-1.589c1.834 2.598 4.184 4.682 6.18 7.312l-1.635.45c.687.925 1.286 1.727 1.876 2.537.665.91 1.336 1.82 1.978 2.748.438.637.859 1.293 1.233 1.972.567 1.041 1.186 2.067 1.599 3.169.69 1.837 1.114 3.774 1.87 5.579 1.195 2.848 1.685 5.849 2.167 8.853.158.993-.061 2.062.185 3.02.219.855.831 1.598.214 2.525-.058.086.177.368.322.656l.601-.991c.576 2.418.428 3.112-.784 3.824-.3-.685.089-1.779-1.079-1.963.055 1.46.497 2.951-.802 4.167-.468.44-.792 1.043-1.132 1.603-.142.232-.264.579-.196.819.302 1.047.4 2.256 1.495 2.474.074 1.573.077 2.983.224 4.378.144 1.368-.187 2.825.493 4.058 1.061.08 1.038-1.452 2.36-1.122-.266.6-.509 1.105-.721 1.624-.578 1.426-1.906 2.694-.929 4.458.09.162-.06.461-.109.694-.633 2.949-1.869 5.677-3.267 8.316-1.892 3.569-4.623 6.493-7.326 9.478-3.902 4.309-8.711 7.241-13.743 9.908-1.579.838-3.305 1.401-4.879 2.25-3.802 2.055-7.658 3.946-11.908 4.89-.991.221-2.003.389-2.965.7-6.051 1.967-12.313 2.226-18.594 2.357-2.148.044-4.274.05-6.417-.325-1.63-.286-3.329-.147-4.988-.309-6.982-.675-13.826-2.065-20.562-4.008-3.954-1.139-7.878-2.507-12.11-2.095-.347.034-.709-.077-1.064-.125-3.983-.546-7.834-1.64-11.667-2.813-5.315-1.628-10.595-3.353-15.6-5.815-1.316-.647-2.461-1.448-3.197-2.771-.225-.403-.589-.75-.95-1.05a545.205 545.205 0 0 0-6.079-5.006c-.366-.301-.806-.51-1.213-.76l-6.014-3.713c.124-.931-.123-1.601-.741-2.012a43.12 43.12 0 0 0-1.061-.672c-3.112-1.892-6.248-3.749-9.329-5.69-1.238-.783-2.355-1.753-3.863-2.893 1.518-.592 2.636-1.03 3.931-1.536-.856-.927-1.659-1.796-2.556-2.764 1.356.229 2.288 1.213 3.839 1.288-.701-.736-1.361-1.169-1.637-1.774-.519-1.147-1.441-1.689-2.487-2.164a4.643 4.643 0 0 1-.917-.558c-2.454-1.895-4.872-3.841-7.359-5.689-1.174-.871-2.273-2.09-3.877-2.016-.908.042-1.476-.313-2.061-.831-1.613-1.425-3.243-2.833-4.819-4.297-1.215-1.129-2.653-2.016-3.555-3.502-.453-.741-1.321-1.001-2.234-.774-1.254.309-2.504.631-3.973.999-.115-.089-.421-.375-.771-.591-.817-.504-1.574-.394-2.298.204-1.375 1.133-2.7 2.343-4.172 3.331-4.867 3.262-9.688 6.601-14.957 9.211-2.681 1.328-5.245 2.922-8 4.053-3.754 1.545-7.665 2.697-11.46 4.147-1.535.587-3.316 1.003-3.813 2.791-.807-.165-1.497-.392-2.193-.413-.326-.01-.854.319-.944.6-.081.254.235.848.514.965 1.121.473 1.752 1.4 2.443 2.303.83 1.083 1.901 1.74 3.409 1.729-.034 1.744 1.351 2.176 2.559 2.829 1.292.702 2.594 1.422 3.776 2.29 1.629 1.193 3.102 2.604 4.744 3.777.897.642 2.002.994 3.022 1.456.703.318 1.422.595 2.136.894.644.273 1.291.776 1.931.766.674-.01 1.338-.505 2.093-.826l2.488 6.321c-1.323-.286-2.156-1.476-3.305-.592-.13 1.023.482 1.702.975 2.446.14.212.115.536.163.809-.594.171-1.079.309-1.578.451.094 1.304.068 2.511.289 3.67.383 1.987.774 3.981 2.252 5.569.847.909 1.672 1.911 2.22 3.011.718 1.444 1.59 2.478 3.328 2.408.157 1.721-1.49 2.141-2.05 3.353l.48 1.078c-.665-.186-1.33-.372-2.06-.574.01-.699.017-1.334.028-2.229-.694-.075-1.367-.224-2.033-.201-.91.033-1.795.89-1.722 1.66.083.873.657 1.35 1.518 1.498.333.056.66.155 1.24.295-.366.93-.677 1.712-1.013 2.556.736.804 1.438 1.695 2.943 1.117-.15-.709-.295-1.373-.48-2.249.848-.2 1.655-.388 2.537-.595l-1.026-1.302c2.474.617 4.7 1.975 7.305 2.29.893.107 1.684-.387 2.336-.208 1.439.395 3.079.194 4.319 1.319.336.306.884.38 1.363.57.289-1.191-1.165-1.615-.69-2.703 1.916-.212 3.252.914 4.581 1.931 1.24-1.006 2.589-1.231 4.048-.674.499.192.985.434 1.443.706.729.431 1.38.878 2.291.276.288-.192.939-.041 1.324.153.795.4 1.526.932 2.297 1.417l1.498-.515c1.49.573 2.347 1.969 4.135 2.355-.217-.843-.351-1.353-.514-1.983 1.217.51 2.297.987 3.395 1.415.989.383 1.355 1.067 1.239 2.105-.059.527-.01 1.07.046 1.603.202 1.873 1.237 3.191 2.87 4.021 1.435.727 2.729.446 3.786-1.002.502.448.888.798 1.28 1.141.575.504 1.095 1.101 1.744 1.481.787.46 1.082 1.025.984 1.906a8.472 8.472 0 0 0 .009 1.78c.181 1.679-.362 3.262-.664 4.863-.235 1.239.072 2.397 1.256 2.671.974.225 1.42.726 1.715 1.572.089.255.315.462.495.716.455-.552.671-1.449.65-2.692 1.709.625 1.637 2.121 1.895 3.422-.561.472-1.316.792-1.466 1.296-.273.908-1.092 1.906-.048 2.921.175.171.019.774-.104 1.139-.505 1.49-1.174 2.94-1.549 4.463-.218.892-.593 1.506-1.302 2.024-.478.349-.979.733-1.304 1.212-.589.866-.971 1.781-.071 2.768.257.28.309.849.277 1.275-.105 1.552-1.101 2.463-2.432 3.054-1.263.56-2.539 1.069-3.349 2.297-.12.185-.373.289-.578.412-2.218 1.339-4.321 2.947-7.139 2.785-.454-.027-.925.209-1.386.328-3.311.833-6.631 1.525-10.088 1.22-2.199-.194-4.441-.581-6.606-.35-3.97.426-7.88-.013-11.755-.522-4.006-.528-7.99-1.444-11.894-2.511-6.663-1.821-13.279-3.832-19.878-5.882-3.933-1.22-7.793-2.677-11.694-4.002-.55-.186-1.15-.27-1.731-.307-.775-.046-1.164.386-.884 1.127.638 1.691.127 3.241-.338 4.797-.504.012-.881.018-1.182.025-1.33 4.753-2.543 9.387-4.69 13.725.3-1.473.598-2.947 1.027-5.066-1.63 1.536-1.43-.455-2.432-.428-.115.361-.263.721-.348 1.096-.324 1.43-.59 2.873-.95 4.292-.284 1.122-.669 2.217-1.027 3.318-.103.314-.184.74-.418.884-.852.516-.412 1.105-.242 1.672.444.155.841.297 1.193.419-.941 1.045-1.783 1.985-2.618 2.912l-2.44-.5c-.528 1.311-.968 2.401-1.398 3.473l-1.085-.204c-.226.729-.46 1.346-.602 1.984-.085.391-.204.969-.004 1.196.863.986.508 2.062.26 3.056-.33 1.324-.731 2.669-1.365 3.866-.983 1.853-1.639 3.802-2.245 5.788-.13.417-.497.762-.775 1.167-.391-.278-.655-.462-.995-.703-.159.359-.283.625-.395.895-.134.323-.263.651-.39.971 1.532.787 1.729 1.783.885 3.118-1.094 1.728-2.896 3.065-2.937 4.981-1.124.689-2.287 1.032-2.835 1.81-1.404 1.988-2.56 4.155-3.763 6.281-1.16 2.05-2.255 4.133-3.419 6.278l-1.445-1.414c.275 1.892-.396 3.042-1.453 4.149-1.377 1.442-2.287 3.181-2.513 5.417 1.451-.825 1.37-2.212 1.803-3.331l-.003-.005c.911 2.208-.169 3.995-2.076 4.044-.803.735-1.396 1.247-1.947 1.802-.286.286-.529.63-.73.982-1.183 2.065-2.403 4.087-2.445 6.615-.013.803-.538 1.574.512 2.077-.485.63-.839 1.19-1.29 1.655-.659.673-1.308 1.653-2.107 1.824-1.288.275-1.705 1.155-2.292 2.03-.495.735-.96 1.514-1.584 2.126-.378.371-1.132.347-1.545.702-1.244 1.072-2.4 2.241-3.594 3.366-.128.119-.282.212-.476.355-.482-.125-.987-.258-1.44-.374l-1.32 1.009c-.224-.292-.383-.504-.638-.838-.704.875-1.26 1.649-1.897 2.347-.838.922-1.592 2.122-2.654 2.591-1.44.637-2.467 1.577-3.494 2.659-.389.413-1.003.614-1.518.906-.41.232-.817.475-1.24.68-.52.252-1.033.573-1.586.68-1.108.214-2.24.283-3.36.457-.69.105-1.41.186-2.04.458-2.161.931-2.807.699-3.585-1.515-1.182.269-2.38.544-3.582.82-1.382-.669-1.707-.626-2.602.391.997.451 1.828.124 2.62-.456-.377 1.223-1.321 1.376-2.42 1.349-.93-.024-1.98-.192-2.273 1.331-1.322-1.503-2.81-1.495-4.407-1.177-2.935.586-5.703.014-8.221-1.537-1.825-1.124-3.58-2.377-5.282-3.685-.581-.447-.972-1.197-1.335-1.869-.937-1.719-1.807-3.475-2.716-5.211-.026-.05-.178-.031-.275-.044-.002.239-.007.467-.01.756-1.576-1.022-.92-3.04-2-4.222-.186.096-.483.322-.547.269-.773-.645-1.594-.377-2.388-.132-1.362.421-2.691.942-4.058 1.34-1.233.362-2.635.282-3.46 1.575-.13.205-.528.255-.812.346-1.801.562-3.618.66-5.478.301-1.17-.226-2.374-.534-3.544-.466-4.772.278-9.544.605-14.302 1.077-3.02.299-6.008.892-9.014 1.333-.407.058-.834.007-1.25-.029-2.378-.214-4.754-.476-7.135-.646-2.505-.178-5.024-.184-7.519-.42-5.414-.512-10.832-1.036-16.226-1.713-4.739-.596-9.383-1.697-13.917-3.209-.603-.201-1.094-.742-1.663-1.145-.669.788-.847.764-1.273-.306-.096-.244-.278-.455-.462-.746-.251.341-.417.569-.729.998-1.511-.735-3.181-1.308-4.544-2.301-.78-.569-1.48-1.13-2.416-1.385-.4-.107-.822-.227-1.168-.448a178.103 178.103 0 0 1-5.057-3.365c-.765-.534-1.574-1.062-1.574-2.209 0-.238-.438-.522-.724-.705-.896-.575-1.925-.997-2.703-1.696-1.682-1.509-3.313-3.091-4.832-4.764-1.876-2.07-3.703-4.199-5.39-6.422-1.688-2.224-3.134-4.629-4.766-6.898-2.789-3.884-5.392-7.87-7.386-12.234-.415-.906-1.133-1.674-1.712-2.502-.271-.389-.659-.738-.804-1.166-.967-2.88-1.881-5.78-2.812-8.673-.328-1.021-.427-2.123-1.13-3.043a10.388 10.388 0 0 0 .072 2.994c.157.938.615 1.852.631 2.78.039 2.224.401 4.342.994 6.499.872 3.171 2.508 5.924 4.081 8.733 1.105 1.975 2.229 3.941 3.317 5.926.126.232.083.558.117.842-3.131-4.27-5.722-8.808-7.478-13.685-1.647-4.582-2.807-9.363-3.907-14.118-1.315-5.683-1.156-11.499-1.024-17.297.105-4.505 1.054-8.886 1.896-13.282.325-1.699.656-3.404 1.116-5.073 1.157-4.208 2.51-8.365 3.534-12.603.395-1.639.261-3.411 1.028-4.998a.496.496 0 0 0 .02-.351c-.676-1.664.164-3.057.906-4.389 1.567-2.806 3.269-5.536 4.895-8.312.568-.971 1.063-1.981 1.607-2.966.489-.881.995-1.753 1.501-2.626.378-.652.229-1.236-.126-1.853-.532-.929-1.004-1.895-1.499-2.847-3.355-6.488-4.118-13.391-3.283-20.551.088-.753.166-1.508.253-2.293-.774-.321-1.395-.537-1.973-.83-.409-.209-1.026-.473-1.09-.803-.146-.758-.683-.957-1.213-1.163-3.061-1.184-6.147-2.296-9.193-3.517-1.086-.436-1.957-.201-2.854.384-1.503.981-3.022 1.937-4.529 2.91-4.371 2.818-8.69 5.723-13.127 8.439-4.182 2.562-8.427 5.041-12.757 7.342-3.691 1.961-7.494 3.739-11.34 5.38-3.237 1.38-6.674 2.294-9.909 3.683-5.691 2.442-11.705 3.314-17.768 4.016-.471.055-1.327-.108-1.416-.37-.322-.945-1.061-.831-1.607-.671-1.556.455-3.132.224-4.599-.034-1.96-.341-3.648-.2-5.232 1.008-.107.081-.331.005-.806-.004.319-.433.566-.762.839-1.131-.75-.324-1.208-.52-1.802-.773.69-.799 1.669-1.301 1.382-2.465-1.377.307-2.697.655-4.036.876-.461.076-1.371-.096-1.394-.256-.143-.958-.817-.732-1.369-.748-2.375-.067-4.749-.108-7.234-.158.317-1.066-.814-1.038-1.407-1.443.191-.336.328-.583.559-.989-1.599-.924-3.204-1.789-4.74-2.764-1.082-.685-2.218-1.385-3.062-2.322-.999-1.108-.967-2.969-2.539-3.745-.085-.042-.123-.201-.155-.313-.289-.952-.591-1.901-.858-2.861-.699-2.516-1.376-5.039-2.087-7.552-.127-.451-.383-.864-.578-1.292-.319 2.049.063 3.898.674 5.716.312.933.695 1.899-.399 2.858-.266-.515-.586-.905-.662-1.335-.324-1.807-.82-3.627-.794-5.436.032-2.278-.269-4.606.498-6.853.287-.843.344-1.758.529-2.638 1.507-7.063 2.673-14.212 6.048-20.755 2.053-3.982 3.705-8.175 5.81-12.125 1.964-3.685 4.287-7.175 6.452-10.753 1.824-3.014 3.418-6.204 5.528-9.003 3.094-4.1 6.48-7.993 9.893-11.839 3.054-3.44 6.317-6.699 9.481-10.041.109-.116.149-.295.229-.466l-.996-.289c.608-.912 1.075-1.821 1.732-2.557 1.148-1.284 1.47-2.66 1.022-4.31-.23-.85-.472-1.787-.344-2.63.461-3.031.07-6.077.28-9.108.199-2.917.315-5.84.475-8.756.009-.176.089-.347.124-.524.544-2.569.999-5.164 1.65-7.705.83-3.24 1.775-6.449 2.764-9.644.397-1.283 1.297-2.213 2.565-2.822.539-.258 1.017-.799 1.334-1.327 1.013-1.693 1.831-3.507 2.913-5.15 2.069-3.148 4.255-6.217 6.412-9.304 1.401-2.006 2.84-3.989 4.25-5.99.616-.876 1.106-1.864 1.819-2.651 1.594-1.765 2.934-3.717 4.748-5.338 1.982-1.766 3.495-4.062 5.194-6.142.169-.206.199-.526.32-.869-.334-.089-.601-.087-.763-.215-.933-.749-2.028-.382-3.03-.559-.931-.164-1.609-1.22-2.773-1.379-1.119-.153-2.186-.694-3.274-1.065.906-.444 1.976.078 2.636-1.119-.972-.421-1.886-.845-2.823-1.218-2.438-.966-4.945-1.789-7.317-2.896-2.042-.956-3.896-2.303-5.906-3.336-3.547-1.819-7.224-3.383-9.745-6.728-1.286-1.703-2.892-3.166-4.259-4.814-.554-.67-1.076-1.515-1.192-2.341-.079-.558.584-1.217.927-1.861 1.139.355 1.361 2.31 3.11 1.665-.121-.4-.174-.747-.323-1.043-.757-1.484-1.491-2.984-2.325-4.421-.471-.815-.997-1.681-1.717-2.242-.733-.574-1.041-1.215-1.267-2.051-.211-.787-.42-1.75-.976-2.237-1.587-1.383-1.354-2.931-.871-4.996.558 1.402.967 2.45 1.396 3.492.443 1.084.924 2.145 2.013 2.816.536-1.205.621-2.489.196-3.705-.699-2-.587-3.959.106-5.944.447-1.275.479-2.604-.07-3.964l-.595 3.402c-1.311-.99-1.123-2.946-2.798-3.178-1.237 1.214-1.857 2.604-1.633 4.34-.708-.738-.571-1.556-.524-2.387.045-.761.278-1.853-.116-2.232-1.016-.97-.886-1.98-.725-3.124.088-.631.223-1.338-.494-1.772-.775-.469-1.205.103-1.69.548-.099.091-.28.092-.752.23.577-.953.986-1.663 1.426-2.349.418-.653.967-1.237 1.29-1.926 1.953-4.179 5.475-6.635 9.547-8.231 2.048-.803 3.734-2.096 5.657-3.033.624-.305.932-.874.759-1.479-.4-1.397.338-2.039 1.383-2.721.596-.39 1.26-1.143 1.324-1.788.14-1.441.918-2.229 2.018-2.939.698-.45 1.253-1.126 1.96-1.558.64-.389 1.397-.585 2.102-.866.478-.19 1.136-.242 1.406-.59.667-.864 1.515-.908 2.398-.749 2.083.38 3.9-.389 5.654-1.294 2.13-1.1 4.766-.936 6.823.515.359.254.869.332 1.325.4 1.23.196 2.489.25 3.697.532 1.393.326 2.75.806 4.105 1.271 2.234.761 4.76.667 6.698 2.286.085.069.225.076.341.109 2.353.666 4.709 1.312 7.053 2.006 1.469.436 3.042.732 4.343 1.482 1.293.748 2.473 1.028 3.862.608.116.122.213.304.356.356.186.066.408.04.613.021.029-.002.081-.267.053-.282-.179-.097-.376-.203-.573-.214-.153-.007-.313.119-.469.183-.217-1.062-.862-1.843-1.772-2.336-3.082-1.663-6.193-3.271-9.297-4.892a2.205 2.205 0 0 0-.507-.175c-1.45-.346-2.898-.69-4.349-1.032-1.616-.379-3.233-.755-4.845-1.133-.098-.535-.181-.991-.26-1.433-1.079-.399-2.157-.613-3.003-1.343 2.807.611 5.546 1.383 8.184 2.504 2.138.91 4.316 1.72 6.451 2.636 1.86.802 3.723 1.615 5.514 2.559 2.852 1.497 5.655 3.086 8.459 4.671 2.65 1.499 5.316 2.976 7.899 4.582 2.123 1.318 4.105 2.861 6.218 4.197.653.413 1.596.354 2.283.736.689.385 1.146 1.188 1.841 1.553.827.436 1.539.872 1.732 1.797.902.17 1.707.32 2.637.491l7.699-7.271c.178 1.641-.129 2.758-1.497 3.372.085-.311.173-.621.341-1.231-1.187.649-1.73 1.27-1.461 2.454l1.182-1.334c-.076.449-.155.9-.277 1.631.791-.739 1.329-1.37 1.988-1.83 2.596-1.806 3.769-4.683 5.481-7.151.126-.18.171-.445.181-.675.081-1.665.78-2.588 2.276-2.646.833-.033 1.484-.177 2.088-.777.253-.253.749-.274 1.141-.38 1.562-.43 2.588-1.419 3.276-2.766-.082-.107-.161-.215-.242-.321-.638.329-1.274.654-2.274 1.167.325-.678.409-1.022.615-1.257 1.008-1.132 2.222-1.917 3.656-2.485 2.242-.89 4.739-1.246 6.61-2.989.284-.265.752-.345 1.142-.487 1.337-.482 2.696-.915 4.012-1.443 1.327-.532 2.574-1.292 3.927-1.716 3.336-1.047 6.806-1.159 10.272-1.228 1.013-.02 2.055-.175 3.036.007 2.436.449 4.818.479 7.224-.184 1.133-.311 1.453-.634.952-1.745-.553-1.232-1.226-2.422-1.947-3.568-1.01-1.604-2.108-3.154-3.183-4.718-.23-.335-.478-.855-.784-.909-1.513-.257-1.56-1.489-1.769-2.555-.298-1.519-.498-3.062-.684-4.603-.567-4.624-1.061-9.25-.028-13.886.868-3.897 1.69-7.806 2.531-11.712-.111 2.068-1.026 4.084-.377 6.196l.014-.133c-.16 1.048-.385 2.094-.463 3.149-.078 1.055-.424 2.43.086 3.116.859 1.151.458 2.068.245 3.124l.029-.021c.09 1.931-.782 4.044 1.072 5.642.073.065.056.23.096.341.74 2.016 1.467 4.034 2.227 6.039.337.89.715 1.77 1.141 2.621.124.247.475.381.825.643.053-.359.143-.544.095-.688-.292-.907-.586-1.816-.933-2.705-1.99-5.107-3.277-10.358-3.156-15.876.049-2.201.286-4.396.435-6.589a191.52 191.52 0 0 1-.222-.937l.443-1.912c.876.325.794 1.128.847 1.815.071.952.015 1.913.061 2.868.015.343.163.676.249 1.015.145-.008.288-.019.433-.028.322-2.408.651-4.816.97-7.226.142-1.065.176-2.154.413-3.195.716-3.147 1.504-6.275 2.277-9.409.037-.151.203-.273.563-.737-.64 2.698-1.269 4.944-1.688 7.23a59.941 59.941 0 0 0-.872 6.749c-.152 2.224-.468 4.48.154 6.705.17-3.596 1.756-6.802 2.537-10.227l.722.252.922-2.241c-.055 2.002-.513 3.905-.68 5.833-.163 1.876-.647 3.779-.194 6.108.351-.598.511-.78.573-.994.641-2.169 1.452-4.287 1.632-6.585.078-.973.599-1.906.917-2.861a.14.14 0 0 1 .043-.052c.849-2.478 1.295-5.122 2.982-7.272-.227 1.407-.509 2.805-1.024 4.109-.793 2.003-.052 3.773.791 5.444.376.748.66 1.17.004 1.83-.231.231-.395.631-.412.963-.111 1.876-.168 3.754-.242 5.63l.185.001 3.002-12.967c-.444.262-.758.448-1.277.752l.682-2.971-.028.081c.542-.148.553-1.486 1.514-.567.948-2.172 1.836-4.254 2.769-6.313.19-.422.584-.748.827-1.151a230.09 230.09 0 0 0 3.011-5.049c.534-.933.981-1.921 1.467-2.883l.474.212c-1.527 3.826-3.866 7.375-4.443 11.772.227-.279.32-.36.372-.459 2.483-4.82 4.514-9.896 8.056-14.114.497-.591.88-1.278 1.306-1.928.128-.195.363-.554.32-.598-.849-.818.134-1.074.47-1.469.461-.542 1.058-.97 1.5-1.525.355-.448.855-1.063.78-1.517-.231-1.382.386-2.425.987-3.525.177-.323.211-.72.433-1.533-1.295.877-2.221 1.5-3.109 2.101-.803-.799-.803-1.46-.133-2.014.824-.68 1.715-1.282 2.587-1.901.533-.378 1.222-.621 1.605-1.11 1.286-1.645 2.627-3.158 4.535-4.162 1.031-.542 1.884-1.435 2.77-2.227.312-.28.485-.72 1.044-1.587l-1.61-.085.03-.038Zm-176.522 108.312c-.568-.006-.853.275-.856.842l.875-.894c.07.281.139.563.268 1.095.487-.8.38-1.059-.288-1.045l.001.002Zm306.32 328.034c.414-.167.799-.352.545-1.312l-.496 1.323c-.171.598-.442 1.207.214 1.857.735-.845.05-1.332-.264-1.871l.002.003Zm-92.9-19.96.584-1.704c-.876.439-.893 1.047-.522 1.721-.543.968-.904 1.961-.432 3.074-.28.633-.58 1.261-.83 1.906-.193.499-.225 1.078-.488 1.531-1.098 1.893-1.51 3.961-1.726 6.096-.128 1.246-.28 2.491-.45 3.733-.622 4.494-1.27 8.985-1.882 13.48-.097.711-.072 1.439-.101 2.159.464-.435.619-.885.71-1.345.56-2.856 1.126-5.71 1.654-8.575.548-2.984 1.049-5.977 1.582-8.964.117-.645.282-1.283.445-1.916.684-2.664.973-5.379 1.022-8.126.144-1.023.292-2.045.432-3.069l.002-.001Zm-57.672-360.302c.21.837.091 1.781.772 2.709.529-1.252.78-2.28.572-3.767-.616.513-.983.822-1.353 1.138-.328-.072-.658-.14-.986-.212 1.093-1.397 1.65-3.023 2.092-4.713.708-2.713 1.387-5.438 2.199-8.122.478-1.582.153-3.167.295-4.745.006-.066-.167-.145-.403-.337-1.512 4.745-3.007 9.428-4.504 14.115-.116-.019-.234-.037-.352-.059a20.631 20.631 0 0 0-.102-1.161c-.018-.176-.092-.369-.042-.524.594-1.94 1.188-3.88 1.826-5.806.202-.614.558-1.188-.237-1.862-1.147 2.434-1.767 4.887-1.918 7.461-.013.245.275.506.422.761-.252.242-.583.44-.74.732-1.085 2.015-1.491 4.152-.788 6.368.242.765.34 1.448.225 2.245-.137.94-.162 1.929.545 2.787.271-1.105.429-2.208.43-3.31-.002-1.414.307-2.708 1.078-3.889l.366 1.877c.291-.808.446-1.245.604-1.684l-.001-.002Zm-3.738-13.578c-1.219.814-1.333 2.067-1.33 3.368.7-1.023 1.182-2.128 1.271-3.384 1.911-.544 2.501-1.87 1.545-3.806-.524 1.345-1.003 2.584-1.49 3.821l.004.001Zm207.978 355.33c-2.265-2.028-5.05-2.479-7.96-2.57a39.44 39.44 0 0 0 5.691 2.336c.704.229 1.513.135 2.278.174.728.249 1.443.564 2.188.732 1.149.257 2.317.467 3.487.574.348.032.733-.345 1.278-.623-.434-.322-.611-.561-.804-.577-1.941-.175-3.884-.316-5.831-.439-.103-.007-.218.258-.33.395l.003-.002ZM-122.24 189.157c1.917-2.309 3.86-4.604 4.741-7.734-1.525.817-3.354 3.923-4.688 7.746-1.375 1.55-1.999 3.495-2.719 5.365-.958 2.485-1.884 4.993-2.61 7.55-.628 2.209-.954 4.5-1.416 6.755-.748.416-.81 1.156-.804 1.867.034 2.912.102 5.826.175 8.738.007.264.138.524.212.783.343-.329.44-.654.494-.986.562-3.484-.278-6.945-.137-10.424.247-.385.595-.737.726-1.158a600.827 600.827 0 0 0 3.074-10.256c.323-1.112.773-2.105 1.599-2.942.311-.315.546-.758.68-1.184.228-.726.379-1.478.501-2.229.103-.622.115-1.26.174-1.889l-.002-.002ZM51.807 539.586c.955.466 2.062.764 2.827 1.444.837.742 1.74 1.218 2.743 1.57 2.35.827 4.704 1.656 7.08 2.403.894.283 1.878.459 2.686-.56-.247-.19-.443-.429-.693-.521-1.787-.648-3.557-1.378-5.391-1.86-1.206-.316-2.404-1.001-3.781-.475-.306.118-.984-.213-1.226-.535-1.116-1.483-2.621-1.616-4.265-1.402-1.277-1.057-3.095-1.59-5.28-1.392 1.867 1.014 3.298 2.19 5.299 1.326v.002ZM241.07 168.023c.343.858.652 1.674 1.428 2.338.67.574.276 1.901 1.404 2.708l-.147-4.576.415-.043c.227.941.453 1.879.778 3.213 1.411-2.21 3.068-3.836 3.468-6.261-.387-.19-.645-.421-.911-.429-1.596-.059-3.202-.176-4.788-.048-.746.061-1.372.682-1.438 1.605-.037.525-.15 1.043-.229 1.57-.176-.796-.355-1.592-.534-2.4-.966-.096-1.351.268-1.274 1.104.238 2.602.452 5.21.744 7.81.08.712.397 1.402.605 2.101l.417-.02c.118-.348.351-.704.337-1.047-.087-2.078-.237-4.153-.342-6.228-.023-.461.044-.928.07-1.391l-.003-.006ZM-63.628 613.856c.106-2.802-.29-5.64.431-8.509l.881.72c.193-1.191.285-2.201.532-3.171.228-.892.018-1.971 1.026-2.944-.297 3.298-.605 6.248-.805 9.208-.05.733.255 1.488.396 2.236-.792.659-.407 1.469-.325 2.237.487-.711.467-1.474.27-2.255.143-.696.338-1.389.416-2.09.384-3.445.614-6.91 1.132-10.332.581-3.831 1.418-7.622 2.139-11.433.422-2.228.898-4.448 1.241-6.688.512-3.356.854-6.74 1.402-10.091a673.706 673.706 0 0 1 2.793-15.854c.72-3.814 1.638-7.588 2.353-11.402.269-1.435.218-2.933.324-4.598-.583.268-1.008.328-1.199.576a29.606 29.606 0 0 0-1.913 2.769c-.198.328-.089.77-.714.822-.242.019-.546.579-.639.938-.85 3.296-1.706 6.588-2.47 9.905a481.463 481.463 0 0 0-2.74 12.597c-.614 3.035-1.114 6.093-1.601 9.152-.364 2.29-.65 4.597-.926 6.902-.466 3.894-1.518 7.73-1.154 11.705.027.291-.044.595-.086.891-.478 3.302-.959 6.602-1.437 9.901-.019.119-.03.237-.038.357-.318 4.7-.667 9.397-.927 14.101-.056 1.007-.27 2.1.506 3.462.313-1.779.62-3.16.788-4.56.186-1.531.242-3.077.358-4.615.22.216.44.437.953.943.01-.846.017-1.295.028-1.999-.478.542-.74.836-1.002 1.13l.007-.011Zm15.32-332.625c.212-.179.425-.355.908-.76-1.091-.081-1.79-.134-2.49-.189l-.083.496c.593.153 1.185.307 1.779.464-.653.049-1.308.146-1.963.14-2.509-.031-5.019-.167-7.522-.118-1.28.026-2.574.598-3.834.511-2.434-.169-4.848-.613-7.267-.971-1.506-.225-3-.505-4.415-.744-.575.849-.255 1.412.084 1.997 1.25 2.166 2.504 4.332 3.715 6.518 1.241 2.239 2.231 4.65 3.707 6.719 1.338 1.875 2.279 3.903 3.277 5.927.239.482.468.965.689 1.456.433.967 1.234 1.238 2.205 1.17.403-.029.8-.138 1.276-.222.294.569.613 1.072.821 1.616 1.418 3.742 2.793 7.502 4.229 11.238.704 1.833 1.5 3.631 2.283 5.431.35.808.84 1.557 1.157 2.376.383.999.625 2.051.98 3.061.117.334.394.608.792 1.199.436-1.803.608-3.247.655-4.746.072-2.252-.027-4.572 1.838-6.404.487-.48.48-1.531.56-2.333.09-.942-.26-2.024.089-2.823.717-1.637.231-3.31.528-4.934.042-.227.083-.589-.04-.687-1.12-.913-.374-1.95-.22-2.932.083-.526.382-1.024.42-1.547.19-2.653 1.073-5.129 1.986-7.581.41-1.104.388-1.923-.494-2.727-1.03-.937-1.574-2.203-1.419-3.517.132-1.099-.294-1.732-1.016-2.283-1.096-.836-1.717-1.924-2.149-3.209-.195-.583-.701-1.063-1.067-1.592Zm-3.236 312.5c1.18 1.465.504 3.086.36 4.649-.132 1.423-.378 2.837-.534 4.26-.158 1.42-.258 2.848-.392 4.269-.217 2.318-.599 4.631-.623 6.951-.037 3.461.155 6.93.296 10.391.04.949.24 1.89.368 2.836.361-.788.473-1.553.489-2.319.038-2.208.03-4.416.06-6.627.005-.409.065-.824.156-1.225.266-1.146.685-2.271.822-3.43.64-5.461 1.168-10.935 1.813-16.393.3-2.546.8-5.072 1.178-7.611.273-1.838.495-3.685.743-5.525.199.32.1.745.255.884.924.828.572 1.84.485 2.814-.053.596-.156 1.185-.227 1.777-.575 4.734-1.211 9.46-1.703 14.201-.382 3.666.14 7.37-.35 11.045-.052.401.11.823.136 1.239.148 2.318.301 4.636.417 6.957.054 1.073-.057 2.159.05 3.225.103 1.041.152 2.143 1.124 3.186.681-.412 1.44-.75 2.046-1.262.818-.693 1.528-1.516 2.274-2.291 1.389-1.444 2.768-2.897 4.165-4.358l.588.678c1.285-1.179 2.431-2.267 3.112-3.762.208-.458.73-.774 1.108-1.157.375-.382.777-.745 1.115-1.161 2.55-3.121 4.406-6.675 6.285-10.204 2.387-4.482 4.575-9.067 6.315-13.847.142-.391.305-.782.393-1.188.55-2.569 1.158-5.131 1.6-7.72.33-1.939.464-3.916.635-5.879.172-1.964.449-3.942.374-5.9-.073-1.854.205-3.746-.895-5.563-.573-.944-.247-2.428-.346-3.666-.15-1.894-.149-3.815-.51-5.669-.88-4.522-2.341-8.89-4.008-13.177-1.12-2.881-2.395-5.705-3.653-8.533-.608-1.363-1.335-2.671-2.007-4.004-.83-1.647-1.626-3.317-2.503-4.94-.293-.54-.796-.965-1.295-1.547-1.436 2.08-1.72 4.389-2.594 6.441.02-1.168.388-2.327.201-3.388a4.289 4.289 0 0 1 .048-1.869c.154-.638.388-1.262.52-1.905.285-1.391-.08-1.873-1.917-2.373-.132.61-.07 1.583-.438 1.793-1.262.717-1.235 1.93-1.591 3.036-1.573 4.892-3.284 9.74-4.287 14.801-.16.806-.264 1.726-1.092 2.339-.15-.584-.149-1.14-.095-1.69.066-.712.187-1.42.247-2.131.01-.104-.2-.228-.39-.428-.287.443-.53.813-.892 1.367-.18-1.296.808-2.332-.232-3.584-.337.899-.675 1.579-.855 2.3-1.562 6.202-3.136 12.401-4.622 18.621-.973 4.066-1.85 8.159-2.684 12.256-.676 3.332-1.242 6.686-1.828 10.033-.427 2.456-.861 4.912-1.192 7.381-.433 3.252-.777 6.518-1.128 9.781-.08.731-.03 1.476-.041 2.216.124.016.249.027.373.043.116-.302.278-.59.341-.904.253-1.228.414-2.482.727-3.695.308-1.181.62-2.373 2.026-2.881.352-.125.605-.847.69-1.331.217-1.233.267-2.496.474-3.73a1187.42 1187.42 0 0 1 2.351-13.778c.425-2.391.954-4.764 1.453-7.247.812.526.582 1.217.469 1.811-.912 4.749-1.865 9.49-2.775 14.242-.19.991-.253 2.005-.383 3.008-.19 1.467-.337 2.945-.594 4.403-.35 1.996-.853 3.965-1.157 5.967-.146.955.004 1.958.02 2.939.132.011.265.025.394.038.259-1.43.517-2.859.773-4.287l-.045-.004.01.005ZM-97.27 310.987l.02-.031c-.856.469-1.6.125-2.361-.292-1.842-1.003-3.754-1.686-6.021-1.115 1.627 1.376 3.537 2.126 5.415 2.717 1.063.335 2.152.573 3.178 1.055 1.08.507 2.17 1.022 3.305 1.375.777.241 1.833.555 2.415.222 1.09-.622 1.796-.107 2.652.258.557.238 1.152.391 1.89.634.005-.65.095-1.027-.007-1.341-.484-1.47-.887-2.988-1.572-4.36-.871-1.746-1.987-3.369-3.1-5.218.99-.577 1.083-1.313.626-2.178-1.444-2.753-2.843-5.529-4.307-8.269-.36-.673-1.11-1.193-1.307-1.891-.396-1.389-1.242-2.252-2.576-2.886l-2.722 2.691c.118-.765.21-1.351.363-2.35-4.406 2.949-7.65 6.515-10.807 10.204.707-1.548 1.584-2.96 2.408-4.404.255-.448.646-1.1.494-1.448-.646-1.469.048-2.664.656-3.827.49-.941 1.263-1.733 1.873-2.617.574-.831 1.307-1.59 1.569-2.995-.78.522-1.307.803-1.747 1.182-1.538 1.33-3.035 2.701-4.57 4.036-.302.261-.688.424-1.035.63-.1-.117-.196-.233-.297-.35.399-.562.754-1.162 1.205-1.68 1.756-2.023 3.552-4.015 5.314-6.032.51-.584.522-1.149-.132-1.698-1.503-1.258-2.923-2.624-4.482-3.803-1.423-1.078-2.994-1.953-4.478-2.95-.485-.324-1.071-.67-1.311-1.155-.527-1.06-1.437-1.526-2.395-2.037-2.026-1.077-4.195-1.67-6.419-2.188-3.719-.869-7.39-1.946-11.107-2.825-4.515-1.065-9.04-.899-13.445.519-2.666.857-5.218 2.062-7.825 3.103-.406.163-.836.273-1.41.457l.766-2.108c-1.171.604-1.963 1.238-2.846 1.419-2.868.587-5.155 2.191-7.343 3.965-2.739 2.217-5.424 4.499-8.107 6.784-.894.762-1.606 1.794-2.592 2.379-1.214.719-1.053 2.243-2.107 2.979-.289.202-.535.477-.769.747-1.666 1.941-3.321 3.897-4.987 5.838-.519.605-.797 1.201-.175 1.899.556.622.827 1.788 1.875 1.075.589 1.237 1.072 2.443 1.717 3.558.745 1.289 1.917 1.404 3.398 1.49 2.162.124 4.258.754 6.512.445 2.472-.341 4.993-.343 7.495-.427 2.144-.072 4.293-.064 6.441-.071 1.483-.005 2.965.03 4.447.029.886-.001 1.779-.105 2.664-.046 1.94.129 3.866.577 5.825.184.345-.069.756-.112 1.064.01 1.088.427 2.088.992 3.329.242.308-.185 1.08.322 1.599.59.286.15.489.462.723.695.381-.332.67-.581.927-.806.512.433.912.772 1.303 1.106.59-.351 1.103-.652 1.766-1.047-.099.699-.159 1.134-.222 1.57l.246.303c.94-1.577 2.304-1.276 3.56-.985 1.776.409 3.716-.212 5.377.888.167.113.47.002.706.029 2.765.303 5.583.012 8.288 1.032 1.25.473 2.715.629 3.519-.949.212.297.326.625.493.654.218.037.418-.344.631.177.224.556.62 1.105 1.08 1.49.937.776 2.565.365 2.987-.798.831-2.284 2.262-4.2 3.586-6.186.19-.287.428-.545.725-.917-1.115 2.451-2.199 4.703-3.162 7.006-.619 1.483-.472 1.678 1.026 2.208 1.175.415 2.399.709 3.534 1.214 2.273 1.013 4.502 2.131 6.747 3.203l.004-.011Zm316.138-162.032c-.274-1.013-.438-1.772-.686-2.503-1.68-4.929-3.692-9.717-6.132-14.323-1.656-3.126-3.556-6.087-5.894-8.745-.376-.428-.9-.73-1.377-1.059-.722-.5-1.596-.852-2.174-1.48a82.577 82.577 0 0 0-6.944-6.712c-3.814-3.292-7.807-6.276-12.342-8.509-2.036-1.002-4.047-2.05-6.088-3.04-1.284-.623-2.576-1.24-3.909-1.752-1.561-.6-3.195-1.002-4.743-1.628-3.848-1.562-7.883-2.452-11.928-3.204-2.621-.486-5.345-.416-8.024-.624-4.655-.36-9.312-.47-13.974-.1-2.38.186-4.758.375-7.129.643-.478.055-1.027.376-1.317.75-.128.162.313.767.517 1.22-.677.132-1.316.297-1.968.375-3.58.426-7.097 1.064-10.283 2.894-.361.206-.771.328-1.17.452-4.579 1.415-9.015 3.178-13.386 5.157-2.747 1.243-5.269 2.822-7.747 4.478-2.83 1.891-5.543 3.959-8.294 5.967-4.913 3.588-9.013 8.028-13.097 12.487-.522.571-1.059 1.128-1.58 1.702-1.234 1.348-2.308 2.712-3.05 4.493-.85 2.04-2.434 3.763-3.523 5.77-1.787 3.296-3.988 6.367-5.995 9.546a78.27 78.27 0 0 0-2 3.403c-.148.261-.182.586-.343 1.145.501-.414.746-.619 1.23-1.022-.178.618-.23.972-.376 1.279a479.404 479.404 0 0 1-2.73 5.651c-1.482 3.004-2.986 5.995-4.458 9.004-.286.587-.478 1.222-.682 1.846-.365 1.128-.673 2.275-1.066 3.394-.376 1.067-.85 2.098-1.238 3.162-.637 1.74-1.245 3.493-1.855 5.242-.883 2.54-1.79 5.074-2.625 7.631-.574 1.761-1.009 3.566-1.571 5.331-.886 2.792-1.838 5.564-2.735 8.355-.154.476-.165 1.001-.261 1.616.722.084 1.245.168 1.773.196 1.724.102 3.455.108 5.078.854 1.72.786 3.514 1.03 5.42.83 1.237-.13 2.523-.056 3.755.131 4.444.672 8.8 1.747 12.972 3.426 2.882 1.158 5.678 2.528 8.513 3.802 1.275.572 1.428.566 2.188-.61 1.071-1.657 2.092-3.348 3.107-5.042 3.651-6.111 7.156-12.294 12.523-17.19 2.632-2.404 5.372-4.496 8.722-5.739.267-.098.622-.175.866-.08 1.207.472 2.187-.047 3.233-.547.94-.449 2.032-1.109 2.943-.961 1.411.227 2.39-.198 3.466-.916.926-.617 1.977-1.043 3.152-1.646l1.872 3.646c1.494-.249 1.88-2.002 3.437-1.986-.639 1.443-.459 2.386.54 2.829.042.441.085.889.152 1.615l3.016-1.16c1.688.719.641 2.122.989 3.309.99-.763 1.834-1.417 2.68-2.068.111.094.223.189.337.282-.201.527-.398 1.055-.608 1.58-.241.604-.602 1.18-.719 1.806-.185.995.309 1.445 1.317 1.288.526-.083 1.045-.361 1.523.308-.368 1.077-.646 2.232.903 2.546.452 3.12.882 6.108 1.334 9.234 1.287.031 2.278.713 2.661 2.231.487-.377.826-.611 1.133-.882 2.787-2.444 5.54-4.927 8.361-7.331 3.045-2.597 6.162-5.112 9.224-7.691.773-.65 1.395-1.484 2.19-2.106 1.598-1.251 3.282-2.388 4.903-3.615 6.582-4.984 13.123-10.024 19.741-14.96 3.547-2.645 7.209-5.137 10.847-7.656 2.559-1.77 5.315-3.19 8.081-4.621 5.95-3.081 11.8-6.355 17.696-9.54 1.148-.619 2.316-1.196 3.628-1.866l-.002.008Zm-318.82 427.526c-.564.39-1.033.685-1.464 1.03-.27.215-.431.596-.72.748-2.192 1.172-4.491 2.17-6.589 3.484-2.387 1.494-4.994 1.9-7.679 2.149-.189.018-.514-.099-.573-.237-.326-.787-1.038-.44-1.57-.555-.447-.097-.929-.004-1.389-.047-4.517-.416-9.035-.832-13.549-1.28-1.419-.14-2.86-.249-4.241-.585-1.967-.476-3.908-1.081-5.818-1.748-2.285-.798-4.622-1.4-6.788-2.616-2.53-1.419-5.272-2.474-7.95-3.621-2.963-1.271-5.96-2.455-8.93-3.707-3.653-1.543-7.293-3.119-11.084-4.743-.813.386-2.224.476-2.095 2.149-1.013.384-1.078 1.4-1.352 2.202-.612 1.804-.986 3.69-1.624 5.481-.972 2.727-1.53 5.518-1.749 8.391-.125 1.669-.19 3.345-.433 4.996-.688 4.65-.275 9.267.302 13.879.221 1.774.674 3.518.999 5.277.781 4.22 2.303 8.232 4.388 11.9 4.255 7.492 9.804 13.787 17.867 17.518 3.758 1.74 7.511 3.381 11.63 4.065 1.998.331 3.997.708 5.96 1.209 3.198.816 6.437 1.178 9.728 1.307 3.457.137 6.905.477 10.361.65 1.602.083 3.211-.02 4.816-.025.472-.003.945.034 1.416.075 2.075.179 4.149.451 6.228.522 2.25.076 4.506-.107 6.757-.049 1.657.044 3.304.457 4.942-.262.52-.229 1.179-.159 1.773-.195 2.083-.119 4.178-.126 6.244-.369 1.873-.219 3.78-.222 5.603-.938 1.076-.423 1.945-.829 1.885-2.471.528 1.427 1.095 1.826 1.682 1.347.32-.26.573-.801.572-1.214-.002-2.132.673-4.229.246-6.39-.166-.849-.08-1.753-.068-2.633.003-.206.154-.446.302-.609.843-.905.87-2.019.896-3.157.063-2.674-.03-5.367.28-8.013.799-6.884 1.751-13.754 2.714-20.616.203-1.46.713-2.877 1.076-4.315.057-.224.1-.454.133-.686.285-1.936.55-3.872.855-5.801.12-.767.348-1.512.487-2.275.333-1.819.61-3.648.973-5.459.993-4.983 2.11-9.943 3.002-14.941.832-4.641 1.412-9.328 2.155-13.987a309.422 309.422 0 0 1 1.578-8.998c.408-2.165.871-4.322 1.38-6.465.687-2.908 1.452-5.799 2.155-8.701.803-3.311 1.456-6.664 2.389-9.936 1.211-4.252 2.643-8.443 3.957-12.669.313-1.009.538-2.047.786-3.011-.895-.541-1.687-.876-2.3-1.416-2.907-2.553-6.437-4.057-9.765-5.9-.84-.466-1.634-.453-2.567-.12-1.969.702-3.955 1.489-6 1.797-4.893.737-9.336 2.987-14.144 3.971-.284.057-.542.25-.818.363-2.161.867-4.333 1.707-6.485 2.596-1.934.8-3.858 1.625-5.768 2.485-.698.314-.919 1.311-.345 1.59.965.47 1.685 1.57 3.042 1.211-1.539 1.68-1.543 1.712-.162 3.624 1.082 1.499 2.179 2.989 3.248 4.497.402.566.743 1.177 1.186 1.887l-1.61.236c.63.809 1.124 1.394 1.562 2.018.932 1.331 2.405 2.389 2.077 4.364-.054.325.477.739.716 1.124.365.599.99 1.199 1.014 1.818.07 1.855 1.029 3.268 2.005 4.679 1.485 2.14 3.375 4.044 3.683 6.828.042.388.344.755.55 1.118.875 1.539 1.836 3.017 2.45 4.713.373 1.031 1.149 1.944 1.846 2.827.612.775.676.725 1.806.632.329 1.066.576 2.179 1.01 3.214.932 2.221 1.263 4.454.638 6.827-.165.624.004 1.336.022 2.005l.399.029.359-1.26c.682-.173 1.342-.342 2.221-.564-.05.987-.051 1.798-.143 2.596-.072.623-.052 1.482-.434 1.795-.803.656-1.843 1.02-2.8 1.512l-1.047-1.077c-.788.595-1.759 1.017-2.232 1.754-.86 1.333-1.53 2.82-2.088 4.317-.514 1.383-1.418 2.376-2.693 2.882-.802.318-1.329.722-1.681 1.45-.46.948-1.128 1.663-2.166 2.01-.316.107-.757.338-.826.595-.456 1.687-1.897 2.345-2.765 2.922-2.03.088-3.644.161-5.226.231.021-1.178 2.167-1.367 1.403-3.234l-.024-.001Zm235.15-132.973c.431.379.952.785 1.403 1.256.272.283.595.652.627 1.009.103 1.168.717 2.031 1.52 2.76 1.543 1.406 3.031 2.916 4.748 4.08 3.404 2.313 6.964 4.381 10.6 6.333 4.365 2.339 8.512 5.076 13.177 6.861 3.236 1.236 6.391 2.686 9.6 3.992 2.763 1.126 5.61 2.07 7.853 4.17.171.159.378.317.597.382 1.887.571 3.746 1.344 5.675 1.638 5.243.795 10.397 2.162 15.755 2.25 3.335.054 6.666.454 10.003.666 5.928.372 11.794-.03 17.673-.978 7.004-1.129 13.543-3.466 19.761-6.771 1.831-.975 3.622-2.147 5.147-3.54 2.548-2.33 4.888-4.89 7.261-7.404.471-.498.917-1.204.983-1.853.104-1.029-.168-2.056.633-2.992.213-.249-.03-1.066-.279-1.496-.563-.976-1.18-1.947-1.926-2.789-1.775-2.01-3.73-3.867-5.447-5.924-2.555-3.065-5.448-5.642-9.122-7.284a8.807 8.807 0 0 1-1.53-.9c-.864-.615-1.649-1.347-2.546-1.899-.965-.593-2.046-.988-3.031-1.551-4.537-2.575-9.323-4.594-14.182-6.454-1.328-.508-2.743-.793-4.088-1.27-1.519-.538-2.968-1.288-4.508-1.743-4.814-1.427-9.624-2.872-14.489-4.101-11.323-2.858-22.757-5.163-34.464-5.644-6.073-.248-12.142-1.149-18.243-.311-1.422.195-1.516.154-2 1.756-.044.145.024.322.051.606.432-.343.776-.619 1.127-.896.722.811.218 1.392-.174 1.984-1.754 2.638-3.524 5.268-5.262 7.917-2.575 3.925-5.75 7.316-9.2 10.469-.391.357-1.093.967-1.006 1.154.585 1.229-.551 1.498-1.046 2.097-.263.318-.717.496-.926.835-.327.54-.611 1.139-.741 1.752-.117.549.004 1.148.02 1.828l-.004.005ZM-99.098 181.55c-1.015 1.565-1.86 2.848-2.688 4.141-1.546 2.412-3.394 4.692-4.542 7.278-1.494 3.37-2.64 6.934-3.56 10.514-1.402 5.465-2.082 11.036-1.296 16.702.25 1.798-.135 3.726 1.167 5.293.103.122.084.343.131.517.63 2.304 1.231 4.616 1.913 6.906.236.79.589 1.577 1.034 2.273 1.864 2.906 4.412 5.175 7.206 7.126 3.59 2.502 7.554 4.347 11.557 6.1.809.356 1.544.876 2.318 1.316 1.654.942 3.233 2.025 5.168 2.375 2.176.395 4.342.84 6.506 1.301 1.283.273 2.68.376 3.803.973 2.441 1.299 5.166 1.404 7.727 2.158.98.288 2.308-.1 2.556-.839.327-.969.919-.875 1.49-.968 2.118-.346 4.25-.613 6.379-.915 1.544-.222 3.08-.463 4.225-1.645-.08-.432-.152-.808-.228-1.205 1.16-.599 2.47-.915 3.219-1.741.938-1.036 1.946-1.391 3.215-1.577 1.383-.205 2.161-1.307 2.008-2.676a12.799 12.799 0 0 0-.349-1.758c-2.044-7.866-4.1-15.729-6.145-23.59-1.142-4.394-2.29-8.787-3.385-13.195-.24-.974-.072-2.076-.422-2.993-1.676-4.349-3.447-8.659-5.233-12.965-.291-.706-.678-1.501-1.262-1.927-1.127-.824-1.999-1.653-1.879-3.177.02-.251-.217-.549-.387-.789-1.171-1.654-2.212-3.414-3.942-4.598-.378-.258-.65-.683-.944-1.053-1.886-2.383-3.914-4.511-7.274-4.588-.85-.02-1.88.012-2.508-.435-1.046-.743-1.998-.632-3.046-.329-1.532.444-3.053.921-4.532 1.371-1.75-.965.347-1.783.044-2.877-2.447.01-4.428 1.271-6.449 2.32-2.107 1.098-4.107 2.398-6.203 3.52-2.097 1.119-2.89 3.591-4.986 4.706-.096-.251-.179-.463-.408-1.049l.002-.001Zm-159.299 217.999c.933-.482 1.561-.779 2.164-1.117 1.2-.665 2.36-1.406 3.582-2.02 4.189-2.113 8.753-3.196 13.147-4.746 1.517-.536 2.974-1.254 4.507-1.728 2.676-.829 5.473-1.324 8.07-2.34 3.196-1.253 6.483-2.074 9.808-2.808 2.627-.579 5.265-1.098 7.894-1.661 1.868-.402 3.73-.821 5.593-1.253 3.316-.77 6.624-1.574 9.944-2.326 2.063-.466 4.139-.863 6.263-1.301-.104-1.395-.812-2.349-1.424-3.362-1.076-1.782-2.275-3.528-3.081-5.429-1.022-2.409-1.709-4.961-2.532-7.452-.458-1.387-1.34-2.103-2.854-2.29-3.141-.386-6.282-.841-9.388-1.446-1.801-.354-3.547-1.023-5.292-1.62-2.372-.813-4.67-1.924-7.1-2.476-2.086-.47-3.953-1.302-5.829-2.219-.855-.418-1.738-.782-2.609-1.169-.868-.385-1.522.008-2.047.64-.256.311-.388.729-.501.953-.768.34-1.487.516-2.031.926a68.06 68.06 0 0 0-4.011 3.303c-4.422 3.906-7.809 8.707-11.397 13.326-3.402 4.381-5.519 9.481-7.637 14.555-1.528 3.663-2.218 7.56-3.037 11.411-.228 1.071-.133 2.211-.203 3.653l.001-.004Zm30.573 19.767c-.817.323-1.514.524-2.136.858-1.89 1.019-3.789 2.029-5.619 3.152a358.382 358.382 0 0 0-9.232 5.859c-1.53 1.005-1.601 1.458-.775 3.115 1.969 3.957 4.551 7.491 7.353 10.899a47.023 47.023 0 0 0 8.243 7.87c1.323.987 2.727 1.866 4.15 2.834.763-.728 1.396-1.355 2.055-1.95 6.507-5.901 12.972-11.851 19.542-17.682 5.051-4.482 10.232-8.816 15.358-13.21.906-.779 1.861-1.506 2.73-2.322 2.81-2.638 6.106-4.594 9.313-6.672 2.252-1.46 4.593-2.781 6.877-4.191.279-.171.454-.506.835-.947-1.013-1.001-2.005-1.928-2.931-2.914-1.586-1.695-3.168-3.394-4.672-5.161-.773-.907-1.087-1.175-2.259-.798-1.99.641-4.016 1.23-5.907 2.1-3.043 1.396-6.064 2.796-9.352 3.525-.52.116-1.019.347-1.518.542a1048.53 1048.53 0 0 0-7.01 2.745c-4.056 1.607-8.115 3.203-12.153 4.851a25.803 25.803 0 0 0-3.36 1.678c-1.747 1.028-3.442 2.144-5.155 3.23-.387.246-.758.513-1.127.767.908 1.663.867 1.738-.832 2.204-.742.205-1.463.481-2.233.74-.053-.327-.097-.598-.178-1.109l-.007-.013Zm449.877-247.138c.016.108.036.217.052.324-.249.152-.493.321-.753.452-5.902 2.943-11.438 6.518-16.948 10.106-4.509 2.936-8.89 6.08-13.171 9.335-1.811 1.378-3.844 2.691-4.757 5.008-.165.418-.575.766-.928 1.081-2.406 2.144-4.82 4.283-7.247 6.405-4.318 3.779-8.691 7.498-12.96 11.335-3.911 3.516-7.713 7.148-11.553 10.744-.228.214-.354.54-.658 1.021 1.32-.04 2.124.596 3.003 1.138.986.609 1.681.141 1.894-1.103.026-.159.146-.3.284-.57 1.283.253 2.594.407 3.837.783 1.581.478 3.039.482 4.452-.456.446-.296.95-.506 1.419-.772 4.888-2.784 9.787-5.547 14.654-8.367 3.779-2.188 7.552-4.394 11.267-6.688 6.923-4.275 13.871-8.519 20.676-12.977 3.995-2.617 7.739-5.618 11.587-8.454.185-.135.391-.334.45-.54.204-.726.451-1.466.488-2.209.041-.825.07-1.742-.242-2.47-.993-2.315-.975-4.761-1.234-7.187-.207-1.953-.624-3.883-1.009-5.814-.11-.561-.421-1.079-.685-1.726-1.08.557-2.065 1.059-3.316 1.701l1.401-.101-.003.001ZM-253.61 477.395c-.875-.894-1.7-1.813-2.603-2.65-2.489-2.31-5.015-4.58-7.513-6.881-.693-.638-1.258-1.444-2.024-1.965-2.971-2.017-5.103-4.815-7.295-7.572-.284-.359-.672-.636-1.206-1.127-.674.695-1.302 1.287-1.857 1.944-.302.358-.421.872-.721 1.232-2.893 3.477-4.828 7.544-7.004 11.448-2.411 4.326-4.6 8.779-6.773 13.234a99.153 99.153 0 0 0-6.095 15.869c-.366 1.26-.604 2.563-.794 3.861-.254 1.709.637 2.37 2.214 1.705.88-.372 1.744-.782 2.614-1.181 3.258-1.487 6.603-2.81 9.744-4.517 2.825-1.534 5.513-3.368 8.1-5.289 3.407-2.525 6.67-5.244 9.967-7.912a568.85 568.85 0 0 0 8.014-6.629c1.182-.994 2.356-2.01 3.234-3.574l-.002.004Zm-16.279-196.482-.361.057-.501 3.172c-1.328-.726.091-2.229-1.063-3.092-1.298 1.646-.147 3.261-.157 4.889-.919.484-1.305 1.454-1.088 2.35.343 1.414.921 2.798 1.586 4.099.534 1.047 1.392 1.926 2.03 2.926 1.486 2.328 3.097 4.518 5.474 6.052 1.001.644 2.021 1.325 2.83 2.18.981 1.035 2.146 1.683 3.394 2.266 1.025.479 2.019 1.021 3.051 1.48 1.945.864 3.745 2.151 6.021 2.084.277-.008.586.123.835.266.973.563 1.9 1.212 2.901 1.713.501.254 1.172.463 1.686.344 1.082-.251 1.87-.129 2.767.648 1.125.973 2.01.635 2.701-.733.16-.317.265-.666.411-.992 1.028-2.343 1.742-4.828 3.436-6.856 1.119-1.338.157-2.971.339-4.46.024-.198-.323-.491-.559-.66-3.578-2.584-7.089-5.276-10.777-7.694-2.876-1.884-5.978-3.425-8.978-5.126-.871-.496-1.733-.851-2.678.159-.385-1.501-1.334-2.264-2.572-2.693-1.153-.4-2.188-1.001-3.541-.973-1.406.027-1.952 1.496-3.274 1.564l-1.037-3.452-2.51 1.831-.366-1.349ZM25.349 418.306c-.383.823-.974 1.544-.81 1.83.655 1.14.017 2.167-.107 3.633.263-.01.572-.054.872-.03.815.065 1.564.28 1.781 1.207.204.863-.498 1.272-.982 1.779-.122.129-.255.268-.412.342-.616.295-1.588.419-1.778.878-.258.616.153 1.482.144 2.24-.008.57-.054 1.089.512 1.403.777.428.848 1.079.643 1.843-.293 1.094-.06 1.973.91 2.668.295.212.39.705.578 1.068-.117.067-.236.131-.357.2-.236-.331-.476-.66-.713-.991.277 1.934-1.04 2.346-2.4 2.604-.966.185-1.373.597-1.142 1.589.06.257-.054.557-.08.795-1.814.5-2.017.684-1.772 1.523.319 1.092 1.06 1.437 2.283 1.057l-.015-1.818c.627.246.958.561 1.186.939.842 1.394 2.035 1.73 3.54 1.284.395-.118.838-.287 1.216-.214 2.329.458 4.627.081 6.935-.141 1.273-.125 2.475.088 3.617.755.564.33 1.282.4 1.974.598.172-2.218-1.373-5.187-3.086-6.184-.019-.215-.065-.452-.058-.688.032-1.491-.029-2.994.142-4.471.176-1.525-.754-3.013-.05-4.543.104-.232-.06-.581-.078-.879-.098-1.659-.51-3.252-1-4.831-.137-.445-.131-.934-.175-1.404-.049-.523.095-1.163-.157-1.542-.238-.357-.886-.439-1.407-.666a16.01 16.01 0 0 1 1.745-7.233c1.14-2.231 1.741-4.38.616-6.758.206-.275.352-.543.568-.74 1.22-1.139 2.52-2.197 3.652-3.416.612-.656 1.322-1.588 1.3-2.374-.024-.92-1.324-.738-2.06-1.056-.055-.021-.12-.024-.175-.042-1.774-.532-3.515-1.078-4.948-2.386-.943-.859-2.093-1.495-3.361-2.381-.788 1.577-1.572 2.911-2.143 4.333-1.42 3.54-2.661 7.15-4.693 10.414-.25.4-.471.851-.577 1.306-.51 2.201-.978 4.41-1.415 6.404.667.804 1.211 1.462 1.74 2.095l-.003.001Zm192.208-189.558a40.48 40.48 0 0 0-.297-.28c-1.57.807-3.161 1.572-4.703 2.425a1990.802 1990.802 0 0 0-13.941 7.767c-2.346 1.317-4.694 2.635-6.989 4.037-1.886 1.156-1.985 1.709-.95 3.618.427.789.911 1.547 1.318 2.342a554.764 554.764 0 0 1 3.643 7.173c.283.568.459 1.191.685 1.783 1.848-.614 2.336-.426 3.189 1.124.144.26.288.526.468.76.73.94 1.102.979 2.209.302.244-.149.537-.337.796-.322 1.073.072 1.628-.496 2.056-1.391.333-.695.839-1.306 1.228-1.976 4.249-7.325 7.254-15.188 10.034-23.147.481-1.383.837-2.809 1.25-4.216l.004.001Zm-357.604 295.537c-1.572.957-3.835 2.294-6.052 3.706-1.512.962-2.969 2.012-4.419 3.064-.847.616-.89.949-.25 1.766.508.651 1.126 1.214 1.646 1.855.28.345.67.792.638 1.159-.09.949.451 1.477 1.073 1.926 1.444 1.04 3.029 1.905 4.39 3.041 1.395 1.164 2.932 1.935 4.6 2.589 1.658.648 3.221 1.534 4.851 2.26 2.774 1.24 5.47 2.749 8.563 3.053 1.21.12 2.614.684 3.517-.804.087-.14.431-.133.658-.174.826-.145.893-.662.67-1.331-.243-.734-.708-1.476-.675-2.194.043-.942-.345-1.617-.804-2.3a35.214 35.214 0 0 0-1.915-2.589c-3.943-4.862-7.92-9.7-11.852-14.574-1.688-2.091-1.653-2.119-4.638-.457l-.001.004Zm334.053-182.312c-1.332-1.323-2.965-1.981-4.792-2.153-2.674-.25-5.349-.539-8.032-.632-4.89-.17-9.788-.245-14.683-.264-.767-.004-1.655.342-2.268.814-.469.361-.587 1.172-.893 1.849-.595-.678-1.288-.522-2-.016-.632.449-1.333.817-1.919 1.318-.693.593-1.662.947-2.008 2.042.297.177.527.366.79.458 3.935 1.378 7.875 2.74 11.814 4.106.731.255 1.444.591 2.197.748 5.253 1.091 10.637 1.446 15.835 2.893 1.89.526 2.739-.088 3.3-2.021.397-1.372.622-2.797.978-4.185.145-.564.321-1.187.681-1.617.829-.991 1.087-2.089 1.001-3.338l-.001-.002Zm-472.622 110.646c-.352.241-.796.444-1.101.776-1.127 1.23-2.381 2.39-3.273 3.779-2.698 4.2-5.75 8.163-7.968 12.69-2.046 4.181-4.483 8.167-6.192 12.52-1.829 4.671-3.892 9.254-4.6 14.295-.363 2.594-.924 5.162-1.408 7.739-.186.999-.081 1.913.691 2.646.768.731 1.75.581 2.237-.354.161-.309.221-.68.283-1.029 1.109-6.277 3.496-12.164 5.604-18.129.409-1.157 1.074-2.28 1.84-3.245 1.644-2.062 2.501-4.428 3.18-6.921.531-1.954 1.258-3.834 2.817-5.27.471-.435.874-.97 1.221-1.516 1.704-2.669 3.421-5.331 5.051-8.047 1.074-1.787 2.12-3.607 2.966-5.508.712-1.598.821-3.258-1.349-4.429l.001.003Zm60.154-44.073-.08.286c-.634.112-1.575.541-1.842.279-.8-.78-1.428-.258-2.078-.005-1.559.61-3.103 1.261-4.629 1.946-5.023 2.262-9.901 4.797-14.581 7.702-.452.279-.836.663-1.261.988-.887.686-1.751 1.41-2.677 2.04-.789.536-1.674.926-2.465 1.457-.315.212-.726.666-.684.952.197 1.363.031 2.933 1.845 3.838.605-.669 1.183-1.408 1.866-2.034.6-.551 1.319-1.376 1.977-1.371 1.543.013 2.455-.861 3.366-1.777 1.88-1.893 3.892-3.457 6.722-3.496.174-.004.357-.065.516-.141 2.375-1.127 4.788-2.177 7.102-3.415 2.246-1.202 4.401-2.555 6.517-4.008 3.75-2.574 8.043-4.214 12.353-5.675 2.401-.813 4.75-1.592 6.309-3.772.133-.185.36-.322.572-.424 2.149-1.05 4.292-2.137 6.755-2.227 2.245-.081 4.347-.729 6.397-1.586 1.652-.691 3.308-1.383 4.941-2.124.553-.249 1.31-.316 1.504-1.249-.333-.06-.618-.197-.862-.144-2.499.546-5.017 1.023-7.476 1.716-2.583.729-5.071 1.801-7.66 2.493-3.56.951-6.819 2.557-10.075 4.195-.31.157-.698.373-.809.659-.33.835-1.024.945-1.742 1.018-.944.094-1.896.135-2.845.195-.465.029-.983-.071-1.39.096-2.203.919-4.378 1.9-6.556 2.875-.073.031-.086.2-.154.381.378.112.749.221 1.123.329l.001.003Zm65.865-40.024c-.165.078-.326.158-.49.236.113.411.147.87.358 1.22.402.663.877 1.283 1.366 1.884 1.316 1.619 2.704 3.181 3.972 4.834 1.56 2.035 2.952 4.2 4.558 6.195.845 1.048 1.922 1.947 3.022 2.739.757.544 1.454.938 1.479 2.026.011.399.433.825.744 1.171 1.841 2.035 3.674 4.078 5.569 6.063 1.443 1.507 2.964 2.94 4.473 4.383.515.491 1.108.883 1.996.679-.054-.412-.074-.758-.148-1.094-.295-1.329-.53-2.682-.94-3.975-.376-1.185-.819-2.395-1.493-3.419-.47-.719-.851-1.257-.783-2.198.045-.674-.326-1.829-.801-2.007-1.755-.661-3.027-1.959-4.469-3.007-2.654-1.929-5.18-4.034-7.77-6.057-.47-.366-.998-.652-1.471-1.016-1.129-.873-2.323-1.685-3.335-2.677-1.616-1.586-3.099-3.31-4.656-4.956-.356-.375-.787-.679-1.184-1.016l.003-.008Zm208.363-6.84c.035.062.068.12.106.18-1.44.307-2.893.565-4.317.936-1.79.468-2.045 1.571-.888 3.024 2.088 2.622 4.472 4.946 6.972 7.154.851.751 1.875 1.31 2.952 2.05.243-.908.434-1.526.569-2.161.224-1.048.21-2.202.665-3.131.667-1.369.702-2.584-.137-3.791 1.923-1.515 1.984-2.082.56-4.412.49-.577.71-1.207.3-1.914-.448-.771-1.162-.475-1.767-.338-2.088.469-4.168.974-6.24 1.511-.4.104-.748.413-1.12.628.035.105.07.212.107.315.745-.018 1.492-.033 2.238-.051Zm75.002 66.542.301.39c2.239-.689 3.749-2.586 6.026-3.791-.717.982-1.279 1.735-1.823 2.501-.551.774-1.495 1.278-1.789 2.402 1.552-.315 2.482-1.245 3.431-2.158 1.871-1.799 3.695-3.679 6.457-4.086.163-.025.317-.161.454-.275 1.686-1.396 3.561-2.605 4.404-4.799.207-.536.701-.957 1.053-1.443.638-.874 1.076-1.821 1.152-2.982-.323-.087-.542-.203-.761-.198-2.683.042-5.363.083-8.045.171-.699.023-1.131.475-1.483 1.122-.704 1.303-1.548 2.528-2.304 3.802-.193.324-.446.759-.375 1.076.29 1.299-.35 2.079-1.234 2.899-1.871 1.736-3.648 3.572-5.461 5.368l-.003.001ZM-24.927 644.535c-.515.266-.765.372-.996.514-2.749 1.684-5.472 3.41-8.253 5.044-2.213 1.298-4.5 2.474-6.743 3.718-1.143.633-1.34 1.188-.817 2.125.495.888 3.78 2.691 4.741 2.413 1.92-.558 3.992-.903 5.145-2.89.225-.391.66-.658.984-.998.489-.509 1.068-.964 1.425-1.555 1.42-2.343 2.77-4.726 4.127-7.106.163-.282.199-.635.383-1.266l.004.001ZM105.64 308.493c.469.908.697 1.518 1.06 2.035 1.683 2.395 3.405 4.763 5.11 7.143.487.681.934 1.392 1.454 2.047.617.772 3.504.896 4.132.201.112-.124.225-.314.222-.468-.038-1.637.233-3.262-1.209-4.65-2.272-2.19-4.429-4.522-5.989-7.314-.054-.098-.178-.153-.476-.396l-4.306 1.406.002-.004Zm-74.277.122 4.082-2.596c.403-.258.84-.47 1.203-.773.563-.469.58-1.027.05-1.538-.255-.245-.58-.418-.873-.616-3.304-2.22-7.081-3.362-10.755-4.739-.253-.094-.57-.027-1.108-.043.066.601-.034 1.178.196 1.559a158.228 158.228 0 0 0 3.707 5.81c.45.677 1.02 1.276 1.652 2.057l.909-1.649c.325.873.608 1.633.941 2.522l-.004.006Zm-89.925 236.146c-5.407 19.793-9.392 39.84-10.744 60.357 3.372-20.157 6.335-40.388 10.744-60.357Zm-117.404-278.858c-2.124 1.284-3.892 2.656-5.258 4.532-1.126 1.543-2.307 3.045-3.484 4.549-.251.321-.546.659-.901.839-2.182 1.113-3.781 2.864-5.303 4.718-.526.641-1.132 1.219-1.739 1.787-1.331 1.242-2.426 2.597-2.485 4.523 2.215.681 2.394.629 3.709-1.075.22-.285.449-.566.628-.873 1.693-2.914 3.922-5.413 6.187-7.869 2.505-2.718 5.192-5.266 7.473-8.202.653-.839 1.185-1.59 1.177-2.928l-.004-.001Zm24.06 180.103c-.411.056-.549.039-.638.098-.248.161-.513.321-.71.535-2.117 2.299-4.776 3.9-7.265 5.727-1.875 1.377-3.564 3.003-5.319 4.541-.251.219-.396.561-.615.886.985.364 1.829.223 2.686-.157a8.526 8.526 0 0 1 1.682-.517c1.118-.24 1.875-.78 2.45-1.853.779-1.447 1.848-2.736 2.793-4.094.091.056.182.111.273.17-.156.93-.313 1.858-.468 2.788 2.098-2.495 3.778-5.115 5.131-8.124ZM-290.704 308.06c.706-.665.329-1.125.111-1.605-.538-1.19-1.266-2.338-1.56-3.588-.691-2.941-1.439-5.884-1.544-8.935-.019-.525-.152-1.065-.337-1.558-.123-.327-.431-.584-.657-.875-.118.035-.236.069-.352.106-.019.618-.081 1.242-.048 1.857.081 1.479.407 2.977.258 4.426-.119 1.166-.047 2.197.257 3.313.332 1.214 1.069 2.397.491 3.79-.121.287.418 1.19.514 1.17 1.077-.235 1.177.659 1.635 1.206.297.356.851.493 1.229.695l.003-.002ZM118.72 421.402c1.448.522 2.23-.317 3.038-.745 2.299-1.209 4.267-2.867 5.983-4.923a4.944 4.944 0 0 0-1.942-.105c-1.35.204-2.685.51-4.039.696-1.678.231-2.665 2.384-1.762 3.955-.344.303-.691.604-1.278 1.122Zm-56.226 86.511c.038.202.025.348.09.423 1.456 1.718 2.92 3.433 4.39 5.144.532.621 1.035 1.314 1.91 1.226.05-1.084.11-2.07.126-3.058.004-.217-.099-.467-.227-.646-.893-1.242-1.805-2.471-2.708-3.707-.1-.134-.277-.344-.236-.424.505-.998-.439-1.011-.815-1.381-1.18.394-1.313 1.252-1.065 2.318l-1.462.103-.003.002Zm-.563-50.252c-.487-.585-.83-1.443-1.787-.969-1.331.661-2.662 1.321-3.967 2.024-.293.158-.718.513-.693.735.131 1.166-.825 1.577-1.446 2.33.853-.017 1.671-.085 2.403-.374 2.152-.856 4.277-1.781 6.396-2.716.607-.267 1.62-.271 1.512-1.227-.11-.981-1.11-.892-1.836-1.062-.047-.013-.108.042-.287.118-.075.297-.17.67-.292 1.139l-.003.002Zm158.59-333.181c-.172.115-.346.234-.518.35.155.409.279.835.475 1.226.5 1.015 1.037 2.011 1.546 3.021 1.256 2.506 2.524 5.006 3.743 7.528.46.956.807 1.968 1.196 2.96.523 1.327 1.008 2.671 1.579 3.976.114.259.54.379 1.035.703-.063-1.79-.884-2.9-1.508-4.102-.398-.77-.623-1.63-.907-2.455-.117-.337-.127-.715-.277-1.031-1.675-3.559-3.347-7.12-5.079-10.654-.282-.579-.847-1.021-1.282-1.523l-.003.001ZM-61.913 635.974c.992-.483.997-1.242.983-1.943-.02-.951-.165-1.898-.236-2.85-.128-1.723-.318-3.443-.342-5.17-.047-3.329.008-6.66 0-9.99.001-.274-.15-.55-.233-.824-.386.791-.457 1.545-.497 2.3-.084 1.544-.144 3.089-.231 4.632-.081 1.414-.245 2.828-.272 4.244-.03 1.659.038 3.319.074 4.978.032 1.531-.032 3.081.755 4.619l-.001.004Zm264.981-401.232c1.94-.813 3.723-1.456 5.411-2.29 1.978-.978 3.879-2.111 5.805-3.188.938-.524 1.883-1.041 2.784-1.623.514-.331 1.152-.68.88-1.515-2.065.252-13.117 6.601-14.879 8.619l-.001-.003Zm-303.665 137.852c-.434 1.474.064 2.701 1.239 3.715.565.485 1.032 1.094 1.5 1.682.41.51.72 1.1 1.145 1.595.387.455.887.59 1.479.07-.116-.886-.271-1.815-.351-2.752-.1-1.205-.373-2.191-1.782-2.516-.547-.124-.994-.644-1.514-.938-.547-.309-1.126-.566-1.717-.859l.001.003Zm-88.055 6.959c-2.084-.016-3.904.428-5.023 1.267l1.921.341c.02.092.041.184.065.274l-4.267 1.385c.73.375 1.384.493 2.018.421 1.825-.215 3.645-.506 5.463-.78.165-.026.325-.145.464-.249.087-.069.13-.19.214-.323l-.85-2.332-.005-.004Zm62.898 7.576c-.145 2.644 2.457 6.152 4.766 6.732.061-.342.269-.74.158-1.007-.369-.888-.697-1.869-1.324-2.553-1.01-1.103-2.248-2.001-3.603-3.17l.003-.002ZM17.877 602.19c.39-.718.784-1.437 1.171-2.156.166-.307.493-.654.447-.931-.181-1.1.417-1.789 1.273-2.496-.615-1.051-.374-2.032.065-3.075.315-.748.357-1.623.447-2.449.03-.263-.178-.55-.275-.827-1.185 4.034-2.606 7.911-3.128 11.934Zm112.559-226.758c2.024.15 3.763-.097 5.491-.45l.045-.413-5.434-2.416c-.037 1.16-.064 2.083-.103 3.283l.001-.004Zm-332.524 29.45c.511.831 1.042.801 1.553.597a375.367 375.367 0 0 0 6.058-2.485c.476-.2.979-.433.854-1.321-2.862.975-5.764 1.62-8.464 3.205l-.001.004Zm421.09-173.623c-1.424.282-1.706 1.109-1.958 1.986-.707 2.465-1.442 4.92-2.161 7.381-.154.529-.277 1.066-.414 1.596 1.878-3.422 3.417-6.942 4.531-10.965l.002.002Zm-373.539 143.816c-.535-1.037-1.074-2.068-1.593-3.113-.493-.992-.846-2.08-1.476-2.968-.61-.855-1.501-1.51-2.269-2.254 1.493 3.035 2.489 6.304 5.338 8.335ZM52.668 545.57c1.127.612 2.277 1.192 3.38 1.846 2.034 1.212 4.226 1.399 6.52 1.111-3.343-.929-6.39-2.808-9.9-2.957Zm-270.108-45.983c2.248 1.373 4.682 2.312 7.23 2.964.321.083.708-.078 1.249-.152-1.235-1.026-6.99-3.031-8.479-2.812Zm344.652-128.921c-.399 1.773.131 3.192.411 4.618.043.219.528.511.779.484.271-.027.748-.416.724-.598-.154-1.286-.356-2.574-.683-3.824-.074-.279-.71-.407-1.233-.683l.002.003ZM-52.847 566.094c1.174-2.626 2.01-5.335 2.3-8.461-1.456 1.489-2.737 6.164-2.3 8.461ZM19.638 505.8c-1.726-1.004-2.7-2.911-4.893-3.895.386 1.255.085 2.551 1.164 2.884 1.203.374 2.247 1.455 3.73 1.011ZM-219.04 270.422c-1.775-1.034-3.401-2.241-5.57-3.013.36.878.363 1.737 1.213 1.685.94-.059 1.353.369 1.805 1.092.285.455.899.746 1.416 1.005.512.254.912.041 1.136-.769Zm81.267-49.18.603-.063-.62-8.165-.474.03c-.501 2.768.17 5.473.491 8.198Zm266.475 338.515c-.24-1.166-.376-1.962-.57-2.741-.162-.654-.659-1.019-1.304-.974-.348.024-.975.355-.964.498.051.549.171 1.211.526 1.583.542.57 1.299.94 2.31 1.628l.002.006Zm-249.123-163.385-.264.315c.734 1.807 1.984 3.268 3.37 5.132-.134-1.869-.976-3.802-2.014-4.833-.285-.283-.722-.411-1.09-.611l-.002-.003Zm-98.02 106.066c-.986-.462-1.953-.982-2.968-1.371-.84-.32-1.319.119-1.511 1.035 1.412.921 2.875.877 4.479.336Zm343.802 52.391c-.228-1.288-1.552-3.117-2.418-3.319-.233-.054-.549.257-.872.421.676 1.526 1.893 2.217 3.289 2.895l.001.003Zm109.058-412.536c.178-1.54-.741-3.353-1.987-3.927.293 1.941.821 2.982 1.987 3.927ZM-11.717 662.555c.282-.261.744-.483.815-.794.29-1.238.903-2.291 1.585-3.335.26-.395.361-.89.537-1.338-1.365 1.594-2.813 3.098-2.937 5.467Zm-151.131-293.302c.022 2.151 1.271 4.565 2.719 5.293-.913-1.775-1.726-3.362-2.719-5.293Zm119.819-68.752.358.311c.803-.176 1.593-.462 1.692-1.455.062-.618.342-1.467-.806-1.806-.43 1.015-.836 1.985-1.243 2.953l-.002-.003Zm-142.637 336.456c.686 1.247 1.637 2.184 3.244 2.727-.584-1.428-1.524-2.242-3.244-2.727Zm323.575-222.268c-1.18.202-1.119 1.391-1.758 2.031-.641.645-1.811.859-1.844 2.278 2.013-.93 2.754-2.668 3.6-4.312l.002.003Zm-219.22-134.79c-.177 1.506.497 2.778 1.808 3.665.836-1.979-1.608-2.281-1.809-3.665ZM-114.8 390.915c-.581-1.337-.86-2.455-1.892-3.262-.24 1.582.238 2.476 1.892 3.262Zm89.552 282.427c1.265-.736 1.95-2.065 1.916-3.797-.761 1.283-1.892 2.22-1.916 3.797Zm274.426-510.816c-1.176.068-2.367-.419-3.632.215 2.341.855 2.862.85 3.632-.215ZM77.038 549.742c.725.994 3.076 1.702 4.506 1.44-1.712-.548-3.108-.995-4.506-1.44Zm156.255-375.853c-.18-.003-.357-.007-.536-.007.062 1.333.125 2.666.19 3.998.821-1.327.66-2.659.346-3.991Zm-103.331 37.649c1.099-.276 1.663-.607 1.657-1.355-.003-.577-.386-.947-1.273-.89-.108.638-.226 1.314-.386 2.243l.002.002ZM67.61 533.645l.266-.299c-.183-.356-.313-.966-.558-1.018-.667-.139-1.477-.482-2.215.518.935.298 1.72.55 2.507.799Zm57.095 6.118-3.305.049c1.859 1.216 2.335 1.228 3.305-.049Zm109.261-359.235-.455-.023c-.409 1.124-.315 2.243-.033 3.36l.439.005.047-3.341.002-.001Zm-309.307 99.608c-.641-.184-1.256-.363-1.875-.543-.349.851-.083 1.25.498 1.44.657.216 1.144.03 1.376-.899l.001.002Zm-10.98 38.442c.54-.924.072-1.347-.446-1.632-.306-.169-.91-.284-1.082-.116-.5.483.016.839.385 1.111.316.234.691.39 1.142.637Zm-105.25-42.283.329.349c.689-1.14 2.1-1.62 2.706-2.838l-.321-.301-2.714 2.79Zm17.584 97.24c.234 1.793.518 2.261 1.861 2.951-.714-1.031-.615-2.223-1.861-2.951Zm96.941-70.269c.15 1.767.566 2.296 2.062 2.764l-2.062-2.764ZM70.127 526.913c.973 1.634 1.497 1.81 2.89 1.041l-2.89-1.041Zm-187.422-334.152c-.143-.052-.286-.104-.431-.155-.495 1.01-1.46 1.808-1.165 3.187.53-1.011 1.065-2.021 1.596-3.032Zm-102.667 406.251c-.015-.852-.033-1.706-.056-2.951-.586.998-.568 1.981.056 2.951Zm482.829-416.32.375.379c.755-.8 1.508-1.599 2.262-2.401l-.241-.237-2.393 2.258-.003.001Zm-402.28 34.642c-.753.838-.704 1.702.105 2.531l-.105-2.531Zm357.843 11.555c.964-.481 1.686-.781 1.716-1.947-.942.348-1.686.613-1.716 1.947Zm-94.867 317.864c-.733 1.261-.613 1.494.921 1.611l-.921-1.611Zm-44.848-20.054c.44.785 1.174 1.343 2.202 1.675-.598-1.004-1.113-1.598-2.202-1.675Zm-132.808 69.403c.608-.892.844-1.622.394-2.68-.773.875-.935 1.62-.394 2.68Zm72.127 14.286c.16.047.32.093.48.142.363-.587.763-1.164.224-2.029l-.703 1.89-.001-.003ZM-97.53 524.407c-.397-.575-.377-1.498-1.464-1.72.083 1.064.587 1.548 1.464 1.72Zm52.268-193.544-.994-2.44c-.415 1.229-.312 1.986.994 2.44Zm-85.996-124.65c-.758.762-1.104 1.592-.832 2.517l.411.065.423-2.579-.002-.003Zm-69.771 71.888c-.534.531-1.294.923-1.261 2.033.992-.475 1.008-1.33 1.261-2.033Zm-25.739-11.724c-.038.651.113 1.092.779 1.151.108.011.337-.22.337-.335-.004-.706-.458-.842-1.115-.814l-.001-.002ZM19.849 605.92l.471.163c.152-.514.306-1.03.457-1.545-.956.226-.971.793-.928 1.382Zm-141.284 47.296c.836.217 1.507.101 2.012-.348a360 360 0 0 0-2.012.348Zm-16.6-428.569-.398.106c.153.612.308 1.227.459 1.84l.448-.119-.51-1.823.001-.004Zm24.424 169.989c.201-.097.407-.193.608-.29l-.532-1.032c-.182.097-.529.247-.516.283.112.359.283.697.439 1.043l.001-.004ZM69.382 528.253c-.064 1.023.275 1.578 1.015 1.665-.298-.487-.552-.902-1.015-1.665Zm58.592 25.719c-.457-.071-.761-.116-1.067-.163-.015.259-.131.587-.014.755.118.17.515.306.698.231.169-.07.219-.437.383-.823ZM26.817 513.379l.226-.397c-.345-.533-.885-.624-1.576-.423.45.274.901.546 1.35.82ZM293.06 287.308l-.131.438c.558.409 1.145.629 2.176.119-.894-.245-1.471-.401-2.047-.56l.002.003Zm-480.087 91.744-.127.895c.248.027.575.16.731.052.17-.12.181-.463.261-.706-.25-.069-.499-.139-.864-.238l-.001-.003ZM236.02 176.625c-.132.021-.263.043-.398.063l.289 1.759a7.11 7.11 0 0 1 .292-.049c-.059-.591-.123-1.183-.183-1.773Zm-363.572 22.852c-.817.636-.931 1.165-.466 1.847l.466-1.847Zm62.605 386.846c-.129-.02-.26-.042-.388-.061-.333.542-.411 1.121.111 1.801l.275-1.739.002-.001Zm-153.615-314.345c.329.008.613.097.7.002.109-.122.139-.442.051-.575-.079-.121-.438-.207-.538-.132-.129.096-.122.374-.211.707l-.002-.002Zm32.613 108.425c-.043.379-.156.699-.071.767.175.141.465.197.697.177.076-.007.229-.46.157-.541-.15-.171-.427-.233-.783-.403Zm38.695 5.62c-.082.194-.216.352-.183.461.043.133.224.222.344.332.099-.167.232-.325.275-.506.011-.049-.243-.162-.439-.286l.003-.001Zm-53.502 60.276.399.33c.199-.268.395-.535.595-.803l-.292-.257c-.235.244-.467.486-.701.733l-.001-.003Zm440.525-213.988.304.224c.21-.407.422-.81.633-1.217l-.226-.124c-.238.374-.473.746-.711 1.117Zm-319.51 329.985-.113-.467c-.264.09-.533.172-.787.283-.028.015.019.196.03.302.29-.04.58-.077.87-.118Zm163.68-4.518c.045-.165.089-.329.129-.496-.323-.048-.646-.096-.967-.142l-.079.374c.307.087.611.178.918.264Zm-219.551-133.167.156.359.758-.391c-.037-.084-.069-.166-.106-.25l-.809.279.001.003ZM16.362 606.328l.316.17c.123-.185.294-.353.355-.556.062-.207.013-.45.015-.676l-.446-.084c-.079.381-.16.764-.238 1.144l-.002.002Zm36.161-59.596c-.308.001-.565-.068-.714.028-.099.065-.043.366-.057.562.206-.023.427-.005.611-.084.084-.037.087-.256.16-.506Zm-55.864 98.71-.24-.107c-.147.333-.291.669-.437 1.002.073.032.143.065.214.095l.464-.994-.001.004Zm76.48-191.212c-.287-.017-.531-.099-.695-.018-.091.047-.053.358-.072.553.205.006.424.059.61 0 .079-.025.086-.28.157-.535Zm-216.712-62.754.213-.229c-.199-.181-.396-.364-.596-.545-.067.074-.136.146-.206.222l.587.553.002-.001Zm82.21 172.2c.117.028.235.06.355.087l.395-1.41c-.136-.033-.27-.069-.407-.101-.112.474-.229.948-.341 1.422l-.003.002ZM299.423 315.9c-.105.091-.214.183-.32.271.256.331.512.659.766.991l.251-.2-.698-1.064.001.002Zm-379.909-17.687c-.046.238-.138.425-.08.531.052.101.266.117.408.169.045-.152.154-.324.114-.452-.027-.099-.24-.144-.44-.249l-.002.001Zm-38.18-110.363c-.123-.046-.243-.093-.365-.136l-.382 1.318.287.081c.154-.42.306-.843.463-1.264l-.003.001Zm-11.662 15.747c-.218-.082-.435-.162-.653-.245-.094.452-.189.905-.281 1.355l.393.145c.18-.42.362-.838.542-1.259l-.001.004ZM9.096 502.741c.23.079.37.166.51.162.067 0 .203-.21.178-.26-.066-.127-.202-.223-.31-.329-.105.117-.207.232-.378.427Zm64.668 16.823c-.071.278-.204.502-.145.654.046.121.32.158.494.233.05-.204.144-.408.13-.608-.007-.083-.239-.148-.476-.281l-.003.002ZM-40.502 296.273c.178.024.354.05.531.073l.074-1.056c-.132-.018-.265-.032-.397-.05l-.206 1.036-.002-.003Zm-82.439 356.788c-.494.05-.692.026-.843.098-.117.057-.175.232-.258.354.15.065.304.191.443.178.112-.008.208-.186.658-.63Zm-5.32.517c.033.122.069.243.1.362.233-.081.466-.161.698-.245l-.059-.211c-.246.031-.491.062-.741.092l.002.002Zm91.548 27.602.2-.182-.44-.643-.346.337.586.488Zm-153.215-30.324c-.17-.028-.33-.094-.36-.056-.088.112-.123.262-.179.397.1.014.24.081.291.038.103-.09.157-.234.248-.379Zm176.053 3.446c.137.028.277.055.413.081l.009-.828c-.093-.008-.19-.015-.284-.025l-.14.769.002.003Zm-47.531-14.357.322.028.103-.84c-.145-.011-.288-.02-.43-.032l.008.842-.003.002Zm43.229-49.532.33.197c.108-.221.22-.441.327-.662a9.754 9.754 0 0 0-.22-.131c-.146.198-.29.398-.437.596Zm-170.534-190.247c-.358-.073-.528-.164-.639-.116-.157.068-.272.236-.406.361l.165.21.883-.456-.003.001Zm494.172-85.877c-.704-.004-.899-.016-1.088.009-.021.004-.06.269-.02.295.167.099.36.204.54.2.121-.003.235-.193.569-.501l-.001-.003ZM42.869 542.977c.072-.104.147-.209.22-.312-.317-.158-.636-.314-.952-.471-.047.094-.096.185-.144.279.292.167.583.334.876.504Zm-105.363 65.496.326-.023-.069-.864-.306.023c.017.289.032.575.05.864Zm-.357 7.561c-.247.419-.396.555-.388.679.01.161.144.317.223.471l.207-.067c-.01-.257-.02-.513-.045-1.082l.003-.001Zm-3.588-63.98c.105.042.21.084.31.128.069-.254.14-.508.207-.762-.082-.03-.166-.059-.247-.087l-.268.724-.002-.003Zm302.766-371.352-.294.002.009.767c.096 0 .19-.003.289-.004l-.004-.765Zm-3.663-8.006c.094.014.185.03.28.047l.045-.31c-.124-.016-.249-.034-.373-.049.017.103.031.208.048.312Zm2.776-1.165c-.095.009-.19.019-.286.025.034.277.064.553.098.829.078-.007.161-.013.24-.021a232.65 232.65 0 0 1-.052-.833ZM-53.398 568.015c.128.01.255.024.382.035l.064-.718c-.09-.013-.18-.029-.268-.043l-.179.724.001.002Zm-75.851-362.445-.353-.112c-.084.242-.168.483-.25.728l.401.123c.066-.245.134-.492.199-.737l.003-.002Zm8.344-13.37.226.066.199-.685c-.074-.022-.147-.043-.223-.067l-.203.684.001.002ZM46.84 543.975c-.039.156-.1.333-.084.338.134.06.28.087.421.123.025-.099.096-.257.064-.281-.113-.084-.26-.124-.402-.182v.002Zm-147.17-26.442.288.027c-.005-.1.025-.228-.024-.292-.041-.052-.18-.026-.273-.034.002.101.006.198.009.299Zm-42.677-128.72a162.28 162.28 0 0 0-.034-.468c-.094.022-.227.014-.266.074a.351.351 0 0 0-.017.3c.03.057.172.057.317.094ZM27.43 585.518c-.082-.051-.165-.097-.25-.146-.03.095-.116.239-.08.28.073.091.208.13.322.19.004-.107.004-.217.008-.324Z" fill="#4B4C4F"/></svg>