<svg width="431" height="626" viewBox="0 0 431 626" fill="none" xmlns="http://www.w3.org/2000/svg">
<path d="M165.428 401.695C167.806 397.178 170.184 392.661 172.987 387.343C166.122 383.125 160.15 379.452 154.81 376.169C157.563 370.284 160.393 364.23 163.512 357.556C158.015 353.994 152.734 350.575 146.503 346.539C153.324 344.06 159.568 341.793 165.824 339.521C161.281 325.52 175.376 328.585 180.152 322.111C179.456 320.637 179.067 317.989 177.567 316.942C167.341 309.841 157.638 301.145 146.295 296.725C134.052 291.953 126.332 282.118 115.819 275.732C114.843 275.143 113.748 274.744 110.658 273.291C112.761 275.868 113.554 276.851 115.185 278.85C112.45 278.903 110.295 279.507 108.567 278.883C101.302 276.281 94.0177 273.637 87.0226 270.393C79.8054 267.055 73.5962 262.312 64.5181 263.155C59.9003 263.588 54.6952 259.219 49.97 256.639C45.0476 253.957 49.626 250.078 49.826 245.465C41.9439 244.459 34.5572 243.522 26.9476 242.553C26.4227 244.332 25.9538 245.943 25.2939 248.205C17.9176 241.411 14.314 230.061 0.407144 232.248C2.00698 231.108 9.28361 225.918 9.54676 225.731C16.741 228.328 23.3599 232.763 32.1235 231.924C36.2527 231.53 40.8557 236.076 46.2052 237.168C42.6275 234.463 39.0834 231.713 35.4677 229.062C31.729 226.326 27.7377 223.918 24.1965 220.961C20.3978 217.778 16.9986 214.124 13.0187 210.285C15.8748 207.723 18.0987 205.718 20.7412 203.347C19.4685 197.556 18.1645 191.623 16.9107 185.956C19.15 181.325 26.806 191.544 25.7494 181.47C34.2882 187.345 41.8429 192.607 49.4989 197.713C50.5194 198.397 52.0892 198.241 56.2605 198.993C52.8632 195.497 51.4357 194.029 49.7879 192.344C59.0457 189.564 65.5421 198.38 74.6992 198.109C74.5526 195.535 74.4089 193.055 74.2409 190.24C77.4585 189.958 80.679 189.77 83.8899 189.38C91.3518 188.461 97.4641 190.03 103.684 195.216C118.127 207.269 133.63 218.038 148.401 229.698C157.149 236.598 165.114 244.488 173.833 251.424C181.062 257.174 188.724 262.429 196.494 267.437C206.616 273.975 214.032 282.986 221.062 292.683C225.275 291.302 224.301 288.496 223.422 285.303C222.438 281.712 218.475 278.121 222.822 274.185C225.224 278.177 223.592 284.996 231.555 286.387C231.358 279.361 227.641 276.283 222.461 274.3C224.685 270.182 226.921 266.081 229.121 261.951C231.248 257.959 233.342 253.951 236.09 248.72C247.486 258.874 259.726 269.651 271.814 280.58C279.261 287.317 286.465 294.324 293.833 301.155C301.249 308.032 308.466 315.034 309.876 326.176C304.877 325.433 299.544 324.631 291.396 323.415C296.201 330.45 299.708 335.586 304.346 342.38C299.6 340.403 296.504 339.103 291.852 337.166C291.448 342.798 291.115 347.426 290.752 352.475C300.213 351.174 308.389 350.042 316.561 348.917C317.613 354.553 318.657 360.101 319.794 366.135C318.582 366.768 315.058 368.61 310.716 370.883C319.923 374.802 321.716 373.793 334.563 358.438C332.647 355.521 330.585 352.382 328.591 349.352C332.047 349.515 335.875 349.704 341.322 349.961C338.385 345.495 336.368 342.432 334.087 338.971C336.007 337.393 337.705 336.002 339.575 334.46C338.32 329.822 337.036 325.098 335.607 319.829C344.621 317.038 355.847 320.617 360.717 309.351C364.426 300.774 371.317 292.969 364.636 281.891C368.241 281.726 370.505 281.616 372.392 281.53C372.321 279.755 372.368 279.363 372.282 279.006C368.405 262.61 357.898 251.584 343.831 243.171C340.315 241.072 337.655 237.519 334.107 234.153C336.182 233.019 338.049 232.007 340.774 230.522C339.101 229.188 337.784 227.226 336.35 227.14C328.146 226.655 321.539 221.352 313.892 219.853C304.916 218.084 295.633 217.269 286.481 217.189C269.194 217.033 251.876 218.487 234.621 217.807C216.246 217.078 197.932 214.621 179.59 213.004C176.541 212.739 173.453 212.911 169.967 212.867C168.415 210.191 166.698 207.23 164.977 204.257C158.544 204.334 152.207 204.408 145.869 204.482C145.487 203.712 145.104 202.942 144.71 202.175C146.93 199.513 149.151 196.851 152.684 192.598C144.252 193.64 137.25 194.495 128.052 195.63C135.331 189.129 145.514 188.202 143.082 177.063C142.837 175.947 145.726 173.443 147.601 172.695C156.485 169.128 165.553 166.031 174.473 162.576C176.947 161.617 180.731 160.441 181.244 158.624C183.576 150.293 192.075 150.91 196.857 146.699C207.467 137.34 220.652 134.655 233.13 129.938C237.092 128.438 240.708 125.997 244.706 124.588C250.808 122.435 254.766 117.902 255.974 112.227C258.513 100.255 267.957 93.8748 275.446 85.8586C277.541 83.6208 281.07 82.3127 282.342 79.7741C287.615 69.2788 295.875 68.648 305.782 71.295C309.046 72.1713 312.685 72.5441 316.016 72.1225C327.916 70.5946 338.778 74.2144 349.741 77.9183C353.269 79.1084 357.154 79.6706 360.892 79.7304C368.435 79.8632 375.962 79.9254 383.352 81.4996C387.327 82.3485 391.201 83.6757 395.886 85.0059C394.824 87.3199 393.651 89.8889 391.843 93.8264C398.483 93.7317 404.227 93.2152 409.883 93.7149C413.534 94.0423 416.978 96.5838 420.626 96.8987C432.425 97.9215 444.277 98.3783 456.358 98.0896C435.748 85.4802 413.833 75.9342 392.221 65.7844C376.149 58.2297 360.353 50.0791 344.545 41.9739C341.279 40.2951 338.279 38.6077 339.219 33.1278C339.867 29.3604 336.792 24.9585 334.959 19.6059C341.678 19.7812 346.883 19.9231 353.614 20.0944C352.178 14.1971 350.874 8.84767 349.445 2.99602C355.131 -1.73606 361.523 0.217342 368.136 3.93991C395.783 19.4919 423.578 34.7771 451.107 50.5177C455.637 53.1114 458.932 57.7727 463.135 61.0402C468.532 65.2383 474.149 69.1746 479.888 72.8935C490.273 79.6088 501.29 85.4435 511.169 92.8136C519.689 99.1682 526.999 107.157 536.482 115.936C532.085 116.305 529.944 116.479 526.904 116.739C532.204 128.331 545.122 128.62 553.888 137.779C549.845 136.718 547.371 136.489 545.33 135.444C540.188 132.784 534.997 130.119 530.269 126.819C516.573 117.267 501.166 115.731 485.213 116.682C482.969 116.812 480.81 118.288 478.698 121.485C503.203 128.821 527.716 136.161 552.221 143.497C552.148 144.062 552.086 144.624 552.012 145.189C549.539 145.139 547.067 145.088 542.956 145.003C546.294 147.448 548.689 149.197 553.034 152.372C529.409 146.012 508.77 137.604 486.266 135.698C487.994 136.383 489.739 137.036 491.441 137.771C493.443 138.63 495.42 139.559 497.401 140.459C497.233 141.267 497.06 142.084 496.892 142.892C493.019 142.388 488.906 142.571 485.317 141.277C463.811 133.556 441.594 134.297 419.339 135.07C417.804 135.119 416.08 134.769 414.786 135.359C413.579 135.901 412.06 137.448 412.057 138.56C412.056 140.132 412.899 142.307 414.12 143.147C415.882 144.35 418.315 144.577 422.603 145.869C416.533 148.706 412.259 150.971 407.78 152.705C403.46 154.374 398.82 155.212 394.508 156.886C388.378 159.254 382.053 161.458 376.497 164.852C371.7 167.785 367.865 172.298 362.375 177.215C367.364 176.891 370.891 176.654 375.151 176.369C373.37 178.061 372.15 179.232 370.138 181.148C372.919 182.253 375.157 183.422 377.531 184.046C405.548 191.397 433.711 198.262 461.554 206.21C469.917 208.6 477.472 213.882 485.315 217.982C488.383 219.579 491.17 221.719 494.225 223.361C504.395 228.841 505.964 232.027 503.516 244.307C517.315 240.96 530.873 238.28 544.023 234.276C554.27 231.153 563.972 226.448 575.119 230.038C577.022 230.648 579.464 229.569 583.828 228.983C581.675 233.648 580.273 236.661 578.619 240.241C587.495 240.189 598.423 233.275 602.938 247.532C600.303 248.741 597.943 249.821 594.547 251.375C602.892 257.483 610.151 263.477 617.078 270.778C608.948 273.371 600.812 274.587 592.337 274.305C587.607 274.148 582.391 272.356 578.699 277.682C577.872 278.879 574.978 278.433 573.3 279.283C567.731 282.118 560.827 280.911 555.813 286.417C553.52 288.938 547.851 288.524 543.665 289.149C533.85 290.631 523.971 291.695 514.214 293.488C511.452 293.996 509.056 296.453 505.256 298.767C515.074 307.625 524.119 315.782 532.51 323.351C534.653 323.033 535.78 323.21 536.117 322.78C543.182 313.691 553.675 313.153 563.77 311.451C573.251 309.849 582.706 308.076 592.134 306.175C610.247 302.52 628.345 298.732 646.442 294.986C658.803 292.426 670.094 287.126 681.571 282.047C689.823 278.393 698.844 275.729 708.105 281.114C711.851 283.291 716.686 283.606 721.862 284.993C722.415 294.973 732.966 295.631 739.763 300.626C733.484 305.197 727.831 309.3 722.182 313.417C722.476 314.037 722.765 314.645 723.058 315.265C727.195 315.26 731.318 315.259 735.852 315.251C734.737 321.411 731.219 322.173 727.234 322.954C690.09 330.227 652.993 337.753 615.837 344.988C599.903 348.094 583.861 350.645 567.885 353.552C564.285 354.209 560.755 355.278 555.488 356.582C573.871 376.296 590.884 394.531 608.546 413.465C606.255 415.216 604.298 416.724 602.087 418.422C602.412 422.787 602.746 427.333 603.1 431.982C599.062 435.943 589.802 432.871 589.556 442.041C589.54 442.595 585.346 443.799 583.387 443.379C579.717 442.584 576.302 440.651 572.678 439.505C568.815 438.277 564.832 437.424 559.214 435.965C564.971 453.437 581.452 457.788 591.702 469.473C578.728 478.348 565.117 468.371 551.371 472.421C564.945 485.107 577.42 496.777 589.899 508.439C598.487 516.474 599.114 517.476 602.051 528.584C599.232 527.574 597.055 526.791 594.412 525.84C594.627 527.097 594.447 528.43 595.034 529.088C604.229 539.53 613.806 549.638 622.684 560.332C629.015 567.959 634.479 576.315 640.191 584.455C640.657 585.124 639.976 586.582 639.681 588.783C635.028 588.115 630.636 587.488 625.563 586.769C624.535 594.129 626.48 599.728 637.298 602.002C630.375 604.616 626.578 604.37 623.117 601.538C616.913 596.465 610.872 591.174 604.613 586.166C603.251 585.076 600.312 583.753 599.633 584.34C590.84 591.858 588.453 582.866 586.877 578.344C583.833 569.637 577.418 564.486 570.992 558.996C569.823 557.995 568.704 556.615 567.32 556.211C557.079 553.225 551.638 544.361 544.379 537.742C536.123 530.212 528.036 522.478 519.533 515.226C516.63 512.746 512.685 511.476 509.224 509.653C508.804 510.405 508.396 511.152 507.977 511.903C513.788 515.825 519.591 519.744 525.397 523.674C513.759 523.651 506.622 515.044 496.814 510.657C496.302 511.163 495.655 511.89 494.902 512.5C494.065 513.192 493.135 513.783 492.25 514.408C491.866 518.208 496.751 523.9 502.146 525.952C508.244 528.266 513.375 531.993 517.54 537.133C512.53 535.645 508.773 534.534 505.021 533.416C514.292 546.208 520.309 561.285 534.427 569.879C537.652 571.839 540.004 575.18 542.999 577.583C545.372 579.477 548.804 582.825 550.571 582.188C556.856 579.941 558.765 584.542 561.512 587.806C565.248 592.238 568.896 596.78 572.122 601.573C574.611 605.276 577.633 609.317 572.709 615.151C566.457 610.21 560.311 605.343 552.648 599.286C556.879 608.597 560.303 616.147 564.559 625.512C544.748 619.105 533.696 604.683 519.51 593.763C519.149 594.784 518.715 595.642 518.55 596.546C518.42 597.26 518.625 598.032 518.68 598.79C518.001 598.875 517.003 599.275 516.742 598.994C514.276 596.334 511.788 594.662 508.062 593.13C501.309 590.365 494.964 584.917 490.333 579.096C485.519 573.045 479.779 569.107 473.291 565.646L473.451 566.062C471.981 562.261 471.441 557.609 468.887 554.799C448.311 532.159 424.126 513.578 399.138 496.288C392.345 491.587 385.396 486.784 378.334 482.381C369.172 476.663 358.786 473.372 346.801 469.65C350.316 476.06 352.68 480.365 355.045 484.67C354.497 485.126 353.944 485.59 353.388 486.042C350.3 483.497 346.794 481.318 344.2 478.342C338.532 471.828 331.315 470.604 323.294 470.65C300.692 470.786 278.104 470.855 255.629 467.485C242.747 465.558 229.718 464.337 217.291 470.486C215.446 471.395 212.785 470.643 209.862 469.329C212.223 468.187 214.579 467.053 217.211 465.79C217.928 462.09 217.31 458.574 212.54 458.959C205.492 459.54 200.024 456.888 194.321 453.178C190.382 450.609 184.929 450.422 180.855 447.992C176.584 445.439 173.156 441.479 168.567 437.45C170.491 436.81 172.237 435.548 173.439 435.941C178.339 437.559 182.578 436.389 183.711 431.623C184.914 426.581 179.977 425.839 176.269 424.754C175.202 424.442 174.249 423.73 173.871 423.534C172.589 419.31 171.457 415.621 169.933 410.616C170.481 409.9 172.039 407.874 174.191 405.062C170.805 403.758 168.102 402.724 165.395 401.678L165.366 401.694L165.428 401.695ZM437.659 396.425C444.873 400.876 452.168 405.191 459.239 409.859C461.231 411.181 464.263 414.176 463.846 415.324C462.462 419.106 464.954 420.146 466.9 421.819C475.067 428.855 482.926 436.305 491.544 442.752C496.244 446.266 500.349 454.272 508.568 447.883C509.388 447.245 512.184 448.764 513.846 449.677C517.216 451.535 520.472 453.614 523.711 455.706C535.78 463.491 550.096 461.943 563.263 465.173C564.73 465.536 566.644 464.111 569.898 462.973C566.878 460.056 565.04 457.731 562.709 456.14C555.378 451.15 548.375 445.122 540.274 442.004C532.28 438.92 527.15 432.736 520.506 428.633C495.176 413.009 467.544 402.359 437.672 396.421L437.659 396.425ZM442.565 350.735C442.886 350.214 443.204 349.68 443.525 349.16C437.681 345.563 431.947 341.774 425.966 338.441C421.98 336.223 417.742 334.312 413.411 332.883C410.224 331.838 407.304 332.712 406.836 338.488C418.527 342.495 430.544 346.619 442.565 350.735ZM341.191 375.434C340.807 375.048 340.424 374.663 340.036 374.285C335.386 376.752 330.732 379.228 325.811 381.836C328.692 384.076 330.874 385.777 333.137 387.542C336 383.234 338.589 379.336 341.183 375.43L341.191 375.434ZM491.842 499.578C487.505 492.504 485.872 491.274 475.293 487.509C480.651 493.394 485.045 497.561 491.842 499.578ZM515.511 582.917C516.149 581.925 516.85 581.215 516.725 580.994C513.839 576.086 509.88 572.871 503.146 574.094C507.262 577.025 511.366 579.96 515.519 582.921L515.511 582.917ZM188.067 308.12C187.549 309.081 187.035 310.054 186.517 311.015C190.127 312.913 193.736 314.812 197.346 316.71C197.748 316.054 198.154 315.41 198.555 314.754C195.066 312.543 191.568 310.327 188.079 308.116L188.067 308.12ZM441.924 342.875C442.329 342.054 442.733 341.232 443.133 340.419C438.596 337.415 434.058 334.412 429.525 331.401C429.06 332.097 428.596 332.794 428.123 333.487C432.721 336.615 437.318 339.743 441.916 342.871L441.924 342.875ZM335.948 465.17C335.86 465.864 335.771 466.558 335.683 467.251C336.978 467.848 338.278 468.937 339.565 468.926C340.913 468.916 342.248 467.846 343.584 467.236C343.45 466.709 343.313 466.19 343.179 465.663C340.766 465.497 338.353 465.332 335.944 465.179L335.948 465.17ZM192.011 270.667C191.818 271.182 191.629 271.688 191.427 272.198C193.817 273.455 196.207 274.712 198.597 275.97C198.75 275.695 198.903 275.42 199.051 275.153C196.702 273.656 194.352 272.16 192.003 270.663L192.011 270.667ZM344.385 341.123C345.52 342.491 346.058 343.707 346.735 343.786C347.441 343.87 348.278 342.856 349.063 342.325C348.657 341.782 348.334 340.896 347.831 340.782C347.01 340.597 346.075 340.915 344.389 341.115L344.385 341.123Z" fill="#7C7F83"/>
</svg>
