<svg width="317" height="310" fill="none" xmlns="http://www.w3.org/2000/svg"><g clip-path="url(#a)" fill="#FFC35C"><path d="m45.755 79.435-.263-.353c-.176-.235-.422-.364-.764-.395l-.476-.033.5 1.2 1.003-.419ZM289.578 139.578c-.176-.236-.376-.345-.6-.329l-.337.025.583 1.397-.394.165-.625-1.496c-.418-1.002-.797-1.539-1.149-1.643-.345-.087-.61-.536-.78-1.314-.178-.794-.422-1.194-.74-1.216-.317-.021-.623-.569-.91-1.626-.288-1.057-.714-1.709-1.273-1.939-.559-.229-3.171.494-7.788 2.191-4.617 1.697-7.085 2.534-7.419 2.519-.318-.021-.762.164-1.298.542-.537.379-.882.523-1.003.419-.12-.104-.717-.009-1.758.271-1.057.287-1.698.555-1.906.796a2.209 2.209 0 0 1-.822.575c-.328.137-.553.153-.674.049-.12-.104-.383.006-.805.337-.405.323-.684.44-.805.336-.12-.104-.424-.093-.928.04-.488.127-1.75.615-3.739 1.446l-3.007 1.255-.164-.394-.608.254.164.394c-.323.058-.662.123-.986.18a9.726 9.726 0 0 0-1.988.599c-.674.281-1.041.512-1.117.698l-.115.28-.165-.395-.296.124a.765.765 0 0 0-.427.41l-.114.279-.321-.213c-.214-.142-.584-.104-1.126.123-.542.226-1.087.492-1.668.812-.58.319-.835.541-.78.673l.083.197a17.8 17.8 0 0 0-.592.016c-.384.005-.614.101-.707.295l-.115.279-.164-.394-.707.295c-.476.199-.767.243-.887.139a29.152 29.152 0 0 1-.181-.156l-.312.362c-.208.241-.783.481-1.709.713-.926.233-1.419.438-1.495.625l-.115.279-.222-.254c-.148-.17-.995.068-2.523.706-1.528.638-2.459.949-2.777.928-.318-.022-2.804.862-7.477 2.659-4.655 1.79-7.319 1.879-7.985.285-.666-1.593-1.109-2.47-1.322-2.612-.214-.142-.743-1.407-1.585-3.796-.843-2.388-1.358-3.62-1.544-3.697l-.28-.115.214-.32c.142-.214.15-.565.017-1.069-.127-.487-.657-1.848-1.576-4.05s-1.355-3.429-1.305-3.681c.049-.252-.164-.761-.625-1.495l-.698-1.117.608-.254-.321-.214c-.213-.142-.282-.306-.205-.493.076-.186-.288-1.057-1.085-2.596-.797-1.539-1.095-2.437-.887-2.678l.312-.362-.361-.312c-.242-.208-.427-.652-.542-1.298-.058-.323-.123-.663-.181-.986l-.353.263-.353.263.115-.279c.076-.187.041-.365-.107-.534l-.223-.255.198-.082c.131-.055-.107-.902-.706-2.523-.6-1.621-1.09-2.517-1.469-2.686-.373-.153-.682-.43-.928-.79a38.2 38.2 0 0 1-.353-.567l2.736-1.026c1.819-.682 2.796-.975 2.917-.871.121.104 1.797-.364 5.052-1.396 3.248-1.047 5.392-1.827 6.433-2.339 1.041-.511 1.629-.719 1.75-.615.121.104.351.008.707-.295.339-.296 2.377-1.147 6.112-2.552a111.365 111.365 0 0 1 11.526-3.636c3.95-1.032 6.156-1.664 6.605-1.928a2.811 2.811 0 0 1 1.479-.387c.542.006 1.323-.205 2.325-.623 1.003-.419 1.572-.58 1.677-.469.12.105.586.064 1.364-.106.794-.177 1.616-.52 2.497-1.043.882-.523 1.345-.986 1.398-1.413.06-.411-.005-.75-.18-.986-.176-.236-.488-.337-.961-.313-.449.033-.764-.029-.912-.198l-.222-.255.394-.165-.181-.155-.181-.156.707-.296c.46-.192.838-.118 1.157.231.296.34.616.457.961.313l.509-.213.165.395c.11.263.111.821-.025 1.65-.113.838-.074 1.44.156 1.807.231.367.484.512.763.395.28-.117.542-.69.798-1.742.271-1.059.621-1.977 1.069-2.8.43-.817.625-1.322.542-1.52-.082-.197.015-.797.321-1.774.299-.993.375-1.642.238-1.97-.137-.33-.121-.568.042-.732.17-.148.236-.774.181-1.832-.063-1.074-.231-1.66-.517-1.791-.279-.115-.395-.298-.352-.567.049-.252-.088-.58-.419-1.002a2.741 2.741 0 0 1-.583-1.397c-.061-.515-.191-.827-.378-.904-.186-.076-.285-.498-.303-1.281-.019-.784-.14-1.35-.37-1.718-.23-.367-.131-.775.329-1.198.444-.417.654-.698.599-.83l-.082-.197-.394.165c-.263.11-.556-.038-.903-.453-.324-.405-.679-.7-1.068-.847a1.847 1.847 0 0 0-1.11-.115c-.356.071-.838.35-1.412.821-.592.479-1.731 1.031-3.418 1.659-1.687.627-2.758.881-3.213.762-.438-.125-1.068-.017-1.873.32-.806.336-1.238.594-1.315.78l-.115.28-.18-.156c-.121-.104-.705.023-1.718.37-1.03.352-2.361.908-4.009 1.674-1.632.758-2.462 1.22-2.473 1.38l-.016.238-.477-.033c-.318-.021-.515.061-.608.254l-.115.28-.18-.156c-.121-.104-.685-.023-1.66.23-.992.26-3.202 1.067-6.631 2.421-3.429 1.355-5.211 1.984-5.332 1.88-.121-.104-.51-.02-1.183.262-.674.281-1.041.512-1.117.698l-.115.28a29.152 29.152 0 0 1-.181-.156c-.121-.104-1.479.386-4.075 1.47-2.597 1.084-3.971 1.58-4.092 1.477-.121-.104-1.624.408-4.527 1.543s-4.407 1.647-4.527 1.543c-.121-.104-1.216.276-3.287 1.14-2.07.865-3.292 1.221-3.664 1.068l-.559-.23a804.207 804.207 0 0 0 .229-.559 328.08 328.08 0 0 0-.279-.114c-.187-.077-.362-.313-.534-.723-.171-.411-.202-.669-.097-.79.104-.12-.076-.643-.526-1.536l-.682-1.355-.255.222c-.169.148.046.85.64 2.087.594 1.238.865 2.07.805 2.481-.06.411.005.75.18.986l.263.353c-.257.03-.515.061-.789.098-.515.061-.909-.006-1.157-.23-.241-.208-.372-.52-.378-.904-.005-.383-.328-1.156-.96-2.3-.633-1.145-.848-1.846-.64-2.087.208-.242.271-.46.188-.658-.082-.197-.323-.405-.73-.64-.4-.22-.662-.477-.772-.74l-.165-.394.806-.336-.28-.115c-.186-.076-.437-.493-.739-1.216s-.403-1.24-.288-1.52c.115-.28-.139-.887-.754-1.807-.616-.92-1.339-2.374-2.176-4.379l-1.256-3.007.608-.254a33.992 33.992 0 0 1-.591-.583c-.389-.378-.728-.912-1.009-1.585-.281-.674-.38-1.096-.304-1.282.077-.186-.163-.762-.713-1.709-.55-.947-.813-1.668-.78-2.144.032-.477-.235-1.118-.796-1.906-.561-.789-.668-1.323-.329-1.62.17-.147.34-.295.526-.45l-.502-.37c-.334-.246-.511-.577-.517-.96l-.008-.576c-.192.003-.384.006-.592.015-.384.006-.619-.05-.674-.181l-.083-.197.337-.025c.225-.017.386-.277.501-.788.098-.505.239-.814.453-.903.213-.09.397.027.6.328.203.301.501 1.2.887 2.678.386 1.48.708 2.252.96 2.3l.379.075-.115.279c-.077.186-.005.543.221 1.085.227.542.632 1.144 1.232 1.84.599.695.805 1.188.624 1.495-.181.307-.175.69.024 1.167l.295.707.197-.083c.132-.055.332.055.601.328l.403.411c-.244.063-.488.126-.748.197-.26.07-.488.126-.748.196.206.03.411.06.633.083l.617.09-.074.378-.074.378.436-.066.435-.066-.229.559a131.7 131.7 0 0 0-.23.559l.559.23.559.23c-.151.1-.301.202-.468.31-.301.204-.329.6-.075 1.209.254.608.49.895.715.879.224-.017.378.073.46.27.082.198.052.403-.09.617-.142.214-.117.55.082 1.027.199.477.388.745.574.822.187.076.269.273.254.608-.021.317.094.5.353.566.252.05.441.318.574.822.063.244.127.487.197.747l.394-.164-.254-.608.436-.066.435-.066a88.881 88.881 0 0 1-.32-.214c-.214-.142-.454-.717-.714-1.709-.26-.991-.559-1.522-.911-1.626-.345-.088-.573-.263-.689-.542-.117-.28.005-.543.354-.862.339-.296.482-.51.427-.641l-.083-.198-.353.264c-.235.175-.46.192-.69.056l-.321-.213.37-.501c.246-.335.248-.606 0-.83-.241-.209-.352-.567-.32-1.044a2.108 2.108 0 0 0-.303-1.282c-.231-.367-.451-.526-.649-.443l-.295.123-.083-.197c-.055-.131 0-.463.174-1.018.163-.531-.008-.942-.501-1.2-.247-.128-.494-.256-.764-.394.151-.102.302-.203.469-.312.301-.203.165-.898-.402-2.07-.567-1.173-.796-1.907-.681-2.186l.172-.42a328.08 328.08 0 0 1-.279-.114c-.187-.077-.438-.493-.74-1.216-.301-.723-.407-1.161-.303-1.282.104-.12-.09-.676-.567-1.635-.485-.975-.863-1.511-1.149-1.643-.28-.114-.461-.27-.55-.484-.089-.214-.052-.403.09-.617l.213-.32-.608.254.115-.28c.077-.186.008-.35-.206-.493-.107-.07-.213-.142-.32-.213l.353-.264c.235-.175.235-.638.008-1.412-.243-.767-.991-2.558-2.257-5.406-1.267-2.848-1.844-4.324-1.74-4.444.104-.121.04-.365-.197-.748-.23-.367-.3-.627-.196-.748.104-.12-.009-.575-.345-1.38-.336-.805-.608-1.27-.822-1.413-.214-.142-.351-.471-.418-1.002-.061-.516-.21-.781-.435-.765-.225.017-.373-.153-.451-.525-.072-.356-.221-.622-.435-.764-.214-.142-.452-.159-.731-.042l-.395.165-.164-.395c-.11-.263-.682-.43-1.717-.46-1.036-.03-2.226-.248-3.548-.641-1.339-.387-2.131-.48-2.366-.305-.235.176-.54.187-.929.04-.372-.153-1.035-.03-1.972.36-.936.392-1.742.497-2.455.312-.691-.174-1.177-.184-1.406.008-.235.176-.446.225-.649.156l-.279-.115-.033.477c-.022.317-.734.692-2.119 1.116-1.386.424-2.263.867-2.613 1.323-.35.455-.772.785-1.232.977l-.706.295-.295-.706c-.193-.46-.435-.764-.715-.88-.279-.114-.611-.169-1.011-.156-.383.006-.668.202-.821.575-.153.372-.091.983.172 1.8.271.832.556 1.33.863 1.51l.461.272-.156.18c-.104.121-.079.458.081 1.028.161.57.422 1.194.796 1.906l.558 1.06-.607.254.419.172c.279.115.501.37.673.78l.254.608.394-.165c-.027.398-.047.811-.074 1.209-.048.81.101 1.675.492 2.611l.583 1.397.608-.254.666 1.594-.337.025-.337.025.165.394.608-.254-.173.42c-.114.279 0 .83.329 1.618.329.789.627 1.224.879 1.273.252.05.395.299.435.764.033.45.191.827.46 1.101.268.274.366.6.278.945l-.131.518.337-.025.337-.025-.131.518c-.087.345.054.962.418 1.832.364.871.695 1.389 1.009 1.586l.461.27-.214.321c-.142.214.013.863.459 1.931l.666 1.594.608-.254.336.805c.22.526.251.88.082 1.028-.17.148-.192.465-.059.97.127.487.362 1.141.698 1.947.336.805.58 1.205.739 1.215l.238.017-.032.476c-.022.318.323 1.236 1.027 2.736.703 1.501 1.029 2.465.976 2.892-.06.411.073.915.386 1.48.319.58.555.867.714.878.159.011.403.41.739 1.216.337.805.449 1.26.345 1.38l-.156.181.321.214c.214.142.451.525.698 1.117.247.591.325.964.221 1.085-.104.12-.073.378.098.788.172.411.334.614.492.625l.239.016-.033.477c-.021.317.075.547.295.706.214.142.589.855 1.117 2.12l.796 1.906-.394.164c.305.548.604 1.08.91 1.627.605 1.079.859 1.687.755 1.807-.104.121.024.704.37 1.718.353 1.03-.364 1.946-2.128 2.76-1.78.821-2.862 1.234-3.245 1.239a1.435 1.435 0 0 0-1.003.419c-.273.269-1.013.577-2.201.919a24.39 24.39 0 0 0-3.739 1.446c-1.303.621-2.023.883-2.144.779-.121-.104-.564.082-1.298.542-.75.468-1.29.655-1.635.567-.345-.087-.849.046-1.479.386-.646.348-1.022.466-1.142.362-.121-.104-.893.218-2.301.96-1.407.742-2.125 1.196-2.135 1.355l-.017.239-.279-.115c-.186-.077-1.052.207-2.58.845-1.528.639-2.339 1.054-2.415 1.241l-.115.279-.181-.156c-.121-.104-.458-.079-1.027.082a7.16 7.16 0 0 0-1.611.672c-.498.285-.769.514-.78.673-.011.159-.213.321-.624.493-.411.171-.668.201-.789.097-.121-.104-.279-.114-.477-.032l-.295.123.164.395-.279-.115a.737.737 0 0 0-.592.015l-.296.124.165.394-.592.247c-.394.165-.668.202-.788.098a29.152 29.152 0 0 1-.181-.156l-.115.28a.744.744 0 0 1-.427.41l-.296.123-.165-.394-1.199.501c-.805.336-1.271.607-1.413.821-.142.214-.307.283-.509.213l-.28-.115-.115.28-.115.279-.181-.156c-.12-.104-.556-.038-1.323.205-.766.243-2.341.862-4.74 1.864-2.399 1.002-3.689 1.656-3.87 1.963-.197.314-.385.509-.583.591-.197.082-.369.039-.517-.131-.148-.17-.505-.098-1.085.221-.564.313-.868.556-.879.715l-.016.238-.378-.074c-.252-.049-.515.061-.805.336-.274.269-.616.373-1.044.32-.411-.06-1.027.082-1.832.418-.805.336-1.29.655-1.471.962-.18.307-.484.549-.878.714-.395.165-.811.184-1.266.065-.438-.125-.712-.088-.789.098-.076.186-.323.289-.706.295-.384.006-.581.088-.608.254-.011.159-.214.321-.625.492-.41.172-.613.334-.624.492l-.016.239c-.159-.011-.334-.015-.477-.033-.318-.021-.515.061-.608.254-.076.187-.367.231-.887.139-.504-.098-1.107.076-1.791.517-.685.44-1.12.506-1.323.205-.203-.301-.404-.411-.6-.329l-.296.124-.403-1.241c-.27-.832-.317-1.314-.147-1.462.17-.149.103-.584-.206-1.323-.308-.74-.572-1.093-.796-1.076-.225.016-.439-.126-.648-.444-.203-.301-.69-1.468-1.462-3.5l-1.157-3.048-.255.222-.254.222.13-.517c.088-.346-.19-1.291-.829-2.819-.638-1.528-.908-2.36-.804-2.481.104-.121-.02-.416-.378-.904a59.256 59.256 0 0 1-.533-.723l-.213.321-.214.321.131-.518c.088-.345-.111-.822-.583-1.397-.236-.287-.478-.591-.714-.879l1.807-.754-.377-.904c-.254-.608-.452-.989-.6-1.158-.148-.17-.32-.214-.518-.131l-.295.123.172-.419.172-.42-.337.025c-.224.017-.378-.073-.46-.27-.082-.198-.02-.417.188-.658.208-.241.146-.852-.156-1.807-.325-.964-.446-1.531-.37-1.717.077-.186-.108-.63-.542-1.298-.216-.334-.44-.685-.657-1.019-.15.102-.3.203-.468.312-.15.101-.301.203-.468.311.148-.293.312-.593.453-.903.311-.593.178-1.56-.378-2.891s-.971-2.142-1.24-2.415l-.403-.411c-.142.214-.285.427-.443.648-.143.214-.285.428-.444.648-.258-.432-.522-.881-.78-1.314l-.78-1.314c.216-.13.432-.258.665-.394.433-.258.453-.903.04-1.889l-.624-1.495.608-.254-.238-.016-.238-.016.074-.379c.049-.252-.057-.69-.304-1.281-.247-.592-.47-.943-.657-1.019l-.28-.115.156-.18c.104-.121-.12-.935-.665-2.425a90.218 90.218 0 0 0-1.404-3.64c-.39-.936-.703-1.5-.951-1.725-.242-.207-.291-.418-.156-.649.142-.213.061-.778-.23-1.66-.298-.898-.635-1.336-1.019-1.33-.191.003-.383.006-.591.015.15-.101.3-.203.468-.31.301-.204.463-.464.5-.789.022-.318-.125-.854-.427-1.578-.301-.723-.533-1.185-.681-1.355l-.222-.255c-.17.148-.34.296-.526.451-.17.148-.34.297-.526.451l-.755-1.807-.295.123c-.197.083-.463 0-.798-.245-.334-.247-.701-.248-1.068-.017-.184.115-.367.23-.567.352l-.025-.337-.025-.337-2.202.92c-1.462.61-2.393.922-2.777.928-.383.006-.679.13-.903.377-.208.241-1 .61-2.358 1.1-1.359.49-2.103.879-2.218 1.158l-.172.42-.124-.296c-.082-.197-.269-.274-.56-.23-.29.044-.66.314-1.075.797-.208.241-.416.482-.64.73l-.083-.197c-.055-.131-.274-.194-.674-.181-.383.005-.584-.104-.6-.329l-.025-.337-.436.066c-.29.044-.446.225-.468.543-.021.318-.13.518-.344.607-.214.09-.55.577-1.02 1.487-.485.917-.816 1.325-1.003 1.249l-.28-.115-.015.238c-.011.16-.32.25-.945.28-.608.022-1.047.127-1.282.303-.236.175-.622.22-1.126.123-.504-.099-.967.133-1.355.681-.39.549-.538.978-.428 1.24l.164.395.395-.165.009.575.008.576.395-.165.205.493c.138.328.286.498.451.525.16.011.321.214.493.625.171.41.169.682-.001.83-.17.148-.214.32-.131.518.082.197.197.38.352.567.148.17.32.213.518.13l.296-.123.738 2.046c.49 1.358.937 2.426 1.338 3.204.402.778.68 1.164.838 1.175.16.01.305.451.444 1.339.139.887 1.198 3.61 3.185 8.183s2.942 6.953 2.866 7.139c-.077.187.303 1.282 1.14 3.287.838 2.005 1.404 3.177 1.7 3.516.297.34.44.685.419 1.002-.022.318.13.776.444 1.34.32.58.424.923.32 1.043l-.157.181.321.214c.214.142.337.438.377.903.034.449.164.762.378.904.214.142.296.339.254.608-.05.252.084.756.386 1.479.302.723.539 1.106.698 1.117l.238.016a64.69 64.69 0 0 1-.115.28c-.076.186-.008.351.206.493.214.142.506.657.863 1.511.357.855.49 1.359.386 1.479l-.156.181.28.115c.186.077.56.789 1.116 2.12s.785 2.065.681 2.185l-.156.181.32.214c.215.142.967 1.758 2.243 4.814L71.133 144l-.51.212c-.328.138-.498.286-.525.451-.01.159-.934.583-2.752 1.265-1.835.689-3.002 1.177-3.5 1.462-.498.285-.77.514-.78.673l-.017.238-.279-.114c-.186-.077-.482.046-.904.377-.202.162-.421.33-.624.492l-.025-.337-.025-.337-4.855 2.144c-3.243 1.431-4.932 2.098-5.053 1.994l-.18-.156c-.078.186-.154.372-.23.559-.154.372-.411.634-.74.772l-.493.205-.164-.394c-.137.134-.274.269-.427.41-.274.269-.534.339-.748.196-.214-.142-.929.041-2.128.542-1.2.501-1.8.867-1.783 1.091l.025.337a31.624 31.624 0 0 1-.28-.115c-.186-.076-.35-.007-.509.213-.142.214-.306.283-.51.213-.185-.077-.722.07-1.577.427-.854.357-1.336.635-1.413.822-.076.186-.287.235-.649.155-.345-.087-.961.054-1.832.418l-1.298.542.254.608-.197.082c-.132.055-.305.011-.518-.131-.214-.142-1.211.197-2.991 1.017-1.764.814-3.125 1.344-4.05 1.576-.926.232-1.359.49-1.315.78.044.291 0 .463-.131.518-.131.055-.304.011-.518-.131-.214-.142-1.159.137-2.818.83-1.66.693-2.624 1.018-2.876.969-.252-.049-.468.08-.665.394-.18.307-.427.409-.707.295l-.419-.173.222.255.222.255-.197.082c-.131.055-.37.039-.731-.042-.346-.087-1.06.095-2.129.541-1.068.446-2.01.917-2.826 1.412-.816.495-1.18.917-1.101 1.29.071.356.008.575-.189.657-.197.083-.273.269-.23.559.045.291-.358.575-1.174.838-.833.271-1.37.649-1.626 1.143-.258.493-.575.703-.92.615-.346-.087-.69.057-1.003.419-.312.362-.396.667-.214.919l.263.353c-.205-.03-.41-.06-.633-.083l-.616-.09.6.329c.4.218.767.219 1.069.017.3-.203.7-.216 1.167-.025.465.192.819.16 1.027-.081.208-.242.183-.578-.082-1.028-.129-.216-.258-.432-.393-.665l.378.074c.252.049.495-.014.747-.197l.354-.263.253.608.608-.254-.032.477c-.022.318-.268.652-.749 1.026-.47.351-.681.632-.599.829.082.198-.019.51-.313.961-.284.427-.335.815-.132 1.116l.305.452c.11-.2.218-.4.344-.607.22-.4.422-.562.625-.492l.28.115-.198.082c-.132.055-.153.373-.058.97.088.581.03 1.087-.206 1.494-.219.401-.484.55-.764.435l-.42-.172.067.435c.044.291.352.567.928.79.559.23 1.01.524 1.306.863.296.34.66.516 1.043.51.383-.005.829.368 1.29 1.102.467.75.933 1.173 1.371 1.299.439.126.683.294.69.542.017.224.225.446.632.681.4.219.766.356 1.1.371.318.021 1.057-.287 2.202-.92 1.145-.632 1.925-.842 2.325-.623.4.218.715.28.913.198l.295-.124c.064.244.127.488.197.748.126.487.364.871.698 1.117.334.246.666.301 1.01.157l.51-.213-.09.616-.09.617.608-.254c.395-.165.669-.202.79-.098l.18.156c.271-.46.552-.944.822-1.405.552-.944 1.365-1.631 2.416-2.07 1.052-.439 1.72-.872 1.939-1.272.219-.4.317-.673.255-.821l-.082-.197-.296.123c-.197.083-.397-.027-.6-.328-.203-.301-.37-.424-.502-.369l-.197.082.254.608-.805.336.263.353.264.354-1.003.418c-.674.281-1.13.665-1.404 1.165-.257.494-.594.75-.978.756-.383.006-.602.174-.624.492-.021.318-.177.499-.484.55-.29.044-.49-.066-.6-.328-.11-.263-.277-.387-.502-.37-.225.017-.367-.232-.435-.764-.06-.515.182-.905.707-1.125l.806-.336-.223-.255-.222-.254c.239.016.477.032.732.041.477.033.912-.265 1.273-.879.361-.613.663-.952.895-.952l.337-.025-.123-.296c-.083-.197-.053-.403.09-.616.142-.214.511-.253 1.125-.123.598.136 1.003.044 1.184-.263.18-.307.446-.456.763-.434l.477.032c-.05-.211-.099-.422-.155-.649l-.155-.649c.233.095.465.191.715.28.233.096.466.191.715.28l.131-.518c.087-.345.389-.548.92-.615.515-.061.78-.211.764-.435-.017-.225.378-.389 1.2-.501.821-.112 1.404-.471 1.782-1.092.18-.307.361-.614.551-.944.181.156.362.312.55.485.362.312.615.457.763.395l.197-.083-.418-1.002c.178-.036.356-.071.55-.114.356-.071.66-.314.88-.714.218-.4.563-.544 1.002-.419.438.126.947-.087 1.495-.624.564-.544 1.133-.937 1.741-1.191.608-.253.997-.339 1.183-.262.187.077.488-.126.92-.616.416-.482.772-.785 1.035-.895l.395-.165.253.608.173-.419c.115-.28.4-.476.821-.575.422-.099.704-.023.814.239.11.263.277.387.502.37l.337-.025-.165-.394c-.11-.263-.088-.581.058-.97l.23-.559.419.172c.28.115.622.011 1.043-.32.406-.323.871-.364 1.365-.106.246.128.493.257.763.395l-.206-.493c-.137-.329-.022-.608.338-.855.367-.23.758-.355 1.142-.361.383-.006.616-.142.665-.394.05-.252.386-.508.977-.755.592-.247 1.11-.348 1.52-.288.412.06.642-.036.707-.295.05-.252.285-.427.723-.533.422-.099.655-.235.665-.394l.017-.238.28.115c.185.076.528-.028 1.043-.32.498-.286.824-.383.945-.279l.18.156.173-.419c.115-.28.879-.715 2.275-1.298 1.397-.583 2.164-.826 2.284-.722.121.104.332.054.65-.155.3-.203.577-.28.846-.238l.378.074-.107-.535c-.072-.356-.009-.575.188-.657.197-.083.403-.053.633.083.214.142.504.098.888-.139.367-.231.627-.301.747-.197l.181.156c.11-.2.22-.4.345-.607.219-.4.63-.571 1.2-.501.57.071.898.165.96.313.062.148-.055.332-.345.607-.274.269-.657.506-1.117.698-.46.193-.8.257-.986.181a32.925 32.925 0 0 0-.28-.115l.254.608-.846.237c-.553.154-.87.364-.92.616-.05.252-.345.376-.904.378-.542-.005-.884.33-.993.993-.103.68-.24 1.046-.37 1.101l-.198.082-.666-1.594-.607.254.253.608-.575.009c-.192.002-.383.005-.592.015l.067.436c.044.29-.085.537-.403.746-.3.203-.632.38-.96.518l-.51.212-.124-.295c-.082-.198-.268-.274-.559-.23-.29.044-.487.126-.608.254-.104.12-.082.266.066.435l.222.255-1.002.418.165.395-.395.164-.107-.534-.107-.534c-.137.135-.274.269-.427.41-.274.269-.665.394-1.142.361a25.809 25.809 0 0 0-.732-.042c.017.225.034.45.057.691.017.224.033.449.057.69-.22-.063-.439-.126-.674-.182-.22-.063-.439-.125-.674-.181-.05.252-.099.504-.14.772-.099.504-.27.788-.501.788-.225.017-.373-.153-.452-.525l-.107-.534-.55.345c-.367.231-.707.295-.986.18l-.42-.172c.116.184.23.367.353.567.23.367.15.728-.272 1.059-.202.162-.405.323-.624.492l-.5-1.199c-.042.364-.076.745-.133 1.116-.04.364-.075.745-.115 1.11.276-.077.553-.154.846-.238.276-.077.553-.154.846-.238l-.254-.608.197-.082c.132-.055.305-.011.518.131l.321.214.074-.379c.049-.252.254-.453.583-.59a1.611 1.611 0 0 1 1.027-.082c.345.087.682.063 1.027-.082l.51-.212-.419-1.003.222.255c.148.17.34.167.592-.016.235-.175.413-.211.534-.107.12.104.46.04.986-.18s.797-.449.78-.673c-.016-.225.427-.41 1.298-.542.888-.139 1.474-.307 1.792-.517.3-.203.476-.43.541-.689.05-.252.173-.419.37-.502.197-.082.37-.038.518.131.148.17.386.186.731.042s.666-.393.978-.755c.312-.362 1.169-.758 2.555-1.183 1.385-.424 2.19-.76 2.399-1.002.208-.241.27-.46.188-.657l-.123-.296.419.172c.28.115.62.05.986-.18.183-.115.367-.23.567-.352l3.3 7.903c2.203 5.275 3.47 8.219 3.818 8.865.347.646.615.92.813.837l.295-.123c-.035.285-.07.57-.099.871-.07.57.255 1.534.976 2.892.715 1.342 1.147 2.377 1.297 3.106.15.728.452 1.451.92 2.202.467.75.891 1.673 1.271 2.768l.567 1.635.608-.254c.108.535.222 1.085.329 1.619.107.534.221 1.085.329 1.619l.608-.254.336.805-.395.165.362.312c.242.208.427.652.542 1.298.123.663.334 1.076.64 1.257.308.181.418.443.337.805-.087.345-.047.811.107 1.364.153.554.382.825.673.781.29-.045.477.032.559.229l.123.296-.591.247.336.805.592-.247-.09.617-.09.616.476.032.477.033-.032.477c-.022.317.103.709.36 1.142.13.216.259.432.394.665l-.805.336c-.525.22-.865.285-.986.181-.12-.104-.41-.06-.887.139-.477.199-.712.374-.723.533-.01.159-.148.293-.427.41l-.394.165-.165-.395-.493.206c-.329.137-.515.292-.526.451-.01.159-.427.41-1.215.739-.79.33-1.26.449-1.38.345-.121-.104-.582.088-1.398.583-.816.496-1.341.715-1.61.673-.252-.049-.482.047-.706.295-.208.241-.92.616-2.12 1.117-1.2.5-1.813.834-1.824.993l-.016.238-.477-.033c-.317-.021-.728.15-1.2.501-.47.351-.914.537-1.297.542-.384.006-.696.137-.904.378-.208.241-.591.478-1.117.698-.526.219-.865.284-.986.18l-.181-.156-.213.321c-.143.214-.428.41-.822.574-.394.165-.668.202-.789.098l-.18-.156-.017.239-.016.238-.378-.074c-.252-.049-.625.029-1.085.222-.46.192-.745.388-.821.574a80.43 80.43 0 0 0-.115.28l-.28-.115c-.186-.077-.383.006-.608.254-.208.241-.405.323-.608.254-.186-.077-.821.111-1.873.55-1.052.439-1.616.752-1.626.911-.011.159-.209.241-.609.254a1.436 1.436 0 0 0-1.002.418c-.273.269-.586.4-.903.378-.318-.022-1.02.194-2.088.64s-1.615.752-1.626.911c-.01.158-.227.287-.665.393-.422.099-.688.249-.764.435-.077.186-.373.31-.904.377-.532.068-.794.178-.805.337-.011.159-1.843 1.039-5.48 2.635-3.637 1.596-5.614 2.499-5.915 2.702-.301.203-.43.449-.402.747.044.29-.066.49-.328.6-.263.11-.332.408-.215.919.127.488.454.717.986.65.515-.061.835.153.985.65.063.244.126.487.196.747l.51-.444c.17-.148.339-.296.525-.451l.264.353.263.354-.436.066c-.29.044-.46.192-.525.451-.05.252-.35.455-.92.615-.554.154-.901.57-1.003 1.249-.11.663-.47 1.141-1.06 1.388-.593.247-.984.835-1.152 1.774-.15.931-.01 1.452.428 1.577.438.126.75.363.886.691.138.329.293.515.451.526.16.011.39.378.699 1.117.308.74.539 1.107.698 1.117.159.011.623.57 1.404 1.653.763 1.089 1.606 1.721 2.538 1.873.931.151 1.664.057 2.21-.344.553-.386 1.287-.384 2.242.009.956.392 1.572.482 1.89.272.3-.203.61-.293.944-.279l.477.033-.066-.436c-.044-.29 0-.463.131-.517.132-.055.318.021.56.229.24.208.319.581.22 1.085-.098.504.014.863.32 1.043.308.181.633.083.946-.278.156-.181.312-.362.484-.55l-.033.477-.032.476c.591-.478 1.166-.95 1.75-1.445 1.167-.95 2.66-1.902 4.463-2.808 1.818-.914 2.749-1.689 2.785-2.341.036-.652.157-1.011.37-1.1.214-.089.592-.015 1.158.231l.862.354-.378-.904c-.253-.608-.16-1.033.288-1.297.433-.258.671-.473.682-.632.01-.159.115-.28.312-.362l.296-.124c.077.277.154.554.238.847.153.553.424.923.796 1.076.373.153.65.076.847-.238.18-.307.43-.45.764-.435.317.022.613-.102.903-.377.137-.135.274-.269.427-.41l.025.337.025.337.608-.254-.165-.394c.29-.044.581-.089.888-.139.58-.089.94-.2 1.043-.32.104-.121.033-.477-.221-1.085l-.377-.904.435-.066.436-.066-.09.616c-.06.411-.01.718.139.888.148.17.419.172.83.001.41-.172.597-.327.624-.493l.016-.238.28.115c.186.076.46.039.789-.098.328-.137.514-.292.525-.451.011-.159.323-.289.904-.377.58-.088.926-.233 1.002-.419l.115-.279.181.156c.12.104.523.051 1.224-.164.702-.216 1.783-.629 3.246-1.24l2.202-.919-.124-.296c-.082-.197-.038-.37.131-.518.17-.148.348-.184.534-.107l.28.115-.124-.296c-.082-.197.027-.397.329-.6.15-.102.3-.203.468-.312.115.184.23.367.352.567.23.367 1.257.19 3.047-.558 1.792-.748 2.635-1.409 2.474-1.979-.154-.553-.186-.906-.082-1.027.104-.121.25-.143.436-.066.186.077.376.345.575.821l.295.707 6.211-2.594 1.157 3.048c.771 2.033 1.349 3.046 1.732 3.04.384-.006.617.09.699.287.082.197.006.384-.23.559-.235.176-.326.329-.271.46l.083.198.353-.264.353-.263c-.022.318-.043.636-.058.97-.043.636.148 1.463.566 2.465.419 1.002.704 1.501.863 1.512.159.01.515.402 1.093 1.184.56.788.879 1.273.961 1.47l.123.296-.337.025-.336.024.336.806c.219.525.415.81.574.821.159.011.343.359.559 1.06l.32 1.043.805-.336.082.197c.055.132.03.258-.074.378-.104.121-.087.346.057.691l.206.493-.608.253c.115.184.23.367.352.567.231.367.381 1.096.443 2.17.063 1.073.295 1.999.69 2.76.402.778.698 1.118.895 1.035l.296-.123.165.394-.337.025-.337.025.624 1.495c.419 1.002.6 1.621.558 1.89-.049.252.121.567.517.961.389.378.552.676.476.863-.077.186-.005.542.221 1.084.227.543.495.816.813.838.318.022.504.098.559.23l.082.197-.336.025-.337.025.164.394.608-.254.92 2.202-.197.082c-.132.055-.134.326-.001.83.126.488.388 1.208.779 2.145.392.936.737 1.487 1.051 1.684.307.18.403.41.295.706l-.172.42c.233.095.466.191.715.28l.699.287-.312.362c-.208.241-.159.683.205 1.323.347.646.629.953.854.936l.337-.025-.115.28c-.076.186.022.608.304 1.281.281.674.566 1.172.863 1.512.148.17.296.339.451.526l.254-.223.255-.222.237.847c.154.553.35.838.575.821.225-.017.373.153.451.526.072.356.254.608.533.722.28.115.732.042 1.323-.205.592-.247 1.058-.287 1.365-.106.307.18.838.113 1.561-.189s1.177-.646 1.347-1.026c.153-.372.421-.562.821-.574.192-.003.384-.006.592-.016l-.165-.394c.277-.077.554-.154.847-.238.553-.154.838-.35.821-.574-.017-.225.298-.395.961-.517.663-.123 1.077-.334 1.257-.641.181-.307.364-.422.567-.353.186.077.236.288.155.65-.087.345-.009.717.222 1.084.115.184.23.367.352.567.11-.2.219-.4.345-.607.219-.4.41-.635.542-.689l.197-.083.066.436.066.435.608-.254c.394-.164.621-.684.641-1.56.02-.877.266-1.443.699-1.701.449-.264.671-.473.681-.632.011-.158.463-.463 1.372-.92s1.438-.947 1.611-1.502c.164-.532.338-.855.551-.944.214-.09.457-.616.74-1.602.299-.994.685-1.733 1.183-2.25.498-.517.549-1.136.181-1.832-.184-.347-.374-.712-.558-1.059l.32.213c.214.142.42.172.633.083l.296-.123-.165-.395c-.109-.263-.041-.561.198-.912.247-.335.345-.607.256-.821l-.124-.296.608-.254c-.184-.347-.374-.712-.558-1.059-.375-.712-.813-1.301-1.347-1.792-.516-.498-1.173-1.517-1.987-3.049-.797-1.539-1.325-2.341-1.593-2.384-.252-.049-.531-.531-.822-1.412-.298-.899-.597-1.43-.911-1.627-.306-.181-.559-.23-.772-.14l-.296.123-.165-.394.337-.025c.225-.017.362-.151.427-.41.049-.252-.043-.658-.262-1.183-.22-.526-.449-.797-.673-.781-.225.017-.605-.616-1.133-1.881-.529-1.265-1.062-1.988-1.61-2.145-.532-.164-.854-.473-.953-.895a47.984 47.984 0 0 0-.155-.649l-.394.165.131-.518c.087-.345-.024-.704-.32-1.044-.296-.339-.482-.783-.542-1.298-.031-.257-.061-.515-.098-.789a17.29 17.29 0 0 1-.427.41l-.411.403-.164-.394c-.11-.263-.028-.529.239-.814.273-.269.399-.476.344-.607-.054-.131-.222-.255-.501-.369-.28-.115-.395-.299-.353-.567.049-.252-.122-.663-.501-1.2-.385-.553-1.02-1.889-1.912-4.025-.892-2.136-1.431-3.243-1.618-3.319-.186-.077-.309-.373-.377-.904-.061-.515-.224-.813-.476-.863-.252-.049-.403-.41-.46-1.1-.056-.691-.273-1.488-.665-2.424-.391-.937-.728-1.375-1.018-1.331l-.436.066.189-.658c.125-.438.113-.838-.024-1.166a1.621 1.621 0 0 0-.674-.781l-.46-.271c.241-.255.498-.516.739-.771.482-.51 1.331-1.019 2.53-1.52 1.2-.501 1.868-.703 1.988-.599.121.104.351.008.707-.295.339-.296.652-.426.904-.377l.378.074-.837-2.005.509-.213c.329-.137.498-.285.526-.451l.016-.238.419.172c.28.115.483.416.616.92.063.244.126.488.196.748l2.597-1.084-.254-.608.394-.165.254.608c.249-.143.498-.285.764-.435.249-.142.498-.285.764-.435-.208-.221-.417-.443-.632-.681-.208-.222-.417-.444-.632-.682l-.468.543c-.156.181-.312.362-.485.549a28.507 28.507 0 0 0-.056-.69c-.017-.224-.033-.449-.057-.69.304-.011.608-.022.929-.041.624-.029 1.157.231 1.602.74.451.526.952.664 1.478.444.526-.219.835-.541.895-.952.06-.411-.057-.691-.336-.806l-.42-.172.271-.46c.181-.307.493-.438.904-.378.411.06.638.235.689.542l.066.436-.435.066-.436.066.337.805.114-.279.115-.28.28.115c.186.076.416-.02.706-.295.137-.135.274-.269.427-.41l.254.608 1.594-.666c1.068-.446 1.766-.853 2.078-1.215.312-.362.592-.478.806-.336.213.142.745.075 1.577-.196.833-.27 1.356-.682 1.586-1.241l.354-.861.164.394c.11.263.442.317 1.011.157.277-.077.554-.154.847-.238l-.55-.484c-.362-.313-.553-.677-.558-1.06-.006-.384.057-.603.188-.658a.892.892 0 0 1 .436-.066c.159.011.26.161.304.452l.066.435.436-.066c.29-.044.649.076 1.1.371.428.284.745.306.97.058.208-.241.257-.494.14-.773-.116-.279-.107-.534.001-.83.115-.279.337-.488.682-.632.345-.144.616-.141.83.001.213.142.405.139.591-.016l.255-.222.336.805-.674.05c-.224.017-.449.033-.69.057l.124.296c.082.197.46.27 1.157.23.337-.025.69-.057 1.027-.081l-.837-2.005.197-.082c.132-.055.357-.072.674-.05.335.015.502.138.502.369.017.225.165.395.451.526.279.115.66.149 1.11.115.449-.033.695-.136.706-.295l.016-.238-.476-.032c-.318-.022-.518-.132-.601-.329-.082-.197.099-.504.552-.944.443-.417.742-.58.862-.476.121.104.11.263-.032.477-.142.214-.098.504.139.887.23.367 2.075-.114 5.504-1.468 3.428-1.355 5.587-2.102 6.474-2.241a8.072 8.072 0 0 0 2.481-.804c.778-.402 2.479-.997 5.119-1.79 2.64-.794 4.998-1.663 7.025-2.587 2.043-.93 3.149-1.469 3.319-1.617.169-.148.257-.493.255-1.052.005-.543.45-1.095 1.332-1.618l1.314-.78 2.191 4.97c1.459 3.309 2.271 5.439 2.438 6.393.166.953 1.296 4.398 3.373 10.343 2.094 5.937 3.292 9.084 3.588 9.423.296.34.652 1.098 1.059 2.259.408 1.162 1.174 2.81 2.29 4.93a34.302 34.302 0 0 1 2.66 6.646c.657 2.312 1.245 3.629 1.773 3.968.521.323 1.048.431 1.536.305.504-.134.89.052 1.182.567.285.499.594.775.912.797.317.021.763.395 1.289 1.101.534.723 1.128.899 1.758.559.646-.347 1.057-.75 1.258-1.239.191-.466 1.341-1.178 3.443-2.152 2.109-.958 3.905-2.016 5.366-3.186 1.484-1.16 2.739-1.896 3.803-2.167 1.057-.287 1.652-.574 1.766-.853l.173-.42c.293.148.586.296.903.453.586.295 1.034.398 1.297.288.263-.11.468-.311.583-.591.115-.279-.158-1.304-.82-3.073-.662-1.769-.947-2.73-.878-2.933.077-.187.345-.376.822-.575.476-.199.698-.407.681-.632-.016-.224-.388-.745-1.107-1.544-.72-.799-1.259-1.674-1.568-2.645-.326-.964-.671-1.514-1.051-1.684-.372-.153-.582-.471-.615-.92-.034-.449-.271-.833-.698-1.117-.428-.285-.791-.693-1.093-1.184-.292-.515-.501-.737-.632-.682l-.197.083-.583-1.397-.198.082c-.131.055-.634-.873-1.51-2.785-.875-1.911-1.097-2.996-.648-3.26.433-.258.792-.369 1.044-.32l.378.073c-.233-.095-.466-.191-.715-.28a15.911 15.911 0 0 0-.715-.28l.805-.336c.542-.227.761-.627.666-1.224-.088-.581-.301-1.09-.625-1.495-.323-.406-.59-.583-.804-.494l-.296.123-.164-.394c.178-.036.356-.072.55-.114l.534-.107-.837-2.005c-.556-1.331-1.311-3.601-2.249-6.818-.954-3.21-1.36-4.874-1.256-4.995.104-.12-.204-.86-.919-2.201-.715-1.342-1.494-3.024-2.331-5.028-.837-2.005-1.218-3.1-1.141-3.287.077-.186.454-.344 1.101-.46.663-.122 1.189-.342 1.594-.665.405-.324.849-.509 1.298-.542.449-.033.794-.177 1.002-.419.208-.241.52-.371.904-.377.383-.006 1.052-.208 1.988-.599.937-.391 1.435-.676 1.512-.863.076-.186.372-.309.904-.377.531-.068.986-.18 1.38-.345.394-.165.597-.326.624-.492.011-.159.948-.55 2.81-1.173 1.862-.624 2.834-1.068 2.966-1.355.115-.279.377-.389.805-.336.411.06 1.816-.411 4.231-1.419 2.416-1.009 3.87-1.501 4.429-1.502.559-.002.967-.134 1.24-.403.274-.268 3.117-1.455 8.512-3.554 5.395-2.098 8.243-3.133 8.561-3.112.318.022 1.183-.262 2.58-.846 1.397-.583 2.196-.84 2.383-.763.186.077 1.525-.367 4.034-1.337 2.492-.964 3.799-1.394 3.936-1.296.12.104.345.087.673-.05l.51-.213-.254-.608.394-.165.206.493c.137.329.572.63 1.306.864.718.24 1.391.326 1.971.238.291-.044.581-.088.888-.139l-.066-.436a.688.688 0 0 1 .287-.699c.235-.175.044-1.002-.566-2.465-.611-1.462-.862-2.341-.747-2.621.114-.279-.107-1.364-.648-3.261-.558-1.889-.924-2.952-1.1-3.187l-.379.062Zm-40.207-44.806c.581-.088.915-.073.97.058l.082.197-.706.295c-.477.2-.794.178-.97-.058l-.263-.353c.29-.044.58-.088.887-.14Zm-1.807.755-.083-.198.608-.253.165.394-.608.254-.082-.197Zm-3.312.804-.025-.337.321.213.321.214-.608.253-.025-.337.016-.006Zm-3.302.549-.066-.436.862.354.862.354c-.258.03-.531.068-.789.098-.531.068-.811-.047-.862-.354l-.007-.016Zm-1.158.6c.112-.01.225-.017.337-.026l-.156.181-.156.181-.181-.156-.181-.156.337-.025Zm-2.112.302c.729-.15 1.145-.17 1.266-.065l.181.156-.92.615c-.302.204-.619.413-.92.616a41.51 41.51 0 0 1-.353-.567c-.115-.183-.23-.367-.352-.566.356-.072.712-.143 1.084-.222l.014.033Zm-2.793 1.167-.165-.395c.178-.035.356-.071.551-.114.356-.071.608-.022.772.14l.222.255-1.199.501-.165-.394-.016.007Zm-.92.615-.165-.394.608-.254.066.436c.044.29.001.463-.131.517l-.197.083-.165-.394-.016.006Zm-3.861.32c.345.087.734.002 1.183-.263.449-.264.767-.243.97.058l.304.452-.279-.115c-.187-.076-.43-.013-.748.197l-.452.304-.164-.394-.312.362-.312.362a44.205 44.205 0 0 1-.353-.567c-.115-.184-.23-.367-.352-.567l.517.131-.002.04Zm-1.372.92.016-.238.321.213.321.213-.337.025-.337.025.016-.238Zm-13.827 4.597c.011-.159.115-.28.312-.362l.296-.124.165.395-.805.336.016-.239.016-.006Zm-1.709 1.543-.025-.337.419.173.419.172-.805.336-.025-.337.017-.007Zm-6.449 1.748.074-.379.279.115.28.115-.353.263-.354.264.074-.378Zm-34.618-60.397-.229.56c-.017-.225-.034-.45-.057-.69-.017-.225-.033-.45-.057-.691l.28.115.279.114-.23.56.014.032Zm.732.042.238.016-.016.239-.016.238-.239-.016-.238-.016.016-.239.016-.238.239.016Zm-.176 10.3c-.11-.262-.076-.643.132-1.116.208-.472.179-.865-.024-1.167l-.304-.451.394-.165-.321-.213c-.214-.143-.569-.901-1.059-2.26-.49-1.358-.832-2.084-1.018-2.16-.186-.077-.372-.52-.542-1.298-.177-.795-.342-1.19-.501-1.2-.159-.01-.367-.233-.632-.682-.258-.432-.322-.772-.18-.986.142-.213.123-.63-.066-1.265-.09-.31-.188-.636-.278-.945l-.354.263a95.34 95.34 0 0 1-.353.263l-.082-.197c-.055-.131-.006-.383.14-.772.154-.373.031-1.036-.36-1.973l-.583-1.396.559.23c.373.153.742.114 1.126-.123.183-.116.367-.23.566-.353l.165.395-.608.253.419 1.003c.281.673.544 1.027.796 1.076.252.049.431.245.493.624.071.356.308.74.698 1.117.194.189.389.378.59.583l-.394.165.295.706c.192.46.191.828-.017 1.069-.208.241-.197.545.041.928.23.367.336.806.303 1.282-.032.477.019.784.139.888.121.104.332.054.65-.155.15-.102.301-.203.468-.312.016.225.033.45.056.69.034.45-.009.718-.14.773-.131.055-.052.523.246 1.422.298.898.523 1.344.682 1.355.159.011.321.214.492.624.172.411.169.682 0 .83-.17.149-.164.532.024 1.167.188.636.372.984.558 1.06l.28.115-.173.42c-.115.279-.005.542.337.804l.501.37a41.62 41.62 0 0 1-.64.73c-.208.242-.416.483-.641.731-.249-.32-.506-.657-.755-.977-.506-.657-.633-1.145-.386-1.48.123-.166.246-.334.386-.508-.151.102-.302.203-.469.312-.15.101-.301.202-.468.31l-.165-.394-.023-.01ZM71.501 74.688l-.124-.296.395-.165.254.608-.395.165-.123-.296-.007-.017Zm-1.15-.813.016-.239.239.017.238.016-.016.238-.017.239-.238-.017-.238-.016.016-.238Zm1.305 3.45-.164-.395.805-.336-.033.476c-.021.318-.098.504-.23.56l-.197.082-.164-.395-.017.007Zm4.918 11.453c.488-.126.776-.13.83 0 .055.132-.087.346-.443.65-.17.147-.34.295-.525.45l-.305-.452-.304-.451c.243-.064.487-.127.747-.197Zm7.972 17.705.025.337.025.337-.362-.313-.361-.312.336-.024.337-.025Zm-4.286-7.724c-.017-.224.04-.364.172-.419.132-.055.299.068.502.37l.304.451-.477-.032c-.317-.022-.484-.145-.501-.37Zm2.675 7.239c-.165-.395-.15-.729.058-.97l.312-.362.403.411c.269.273.254.608-.058.969l-.468.543-.254-.608.007.017Zm1.709 4.091-.124-.296.32.214.322.213-.395.165-.123-.296ZM49.722 230.803l.165.394-.608.254-.066-.436c-.044-.29 0-.463.13-.517l.198-.083.165.395.016-.007Zm1.438-.485.123.296-.394.165-.254-.608.394-.165.124.296.007.016Zm9.517 15.998.123.296-.394.164-.254-.607.395-.165.123.296.007.016Zm2.414-.642-.13.518-.519-.131c-.345-.087-.526-.243-.55-.484l-.024-.337c.224-.017.449-.033.69-.057.225-.016.45-.033.69-.057l-.13.518-.027.03Zm-7.183-17.802c-.449.265-.726.342-.846.238l-.181-.156c.276-.077.553-.154.846-.238l.847-.237c-.217.128-.45.264-.666.393Zm1.955.477-.066-.436-.066-.435.32.213.321.213-.254.223-.255.222Zm7.883 15.503.254.608-.518-.131c-.346-.087-.56-.23-.648-.443l-.124-.296.805-.336.254.608-.023-.01Zm-6.904-17.687c.083.197.006.383-.23.559l-.353.263.033-.477c.021-.318.098-.504.23-.559l.197-.082.123.296Zm1.56.641-.509.212.033-.476.032-.477.46.271.461.271-.51.212.034-.013Zm8.014 14.985c.017.225.034.45.057.691l-.337.024c-.224.017-.386-.186-.492-.624-.05-.211-.099-.422-.155-.649l.435-.066.436-.066c.016.225.033.449.056.69Zm-5.648-16.899c-.224.016-.45.033-.69.056l.222.255.222.255-.255.222-.254.222-.263-.353c-.176-.236-.225-.447-.156-.649.077-.187.296-.355.624-.493.33-.137.63-.108.872.1l.362.312c-.225.016-.45.033-.69.056l.006.017Zm1.849-.656c-.184.115-.367.23-.567.352l-.336-.805c.238.016.477.032.731.042l.715.049-.55.345.007.017Zm1.463-.978.165.394a49.45 49.45 0 0 1-.378-.074c-.252-.049-.373-.153-.362-.312.01-.158.082-.265.213-.32l.198-.083.164.395Zm1.092-.205.082.197-.378-.074-.378-.073.608-.254.082.197-.016.007Zm.83.001.025.337-.362-.312-.362-.313.337-.024.337-.025.025.337Zm8.671 15.174c-.216.129-.433.257-.665.393l-.206-.493a1.048 1.048 0 0 1 .058-.97l.27-.46c.196.189.39.378.592.583.194.189.39.378.59.583-.216.129-.432.258-.665.394l.026-.03Zm-5.623-16.563-.066-.435-.066-.436.28.115.279.115-.214.32-.213.321Zm7.332 15.849-.27.46-.28-.944c-.09-.31-.188-.636-.278-.945l.337-.025c.224-.017.405.139.55.484.143.345.122.663-.059.97Zm-5.992-16.891-.296.124-.164-.395.378.074.378.073-.296.124Zm1.824-.993.082.197-.805.336-.165-.394.805-.336.083.197Zm8.333 16.029-.435.066c-.29.044-.485-.145-.591-.583-.05-.211-.099-.422-.155-.649l.337-.025c.224-.017.419.172.59.583l.254.608Zm2.4-1.002.082.197-.378-.073-.379-.074.608-.254.083.197-.017.007Zm2.793-.935.066.436c-.304.011-.608.022-.929.04-.304.011-.608.022-.928.041l.016-.239.016-.238-.337.025c-.224.016-.359-.12-.403-.411l-.066-.435c.411.06.822.12 1.256.189.839.113 1.279.335 1.323.625l-.014-.033Zm1.511-.863a22.96 22.96 0 0 0-.041.732l-.56-.23c-.372-.153-.614-.361-.73-.64l-.165-.395.608-.254c.394-.164.668-.201.79-.097.12.104.164.394.138.887l-.04-.003Zm2.555-1.182.025.337c-.285-.036-.586-.064-.87-.1-.587-.064-.894-.244-.945-.551l-.066-.435c.299.068.597.136.912.197.598.137.928.327.944.552Zm3.681-1.306c.017.225-.153.373-.525.451-.178.036-.356.072-.551.114l-.066-.435-.066-.436c.192-.003.383-.005.592-.015.383-.006.583.103.6.328l.016-.007Zm3.844-1.238c-.208.241-.52.371-.904.377-.383.006-.87-.099-1.437-.345l-.862-.354.707-.295a3.84 3.84 0 0 1 1.52-.288c.543.005.904.086 1.06.272.147.17.117.375-.09.616l.006.017Zm3.608-1.758c.044.291-.112.472-.484.55-.179.036-.357.071-.551.114l-.107-.534-.108-.534.576-.009c.383-.006.613.13.648.443l.026-.03ZM50.182 81.351l.51-.213.082.197c.055.131.01.304-.131.518l-.214.32-.362-.311-.361-.313.492-.205-.016.007Zm10.294 25.206c-.017-.225.04-.365.172-.42l.197-.082.067.435.066.436-.239-.016c-.159-.011-.246-.129-.263-.353Zm-8.25-19.48.337-.025.337-.025-.156.181-.156.181-.181-.156-.181-.156Zm58.583 138.305c.203.301.109.63-.313.96-.202.162-.405.324-.624.492-.063-.243-.126-.487-.196-.747-.127-.488-.145-.808-.041-.929.104-.121.269-.189.493-.206.225-.017.439.126.648.443l.033-.013ZM51.528 85.96l.559.23.559.23-.435.065c-.29.044-.477-.032-.56-.23l-.123-.295Zm30.12 74.393c-.022.318.06.515.253.608l.28.115-.156.181c-.104.12.018.783.36 1.972.342 1.188.4 1.879.147 2.061l-.353.263-.567-1.635c-.38-1.095-.515-1.695-.418-1.832.104-.121-.041-.562-.443-1.339l-.6-1.159c.252.049.504.099.773.141.504.098.745.306.73.64l-.006-.016Zm4.342 12.061-.198.082-.254-.608.321.214.32.213-.196.083.007.016Zm1.313 2.037-.394.165-.254-.608.32.213.321.214.007.016Zm.148 1.463c.05-.252.14-.406.27-.46l.198-.083.336.805-.435.066-.436.067.074-.379-.007-.016Zm2.719 4.847.253.608-.591.247-.583-1.397.337-.025c.224-.016.419.172.59.583l-.006-.016Zm-1.651-2.012c-.017-.225.04-.365.172-.42l.197-.082.254.608-.608.254a219.13 219.13 0 0 0-.025-.337l.01-.023Zm2.298 5.504c.011-.159.115-.279.312-.362l.296-.123.254.608a4316.105 4316.105 0 0 0-.871.132l.016-.238-.007-.017Zm-.131-1.701c-.29.044-.477-.033-.56-.23l-.123-.295.806-.337.336.805-.436.067-.023-.01Zm-5.582-14.245c-.01.159-.208.241-.608.254-.383.006-.646-.116-.763-.395l-.165-.395.608-.254.124.296c.082.197.236.288.46.271l.337-.025-.016.238.023.01Zm-2.119-1.932a260.576 260.576 0 0 0-.132-.871l.263.353.263.353-.394.165Zm-4.122-9.317-.28-.115 1.2-.501c-.002.272-.005.543 0 .83-.006.543-.084.865-.215.92l-.197.082-.107-.534c-.072-.356-.208-.589-.394-.665l-.007-.017Zm-14.21-36.847-.394.165-.254-.608.395-.165.253.608ZM52.25 93.879l.608-.254.165.395-.378-.074-.378-.074-.017.007Zm.787 1.331a567.967 567.967 0 0 0 .133.871l-.264-.353-.263-.353.394-.165Zm-1.953-4.124.016-.239.016-.238.28.115.28.115-.609.254.017-.007Zm1.314 2.037.032-.477c.022-.317.098-.504.23-.559l.197-.082.418 1.002-.435.066-.436.067-.006-.017Zm-.008-1.174-.254-.608.32.214.321.213-.394.165.007.016Zm-.476-1.692.198-.083.025.337.024.337-.222-.254-.222-.255.197-.082Zm-2.012-3.386c.181.156.362.312.55.484l-.805.336c-.05-.21-.099-.421-.155-.649-.05-.21-.1-.421-.156-.649.181.156.362.312.55.485l.016-.007Zm-2.857-3.747.805-.336.066.435.066.436-.337.025c-.224.016-.378-.074-.46-.271l-.124-.296-.016.007Zm9.662 22.537.197-.082-1.256-3.007.806-.337-.436.067c-.29.044-.854-.937-1.691-2.941-.837-2.005-1.185-3.114-1.042-3.328.142-.214.279-.348.41-.403l.197-.082c.05.21.1.421.156.649.05.21.099.422.155.649l.255-.222.254-.222-.131.518c-.087.345.009.575.295.706.28.115.55.485.797 1.076.247.592.292.978.123 1.126l-.255.222.337-.025c.224-.016.55.485.961 1.47.412.986.6 1.622.558 1.89l-.074.378.238.017c.16.01.307.18.451.525.145.345.21.781.206 1.323-.005.543.1.981.303 1.282l.305.452-.608.254.263.353.263.353-.197.082c-.131.055-.501-.369-1.134-1.282-.304-.452-.615-.92-.92-1.372l.197-.082.017-.007Zm3.292 6.498a2.815 2.815 0 0 1-.78-1.314c-.127-.488-.098-.789.1-.871.196-.083.595.503 1.19 1.741l.894 1.865-.337.025-.337.025.254.608-.394.164-.165-.394c-.11-.263-.107-.534 0-.83.115-.28-.029-.625-.418-1.002l-.007-.017Zm-1.51-2.785.394-.164.025.337.025.336-.222-.254-.222-.255Zm2.766 7.78.197-.083c.132-.055.093-.424-.123-1.126l-.32-1.043.436-.066c.29-.044.504.098.648.443.144.345.121.567-.042.732-.17.148-.213.32-.13.517l.123.296.296-.123c.197-.083.43.013.715.28l.403.411c-.178.035-.356.071-.55.114l-.535.107.254.608-.197.082a.945.945 0 0 1-.436.066c-.159-.01-.32-.213-.492-.624l-.254-.608.007.017Zm1.428 2.819-.403-.411c.225-.016.45-.033.69-.057.45-.033.923.407 1.373 1.299.456.909.643 1.449.567 1.635a.722.722 0 0 1-.411.403l-.296.124-.418-1.002-.395.164c-.044-.29-.088-.581-.139-.887-.088-.581-.273-1.025-.542-1.298l-.026.03Zm33.166 79.701.025.337-.362-.312-.362-.312.337-.025.337-.025.025.337ZM71.77 140.627c-.159-.011-.329-.326-.517-.961-.188-.636-.405-.97-.657-1.019-.252-.049-.38-.265-.394-.665l-.008-.576-.395.165-1.296-3.105c-.865-2.071-1.39-3.144-1.577-3.221l-.28-.115.198-.082c.131-.055-.216-1.164-1.042-3.328-.827-2.163-1.141-3.286-.944-3.369l.296-.123.336.805.608-.254.402 1.241c.27.833.515 1.232.74 1.216.224-.017.497.544.812 1.667.314 1.123.582 1.764.796 1.906l.32.214-.197.082c-.131.055-.186.387-.173 1.018.011.304.022.608.04.929l.198-.083c.131-.055.34.167.632.682.285.498.514.769.673.78.159.011.399.586.713 1.709.315 1.123.548 1.682.714 1.709.159.011.403.411.74 1.216.335.805.448 1.26.344 1.38-.104.121-.038.556.205 1.323l.361 1.142a88.881 88.881 0 0 1 .427-.641l.336.805-.509.213c-.329.137-.6.134-.83-.001-.214-.142-.451-.526-.698-1.117-.247-.592-.34-.997-.263-1.183l.115-.28-.238-.016.012-.063Zm26.787 64.148.115-.279c.077-.187-.177-.795-.754-1.808-.578-1.013-.811-1.572-.714-1.709.104-.12.074-.378-.098-.788a3.169 3.169 0 0 0-.657-1.019c-.269-.274-.371-.52-.295-.707l.115-.279-.28-.115-.28-.115c.04-.093.077-.186.116-.279l.114-.28-.394.165-.624-1.495c-.419-1.003-.586-1.589-.517-1.792l.115-.279-.238-.016c-.159-.011-.438-.493-.822-1.413-.384-.92-.549-1.778-.451-2.513.075-.746-.21-1.707-.877-2.934-.66-1.21-.955-1.917-.879-2.103.077-.186.227-.288.452-.304.225-.017.425.092.6.328.176.235.498 1.008.96 2.3.463 1.293.904 1.977 1.315 2.037.41.06.64.196.648.444l.025.337-.378-.074-.378-.074.082.197c.055.132.162.203.32.214.16.011.275.194.353.567l.107.534.608-.254 2.258 5.406c1.502 3.598 2.186 5.513 2.044 5.727l-.214.32c.233.096.466.192.715.28.466.192.709.496.715.879.006.384-.49.629-1.471.73-.482.047-.98.101-1.463.148l.007.016Zm12.398 26.316c-.165-.395-.169-.682.001-.83.169-.149.155-.644-.05-1.504l-.303-1.282.435-.066c.291-.044.638.602 1.035 1.922.396 1.32.724 2.013.976 2.062.252.049.433.205.55.484l.165.395c-.211.049-.422.099-.649.155-.422.099-.863.013-1.298-.288-.427-.284-.73-.64-.895-1.035l.033-.013Zm4.631 9.103-.016.239-.321-.214a88.894 88.894 0 0 1-.32-.213l.336-.025.337-.025-.016.238Zm-2.053-3.484c-.082-.197-.052-.403.09-.617.142-.213.312-.361.526-.451.213-.089.438.126.73.641.143.249.285.498.435.764-.271-.003-.559.002-.83-.001-.543-.005-.871-.099-.961-.313l.01-.023Zm3.917 6.006-.395.165-.336-.806.559.23.559.23-.394.164.007.017Zm-.344-1.979-.436.066c-.29.044-.545-.197-.772-.739l-.336-.805.477.032c.318.022.573.263.772.739l.295.707Zm-2.266-5.981c-.181.307-.573.432-1.143.361-.569-.071-.86-.258-.829-.599.022-.318-.06-.515-.254-.608l-.279-.115.394-.165-.222-.255c-.148-.169-.17-.314-.066-.435.104-.121.301-.203.608-.254l.436-.066-.132.518-.131.518.354-.264c.235-.175.523-.179.83.001.307.181.501.37.59.583.09.214.034.449-.14.773l-.016.007Zm18.989 41.547.165.394-.436.066c-.29.044-.476-.032-.559-.229l-.123-.296.805-.336.165.394-.017.007Zm.542-.69-.016.239-.222-.255-.222-.254.238.016.238.016-.016.238Zm.649-.386.123.295a88.894 88.894 0 0 0-.32-.213l-.321-.214.394-.164.124.296ZM67.34 90.047l-.46-1.1.395-.165.92 2.202-.395.164-.46-1.1Zm1.256 3.007-.206-.493.395-.164.418 1.002-.394.165-.206-.493-.007-.017Zm1.043 2.498-.164-.395.394-.164.336.805-.394.165-.165-.395-.007-.016Zm1.963 4.699-.124-.296.395-.164.253.608-.394.164-.123-.295-.007-.017Zm6.025 13.597c1.553 3.905 2.271 5.902 2.167 6.022l-.156.181.362.312c.241.208.454.718.624 1.496.178.794.411 1.353.714 1.708.296.34.413.619.336.806-.076.186.194 1.019.805 2.481l.92 2.202-.395.164.362.312c.241.208.454.718.624 1.496.178.794.397 1.32.666 1.594.268.273.388.744.345 1.38-.022.318-.044.636-.059.97-.353-.2-.713-.416-1.083-.609l-1.084-.609.213-.32c.142-.214-.375-1.638-1.56-4.289-1.177-2.634-1.715-4.108-1.6-4.387.115-.28-.079-.836-.567-1.635-.495-.816-.742-1.408-.755-1.808-.005-.383-.108-.63-.295-.706a32.925 32.925 0 0 0-.28-.115l.214-.321c.143-.214.11-.663-.106-1.364-.216-.701-.44-1.148-.682-1.356l-.362-.312.156-.181c.104-.12.052-.523-.164-1.224-.215-.701-.5-1.2-.863-1.512-.18-.156-.361-.312-.55-.484l.255-.222c.17-.148.001-.83-.5-2.03-.5-1.199-.705-2.059-.607-2.563.098-.504.206-.8.354-.862l.197-.082 2.324 5.841.03.026Zm-2.544-7.525c.137.329.202.669.18.986-.022.318-.145.485-.386.509-.225.016-.375.118-.452.304l-.114.28-.559-1.06c-.374-.712-.468-1.213-.287-1.52l.27-.461a76.26 76.26 0 0 1-.476-.032c-.318-.022-.518-.131-.6-.328-.083-.198-.094-.502-.04-.929.06-.411.188-.658.385-.74l.296-.123.107.534c.071.356.226.542.451.525.225-.016.381.266.476.863.044.29.095.597.139.887l.394-.164.206.493.01-.024Zm1.717-.37-.394.165c-.05-.211-.1-.422-.156-.649-.049-.211-.099-.422-.155-.649l.378.074c.252.049.433.205.55.484l.165.394-.395.165.007.016Zm.902 1.052.254.608-.32-.214-.321-.213.394-.165-.007-.016Zm-2.2-3.327.017-.238.238.016.239.016-.017.238-.016.239-.238-.016-.239-.017.017-.238Zm-3.186-7.353.016-.238.017-.239.238.017.239.016-.017.238-.016.239-.238-.017-.239-.016Zm-1.362-4.371-.362-.312c-.241-.208-.29-.42-.155-.65l.213-.32.305.452c.203.301.252.512.155.649l-.156.18Zm-.631-1.512c-.29.044-.526-.243-.714-.879l-.28-.945.42.173c.28.115.515.402.714.879l.295.706-.435.066Zm-2.397-5.463c.383-.006.592.216.632.681.016.225.033.45.056.69l-.238-.015c-.159-.011-.367-.233-.632-.682-.129-.217-.258-.433-.394-.666.192-.002.384-.005.592-.015l-.016.007Zm3.037 7.55c.29-.044.471.112.55.485.07.356.04.561-.09.616-.132.055-.313-.101-.55-.484-.115-.184-.23-.367-.353-.567l.436-.066.007.016Zm38.157 91.376-.337.025c-.225.016-.373-.154-.451-.526l-.108-.534.239.016c.159.011.307.181.451.526l.206.493Zm-.921-1.372-.337.025-.024-.337-.025-.337.361.312.362.312-.337.025Zm-28.197-70.622c-.132.055 1.406 4.198 4.588 12.421 3.2 8.216 4.671 12.387 4.392 12.504l-.394.164-.625-1.495c-.418-1.002-.717-1.534-.91-1.626a31.624 31.624 0 0 0-.28-.115l.156-.181c.104-.121-.112-.822-.64-2.087-.528-1.265-.903-1.977-1.117-2.12l-.32-.213.394-.165-.336-.805c-.22-.526-.43-.843-.616-.92-.186-.077-.217-.334-.098-.789.126-.438.089-.712-.098-.789-.186-.076-.423-.46-.698-1.117-.274-.657-.366-1.063-.262-1.183.104-.121-.846-2.58-2.856-7.394l-3.013-7.214c.192-.003.384-.006.592-.015.384-.006.867.506 1.461 1.512.286.498.578 1.013.863 1.512l-.197.082.014.033Zm-3.268-8.381-.353.264-.254-.608c.159.011.334.015.477.032l.476.033-.353.263.007.016Zm68.761 142.16c.345.087.553.309.632.681.071.356.041.562-.09.617-.132.055-.34-.167-.632-.682-.143-.249-.286-.498-.435-.764l.518.131.007.017Zm22.599-124.022c-.044-.29.131-.517.542-.689l.608-.254-.074.378c-.049.252.02.417.206.493l.28.115c-.244.063-.488.126-.748.197-.244.063-.487.126-.748.196l-.066-.436Zm-1.454.723-.206-.492c.266.081.532.163.814.239.266.082.532.164.814.239l-1.2.501-.205-.493-.017.006Zm-1.307-.033c.088-.345.197-.545.329-.6l.197-.082.066.435c.044.291-.065.491-.328.6l-.395.165.131-.518Zm-3.359.689c.449-.033.729-.15.805-.336l.115-.28.107.534.108.535c.188-.195.377-.39.583-.591.188-.195.377-.39.583-.591l.403.411.403.41-.354.263c-.235.176-.413.212-.55.115l-.181-.156-.312.361c-.208.242-.422.331-.608.254l-.279-.115-.017.239-.016.238a46.482 46.482 0 0 1-.731-.64c-.241-.208-.482-.416-.73-.641a24.3 24.3 0 0 0 .69-.057l-.019.047Zm-2.119 1.117.032-.477.28.115.279.115-.312.362-.312.361.033-.476Zm-1.635.567-.206-.493c.238.016.476.032.731.042.477.032.759.107.814.239l.082.197-1.199.501-.206-.493-.016.007Zm-21.673 7.757-.083-.197.608-.254.165.394-.608.254-.082-.197Zm-2.514 1.05.016-.239.28.115.279.115-.608.254.016-.238.017-.007Zm-1.027-.517.395-.165.254.608-.518-.131-.518-.131.394-.165-.007-.016Zm-1.677 1.067.239.016-.017.238-.016.239-.222-.255-.222-.254.238.016Zm-1.865.894.017-.238.222.255.222.254-.238-.016-.239-.016.016-.239Zm-3.753.854-.083-.197.805-.337.165.395-.805.336-.082-.197Zm2.407 60.339.337-.025.337-.025-.156.181-.156.181a29.152 29.152 0 0 1-.181-.156l-.181-.156Zm7.281 15.774-.312.361-.066-.435-.066-.436.378.074.378.074-.312.362Zm-3.314-16.948-.805.336-.254-.608.707-.295c.476-.199.78-.21.928-.041l.222.255-.805.336.007.017Zm4.264-1.897c-.712.375-1.117.698-1.232.978l-.172.419-.222-.254c-.149-.17-.42-.173-.831-.001l-.608.254-.024-.337c-.017-.225.615-.605 1.881-1.133 1.265-.528 1.966-.744 2.087-.64l.181.156c-.365.191-.712.375-1.06.558Zm9.287 14.107.082.197-.608.254-.165-.394.608-.254.083.197Zm-5.31-16.134c.11.263.141.52.098.789-.049.252-.172.419-.386.508-.213.089-.369.039-.517-.131-.149-.17-.425-.093-.847.238-.202.162-.405.323-.624.492-.115-.183-.23-.367-.352-.567a38.2 38.2 0 0 1-.353-.567l2.793-1.166.165.394.023.01Zm1.315-.781-.083-.197 1.397-.583.419 1.002.213-.32.213-.321.067.435.066.436c-.365-.041-.746-.075-1.11-.116-.729-.081-1.144-.197-1.199-.329l.017-.007Zm9.384 14.896-.295.123.336.805-.296.124c-.197.082-.356.072-.477-.032-.12-.105-.071-.357.141-.773.219-.4.438-.569.624-.492l.28.114-.296.124-.017.007Zm-6.518-15.61c-.121-.104-.345-.087-.69.057l-.51.212-.164-.394 2.201-.919.083.197c.055.131-.055.331-.345.607-.274.268-.471.351-.608.254l.033-.014Zm8.622 14.732-.608.253c-.395.165-.693.097-.913-.197l-.304-.452c.271.002.542.005.83 0 .559-.001.857.067.912.198l.083.198Zm-3.79-15.823-.165-.395.805-.336.165.394-.805.337Zm7.158 14.879-.197.082-.025-.337a41.228 41.228 0 0 0-.025-.337l.223.255.222.255-.198.082Zm-3.396-17.145c-.17.148-.34.296-.526.451l-.025-.337c-.016-.225-.118-.375-.304-.452l-.28-.115.51-.212c.328-.138.616-.142.83 0l.32.214c-.169.148-.339.296-.525.451Zm8.212 14.304.025.337-.337.025c-.225.017-.378-.073-.461-.271l-.123-.295.435-.066.436-.066.025.336Zm-3.907-16.102-.707.295-.336-.805c.211-.049.422-.099.649-.155.422-.099.707-.064.872.099l.222.255-.707.295.007.016Zm2.465-.566.082.197-.476-.032-.477-.033.805-.336.082.197-.016.007Zm4.395-2.414.295.706-.518-.131c-.345-.087-.731-.042-1.126.123-.394.165-.632.38-.681.632-.049.252-.304.474-.781.673-.476.199-.744.388-.821.575l-.115.279-.107-.534-.107-.534-1.2.501-.082-.197c-.055-.132.183-.347.681-.632.499-.286.858-.397 1.044-.32l.28.115-.254-.608 3.204-1.338.295.706-.007-.016Zm2.991-1.848c.055.132-.139.406-.599.83-.443.416-.788.56-1.002.418-.214-.142-.425-.093-.649.155l-.312.362-.264-.353-.263-.353 3.007-1.256.082.197Zm31.009 7.854c.082.197.039.369-.131.517l-.255.222-.336-.805.608-.254.124.296-.01.024Zm-6.958-29.648c1.762 4.59 2.392 7.067 1.921 7.418-.236.175-.471.351-.723.533a46.16 46.16 0 0 1-.263-.353c-.176-.235-1.107.076-2.777.928-1.687.859-4.533 2.086-8.569 3.694-4.037 1.609-6.044 2.486-6.072 2.651-.011.159-.471.351-1.396.584-.926.232-1.844.576-2.736 1.026-.91.457-1.361.761-1.372.92l-.016.239a56.029 56.029 0 0 0-.28-.115c-.186-.077-.696.136-1.495.624-.816.495-1.441.756-1.906.796-.225.017-.449.033-.69.057l.024.337c.017.224-1.716 1.064-5.183 2.512-3.467 1.448-5.584 2.293-6.351 2.536-.767.243-1.203.309-1.323.205l-.181-.156-.115.28c-.077.186-.274.268-.608.254-.318-.022-.614.101-.904.377-.273.269-.471.351-.608.254-.12-.104-1.282.304-3.483 1.223-2.202.919-3.788 1.697-4.773 2.341-.986.643-2.668 1.422-5.028 2.331-2.361.908-3.791 1.505-4.305 1.797-.499.286-.77.515-.781.673l-.016.239-.279-.115c-.187-.077-.696.136-1.496.624-.816.495-1.341.715-1.61.673-.252-.049-.482.047-.706.295-.208.241-.439.337-.707.295l-.378-.074.165.395-.296.123a.728.728 0 0 1-.575.009 56.029 56.029 0 0 0-.28-.115l-.016.238c-.011.159-.181.307-.526.451l-.493.206-.082-.197c-.055-.131-.34-.167-.871-.099-.532.067-.926.232-1.2.501-.137.134-.274.268-.427.409l-3.209-7.131c-2.135-4.743-3.289-7.136-3.448-7.147-.159-.011-.293-.148-.403-.411-.11-.262-.047-.482.188-.657.118-.088.252-.183.354-.263l-.502-.37c-.334-.246-.55-.484-.632-.682-.082-.197-.052-.402.09-.616.142-.214.126-.438-.057-.69-.175-.236-.329-.326-.46-.271l-.197.082.032-.476c.022-.318-.136-.696-.46-1.101-.323-.406-.467-.751-.418-1.003.049-.252-1.256-3.47-3.915-9.653-2.66-6.184-4.264-9.47-4.828-9.852a63.822 63.822 0 0 0-.846-.592l.197-.083c.132-.054.186-.386.173-1.017-.022-.609-.279-1.408-.763-2.383-.484-.975-.638-1.528-.468-1.676.169-.148.213-.321.131-.518l-.124-.296c.304-.011.608-.022.929-.04.608-.023.926-.233.92-.616-.006-.384.088-.712.313-.961.208-.241.63-.34 1.282-.303.635.043 1.145-.17 1.511-.632.175-.227.351-.455.542-.689l.263.353c.176.236.329.326.461.271.131-.055.208-.241.23-.559l.032-.477.461.271c.306.181.597.137.887-.139.274-.269.504-.365.707-.295l.279.115-.066-.436c-.044-.29 0-.463.131-.517l.197-.083.124.296c.082.197.249.32.501.369.252.05.469-.079.666-.393l.271-.461.164.395.707-.295c.46-.192.846-.238 1.126-.123.279.115.665.069 1.125-.123.461-.192.671-.473.6-.829-.072-.356.188-.658.796-.912.608-.253.978-.292 1.126-.122.148.169.321.213.518.131l.296-.124-.222-.254-.222-.255 1.38-.345c.926-.232 1.517-.479 1.791-.748.274-.268.487-.358.608-.254.121.104.573.031 1.323-.205.767-.243 1.687-.627 2.793-1.166 1.107-.539 1.808-.755 2.087-.64.28.115.622.01 1.044-.32.405-.324 1.468-.69 3.188-1.1 1.72-.409 4.839-1.442 9.398-3.094 4.551-1.67 6.92-2.466 7.107-2.389.186.076.822-.112 1.89-.558 1.068-.446 2.045-.738 2.916-.871.888-.139 2.049-.546 3.484-1.223 1.435-.676 2.301-.96 2.58-.846.28.115.803-.065 1.553-.532.75-.468 1.21-.66 1.397-.583l.279.114.115-.279c.077-.186.4-.244.986-.18.57.07 1.337-.173 2.284-.723.948-.55 1.473-.769 1.594-.665.121.104.608-.023 1.479-.386.871-.364 1.336-.635 1.413-.822.077-.186.4-.244.986-.18.57.071 1.266-.065 2.071-.402l1.199-.5c.077.276.154.553.238.846.161.57.364.871.616.92.252.049.381.265.393.665.006.384.109.63.295.707l.28.115-.156.181-.156.181.362.312c.241.208.318.484.237.846-.087.345.071.723.46 1.101.389.377.607.807.641 1.257.033.449.136.695.295.706.159.011.375.345.657 1.019.281.673.366 1.062.262 1.183-.104.121.469 1.676 1.724 4.683 1.256 3.007 2.037 4.784 2.356 5.365.32.58.602.887.854.936.252.049.395.299.435.764.033.449.345 1.381.928 2.777.583 1.397 1.114 2.391 1.593 2.982.478.592 1.595 3.174 3.358 7.764l.079.006ZM150.343 59.15l.124.296-.395.164-.254-.608.395-.164.123.295.007.017Zm45.408 100.33.28.115c-.17.148-.34.296-.526.451-.169.148-.339.296-.525.451-.031-.257-.061-.515-.098-.789-.061-.515.033-.843.313-.96l.394-.165-.074.378c-.049.252.02.417.206.493l.03.026Zm6.172-36.192.295-.123.165.394-.378-.073-.378-.074.296-.124Zm2.076 5.25.082.198-.435.066c-.29.044-.463 0-.518-.131l-.082-.198.435-.066c.291-.044.463 0 .518.131Zm-7.357-11.979c-.131.055-.312-.101-.549-.484-.115-.184-.231-.367-.353-.567l.945-.279c.636-.188 1.11.116 1.446.921l.501 1.199-.608.254.501 1.2a15.907 15.907 0 0 0-.715-.281c-.466-.191-.75-.594-.838-1.174a60.62 60.62 0 0 0-.139-.888l-.197.083.006.016Zm4.836 9.038-.296.123-.206-.493c-.137-.328-.285-.498-.451-.525-.159-.011-.418-.54-.764-1.553-.353-1.03-.7-1.676-1.034-1.922-.335-.246-.438-.493-.295-.707.142-.214.144-.485 0-.83l-.205-.493c.334.247.675.509 1.026.749.676.509 1.065 1.118 1.133 1.881.039.37.084.756.123 1.126l.197-.083c.131-.055.359.121.689.542.324.405.476.863.444 1.339-.033.477-.141.773-.354.862l-.007-.016Zm41.994 92.108.337-.025-.156.181-.156.181-.181-.156-.181-.156.337-.025Zm-1.208-.905.239.017-.017.238-.016.238-.222-.254-.222-.255.238.016Zm-6.962-14.131-.016.238-.222-.254-.222-.255.238.016.238.016-.016.239Zm-2.216-6.138-.082-.197.805-.336.165.394-.805.337-.083-.198Zm3.416 4.807c.083.197-.06.411-.427.641-.183.115-.367.231-.566.353l.032-.477c.022-.318.164-.532.443-.648l.395-.165.123.296Zm-2.463-5.899.082.197-.805.336-.165-.394.806-.336.082.197Zm1.692 2.342.165.395-.395.164-.336-.805.394-.165.165.395.007.016Zm-2.891-7.476c.26.991.321 1.506.189 1.561l-.197.082-1.338-3.204.477.033c.318.021.61.536.863 1.511l.006.017Zm-1.279-4.174c.016.224.033.449.056.69l-.518-.131c-.345-.087-.613-.361-.812-.838l-.295-.706.394-.165c.263-.11.531-.067.773.141.241.208.385.553.418 1.002l-.016.007Zm-3.341-8.601c-.071.57.035 1.008.304 1.282.268.274.371.52.295.706-.077.187 0 .463.237.847.231.367.301.627.197.747l-.156.181.46.271c.307.181.591.583.838 1.175l.377.904-.435.066c-.29.044-.674-.182-1.125-.708-.451-.525-.69-1.004-.723-1.454-.033-.449-.488-1.629-1.363-3.541l-1.313-2.867.394-.165c.263-.109.537.085.846.593.285.498.574.821.854.936.279.115.384.457.32 1.043l-.007-.016Zm6.155-8.32.164.394-.337.025-.337.025a35.533 35.533 0 0 0-.025-.337c-.016-.225.041-.365.173-.419l.197-.083.165.395Zm1.807-.755-.805.336c-.017-.225-.033-.449-.057-.69a24.363 24.363 0 0 0-.057-.691l.239.017c.159.011.307.18.451.525l.206.493.023.01Zm1.257-.641c-.17.148-.315.17-.436.066l-.181-.156a433.064 433.064 0 0 0 .872-.132l-.255.222Zm10.089-3.981c.072.356.042.561-.09.616l-.197.082-.419-1.002.608-.254.108.534-.01.024Zm-6.24-14.665.51-.213c.328-.137.641-.036.96.313.148.17.296.339.451.526l-.295.123c-.198.082-.51-.019-.961-.313a20.366 20.366 0 0 1-.648-.443l-.017.007Zm7.16 14.049-.452.304.074-.378.074-.378.378.074.378.074c-.151.101-.301.203-.468.311l.016-.007Zm3.525-1.125-.016.239-.477-.033c-.318-.021-.532.068-.608.254-.077.186-.227.288-.468.311l-.337.025c.002-.271.005-.542.001-.83.002-.271.005-.542 0-.83l.362.312c.241.208.554.309.961.313.191-.003.383-.006.591-.015l-.016.238.007.016Zm-5.763-14.632c.082.197-.005.542-.272 1.059-.128.247-.257.493-.402.747l-.263-.353c-.176-.236-.187-.54-.041-.929.17-.38.345-.607.542-.689l.296-.124.123.296.017-.007Zm7.809 13.894.025.337-.362-.312a116.61 116.61 0 0 1-.362-.312l.337-.025.337-.025.025.337Zm-3.702-14.779c.055.131-.054.331-.345.607-.137.134-.273.268-.427.41l-.164-.395-.296.124a.762.762 0 0 0-.427.41l-.115.279c-.148-.17-.296-.339-.451-.526a27.675 27.675 0 0 1-.451-.525l.394-.165c.263-.11.534-.107.83.001.28.115.57.071.888-.139.15-.102.301-.203.468-.311l.082.197.014.033Zm2.408-.427-.961.517-.254-.608.805-.336a950133382161.193 950133382161.193 0 0 0-.444-.509l.509-.213c.329-.137.627-.069.912.198l.403.411c-.314.17-.629.34-.961.517l-.009.023Zm3.031-1.15-.706.295c-.46.192-.855.125-1.158-.231a27.675 27.675 0 0 1-.451-.525c.323-.058.647-.116.986-.18.663-.123 1.041-.049 1.158.23l.165.394.006.017Zm7.974 12.301.123.296-1.002.418.172-.419c.115-.28.238-.447.37-.502l.197-.082.123.296.017-.007Zm-5.797-13.557c.072.356-.103.583-.542.689-.21.049-.421.099-.649.155l.033-.476c.021-.318.197-.546.542-.69l.509-.213.107.535Zm6.223 12.915-.435.066-.025-.336-.025-.337.461.27.46.271-.436.066Zm1.743-.032.025.336-.321-.213-.321-.213.608-.254.025.337-.016.007Zm-4.712-13.548c-.279-.114-.816.033-1.577.428l-1.159.599.189-.658c.126-.438.501-.787 1.092-1.035.592-.247 1.066-.174 1.396.247.162.203.324.406.492.625l-.419-.173-.014-.033Zm7.553 12.728c.055.131-.054.331-.344.607-.137.134-.274.268-.427.41l.032-.477c.022-.318.131-.518.328-.6l.296-.124.082.197.033-.013Zm-6.519-12.793c.082-.266.164-.531.256-.82.164-.532.42-.89.748-1.027l.493-.206.124.296c.082.197-.164.532-.749 1.026-.287.236-.591.479-.878.715l.006.016Zm7.744 12.629c-.433.257-.74.308-.888.139-.148-.17-.118-.376.09-.617s.457-.384.764-.435c.291-.044.477.033.559.23.083.197-.093.425-.542.689l.017-.006Zm-4.835-14.673-.353.263-.254-.608.477.032.477.033-.353.263.006.017Zm7.209 13.334c.055.131-.003.271-.172.419l-.255.222-.222-.254-.222-.255.805-.336.082.197-.016.007Zm-4.178-13.654c.017.224-.12.358-.427.409-.29.044-.471-.112-.549-.484l-.107-.534.517.131c.346.087.527.243.55.484l.016-.006Zm.271-.229.033-.477.032-.477c.247.129.494.257.764.395.246.129.493.258.763.396-.257.03-.531.067-.789.098-.257.03-.531.067-.789.097l-.014-.032Zm7.72 13.448.082.198-.608.254-.164-.395.608-.254.082.197Zm-4.095-15.444c.109.263.027.528-.256.82-.274.269-.471.351-.591.247-.121-.104-.105-.342.041-.731.154-.373.296-.586.444-.648l.197-.083.165.395Z"/><path d="m71.766 71.391-.379-.073-.378-.074.165.394.608-.253-.016.006ZM79.538 94.487l-.312.362.32.213.32.213.272-.46.27-.46-.279-.115c-.186-.077-.383.005-.608.254l.017-.007ZM187.278 85.676l-.337.025-.337.025.254.608-.394.165 1.503 3.598.607-.254-.418-1.002.394-.165-.254-.608-.394.165.115-.28c.076-.186.032-.476-.139-.887-.172-.41-.333-.614-.492-.624l-.239-.016.074-.379.074-.378-.017.007ZM9.41 178.167l-.32-.214.254.608.394-.165-.32-.213-.007-.016ZM61.832 165.809l-.378-.073-.378-.074.164.394.608-.253-.016.006ZM50.65 173.644c.378-.389.742-.58 1.06-.558.318.021.567-.121.764-.435.18-.307.583-.591 1.174-.838.592-.247 1.01-.306 1.225-.164.214.142.523.052.945-.279.421-.33.509-.675.271-1.059-.23-.367-.59-.583-1.084-.608-.476-.033-.77.051-.846.237-.076.186-.457.384-1.158.6-.701.215-1.054.478-1.076.796l-.033.477c-.24-.208-.482-.416-.73-.64-.242-.209-.483-.417-.73-.641.049.211.098.422.154.649.1.422-.047.811-.468 1.142-.422.33-.584.59-.501.788l.123.295-.394.165.362.312c.241.208.55.117.945-.279l-.003.04ZM43.65 177.396l.706-.295c.46-.192.731-.421.78-.673.05-.252.545-.498 1.454-.723.926-.232 1.534-.718 1.85-1.486.153-.373.322-.753.469-1.142a98.089 98.089 0 0 1-.518-.131c-.346-.087-.765-.028-1.225.164-.46.192-.83.462-1.076.797-.246.334-.742.58-1.47.73-.712.143-1.191.613-1.398 1.413-.106.392-.206.8-.329 1.199l.255-.222.254-.222.254.608-.006-.017ZM37.332 178.625l-.395.165.165.394-.608.254.419 1.003-.198.082c-.131.055-.353-.2-.673-.78-.32-.581-.555-.868-.714-.879-.159-.011-.4.244-.74.772-.322.52-.27 1.059.19 1.561.45.526.85.745 1.223.666.178-.036.357-.071.551-.114l-.336-.805 1.396-.583.165.394.214-.321c.142-.213.339-.296.608-.254l.378.074-.124-.296c-.082-.197-.006-.383.23-.559l.353-.263-.42-.172c-.279-.115-.57-.071-.887.139-.15.101-.301.203-.468.311l-.336-.805.007.016ZM40.61 179.129l.805-.336c.526-.22.83-.462.879-.715.049-.252-.109-.63-.46-1.1-.175-.236-.35-.471-.533-.723l-.312.362c-.208.241-.271.46-.189.657l.124.296-.518-.131c-.345-.087-.671.01-.945.279l-.41.403.632-.149c.21-.049.422-.099.65-.155.049.211.098.422.154.649.05.211.1.422.156.649l-.033.014ZM138.571 211.088l.025.337.025.336.394-.164-.222-.255-.222-.254ZM72.82 239.952l.263.353c.176.236.395.299.658.189.263-.11.435-.298.484-.55l.074-.378c-.244.063-.504.133-.748.197l-.747.196.016-.007ZM238.743 207.812c.208.222.423.46.632.682.208.222.416.444.632.682l-.254-.608c-.165-.395-.38-.633-.632-.682l-.378-.074Z"/></g><defs><clipPath id="a"><path fill="#fff" transform="rotate(-22.665 254.261 108.049)" d="M0 0h274.737v220.588H0z"/></clipPath></defs></svg>