<svg width="33" height="32" viewBox="0 0 33 32" fill="none" xmlns="http://www.w3.org/2000/svg">
<path d="M3.16797 17.3333H5.83464" stroke="black" stroke-width="2" stroke-linecap="round" stroke-linejoin="round"/>
<path d="M7.83203 12.6667L5.83203 10.6667" stroke="black" stroke-width="2" stroke-linecap="round" stroke-linejoin="round"/>
<path d="M21.4989 12.3337L18.8322 15.0004C17.9118 15.9208 16.4194 15.9208 15.4989 15.0004C14.5785 14.0798 14.5785 12.5875 15.4989 11.667L20.8322 6.33367C21.7528 5.41319 23.2452 5.41319 24.1656 6.33367C25.0861 7.25415 25.0861 8.74652 24.1656 9.667L21.4989 12.3337ZM21.4989 12.3337L27.8322 18.667" stroke="black" stroke-width="2" stroke-linecap="round" stroke-linejoin="round"/>
<path d="M20.5 26.6667H21.8333M20.5 26.6667L19.7744 24.4901C19.4115 23.4013 18.3924 22.6667 17.2447 22.6667H9.08869C7.94088 22.6667 6.92184 23.4013 6.55887 24.4901L5.83333 26.6667M20.5 26.6667H5.83333M5.83333 26.6667H4.5" stroke="black" stroke-width="2" stroke-linecap="round" stroke-linejoin="round"/>
</svg>
