<svg width="29" height="28" viewBox="0 0 29 28" fill="none" xmlns="http://www.w3.org/2000/svg">
<g clip-path="url(#clip0_15145_2508)">
<path d="M14.5 1C21.6797 1 27.5 6.8203 27.5 14C27.5 21.1797 21.6797 27 14.5 27C7.3203 27 1.5 21.1797 1.5 14C1.5 6.8203 7.3203 1 14.5 1Z" stroke="#303454" stroke-width="2"/>
<path d="M8.02674 19.8142C7.19014 19.7624 6.55752 19.5746 6.12756 19.2521C5.69761 18.929 5.37321 18.4906 5.15434 17.937C4.67583 16.743 4.77943 15.3851 5.4658 13.8622C6.38851 12.1262 7.89399 11.1944 9.98159 11.0675H12.2136L12.9835 8.16919H15.7523L14.3659 13.7722C13.9658 15.3903 12.5134 16.5267 10.8467 16.5267L11.6082 13.473H10.1894C9.49725 13.4963 8.93779 13.6893 8.51108 14.0525C8.08437 14.3931 7.80464 14.8082 7.6719 15.2984C7.2795 16.642 7.67772 17.3225 8.86592 17.34H13.486L12.8805 19.8491L8.02738 19.8148L8.02674 19.8142Z" fill="#303454"/>
<path d="M14.0469 19.8492C14.3868 18.4383 15.6495 17.4443 17.1006 17.4443H18.8573C19.5495 17.421 20.1089 17.2281 20.5357 16.8648C20.9565 16.5242 21.2363 16.1091 21.3748 15.619C21.7672 14.2754 21.369 13.5948 20.1808 13.5773H18.4157L17.5849 16.631H14.8252L16.9186 8.16992H19.6783L19.012 11.0941L21.0194 11.1025C21.8559 11.1543 22.4886 11.3421 22.9185 11.6646C23.3485 11.9877 23.6729 12.4261 23.8917 12.9797C24.3703 14.1795 24.2667 15.5374 23.5803 17.0545C22.6576 18.7905 21.1521 19.7223 19.0645 19.8492H14.0469Z" fill="#303454"/>
</g>
<defs>
<clipPath id="clip0_15145_2508">
<rect width="28" height="28" fill="white" transform="translate(0.5)"/>
</clipPath>
</defs>
</svg>
