<svg width="29" height="28" viewBox="0 0 29 28" fill="none" xmlns="http://www.w3.org/2000/svg">
<g clip-path="url(#clip0_15145_2504)">
<path d="M14.501 1C21.6808 1.00024 27.501 6.82114 27.501 14.001C27.5007 21.1806 21.6806 27.0007 14.501 27.001C7.32114 27.001 1.50024 21.1808 1.5 14.001C1.5 6.82099 7.32099 1 14.501 1Z" stroke="#303454" stroke-width="2"/>
<path d="M19.2966 9.22281L20.2779 6.61164H18.6658L18.0182 8.32836C17.6636 8.14215 17.2912 7.99255 16.9062 7.88166L17.3853 6.6106H15.7732L15.382 7.64837C15.3307 7.64837 15.2794 7.64523 15.2271 7.64523H13.3545C13.1055 7.61385 12.8608 7.5584 12.6233 7.47785C12.5406 7.45065 12.4601 7.42031 12.3806 7.38788L11.8491 8.79808L7.73047 19.7271H10.8323L10.2056 21.3894H11.8177L12.4454 19.7271H13.7259L13.0993 21.3894H14.7114L15.338 19.7261C18.6721 19.6696 21.3282 16.9203 21.2717 13.5863C21.2435 11.9219 20.529 10.3432 19.2977 9.22281H19.2966ZM9.90958 18.2186L13.3263 9.15586C13.4801 9.17051 13.6339 9.17678 13.7876 9.17678C13.9414 9.17678 14.1025 9.16946 14.2563 9.15481H14.817L11.4003 18.2186H9.90958ZM13.0114 18.2186L16.3758 9.30023C16.7639 9.40275 17.1363 9.55549 17.4847 9.7553L14.2919 18.2175H13.0114V18.2186ZM18.4346 16.89C17.7557 17.5731 16.8758 18.0209 15.9239 18.1652L18.7076 10.7826C20.213 12.582 20.0938 15.2319 18.4346 16.89Z" fill="#303454"/>
</g>
<defs>
<clipPath id="clip0_15145_2504">
<rect width="28" height="28" fill="white" transform="translate(0.5)"/>
</clipPath>
</defs>
</svg>
