<?xml version="1.0" encoding="utf-8"?>
<!-- Generator: Adobe Illustrator 26.0.2, SVG Export Plug-In . SVG Version: 6.00 Build 0)  -->
<svg version="1.1" id="Layer_1" xmlns="http://www.w3.org/2000/svg" xmlns:xlink="http://www.w3.org/1999/xlink" x="0px" y="0px"
	 viewBox="0 0 300 128" style="enable-background:new 0 0 300 128;" xml:space="preserve">
<style type="text/css">
	.st0{fill:#FFFFFF;}
</style>
<g>
	<g>
		<path class="st0" d="M179.8,73.6c-0.5-0.5-0.7-1.2-0.7-2V37.2h2.9v34.4h20.1v2.7h-20.3C180.9,74.2,180.2,74,179.8,73.6z"/>
		<path class="st0" d="M228.8,63.4h-16.6l-4,10.8H205l14.1-37.1h1.3c0.8,0,1.5,0.5,1.9,1.6l13.4,35.3h-3.1L228.8,63.4z M213,61h14.9
			l-7.4-19.8l0,0L213,61z"/>
		<path class="st0" d="M240.6,73.4c-0.5-0.5-0.8-1.2-0.8-2V37.2h15.4c2.9,0,5.2,0.7,7.1,2.1c1.7,1.5,2.7,3.3,2.7,5.8v3.1
			c0,1.5-0.3,2.8-0.9,4s-1.5,2.1-2.5,2.8l0,0c1.7,0.4,3.2,1.3,4.3,2.7c1.1,1.3,1.6,2.8,1.6,4.7v2.8c0,2.8-0.9,5-2.7,6.7
			c-1.7,1.7-4.1,2.5-7.2,2.5h-14.9C241.8,74.2,241.1,74,240.6,73.4z M256.4,54.3c1.7,0,3.1-0.5,4.1-1.7c1.1-1.1,1.6-2.7,1.6-4.6
			v-3.1c0-1.6-0.7-2.8-1.9-3.7c-1.2-0.9-2.9-1.5-5-1.5h-12.4v14.5h13.5V54.3z M257.2,71.6c2.1,0,3.9-0.5,5.2-1.7
			c1.3-1.2,2-2.8,2-4.7v-2.8c0-1.6-0.5-2.9-1.7-3.9c-1.2-1.1-2.7-1.5-4.6-1.5h-15.4v14.9h14.5V71.6z"/>
		<path class="st0" d="M274.3,71.8c-1.9-1.9-2.8-4.4-2.8-7.6h2.8c0,2.4,0.7,4.3,2,5.6c1.3,1.3,3.2,2.1,5.5,2.1h5.9
			c2.3,0,4-0.5,5.4-1.5c1.3-1.1,2-2.4,2-4v-3.6c0-1.3-0.5-2.5-1.5-3.5c-0.9-0.9-2.4-1.6-4.1-1.9l-9.5-1.6c-2.5-0.4-4.6-1.3-5.9-2.8
			c-1.5-1.5-2.1-3.2-2.1-5.4v-3.1c0-2.4,0.9-4.4,2.8-5.9c1.9-1.5,4.3-2.3,7.2-2.3h6c2.8,0,5.2,0.8,7,2.5s2.7,4,2.7,6.8h-2.9
			c0-2-0.7-3.7-1.9-5S290,39,288,39h-6c-2.1,0-3.9,0.5-5.2,1.5c-1.3,1.1-1.9,2.3-1.9,4V48c0,1.5,0.5,2.5,1.5,3.5
			c0.9,0.9,2.3,1.6,4,1.9l9.4,1.6c2.5,0.4,4.7,1.3,6.2,2.8c1.5,1.3,2.1,3.1,2.1,5.1v3.6c0,2.4-0.9,4.4-2.8,5.9s-4.4,2.3-7.5,2.3h-6
			C278.8,74.6,276.2,73.7,274.3,71.8z"/>
	</g>
	<g>
		<path class="st0" d="M56.1,38.6c-3.1-1.3-6.7-2-10.7-2H17.3v51c0,2.4,0.8,4.3,2.3,5.8c1.5,1.5,3.5,2.1,5.9,2.1h20.3
			c7.4,0,12.9-1.9,16.6-5.6c1.2-1.2,2.3-2.7,3.2-4.3L56.1,38.6z M56.4,73c0,4-0.9,7.1-2.8,9.2c-1.9,2.1-4.6,3.1-8.2,3.1H29V46.9
			h16.2c3.3,0,6,0.9,8.2,2.9c2.1,1.9,3.1,4.6,3.1,7.8C56.4,57.6,56.4,73,56.4,73z"/>
		<path class="st0" d="M171,46.7v-10h-34.5l-0.1,0.9L127,84.4v11.2h11.6v-23h29.5v-10h-29.5V46.7H171z"/>
		<g>
			<path class="st0" d="M131.6,36.6l-4.8,23.8L121.1,89c-0.4,2.3-1.3,3.9-2.5,5c-1.2,1.1-2.8,1.6-5,1.6h-4.8L96.2,55.1H96L83.2,95.5
				h-4.8c-1.9,0-3.5-0.5-4.8-1.5s-2.1-2.7-2.7-5.1l-2.9-15l-6.4-32l-1.1-5.5h11.8l7.2,41.9h0.1l12.2-38.7h4.1c1.3,0,2.7,0.4,3.6,1.1
				c0.9,0.7,1.9,2,2.4,4l10.3,33.6h0.4l7.2-41.8C119.9,36.6,131.6,36.6,131.6,36.6z"/>
		</g>
	</g>
	<g>
		<path class="st0" d="M207,80.5c2.7,0,5.2,0.8,7.2,2.3c1.6,1.1,2.7,2.5,3.7,3.7c0.8,0.9,1.6,2,2.5,2.7c0.5,0.4,1.1,0.7,1.9,0.7
			c0.8,0,1.3-0.3,1.9-0.7c0.8-0.7,1.7-1.6,2.5-2.7c1.1-1.2,2.1-2.7,3.7-3.7c2-1.5,4.6-2.3,7.2-2.3s5.2,0.8,7.2,2.3
			c1.6,1.1,2.7,2.5,3.7,3.7c0.8,0.9,1.6,2,2.5,2.7c0.5,0.4,1.1,0.7,1.9,0.7c0.8,0,1.3-0.3,1.9-0.7c0.8-0.7,1.7-1.6,2.5-2.7
			c1.1-1.2,2.1-2.7,3.7-3.7c2-1.5,4.6-2.3,7.2-2.3s5.2,0.8,7.2,2.3c1.6,1.1,2.7,2.5,3.7,3.7c0.8,0.9,1.6,2,2.5,2.7
			c0.5,0.4,1.1,0.7,1.9,0.7c0.8,0,1.3-0.3,1.9-0.7c0.8-0.7,1.7-1.6,2.5-2.7c1.1-1.2,2.1-2.7,3.7-3.7c1.6-1.2,3.3-1.9,5.4-2.1V87l0,0
			c-0.8,0.7-1.7,1.6-2.5,2.7c-1.1,1.2-2.1,2.7-3.7,3.7c-2,1.5-4.6,2.3-7.2,2.3c-2.7,0-5.2-0.8-7.2-2.3c-1.6-1.1-2.7-2.5-3.7-3.7
			c-0.8-0.9-1.6-2-2.5-2.7c-0.5-0.4-1.1-0.7-1.9-0.7c-0.8,0-1.3,0.3-1.9,0.7c-0.8,0.7-1.7,1.6-2.5,2.7c-1.1,1.2-2.1,2.7-3.7,3.7
			c-2,1.5-4.6,2.3-7.2,2.3s-5.2-0.8-7.2-2.3c-1.6-1.1-2.7-2.5-3.7-3.7c-0.8-0.9-1.6-2-2.5-2.7c-0.5-0.4-1.1-0.7-1.9-0.7
			c-0.8,0-1.3,0.3-1.9,0.7c-0.8,0.7-1.7,1.6-2.5,2.7c-1.1,1.2-2.1,2.7-3.7,3.7c-2,1.5-4.6,2.3-7.2,2.3s-5.2-0.8-7.2-2.3
			c-1.6-1.1-2.7-2.5-3.7-3.7c-0.8-0.9-1.6-2-2.5-2.7c-0.5-0.4-1.1-0.7-1.9-0.7c-0.8,0-1.3,0.3-1.9,0.7c-0.8,0.7-1.7,1.6-2.5,2.7
			c-1.1,1.2-2.1,2.7-3.7,3.7c-2,1.5-4.6,2.3-7.2,2.3s-5.2-0.8-7.2-2.3c-1.6-1.1-2.7-2.5-3.7-3.7c-0.8-0.9-1.6-2-2.5-2.7l0,0v-6.3
			c2,0.3,3.7,0.9,5.4,2.1c1.6,1.1,2.7,2.5,3.7,3.7c0.8,0.9,1.6,2,2.5,2.7c0.5,0.4,1.1,0.7,1.9,0.7c0.8,0,1.3-0.3,1.9-0.7
			c0.8-0.7,1.7-1.6,2.5-2.7c1.1-1.2,2.1-2.7,3.7-3.7C201.9,81.3,204.3,80.5,207,80.5z"/>
	</g>
</g>
</svg>
