<svg width="121" height="26" viewBox="0 0 121 26" fill="none" xmlns="http://www.w3.org/2000/svg">
<path fill-rule="evenodd" clip-rule="evenodd" d="M6.50824 11.0549L14.5718 19.2632L22.5493 11.1425L29.0902 17.8008L21.4906 25.5369L19.5355 23.5998L25.2322 17.8008L22.5493 15.0697L14.5718 23.1904L6.50824 14.9821L3.85799 17.6799L9.64133 23.5671L7.68629 25.5042L0 17.6799L6.50824 11.0549Z" fill="#05082B"/>
<path fill-rule="evenodd" clip-rule="evenodd" d="M22.582 14.982L14.5184 6.77364L6.54091 14.8943L2.28882e-05 8.23604L7.59967 0.499977L9.55471 2.43708L3.85801 8.23604L6.54091 10.9671L14.5184 2.8464L22.582 11.0547L25.2322 8.3569L19.4489 2.46974L21.4039 0.532634L29.0902 8.3569L22.582 14.982Z" fill="#05082B"/>
<path fill-rule="evenodd" clip-rule="evenodd" d="M13.3147 25.3441L13.3147 20.1725H15.9479L15.9479 25.3441H13.3147Z" fill="#05082B"/>
<path fill-rule="evenodd" clip-rule="evenodd" d="M13.3147 5.86438L13.3147 0.692822L15.9479 0.692822L15.9479 5.86438L13.3147 5.86438Z" fill="#05082B"/>
<path d="M41.7141 6.60562H39.0902V19.8166H41.7141V6.60562Z" fill="#05082B"/>
<path d="M55.0236 10.0919C53.8309 10.0919 52.6933 10.6056 52.1245 11.7249C51.5373 10.6056 50.4364 10.0919 49.152 10.0919C47.9961 10.0919 47.1153 10.5322 46.6566 11.3212L46.3814 10.2753H43.9961V19.8166H46.5649V14.4772C46.5649 13.0643 47.2988 12.3854 48.3814 12.3854C49.4089 12.3854 50.1061 13.0276 50.1061 14.5873V19.8166H52.5832V14.5322C52.6199 13.046 53.3906 12.3854 54.3997 12.3854C55.4456 12.3854 56.1245 13.0276 56.1245 14.4588V19.835H58.7117V13.9451C58.7117 11.3029 56.9318 10.0919 55.0236 10.0919Z" fill="#05082B"/>
<path d="M71.7774 10.0919C70.5848 10.0919 69.4472 10.6056 68.8784 11.7249C68.2912 10.6056 67.1903 10.0919 65.9059 10.0919C64.7499 10.0919 63.8692 10.5322 63.4105 11.3212L63.1352 10.2753H60.7499V19.8166H63.3187V14.4772C63.3187 13.0643 64.0527 12.3854 65.1352 12.3854C66.1628 12.3854 66.86 13.0276 66.86 14.5873V19.8166H69.3371V14.5322C69.3738 13.046 70.1444 12.3854 71.1536 12.3854C72.1995 12.3854 72.8784 13.0276 72.8784 14.4588V19.835H75.4655V13.9451C75.4655 11.3029 73.6857 10.0919 71.7774 10.0919Z" fill="#05082B"/>
<path d="M83.7607 10.2753V15.5047C83.7607 16.9175 83.1001 17.7616 81.8341 17.7799C80.6231 17.8166 79.8524 17.101 79.8524 15.6148V10.2753H77.412V15.9451C77.412 18.3854 78.8249 20.0001 81.2653 20.0001C82.4029 20.0001 83.2286 19.4864 83.724 18.7708L83.8524 19.8166H86.201V10.2753H83.7607Z" fill="#05082B"/>
<path d="M93.7395 10.0919C92.3083 10.0919 91.3541 10.624 90.8587 11.413L90.7119 10.2753H88.3266V19.8166H90.8954V14.7708C90.8954 13.2295 91.6294 12.2937 92.9872 12.2937C94.2349 12.2937 94.9872 13.101 94.9872 14.679V19.8166H97.5743V14.1469C97.5743 11.7065 96.1798 10.0919 93.7395 10.0919Z" fill="#05082B"/>
<path d="M108.808 14.8992C108.808 11.9818 106.918 10.0919 104.074 10.0919C101.23 10.0919 99.3222 12.0735 99.3222 15.046C99.3222 18.0368 101.23 20.0185 104.093 20.0185C106.496 20.0185 108.313 18.679 108.735 16.6974H106.148C105.854 17.523 105.102 17.9451 104.166 17.9451C102.937 17.9451 101.946 17.1561 101.909 15.7432H108.808V14.8992ZM104.074 12.0919C105.194 12.0919 106.13 12.7341 106.24 14.0552H101.928C102.038 12.7341 102.974 12.0919 104.074 12.0919Z" fill="#05082B"/>
<path d="M109.811 10.2753V12.5139H111.279V19.8166H113.866V12.5139H116.05V10.2753H113.866V9.30287C113.866 8.62397 114.05 8.11021 115.096 8.11021H116.05V6.01846H114.527C112.123 6.01846 111.279 7.19277 111.279 9.04599V10.2753H109.811Z" fill="#05082B"/>
<path d="M117.747 8.80745H120.352L120.389 6.01846H117.783L117.747 8.80745ZM117.783 19.8166H120.352V10.2753H117.783V19.8166Z" fill="#05082B"/>
</svg>
