<svg width="656" height="577" viewBox="0 0 656 577" fill="none" xmlns="http://www.w3.org/2000/svg">
<path d="M317.352 295.727C309.312 285.196 315.278 281.511 317.806 269.19C316.128 264.661 330.844 257.535 325.659 251.831C338.861 241.844 324.937 235.473 336.868 225.732C342.612 219.466 352.073 205.249 363.294 207.777C364.424 212.568 378.184 210.954 380.387 203.53L385.688 201.827C387.983 199.581 396.093 201.423 397.584 202.003C397.235 202.003 408.408 200.37 406.812 201.178C414.362 202.863 415.994 210.462 420.864 210.322C424.499 205.215 423.8 195.473 434.216 198.668C442.92 198.598 447.627 207.356 452.696 209.093C452.416 208.97 451.95 214.727 451.845 214.482C461.493 211.989 457.17 211.744 460.502 219.572C462.32 219.958 476.57 219.203 476.605 226.557C476.628 230.734 472.364 244.021 472.236 243.74C473.471 243.266 474.752 243.003 476.081 243.073C476.057 243.091 471.012 248.9 469.416 249.339C476.418 251.796 469.497 248.777 475.241 253.06C474.892 252.779 479.925 247.952 480.275 248.549C487.825 246.689 482.966 252.603 487.464 255.675C488 259.694 489.107 264.451 491.367 267.961C491.134 267.961 498.323 263.749 498.218 263.854C497.962 264.486 498.172 264.872 498.801 264.942C498.3 265.539 492.509 271.401 494.968 272.419C496.249 273.016 497.333 267.663 500.327 268.277C502.25 276.526 502.226 294.551 498.405 303.029C497.484 310.312 475.894 320.071 478.248 326.723C481.417 330.391 480.089 334.621 481.312 338.763C479.378 338.675 477.782 336.798 475.649 336.675C475.475 341.291 473.016 341.923 470.022 342.765C472.923 343.098 474.507 344.626 474.799 347.381C474.1 347.188 473.727 347.381 473.634 347.995C472.049 347.82 463.532 344.625 462.891 345.801C462.926 345.468 462.355 351.418 462.308 351.172C460.083 351.313 458.556 347.381 456.646 347.96C452.09 350.242 462.134 361.65 448.921 351.576C447.01 369.952 443.619 358.122 435.58 361.545C427.307 373.129 408.012 381.185 400.171 368.776C393.25 368.092 390.407 369.566 386.83 378.236C382.542 377.622 382.227 374.393 385.898 368.671C382.565 368.39 353.53 362.545 361.767 360.299C348.147 358.456 322.875 329.514 322.805 319.474C322.129 318.298 311.153 318.807 315.639 310.137C310.407 305.415 315.639 292.603 317.375 295.692L317.352 295.727Z" fill="#4924A1"/>
<path d="M407.465 136.939C409.201 135.078 410.844 133.341 407.465 136.939V136.939Z" fill="#4924A1"/>
<path d="M505.255 233.173C506.84 233.278 507.294 232.875 507.667 231.646C507.271 229.803 504.043 231.172 505.255 233.173Z" fill="#4924A1"/>
<path d="M523.572 252.516C525.355 258.589 524.877 255.254 523.572 252.516V252.516Z" fill="#4924A1"/>
<path d="M531.273 263.238C532.672 261.834 532.672 261.834 531.273 263.238V263.238Z" fill="#4924A1"/>
<path d="M335.389 282.738C347.04 287.213 335.459 281.93 335.389 282.738V282.738Z" fill="#4924A1"/>
<path d="M326.79 282.493C326.312 291.673 328.724 281.668 326.79 282.493V282.493Z" fill="#4924A1"/>
<path d="M326.894 305.168C327.313 315.541 327.255 307.591 326.894 305.168V305.168Z" fill="#4924A1"/>
<path d="M537.345 329.181C539.477 327.127 539.43 327.127 537.345 329.181V329.181Z" fill="#4924A1"/>
<path d="M547.865 329.723C549.636 330.109 550.836 325.598 547.865 329.723V329.723Z" fill="#4924A1"/>
<path d="M349.999 335.271C354.228 332.34 349.579 333.656 349.999 335.271V335.271Z" fill="#4924A1"/>
<path d="M363.516 357.544C365.38 358.071 368.537 351.664 363.516 357.544V357.544Z" fill="#4924A1"/>
<path d="M297.684 0.529024C295.435 -3.56046 304.488 17.4838 303.428 14.8862C301.074 10.2702 318.179 3.75849 297.684 0.529024Z" fill="#4924A1"/>
<path d="M230.886 47.3906C229.872 52.3401 237.585 51.094 237.562 49.0405C237.888 44.3543 231.026 44.9509 230.886 47.3906Z" fill="#4924A1"/>
<path d="M526.508 65.7158C527.067 66.6987 517.338 69.2964 520.764 75.4218C527.732 74.8953 539.22 67.6465 526.508 65.7158Z" fill="#4924A1"/>
<path d="M375.469 53.0073C375.492 60.3613 380.223 67.2415 385.105 73.6302C394.1 74.9992 380.199 38.8082 375.469 53.0073Z" fill="#4924A1"/>
<path d="M399.425 56.466C398.772 58.5546 399.681 67.0495 404.715 66.7335C410.96 57.7121 407.278 56.1501 399.425 56.466Z" fill="#4924A1"/>
<path d="M119.929 65.1893C121.304 71.1042 130.695 74.4565 136.206 74.1757C135.984 72.403 120.674 59.3798 119.929 65.1893Z" fill="#4924A1"/>
<path d="M560.123 87.3738C560.775 88.6726 550.289 91.2702 552.467 95.7458C565.773 94.1311 559.412 89.3044 560.123 87.3738Z" fill="#4924A1"/>
<path d="M360.206 69.3831C360.357 69.699 359.122 74.8943 361.709 78.4221C369.037 79.5981 364.074 68.3476 360.206 69.3831Z" fill="#4924A1"/>
<path d="M386.13 89.4629C385.233 89.3926 393.506 100.468 394.823 100.994C395.557 98.4666 394.112 73.14 386.072 75.8781C386.096 80.4414 386.165 84.9346 386.13 89.4629Z" fill="#4924A1"/>
<path d="M502.774 108.593C502.471 110.366 502.11 120.283 507.574 112.051C509.287 99.6772 507.912 106.575 502.774 108.593Z" fill="#4924A1"/>
<path d="M170.856 111.77C173.105 112.402 173.059 122.968 180.457 114.192C181.681 108.014 173.385 109.98 170.856 111.77Z" fill="#4924A1"/>
<path d="M458.078 116.334C457.705 115.632 452.288 122.354 452.404 124.25C452.963 124.583 463.508 123.934 463.869 122.091C462.925 118.967 464.254 115.035 458.078 116.316" fill="#4924A1"/>
<path d="M479.96 148.293C479.809 148.434 476.43 167.635 476.267 165.564C494.991 176.832 482.57 134.006 479.96 148.293Z" fill="#4924A1"/>
<path d="M303.055 128.197C301.063 124.406 291.007 150.014 292.65 156.631C301.948 168.794 319.484 169.11 326.661 158.315C331.31 159.105 337.928 115.104 303.055 128.18" fill="#4924A1"/>
<path d="M238.983 141.029C242.234 144.978 259.35 161.967 267.798 160.089C263.009 150.612 250.215 136.939 238.983 141.029Z" fill="#4924A1"/>
<path d="M528.011 182.117C526.998 185.434 527.196 188.576 528.536 191.683C540.572 195.719 528.804 171.516 528.011 182.117Z" fill="#4924A1"/>
<path d="M287.477 174.867C287.675 178.816 292.836 181.396 296.588 180.08C296.786 179.027 297.392 178.746 298.522 179.132C298.93 174.762 288.199 170.725 287.477 174.867Z" fill="#4924A1"/>
<path d="M108.976 184.731C105.749 192.279 120.29 195.824 124.321 191.12C121.338 185.855 115.082 186.609 108.976 184.731Z" fill="#4924A1"/>
<path d="M543.52 214.762C545.698 215.253 552.584 217.043 554.018 213.989C554.623 204.038 541.446 215.394 543.52 214.762Z" fill="#4924A1"/>
<path d="M538.742 221.274C537.565 219.045 534.105 229.014 534.023 229.593C546.199 246.425 536.319 211.304 538.742 221.274Z" fill="#4924A1"/>
<path d="M602.662 344.485C601.404 351.997 593.807 340.712 597.932 355.086C593.982 357.614 587.341 353.682 586.479 362.177C600.251 369.566 616.97 345.995 602.662 344.485Z" fill="#4924A1"/>
<path d="M648.849 223.468C647.94 221.748 631.208 243.687 630.777 244.793C635.473 246.688 670.859 230.611 648.849 223.468Z" fill="#4924A1"/>
<path d="M5.91793 271.031C5.11398 269.627 40.1383 287.546 37.5167 277.314C36.4448 277.156 36.1184 276.559 36.5495 275.576C25.166 274.646 16.8121 272.452 5.91793 271.031Z" fill="#4924A1"/>
<path d="M304.546 244.599C306.958 245.88 305.128 249.32 311.269 247.618C310.989 242.739 308.799 241.703 304.546 244.599Z" fill="#4924A1"/>
<path d="M622.307 283.09C622.948 287.443 605.645 294.938 622.831 295.569C640.506 296.201 627.899 286.425 622.307 283.09Z" fill="#4924A1"/>
<path d="M560.192 304.01C558.817 308.222 567.474 307.468 567.847 305.133C568.639 301.061 566.111 300.728 560.192 304.01Z" fill="#4924A1"/>
<path d="M649.001 425.554C646.647 428.959 641.439 425.502 645.668 431.189C655.84 430.346 656.108 423.062 649.001 425.554Z" fill="#4924A1"/>
<path d="M24.3983 332.583C20.9378 336.831 58.747 342.799 63.1629 335.111C60.1917 329.319 24.8993 330.319 24.3983 332.583Z" fill="#4924A1"/>
<path d="M269.558 329.969C268.171 331.267 261.052 331.531 259.025 332.566C257.626 337.849 269.511 330.109 269.558 329.969Z" fill="#4924A1"/>
<path d="M540.536 396.174C538.24 410.707 553.434 394.349 540.536 396.174V396.174Z" fill="#4924A1"/>
<path d="M508.995 411.076C491.192 421.519 532.636 436.139 508.995 411.076V411.076Z" fill="#4924A1"/>
<path d="M319.624 392.436C319.799 392.734 312.656 401.545 322.572 399.615C323.224 400.773 327.046 388.943 319.624 392.436Z" fill="#4924A1"/>
<path d="M327.419 418.849C329.062 422.904 317.841 452.688 338.907 428.169C349.626 415.813 340.317 408.424 327.419 418.849Z" fill="#4924A1"/>
<path d="M363.783 412.83C360.765 407.021 358.062 439.895 370.494 418.535C370.331 416.06 363.865 411.321 363.783 412.83Z" fill="#4924A1"/>
<path d="M263.895 443.93C264.465 444.421 261.692 451.266 272.959 447.264C272.423 443.824 265.2 437.032 263.895 443.93Z" fill="#4924A1"/>
<path d="M457.565 462.025C457.74 462.727 465.628 474.382 466.188 466.817C464.848 462.271 461.993 460.727 457.565 462.025Z" fill="#4924A1"/>
<path d="M235.744 463.78C240.859 473.135 238.098 472.556 235.744 463.78V463.78Z" fill="#4924A1"/>
<path d="M187.612 371.848C187.834 373.497 174.33 375.568 174.178 381.22C173.992 387.222 192.564 376.165 194.347 375.709C194.207 371.672 191.947 370.321 187.612 371.848Z" fill="#4924A1"/>
<path d="M360.183 465.097C361.441 469.221 359.169 471.486 364.995 467.659C366.346 462.92 364.727 462.025 360.183 465.097Z" fill="#4924A1"/>
<path d="M122.69 405.441C122.62 404.862 104.921 412.619 103.604 416.867C116.794 420.237 129.308 403.352 122.69 405.441Z" fill="#4924A1"/>
<path d="M167.979 507.466C175.903 522.297 174.12 507.519 167.979 507.466V507.466Z" fill="#4924A1"/>
<path d="M562.243 538.727C569.187 552.294 576.132 550.504 562.243 538.727V538.727Z" fill="#4924A1"/>
<path d="M197.83 545.606C195.069 547.379 192.529 549.397 190.198 551.679C187.74 559.647 220.702 549.906 197.83 545.606Z" fill="#4924A1"/>
<path d="M0.430404 463.483C-0.594929 466.993 0.0342984 468.169 4.2638 467.871C4.89298 466.291 6.18634 465.273 8.09719 464.676C9.12252 459.674 6.5824 459.306 0.430404 463.483Z" fill="#4924A1"/>
<path d="M150.06 569.668C158.775 585.763 159.8 570.458 150.06 569.668V569.668Z" fill="#4924A1"/>
<path d="M526.938 252.901C529.677 252.199 531.086 251.918 526.938 252.901V252.901Z" fill="#4924A1"/>
<path d="M404.727 66.7344C401.604 79.7049 406.183 73.4741 406.241 81.618C419.827 79.231 406.183 70.3324 404.727 66.7344Z" fill="#4924A1"/>
<path d="M270.256 266.276C275.965 265.609 283.329 272.068 283.411 277.299C283.445 285.723 270.547 292.884 264.069 297.044C251.846 304.889 227.169 300.028 216.857 290.778C213.909 288.093 210.006 280.984 210.449 277.614C211.089 272.77 216.379 265.679 221.098 264.012C234.276 259.221 244.797 257.5 259.537 257.132L270.244 266.276H270.256Z" fill="#4924A1"/>
</svg>
