<svg width="1116" height="993" viewBox="0 0 1116 993" fill="none" xmlns="http://www.w3.org/2000/svg">
<path d="M472.364 990.712C470.042 989.482 467.01 985.74 465.639 982.389C460.665 970.294 458.914 913.25 459.674 788.548C459.704 783.686 459.344 782.866 458.093 784.887C457.212 786.317 455.221 787.258 453.669 786.968C452.118 786.677 449.977 786.387 448.896 786.317C447.815 786.247 447.324 785.207 447.795 784.006C448.265 782.806 447.124 780.775 445.263 779.504C442.2 777.414 442.14 777.083 444.622 776.153C446.133 775.583 448.125 775.853 449.036 776.743C449.946 777.634 451.978 778.364 453.549 778.364C455.861 778.364 456.221 777.474 455.441 773.662C454.65 769.78 455 768.95 457.492 768.92C460.144 768.89 460.044 768.54 456.652 765.999C454.5 764.388 453.299 762.327 453.94 761.327C454.6 760.287 454.01 759.546 452.508 759.546C450.477 759.546 450.287 760.167 451.618 762.588C453.559 766.119 451.408 768.22 447.394 766.719C445.433 765.989 445.293 765.289 446.744 763.588C448.025 762.087 448.085 761.077 446.924 760.377C445.993 759.816 445.243 760.417 445.243 761.717C445.243 765.679 442.08 766.229 440.669 762.507C439.348 759.016 439.328 759.016 438.457 762.287C437.777 764.838 438.617 765.999 442.25 767.47C447.194 769.47 451.047 773.382 446.314 771.611C444.842 771.061 443.642 771.151 443.642 771.811C443.642 773.502 432.022 772.051 429.45 770.031C427.899 768.82 426.948 768.94 425.977 770.461C424.296 773.112 425.737 777.083 427.909 775.783C429.861 774.602 432.323 778.034 432.363 781.976C432.383 784.156 431.362 784.707 428.009 784.326C424.436 783.916 423.285 782.666 421.784 777.564C420.233 772.322 420.353 770.831 422.455 768.48C424.757 765.909 424.737 765.759 422.255 766.689C420.523 767.329 419.512 766.929 419.472 765.579C419.432 764.178 418.482 764.528 416.66 766.629C415.139 768.38 412.817 769.59 411.486 769.33C410.155 769.07 408.334 770.461 407.453 772.422C406.272 775.013 404.631 775.903 401.428 775.693C398.386 775.493 397.025 776.153 397.025 777.834C397.025 779.515 398.046 780.015 400.237 779.454C404.941 778.254 404.171 780.765 398.646 784.597L393.842 787.928L394.903 782.746L395.964 777.564L391.971 782.086C387.818 786.788 381.903 788.018 374.908 785.637C372.736 784.897 371.295 785.027 371.295 785.967C371.295 786.828 372.916 787.758 374.908 788.038C377.309 788.368 378.51 789.599 378.49 791.669C378.47 793.39 379.551 795.641 380.902 796.662C382.894 798.162 382.964 798.902 381.302 800.543C379.621 802.204 378.641 802.204 375.918 800.543C374.087 799.433 372.345 798.742 372.065 799.023C371.775 799.303 371.325 804.145 371.064 809.777C370.654 818.641 371.195 821.022 375.088 827.494C377.56 831.606 380.542 835.328 381.723 835.768C384.775 836.908 387.848 844.942 386.657 848.623C386.106 850.334 383.794 852.915 381.543 854.356C377.6 856.867 377.479 857.407 378.52 867.491C379.451 876.555 379.171 878.516 376.469 881.777C372.826 886.159 362.468 887.099 359.936 883.278C358.544 881.177 359.095 866.08 361.006 853.965C361.837 848.723 361.117 848.053 351.539 845.102C349.247 844.401 348.997 843.601 350.308 841.2C351.579 838.889 351.259 837.348 348.977 834.597L345.995 831.006L344.874 834.447C344.253 836.338 344.223 839.339 344.794 841.1C345.364 842.871 345.144 845.162 344.293 846.192C341.671 849.403 340.43 865.67 342.162 874.324C343.072 878.856 344.163 886.459 344.614 891.221C345.054 895.983 346.885 903.036 348.677 906.887C353.15 916.501 352.92 923.414 347.906 929.817C344.964 933.578 342.522 935.059 339.259 935.059C332.914 935.059 330.252 931.237 330.633 922.674C330.823 918.442 329.372 910.929 327.13 904.486C325.038 898.454 322.857 889.67 322.286 884.978C321.716 880.286 320.084 874.514 318.663 872.153C316.391 868.411 316.331 866.791 318.143 859.428C320.134 851.324 320.555 844.632 319.934 830.606C319.684 825.023 319.214 824.223 316.532 824.913C314.4 825.453 313.419 824.913 313.419 823.173C313.419 821.772 314.58 820.632 316.001 820.632C317.883 820.632 318.233 819.881 317.302 817.89C316.602 816.38 315.731 811.048 315.371 806.035C314.95 800.103 313.929 796.622 312.458 796.071C311.207 795.611 310.197 793.46 310.197 791.299C310.197 787.428 310.127 787.408 306.023 790.029C301.97 792.62 301.88 792.6 302.901 789.469C304.102 785.767 299.348 774.753 297.126 776.093C296.326 776.573 296.086 777.634 296.596 778.434C297.106 779.234 296.596 779.895 295.465 779.895C294.334 779.895 295.015 780.995 296.976 782.336C298.948 783.676 300.549 786.147 300.549 787.818C300.549 791.519 299.288 791.66 295.545 788.358C291.262 784.577 289.14 786.968 291.942 792.43C294.484 797.402 293.594 803.394 290.301 803.394C286.648 803.394 284.617 799.873 285.567 795.241C286.338 791.469 285.898 790.519 283.025 789.789C280.463 789.138 279.803 788.108 280.523 785.887C281.064 784.226 280.663 781.875 279.632 780.665C277.681 778.384 278.682 775.183 281.344 775.183C282.175 775.183 282.855 776.243 282.855 777.534C282.855 780.895 285.657 780.435 287.679 776.753C289.53 773.372 289.851 773.542 280.043 772.752C275.82 772.411 274.819 772.902 274.819 775.323C274.819 776.973 273.728 778.324 272.407 778.324C269.485 778.324 269.154 771.941 271.926 769.23C273.428 767.76 273.368 767.349 271.656 767.349C270.445 767.349 269.935 766.889 270.515 766.319C271.096 765.749 270.776 764.358 269.805 763.208C268.834 762.057 268.504 759.306 269.074 757.085C270.345 752.153 274.899 752.423 277.221 757.565C278.151 759.616 280.153 761.027 282.045 760.957C283.826 760.887 284.376 760.477 283.275 760.046C280.363 758.906 280.804 755.234 284.076 753.324C286.738 751.773 286.728 751.553 283.846 749.382C282.175 748.121 280.203 746.881 279.472 746.641C278.732 746.391 277.861 744.43 277.531 742.269C277.191 740.118 276.27 738.468 275.479 738.608C274.679 738.758 273.177 738.177 272.127 737.327C270.796 736.247 269.415 736.997 267.523 739.808C264.601 744.16 262.049 744.85 259.196 742.069C257.105 740.038 261.338 729.744 264.281 729.704C265.221 729.684 264.18 728.794 261.979 727.703C259.767 726.613 257.725 724.161 257.445 722.241C257.165 720.32 256.204 718.759 255.324 718.759C254.443 718.759 254.823 717.679 256.174 716.358C258.626 713.967 258.106 709.355 255.383 709.355C254.593 709.355 253.952 708.745 253.952 708.015C253.952 707.285 256.845 706.834 260.387 707.024C263.92 707.224 266.823 706.764 266.823 706.024C266.823 705.284 264.651 704.663 261.999 704.663C258.736 704.663 257.175 703.883 257.175 702.262C257.175 698.891 261.548 697.641 264.621 700.132C266.852 701.932 267.103 701.802 266.522 699.131C266.142 697.43 264.851 696.26 263.65 696.52C261.859 696.91 261.879 696.5 263.74 694.259C265.201 692.508 265.291 691.938 264.01 692.699C262.899 693.349 261.999 693.179 261.999 692.318C261.999 691.458 260.518 690.307 258.716 689.747C256.494 689.057 255.724 687.836 256.334 685.976C256.885 684.285 255.634 681.544 253.112 678.893C249.779 675.381 249.159 673.511 249.889 669.059C250.65 664.397 250.379 663.706 248.128 664.547C243.614 666.238 239.491 664.007 239.491 659.885C239.491 655.763 242.693 654.953 249.839 657.604C252.521 658.604 253.962 658.604 253.962 657.604C253.962 654.413 258.936 656.253 260.397 659.995C262.619 665.677 263.39 664.817 262.879 657.254C262.129 646.199 261.929 645.559 260.397 649.03C259.637 650.751 258.966 651.281 258.906 650.201C258.836 649.12 257.385 648.24 255.674 648.24C251.661 648.24 250.209 645.869 251.4 641.247C252.141 638.366 253.142 637.746 255.974 638.426C261.088 639.637 265.171 643.448 264.14 646.039C262.989 648.96 265.912 648.86 268.444 645.889C269.545 644.599 269.995 643.538 269.445 643.538C267.263 643.538 265.902 642.568 261.819 638.106C255.604 631.333 257.265 628.972 266.842 630.933C267.283 631.023 266.322 631.843 264.711 632.754C261.929 634.324 261.919 634.564 264.561 637.406C267.283 640.337 271.046 641.657 269.435 639.116C267.483 636.035 267.153 629.432 268.954 629.402C270.235 629.392 270.155 628.942 268.714 628.052C267.103 627.051 267.453 626.501 270.135 625.821C272.917 625.11 273.488 624.13 272.737 621.339C272.077 618.888 272.897 616.577 275.339 613.976L278.902 610.194L275.289 612.025C270.956 614.226 270.485 611.985 274.458 608.123C277.581 605.072 277.521 605.362 277.861 593.007L278.101 584.013L285.087 582.303C291.272 580.782 291.992 580.152 291.342 576.82C290.932 574.74 289.961 573.429 289.18 573.899C288.399 574.37 287.729 573.829 287.709 572.709C287.669 571.358 286.918 571.608 285.487 573.439C283.486 576.01 283.255 575.88 282.455 571.868C281.844 568.827 282.545 566.506 284.787 564.165C286.548 562.314 288.199 559.493 288.459 557.893C288.75 556.072 289.991 555.172 291.782 555.492C293.734 555.842 294.344 555.271 293.724 553.701C293.043 551.96 293.964 551.47 297.497 551.71C301.91 552.01 302.03 551.87 299.538 549.189C296.456 545.868 297.857 543.477 301.27 546.238C303.181 547.788 303.451 547.578 302.781 545.067C302.33 543.397 302.751 541.546 303.711 540.966C306.293 539.415 305.843 536.924 303.161 537.924C301.48 538.555 301.099 537.904 301.74 535.523C302.33 533.312 303.972 532.222 306.854 532.142C309.186 532.072 310.227 531.672 309.166 531.262C308.115 530.841 307.665 529.431 308.175 528.13C308.775 526.61 308.295 525.949 306.834 526.279C305.583 526.56 304.582 526.229 304.602 525.559C304.632 524.879 303.561 523.668 302.24 522.858C299.478 521.177 301.59 516.445 305.573 515.405C307.465 514.905 307.484 515.065 305.683 516.295C304.332 517.216 304.122 518.156 305.113 518.756C306.003 519.297 307.184 518.556 307.755 517.116C308.325 515.685 307.955 514.004 306.954 513.404C305.943 512.794 305.563 510.933 306.103 509.272C306.944 506.691 306.364 506.291 302.19 506.571C297.857 506.861 297.416 506.511 298.397 503.53C300.489 497.097 308.675 493.646 308.675 499.198C308.675 500.829 309.766 502.57 311.087 503.07C312.418 503.57 313.499 505.381 313.499 507.112C313.499 509.273 314.26 509.963 315.951 509.333C317.863 508.612 317.993 507.932 316.522 506.211C315.491 505.001 315.11 503.55 315.681 503C316.251 502.45 316.712 502.75 316.712 503.67C316.712 504.591 318.233 504.971 320.244 504.451C323.617 503.59 323.637 503.5 320.645 502.36C318.063 501.379 317.993 501.139 320.234 501.049C321.736 500.989 323.377 500.269 323.897 499.458C324.418 498.638 323.357 498.248 321.536 498.588C319.724 498.928 318.653 498.538 319.174 497.728C319.694 496.907 319.354 496.237 318.413 496.237C317.472 496.237 316.712 495.177 316.712 493.886C316.712 492.596 315.811 491.475 314.7 491.415C313.099 491.315 313.109 491.125 314.71 490.495C317.953 489.224 315.301 486.833 310.587 486.783C306.424 486.733 306.383 486.643 309.386 484.422C311.818 482.631 312.088 481.691 310.597 480.241C309.106 478.79 308.675 478.95 308.675 480.981C308.675 482.661 307.815 483.272 306.263 482.691C304.442 482.011 303.852 482.972 303.852 486.653C303.852 489.774 303.041 491.525 301.61 491.525C298.688 491.525 296.776 486.613 299.138 485.182C300.509 484.362 300.499 483.792 299.118 482.962C296.406 481.331 297.737 475.348 301.25 473.338C303.081 472.287 303.622 471.197 302.601 470.586C301.68 470.026 299.138 471.647 296.946 474.178C294.074 477.499 292.022 478.54 289.56 477.919C285.868 476.979 284.907 471.917 288.169 470.586C289.61 469.996 289.38 469.266 287.369 468.025C285.817 467.065 284.556 465.224 284.556 463.924C284.556 462.623 283.826 461.993 282.945 462.523C282.064 463.053 281.284 462.213 281.214 460.652C281.144 459.002 280.743 458.641 280.273 459.772C279.162 462.463 274.118 462.233 271.686 459.382C270.585 458.091 268.764 457.031 267.643 457.031C265.051 457.031 262.879 462.263 265.161 463.013C266.092 463.313 266.862 464.294 266.862 465.194C266.862 466.275 266.152 466.245 264.741 465.104C263.19 463.844 262.099 463.884 260.718 465.224C258.066 467.805 258.366 471.147 261.238 471.147C264.421 471.147 264.321 474.918 261.068 477.559C258.866 479.33 258.146 479.2 256.264 476.699C255.043 475.068 253.582 471.337 253.022 468.406C252.451 465.474 251 462.693 249.789 462.243C248.578 461.793 247.577 460.352 247.577 459.052C247.577 457.351 248.748 456.901 251.721 457.461C254.673 458.011 255.373 457.751 254.132 456.551C253.182 455.62 252.461 453.419 252.531 451.649C252.601 449.888 253.022 449.318 253.472 450.398C253.922 451.478 254.903 452.359 255.654 452.359C257.165 452.359 258.996 447.767 258.476 445.306C258.056 443.345 253.602 444.236 252.111 446.577C250.55 449.038 243.454 441.254 243.454 437.083C243.454 435.262 244.025 434.121 244.715 434.542C245.416 434.962 245.976 434.561 245.976 433.641C245.976 432.721 244.585 431.98 242.894 431.98C241.202 431.98 238.48 431.56 236.859 431.05C235.138 430.5 234.607 430.67 235.588 431.44C236.509 432.171 237.359 434.882 237.479 437.463C237.6 440.054 237.349 441.354 236.929 440.374C236.509 439.393 234.827 438.923 233.186 439.344C231.094 439.874 229.843 439.013 229.003 436.432C228.342 434.411 228.092 432.491 228.442 432.161C229.283 431.37 221.457 428.269 219.635 428.669C218.865 428.839 218.665 427.889 219.185 426.558C219.705 425.228 219.435 424.147 218.575 424.147C215.182 424.147 217.274 429.019 221.297 430.51C224.299 431.62 225.07 432.591 223.889 433.751C222.698 434.912 221.107 434.842 218.565 433.521C215.272 431.8 215.022 431.93 215.832 434.942C216.583 437.743 216.012 438.253 212.139 438.253C209.617 438.253 207.085 437.503 206.505 436.592C205.925 435.672 203.713 434.281 201.591 433.491C197.348 431.92 196.147 425.718 200.09 425.718C201.531 425.718 202.092 426.638 201.531 428.069C200.841 429.84 201.801 430.42 205.454 430.42C209.497 430.42 210.158 429.9 209.457 427.299C208.997 425.588 208.056 424.527 207.366 424.938C205.304 426.178 204.273 421.536 206.195 419.655C208.617 417.294 206.385 415.424 203.723 417.574C202.102 418.885 200.11 418.005 195.346 413.883C188.321 407.79 187.22 407.44 185.859 410.902C185.288 412.342 186.499 414.903 188.831 417.164L192.764 420.996H188.101C181.986 420.996 180.505 423.647 184.568 427.329C190.543 432.751 190.542 436.442 184.588 442.705C179.043 448.527 178.913 449.248 181.015 461.903C181.866 467.015 181.375 468.005 175.811 472.477C169.826 477.289 162.28 478.88 158.177 476.219C154.444 473.788 152.673 468.315 154.284 464.174C155.155 461.953 155.785 456.691 155.685 452.489C155.585 448.287 155.945 444.166 156.486 443.325C157.016 442.485 155.955 440.464 154.114 438.843C152.272 437.223 149.61 433.781 148.199 431.19L145.617 426.478L143.796 441.364C142.715 450.168 142.535 457.781 143.355 459.982C144.126 462.033 145.187 469.086 145.727 475.648C146.298 482.651 148.279 491.315 150.511 496.567C156.556 510.803 155.475 515.405 144.046 524.059C134.038 531.632 126.262 526.48 126.022 512.124C125.932 506.601 124.27 499.218 121.598 492.476C119.246 486.533 117.325 479.32 117.325 476.449C117.325 473.578 116.154 468.386 114.733 464.914C112.511 459.512 112.421 457.171 114.072 448.617C116.124 438.023 115.043 411.542 112.361 406.66C111.55 405.189 110.89 402.528 110.89 400.747C110.89 398.557 109.849 397.516 107.667 397.516C105.886 397.516 104.455 398.557 104.455 399.867C104.455 401.178 103.004 402.218 101.052 402.218C98.31 402.218 97.8397 401.538 98.6203 398.697C99.1607 396.756 99.6011 393.585 99.6111 391.644C99.6311 387.782 105.145 386.552 106.607 390.073C107.047 391.154 107.477 390.523 107.547 388.673C107.687 384.841 102.073 382.75 95.788 384.291C93.6763 384.811 91.5047 384.541 90.9743 383.7C89.8534 381.92 94.3969 379.839 96.5686 381.139C97.3693 381.63 98.0297 381.279 98.0297 380.359C98.0297 379.439 99.8412 378.698 102.053 378.698C106.176 378.698 107.637 375.117 104.325 373.126C103.064 372.366 103.064 371.595 104.325 370.365C105.285 369.434 106.046 367.574 106.006 366.233C105.966 364.843 104.895 365.683 103.484 368.204C101.052 372.586 95.1375 373.586 96.0582 369.464C96.2984 368.374 95.758 367.924 94.8473 368.474C93.9466 369.024 93.196 370.525 93.196 371.816C93.196 373.106 92.4254 373.696 91.4847 373.136C90.5439 372.566 88.9127 373.196 87.8618 374.537C86.1605 376.718 85.6201 376.717 82.7478 374.607C79.7355 372.386 79.7054 372.136 82.3475 370.685C86.3106 368.494 85.8402 364.773 81.1365 361.171C78.9247 359.48 77.1234 357.129 77.1234 355.949C77.1234 354.768 75.8524 353.788 74.3111 353.768C72.7599 353.748 69.6876 353.478 67.4758 353.188C65.2641 352.888 62.2916 353.588 60.8705 354.738C58.6888 356.509 57.9483 356.429 56.1069 354.268C54.2454 352.087 54.3354 351.417 56.6773 349.746C58.1985 348.666 59.4295 346.365 59.4295 344.624C59.4295 342.883 60.5604 340.553 61.9414 339.432C64.2232 337.591 64.2232 337.271 61.9414 336.021C59.1492 334.5 58.4787 330.108 61.0207 330.108C63.8629 330.108 62.7421 327.137 59.2093 325.296C56.8575 324.066 54.6957 323.996 52.2738 325.076C47.42 327.227 40.0642 322.195 43.0065 318.733C44.958 316.443 44.6878 307.389 42.6162 305.368C41.9957 304.758 40.7848 305.498 39.9241 306.999C37.8925 310.54 35.0202 310.53 35.6307 306.979C36.001 304.868 35.1804 304.358 32.088 304.788C29.8763 305.088 27.1441 306.068 26.0132 306.969C23.5012 308.979 22.9908 308.529 21.5897 303.067C20.5989 299.235 20.9191 298.755 24.4819 298.755C28.0447 298.755 34.3298 294.213 31.0772 293.923C30.3066 293.853 27.5043 293.583 24.8522 293.323C14.7743 292.323 11.9322 295.074 17.1863 300.736C19.8484 303.597 19.8283 303.847 16.876 305.948C13.9237 308.049 13.9737 308.159 17.9969 308.159C20.7991 308.159 22.5504 309.21 23.231 311.28C24.512 315.212 23.0708 317.563 19.3679 317.563C17.7867 317.563 15.7452 319.154 14.8244 321.094C13.7102 323.435 12.7661 323.179 11.9921 320.324C11.3516 317.963 10.3209 316.332 9.69041 316.713C9.05991 317.093 8.85968 315.312 9.23998 312.761C9.63029 310.21 10.581 307.739 11.3616 307.269C12.1423 306.799 12.7828 305.118 12.7828 303.537C12.7828 300.526 8.71954 298.115 6.20757 299.636C4.11592 300.896 4.40616 297.685 6.71798 294.083C8.34926 291.532 8.21914 290.672 5.94735 289.011C2.00425 286.14 5.00667 281.518 9.12991 284.129C10.7011 285.13 11.802 286.71 11.5918 287.651C10.7612 291.182 14.5442 289.201 16.0654 285.31C17.9969 280.358 16.4457 277.216 13.8136 280.728C12.1023 282.999 11.5518 282.879 8.33925 279.547C5.11671 276.206 4.99668 275.546 7.14837 272.804C9.4802 269.833 9.55028 269.843 10.5511 273.295C11.5819 276.866 14.4041 278.227 14.4041 275.145C14.4041 272.064 11.0515 267.412 8.66959 267.412C5.44705 267.412 3.94581 263.191 6.2276 260.519C7.67874 258.809 7.2184 258.158 3.99587 257.368C-0.84794 256.188 -1.36834 251.806 2.87499 248.054C5.63716 245.623 5.92734 245.673 7.57864 248.985C8.5494 250.925 9.58024 253.336 9.86046 254.347C10.2408 255.677 11.9321 255.507 16.0053 253.727C25.6229 249.515 27.1341 249.625 25.803 254.457C25.0925 257.048 23.2209 259.019 20.9692 259.529L17.2964 260.369L20.669 263.341C22.8407 265.261 24.0417 265.611 24.0417 264.341C24.0417 263.24 25.0925 262.75 26.4035 263.241C27.7045 263.731 29.1956 263.451 29.716 262.63C30.2364 261.81 29.536 261.13 28.1649 261.13C25.1625 261.13 25.1225 260.839 27.5244 255.717C29.636 251.205 34.8802 250.385 36.4314 254.327C37.3021 256.558 37.6423 256.438 38.7431 253.536C39.8941 250.505 42.5762 249.525 49.2414 249.715C50.2722 249.745 51.4732 248.444 51.9035 246.824C52.4039 244.983 51.8535 243.883 50.4324 243.883C49.1914 243.883 48.1706 242.822 48.1706 241.531C48.1706 240.241 47.0797 239.18 45.7587 239.18C44.4376 239.18 43.3469 240.451 43.3469 242.002C43.3469 245.553 40.3144 248.584 36.7616 248.584C32.6384 248.584 31.6876 244.153 35.3505 241.922C39.7339 239.261 39.3337 238.03 33.6993 236.83C31.0472 236.259 28.8754 234.889 28.8754 233.778C28.8754 231.107 14.234 229.066 12.6827 231.527C10.8413 234.428 7.23837 232.178 7.19834 228.096C7.17832 225.795 6.21761 224.304 4.74646 224.294C0.953476 224.284 0.823423 217.331 4.54635 213.95C8.83972 210.058 8.98974 210.109 10.2007 215.991C10.7711 218.752 12.7927 222.634 14.7042 224.604C18.3771 228.416 26.1233 229.617 25.3327 226.245C24.482 222.624 28.0548 223.274 29.1156 226.935C30.1464 230.497 30.1665 230.497 30.3166 227.116C30.5268 222.654 32.9486 221.273 35.6107 224.104C37.3921 226.005 38.0927 226.015 40.1843 224.194C43.4869 221.323 49.2314 222.984 50.5124 227.165C51.5332 230.517 51.5632 230.517 53.1245 226.765C55.4263 221.203 54.2053 219.562 48.0405 219.993C43.2968 220.313 42.0458 219.602 38.9233 214.77C34.63 208.138 34.4899 206.907 37.8325 205.647C40.1443 204.786 40.1443 204.476 37.8325 202.235C34.7101 199.184 34.62 197.453 37.5623 196.353C40.8849 195.112 45.7488 199.054 44.0975 201.655C43.3569 202.825 42.5661 205.407 42.356 207.377C41.9557 211.009 43.8171 211.209 52.7441 208.478C53.9351 208.118 55.2861 209.228 55.7465 210.959C56.2169 212.7 57.9382 214.1 59.6195 214.1C61.3009 214.1 62.6419 214.8 62.6419 215.671C62.6419 219.252 65.6844 216.881 66.6651 212.539C67.2456 209.948 68.2564 207.838 68.8969 207.838C69.5374 207.838 71.3588 206.917 72.9401 205.797C75.422 204.026 74.7115 203.806 67.716 204.116C62.2317 204.366 58.9991 203.746 57.6881 202.205C55.5364 199.674 55.4563 199.794 61.0307 197.153L65.0439 195.242L60.7205 196.063C58.3386 196.513 55.9867 196.243 55.4863 195.452C54.7657 194.312 57.4879 187.709 60.6905 182.827C60.9507 182.427 62.582 182.967 64.3233 184.028C68.1563 186.359 74.9517 184.988 74.9517 181.877C74.9517 180.646 74.2611 179.626 73.4104 179.626C72.5598 179.626 72.7699 178.565 73.8808 177.275C74.9816 175.984 77.2434 174.924 78.9047 174.924C80.8463 174.924 81.9171 173.813 81.9171 171.793C81.9171 170.072 82.6377 168.661 83.5284 168.661C84.4191 168.661 85.1297 166.85 85.1297 164.64C85.1297 161.748 85.9203 160.698 87.9419 160.908C95.3377 161.638 102.934 160.708 101.973 159.187C101.402 158.287 101.833 156.506 102.914 155.236C104.004 153.955 104.365 152.405 103.724 151.784C103.084 151.164 101.563 151.974 100.352 153.595C99.0706 155.306 96.9189 156.226 95.2076 155.786C93.5963 155.376 91.3646 155.986 90.2437 157.156C86.6909 160.868 82.7578 159.497 79.4752 153.395C77.7339 150.164 75.6121 147.032 74.7514 146.432C73.8307 145.792 74.4213 144.031 76.2127 142.1C79.0449 139.049 79.0649 138.719 76.4929 136.888C74.081 135.177 74.0309 134.567 76.0425 131.886C78.024 129.245 78.7047 129.125 80.9965 130.976C82.4576 132.156 83.2882 134.067 82.8279 135.227C81.6369 138.249 83.4784 142.03 86.1205 142.03C87.6917 142.03 88.112 143.151 87.4515 145.672C86.831 148.093 87.4515 150.064 89.333 151.554C91.8249 153.535 92.035 153.485 91.1443 151.154C90.0635 148.353 93.0959 140.49 95.2676 140.47C95.9881 140.47 96.1484 141.12 95.638 141.93C95.1176 142.741 95.6979 143.971 96.9089 144.671C98.1198 145.372 99.5309 147.002 100.031 148.293C100.762 150.164 100.972 150.084 101.072 147.903C101.142 146.312 102.463 145.162 104.215 145.162C105.876 145.162 108.048 144.211 109.038 143.051C110.029 141.89 113.022 140.88 115.684 140.8C120.007 140.68 120.447 141.09 119.797 144.621C119.236 147.592 119.637 148.353 121.388 147.693C122.769 147.172 123.72 147.763 123.72 149.123C123.72 153.625 126.452 151.344 126.582 146.722C126.672 143.621 125.932 142.02 124.42 142.02C122.539 142.02 122.522 139.879 124.371 135.598L126.622 130.385L131.226 135.187C135.099 139.229 136.39 139.739 139.422 138.419C144.677 136.128 143.826 134.127 137.801 134.577C133.327 134.917 132.497 134.417 132.017 131.096C131.706 128.965 130.065 126.264 128.364 125.113C124.891 122.742 125.942 119.381 129.715 120.791C132.807 121.952 140.663 114.029 140.063 110.347C139.492 106.856 147.168 104.825 151.342 107.356C153.694 108.786 155.295 108.676 158.737 106.866C161.149 105.585 162.49 104.515 161.72 104.485C160.949 104.445 161.219 103.364 162.32 102.074C163.992 100.113 163.761 99.7226 160.909 99.7226C156.986 99.7226 156.976 99.7027 159.068 94.3405C160.839 89.7986 160.389 89.5084 155.905 92.2396C151.422 94.9707 148.82 91.9995 150.221 85.7769C150.941 82.5956 152.292 80.9249 154.134 80.9249C158.647 80.9249 159.348 79.0342 155.735 76.5732C153.273 74.8924 151.922 74.7524 150.601 76.0429C147.739 78.8341 146.238 78.0937 146.238 73.872C146.238 71.4309 147.148 69.9504 148.65 69.9504C149.971 69.9504 151.061 68.6198 151.061 66.9891C151.061 64.9883 153.163 63.1976 157.497 61.5169C161.039 60.1363 163.922 58.3855 163.922 57.6152C163.922 55.0041 171.067 54.3039 173.509 56.6849C174.92 58.0655 175.15 58.9958 174.07 58.9958C172.989 58.9958 172.648 60.4164 173.219 62.5173C174.14 65.9687 174.1 65.9787 171.127 63.0875C168.155 60.1963 168.065 60.2263 166.644 64.388C165.443 67.8895 165.793 69.0499 168.595 70.9607C171.267 72.7815 171.648 73.9119 170.377 76.2229C168.115 80.3446 168.315 80.9349 172.038 80.9349C176.321 80.9349 183.237 85.3968 183.237 88.1679C183.237 89.3584 181.766 90.3389 179.964 90.3389C175.871 90.3389 174.09 94.5305 176.552 98.3621C177.572 99.9628 178.463 102.864 178.523 104.815C178.623 107.976 178.763 108.036 179.814 105.425C180.915 102.694 181.175 102.664 183.677 105.105C186.169 107.536 186.629 107.536 190.422 105.125C192.664 103.694 194.486 101.723 194.466 100.743C194.446 99.5626 194.045 99.5127 193.265 100.583C191.884 102.474 189.672 102.554 186.86 100.803C185.749 100.123 184.117 99.9928 183.237 100.533C180.465 102.204 181.485 99.4225 184.448 97.2316C187.12 95.2408 187.12 95.1407 184.448 95.1007C180.955 95.0407 180.745 92.1495 184.137 90.879C185.729 90.2888 186.239 89.0183 185.529 87.4076C184.918 86.007 184.508 83.2559 184.618 81.2851C184.868 76.9032 192.874 68.2597 194.005 71.1509C195.226 74.2822 198.639 73.4117 198.639 69.9703C198.639 68.2496 197.708 66.839 196.567 66.839C195.426 66.839 194.496 66.1388 194.496 65.2684C194.496 62.0271 191.293 63.8578 190.322 67.6594C189.272 71.7411 183.237 76.3431 183.237 73.0717C183.237 72.1313 182.566 71.7611 181.736 72.2613C180.915 72.7615 179.784 72.4414 179.234 71.5711C178.683 70.7007 178.903 69.9803 179.734 69.9803C180.565 69.9803 181.696 68.7498 182.246 67.2392C182.786 65.7286 183.657 63.6077 184.178 62.5373C184.768 61.3168 183.887 60.5765 181.856 60.5765C177.402 60.5765 175.731 57.3852 178.973 55.0742C180.435 54.0338 181.635 52.4131 181.635 51.4827C181.635 49.0117 183.887 48.0513 186.299 49.5119C187.981 50.5223 187.86 51.5827 185.649 54.8741C182.586 59.426 182.806 59.606 192.914 61.2367C196.687 61.837 199.089 63.3176 200.15 65.6686C201.021 67.6094 203.363 69.4202 205.364 69.6903C207.356 69.9704 209.798 71.671 210.798 73.4818C213.29 78.0237 208.807 81.3951 203.082 79.2742C197.918 77.3634 197.728 77.3934 197.728 80.1546C197.728 81.4451 196.817 82.5156 195.717 82.5356C194.296 82.5556 194.235 82.8958 195.516 83.7061C197.518 84.9866 195.857 90.909 193.014 92.6297C189.962 94.4705 191.183 95.9611 195.717 95.8911C199.329 95.8411 200.11 96.5013 200 99.4725C199.9 102.244 200.56 102.934 202.762 102.374C204.543 101.924 205.945 102.624 206.385 104.215C206.795 105.635 207.586 108.386 208.156 110.327C208.967 113.058 208.537 113.859 206.275 113.879C203.803 113.899 203.723 114.129 205.764 115.419C207.456 116.48 208.707 116.239 209.968 114.609C210.949 113.328 212.65 112.288 213.761 112.288C215.082 112.288 215.432 110.987 214.782 108.456C214.041 105.595 214.701 104.015 217.374 102.194L220.956 99.7427H216.573C214.161 99.7427 212.19 98.9023 212.19 97.8619C212.19 96.4013 211.759 96.4013 210.258 97.8619C207.176 100.863 204.584 100.053 203.753 95.8411C203.062 92.3097 203.463 91.9795 207.986 92.3197C212.53 92.6598 213 92.2596 213.12 87.9878C213.34 80.1946 213.591 79.7544 219.015 77.6636C221.887 76.5631 224.9 75.3426 225.69 74.9525C226.501 74.5623 226.691 76.453 226.111 79.2542C225.18 83.7761 225.32 84.0262 227.592 81.8153C229.343 80.1046 230.924 79.8145 232.876 80.8349C234.947 81.9154 236.158 81.5151 237.6 79.2642C238.67 77.6035 241.292 76.2429 243.454 76.2429C245.616 76.2429 247.898 75.4126 248.538 74.3922C249.349 73.1217 250.069 73.4919 250.85 75.5627C251.47 77.2334 251.23 79.5043 250.32 80.6147C249.179 82.0153 249.178 83.1458 250.339 84.2763C253.972 87.8178 248.128 94.5405 242.213 93.6101C241.483 93.5001 241.342 94.1204 241.913 95.0107C242.473 95.8911 243.975 96.6214 245.246 96.6214C248.118 96.6214 248.428 104.435 245.556 104.505C244.445 104.525 244.825 105.275 246.396 106.165C247.968 107.056 248.828 108.446 248.308 109.257C247.798 110.067 248.098 110.727 248.988 110.727C249.879 110.727 251.04 110.017 251.59 109.157C252.141 108.296 251.951 107.586 251.16 107.586C249.048 107.586 250.84 98.2121 252.982 98.022C253.982 97.9319 257.505 97.6219 260.798 97.3318C264.1 97.0416 267.213 97.4618 267.733 98.2821C268.254 99.0924 270.435 99.3326 272.597 98.8023C276.76 97.7819 278.081 100.733 274.869 103.864C273.748 104.955 274.188 106.325 276.28 108.166C279.042 110.597 279.432 110.617 280.323 108.356C280.954 106.756 280.663 106.245 279.512 106.946C278.422 107.596 278.011 107.166 278.462 105.855C279.462 102.944 287.969 103.914 290.611 107.256C293.213 110.547 292.473 112.688 288.069 114.629C283.876 116.47 283.706 117.5 287.128 120.261C289.29 122.012 289.931 121.922 291.232 119.671C293.123 116.38 296.516 116.11 295.235 119.351C294.534 121.122 295.505 121.702 299.078 121.702C302.09 121.702 303.852 120.891 303.852 119.521C303.852 116.059 308.125 115.389 310.937 118.41C313.839 121.532 314.29 125.754 311.898 127.194C311.007 127.724 310.287 127.294 310.287 126.244C310.287 125.193 309.906 124.693 309.446 125.143C308.986 125.593 309.036 127.054 309.556 128.385C310.817 131.586 316.051 130.716 315.441 127.404C315.18 125.994 315.841 124.843 316.912 124.843C317.983 124.843 318.403 125.283 317.843 125.834C317.282 126.384 317.552 128.144 318.433 129.755C319.694 132.046 319.484 132.686 317.482 132.686C316.071 132.686 315.321 133.327 315.821 134.107C316.321 134.887 318.173 135.157 319.934 134.707C321.776 134.237 323.147 134.657 323.147 135.688C323.147 137.028 324.007 137.048 326.519 135.738C329.592 134.137 329.782 134.307 328.701 137.628C327.67 140.81 327.84 141.02 330.012 139.249C333.165 136.698 335.006 139.149 333.625 144.051C332.764 147.122 332.864 147.212 334.426 144.781C335.406 143.261 336.898 142.42 337.748 142.931C338.589 143.441 338.929 144.411 338.499 145.092C338.068 145.772 339.52 145.982 341.721 145.572C344.824 144.991 345.334 144.361 343.963 142.75C342.582 141.13 342.952 140.73 345.625 140.93C348.317 141.13 348.857 141.93 348.156 144.661C347.206 148.343 349.548 151.084 351.289 148.333C352.44 146.522 355.312 147.703 355.312 149.993C355.312 150.804 354.041 151.524 352.5 151.594C350.738 151.674 350.458 152.014 351.749 152.525C352.88 152.975 354.872 152.475 356.173 151.424C359.035 149.103 363.999 152.275 362.698 155.586C361.707 158.087 369.393 163.439 373.807 163.319C375.878 163.259 377.209 161.979 377.539 159.708C377.82 157.767 378.81 156.176 379.731 156.176C380.652 156.176 381.102 158.217 380.702 160.878C380.212 164.089 380.672 165.58 382.133 165.58C383.304 165.58 384.265 166.49 384.265 167.591C384.265 168.891 386.306 169.542 390.049 169.422C394.643 169.272 396.515 170.142 399.177 173.643C401.769 177.065 403 177.655 404.691 176.294C406.422 174.904 406.632 175.114 405.752 177.365C404.991 179.316 405.221 179.836 406.522 179.066C407.723 178.335 408.404 179.096 408.404 181.156C408.404 185.038 410.886 185.378 412.947 181.787C415.139 177.965 419.663 180.336 419.663 185.308C419.663 188.78 420.053 189.15 422.004 187.579C423.576 186.309 424.026 184.138 423.386 180.996C422.665 177.515 422.995 176.404 424.657 176.675C425.888 176.875 428.159 176.505 429.701 175.844C433.754 174.114 437.887 176.054 436.676 179.116C436.126 180.506 436.506 182.617 437.517 183.808C439.638 186.289 437.206 186.759 434.724 184.338C433.814 183.447 431.852 183.177 430.381 183.728C427.449 184.818 426.738 189.9 429.31 191.441C430.231 191.991 430.932 190.53 430.962 188.009C431.002 184.228 431.242 183.998 432.673 186.379C433.604 187.949 435.165 188.67 436.246 188.039C437.356 187.389 437.237 188.019 435.956 189.58C434.735 191.041 434.384 192.241 435.155 192.251C435.925 192.271 435.595 192.871 434.414 193.602C432.993 194.482 433.874 194.872 437.066 194.752C441.54 194.592 441.8 194.242 441.009 189.5C440.519 186.549 441.009 183.427 442.18 182.057C444.462 179.376 450.237 178.856 450.237 181.327C450.237 182.227 451.137 182.847 452.248 182.707C456.521 182.167 458.283 182.917 458.283 185.278C458.283 187.099 456.942 187.599 453.059 187.239C448.415 186.799 447.835 187.189 447.835 190.67C447.835 192.821 447.254 195.462 446.544 196.533C445.663 197.853 446.013 198.194 447.645 197.573C449.046 197.053 450.887 197.993 452.058 199.824C453.899 202.695 454.25 202.745 456.001 200.404C457.672 198.173 458.293 198.123 460.665 200.054C463.047 201.985 463.597 201.935 464.878 199.714C465.749 198.194 468.261 197.203 471.033 197.283C475.096 197.393 475.406 197.713 473.415 199.654C472.144 200.885 471.573 202.615 472.124 203.496C472.694 204.386 471.553 204.266 469.552 203.226C464.758 200.725 461.566 203.516 465.188 207.047C466.58 208.408 468.091 208.918 468.551 208.198C469.011 207.477 471.503 207.177 474.095 207.547C478.639 208.198 479.62 209.358 483.683 218.892C485.184 222.404 485.264 222.234 484.523 217.251C483.923 213.21 484.434 211.089 486.415 209.488C488.867 207.507 489.107 207.678 488.807 211.129C488.186 218.262 488.647 219.152 492.45 218.152C495.813 217.271 495.782 217.372 492.049 219.612L488.026 222.033L492.84 221.283C495.482 220.873 497.894 219.812 498.204 218.932C498.505 218.052 499.856 217.331 501.207 217.331C502.558 217.331 503.298 218.242 502.818 219.452C502.358 220.623 503.358 223.614 505.05 226.115C507.712 230.047 508.142 230.227 508.312 227.516C508.422 225.795 508.432 223.854 508.332 223.204C508.232 222.554 508.943 222.023 509.924 222.023C510.904 222.023 511.295 223.064 510.794 224.324C510.294 225.585 510.594 227.045 511.455 227.566C512.315 228.086 512.636 229.116 512.165 229.857C511.695 230.597 512.155 231.717 513.186 232.338C514.357 233.048 514.637 232.788 513.927 231.657C513.296 230.657 513.547 229.847 514.477 229.847C515.408 229.847 516.179 230.557 516.179 231.417C516.179 232.278 516.989 232.988 517.98 232.988C519.021 232.988 519.461 231.367 519.011 229.116C518.59 226.985 518.871 225.615 519.631 226.075C520.382 226.535 521.012 228.626 521.012 230.727C521.012 232.828 521.733 234.549 522.613 234.549C523.494 234.549 524.225 233.488 524.225 232.198C524.225 228.876 527.878 229.276 532.922 233.148C535.404 235.049 538.556 236.109 540.377 235.649C543.32 234.899 544.601 237.71 543.68 242.902C543.55 243.612 544.13 243.782 544.971 243.282C545.812 242.782 547.633 243.482 549.034 244.843C551.356 247.104 551.576 246.964 551.576 243.292C551.576 241.071 552.237 239.261 553.058 239.261C553.878 239.261 555.609 238.86 556.92 238.37C558.452 237.8 560.343 239.191 562.195 242.252C564.266 245.663 566.168 246.934 568.9 246.714C572.142 246.454 572.563 245.813 571.672 242.442C569.881 235.719 569.991 229.376 571.882 228.756C572.883 228.436 574.134 229.296 574.674 230.667C575.215 232.048 574.995 232.768 574.174 232.278C573.363 231.787 572.243 232.098 571.692 232.978C571.142 233.848 571.382 234.569 572.233 234.569C573.083 234.569 573.434 236.159 572.993 238.1C572.333 241.021 572.523 241.221 574.064 239.271C575.475 237.5 576.136 237.4 576.746 238.88C577.196 239.961 578.227 240.841 579.038 240.841C579.849 240.841 580.519 239.961 580.519 238.88C580.519 237.69 583.151 236.769 587.234 236.549C591.278 236.319 595.291 234.939 597.332 233.068C601.336 229.406 602.506 222.864 598.913 224.204C597.642 224.685 596.592 224.464 596.592 223.724C596.592 221.623 601.195 220.413 602.326 222.213C602.887 223.094 604.538 223.354 605.999 222.794C607.46 222.233 610.022 221.503 611.684 221.173C613.355 220.843 615.166 220.083 615.707 219.492C616.247 218.902 615.426 218.852 613.885 219.392C611.884 220.093 611.073 219.572 611.073 217.602C611.073 216.081 610.162 213.9 609.062 212.75C607.45 211.089 607.45 210.529 609.062 209.958C612.224 208.828 611.403 206.367 607.851 206.367C606.079 206.367 604.628 205.667 604.628 204.796C604.628 203.926 605.669 203.226 606.95 203.226C608.231 203.226 609.712 203.926 610.262 204.796C611.784 207.187 614.746 206.667 613.765 204.176C612.734 201.575 619.56 194.842 621.491 196.553C622.692 197.613 622.152 195.653 619.58 189.5C618.689 187.369 623.062 188.359 626.735 191.111C628.126 192.161 629.027 191.731 629.738 189.69C632.37 182.077 634.381 178.445 635.562 179.156C636.273 179.586 636.403 180.646 635.853 181.507C635.302 182.377 636.283 182.217 638.024 181.156C639.986 179.966 640.967 177.975 640.586 175.944C640.216 173.963 640.676 174.374 641.737 176.975C642.708 179.346 644.66 181.286 646.081 181.286C648.332 181.286 648.292 181.026 645.84 179.276C643.178 177.375 643.208 177.085 646.461 174.224C648.352 172.553 649.764 171.873 649.593 172.713C648.903 176.134 649.773 178.275 651.455 177.265C652.516 176.625 652.876 173.983 652.336 170.772C651.595 166.33 651.825 165.67 653.627 167.131C654.948 168.201 656.189 168.311 656.749 167.421C657.259 166.61 656.599 165.54 655.278 165.05C651.375 163.589 652.526 160.918 657.069 160.918C660.362 160.918 661.052 161.508 660.282 163.659C659.481 165.89 659.791 165.82 661.923 163.269C664.495 160.178 664.525 160.188 663.645 163.799C662.784 167.361 662.844 167.391 665.916 164.68C667.657 163.149 668.698 160.918 668.228 159.728C667.648 158.247 668.258 157.837 670.179 158.417C673.552 159.437 678.156 157.087 675.684 155.596C673.552 154.315 675.874 146.112 679.317 142.761C680.718 141.4 681.448 139.639 680.938 138.839C680.438 138.049 680.838 137.398 681.839 137.398C682.92 137.398 683.24 138.669 682.629 140.53C682.039 142.33 682.339 143.661 683.32 143.661C684.301 143.661 685.041 142.55 685.041 141.19C685.041 139.729 686.132 138.929 687.723 139.229C692.297 140.1 691.947 143.481 687.163 144.601C680.428 146.172 679.737 146.892 682.82 149.083C685.211 150.784 686.152 150.454 689.345 146.752C691.406 144.371 693.078 141.45 693.078 140.259C693.078 137.368 698.342 133.097 700.884 133.917C702.305 134.377 702.045 135.207 700.003 136.728C697.341 138.709 697.461 138.849 701.524 138.579C705.097 138.329 705.948 137.508 705.968 134.307C706.008 127.994 708.039 126.084 713.333 127.374C717.547 128.395 717.797 128.255 715.815 125.914C714.604 124.483 712.983 123.703 712.192 124.183C711.412 124.653 710.761 124.293 710.761 123.382C710.761 121.902 714.204 120.992 717.677 121.562C718.388 121.682 718.838 120.881 718.698 119.791C718.147 115.699 718.858 112.158 720.079 112.898C720.779 113.318 722.281 111.598 723.422 109.087C725.313 104.935 725.733 104.735 728.015 106.966C729.997 108.897 730.797 108.997 731.798 107.416C732.498 106.315 732.689 104.825 732.228 104.095C731.077 102.284 734.901 98.032 736.702 99.1224C737.503 99.6026 737.743 100.653 737.232 101.453C736.722 102.254 737.072 102.914 738.013 102.914C738.954 102.914 739.714 101.774 739.714 100.383C739.714 98.6222 740.695 98.102 742.937 98.6623C745.109 99.2225 745.769 98.8924 744.988 97.6719C743.397 95.2008 744.388 90.3088 746.99 87.7677C749.452 85.3667 751.623 84.9466 750.232 87.1475C749.722 87.9578 750.763 88.518 752.554 88.378C755.767 88.1479 757.268 85.6769 754.186 85.6769C753.305 85.6769 752.574 84.9665 752.574 84.1062C752.574 83.2458 753.665 82.5356 754.986 82.5356C756.307 82.5356 757.398 81.8252 757.398 80.9649C757.398 80.1045 758.209 79.3943 759.2 79.3943C760.441 79.3943 760.361 80.1546 758.969 81.7853C757.849 83.0958 757.358 84.5964 757.888 85.1066C758.419 85.6168 762.452 82.4255 766.856 78.0137C771.269 73.6019 775.823 69.9903 776.984 69.9903C778.145 69.9903 781.087 68.9699 783.519 67.7294C785.95 66.4889 787.942 66.1387 787.942 66.9591C787.942 67.7794 788.663 68.4298 789.553 68.4298C790.444 68.4298 791.165 67.3693 791.165 66.0788C791.165 64.7883 791.755 63.7277 792.466 63.7277C793.176 63.7277 795.168 62.6673 796.889 61.3768C799.341 59.536 799.421 59.226 797.289 59.9463C794.887 60.7566 794.788 60.3865 796.479 56.825C797.93 53.7737 799.591 52.7933 803.224 52.8233C807.918 52.8633 807.958 52.9333 804.835 55.3743C802.013 57.5852 801.973 57.7653 804.565 56.8849C806.186 56.3347 808.148 55.8945 808.939 55.8945C809.729 55.8945 809.98 54.9041 809.499 53.7036C808.408 50.9424 810.97 49.3117 814.383 50.5823C816.394 51.3326 816.565 52.0429 815.133 53.7236C813.802 55.2842 813.792 55.8945 815.073 55.8945C816.064 55.8945 817.725 54.554 818.776 52.9033C820.317 50.4923 821.469 50.2022 824.681 51.3927C827.293 52.3631 829.245 52.313 830.345 51.2426C831.496 50.1221 831.166 49.6219 829.275 49.6219C825.502 49.6219 825.842 46.9608 829.875 44.8599C832.687 43.3993 833.348 43.6195 834.058 46.2906C834.879 49.3719 835.019 49.3518 839.142 45.6303C842.785 42.3389 843.506 42.1588 844.296 44.3397C845.037 46.4006 845.758 46.0505 848.139 42.529C850.381 39.1976 850.521 38.3873 848.72 39.0576C847.379 39.5578 846.378 39.0276 846.378 37.8171C846.378 34.8359 849.471 35.7361 851.962 39.4477C853.914 42.3589 853.994 42.2789 853.133 38.2772C852.363 34.6657 852.753 33.9654 855.545 33.9654C857.387 33.9654 858.448 33.2552 857.897 32.3948C857.307 31.4644 859.188 30.8241 862.531 30.8241C865.623 30.8241 868.605 30.1138 869.156 29.2535C870.567 27.0226 877.573 27.3127 878.543 29.6437C878.994 30.7241 879.414 30.1539 879.484 28.3931C879.554 26.6224 878.964 24.5115 878.173 23.6911C877.382 22.8708 876.241 19.9096 875.631 17.1084C874.8 13.2568 875.081 12.0164 876.802 12.0164C878.053 12.0164 879.564 12.4965 880.155 13.0667C880.745 13.647 883.097 14.2073 885.369 14.2973C889.672 14.4774 889.772 13.8771 886.84 4.77337C886.109 2.51243 886.58 1.16186 888.321 0.511591C892.584 -1.07907 895.547 1.07182 896.597 6.51408C898.439 16.088 897.378 17.4886 888.211 17.4886C880.395 17.4886 880.094 17.6387 882.156 20.5099C883.707 22.6708 883.847 24.1114 882.626 25.532C880.405 28.1431 882.176 30.8042 886.129 30.8042C889.452 30.8042 890.323 28.5032 887.61 26.8725C885.769 25.762 887.01 22.9709 889.342 22.9709C890.172 22.9709 890.863 24.3814 890.863 26.1022C890.863 27.8229 891.934 29.2435 893.385 29.2435C895.116 29.2435 895.607 28.3231 894.946 26.2923C894.376 24.5216 894.866 23.0109 896.197 22.5207C897.778 21.9305 898.209 22.7108 897.698 25.2819C897.088 28.4132 897.528 28.7633 901.161 28.093C903.743 27.6128 905.334 28.023 905.334 29.1535C905.334 30.1639 906.085 30.544 907.016 29.9838C907.936 29.4235 910.518 30.1439 912.75 31.5645L916.803 34.1555L914.101 30.1439C912.62 27.943 910.849 26.4723 910.158 26.8925C909.468 27.3027 908.016 26.6023 906.936 25.3318C905.344 23.461 905.465 22.8309 907.576 22.0405C909.017 21.5003 911.089 21.7704 912.18 22.6508C913.271 23.5211 916.983 23.9213 920.426 23.5512C925.26 23.021 927.382 23.5911 929.754 26.0821C931.445 27.8529 932.436 29.9138 931.965 30.6641C931.485 31.4144 933.437 31.9146 936.289 31.7746C939.551 31.6145 941.663 30.614 941.963 29.0934C942.724 25.2218 939.401 18.289 936.769 18.289C935.298 18.289 934.728 17.3785 935.298 15.9379C935.808 14.6474 937.45 13.587 938.941 13.587C940.432 13.587 942.524 12.7466 943.575 11.7262C946.267 9.10511 950.36 8.775 954.253 10.8759C956.084 11.8563 958.947 12.4565 960.618 12.2064C962.9 11.8662 963.4 12.4165 962.609 14.4074C961.739 16.6183 962.259 16.8983 965.662 16.068C969.725 15.0776 969.745 15.1076 967.343 19.6295C965.662 22.7908 963.41 24.4115 959.967 24.8917C954.293 25.702 951.891 23.7112 956.745 22.2105C959.847 21.2501 961.018 18.2489 959.047 16.3181C957.285 14.5974 951.951 20.5298 951.951 24.2114C951.951 26.2322 951.211 29.2234 950.32 30.8541C948.869 33.4852 949.239 33.7854 953.532 33.4952C956.875 33.2651 958.376 32.3448 958.376 30.514C958.376 26.5324 961.218 25.622 963.08 29.0034C965.532 33.4752 970.786 34.2956 971.837 30.3739C972.557 27.7028 973.108 27.4928 975.139 29.1435C976.48 30.2339 977.421 31.9346 977.231 32.9251C977.041 33.9255 978.212 34.5157 979.833 34.2455C982.125 33.8654 982.565 34.4456 981.784 36.8566C980.954 39.3977 981.364 39.8079 984.056 39.1276C986.718 38.4473 987.339 39.0376 987.339 42.2689C987.339 48.6815 989.03 51.2025 993.314 51.2025C996.826 51.2025 997.207 51.7127 996.306 55.2042C995.335 58.9757 995.485 59.0958 998.948 57.225C1000.97 56.1346 1003.21 55.4143 1003.94 55.6144C1004.67 55.8245 1004.81 55.2643 1004.25 54.3839C1003.09 52.5531 1004.28 52.4131 1009.54 53.7937C1012.73 54.624 1013.09 55.4243 1012.15 59.6461C1011.55 62.3372 1010.25 65.0783 1009.26 65.7386C1008.03 66.5689 1008.45 67.6895 1010.63 69.3101C1013.5 71.441 1013.92 71.4009 1014.94 68.8899C1016.62 64.7382 1016.5 63.4477 1014.53 64.6381C1013.29 65.3885 1013.3 64.7182 1014.58 62.3772C1016.8 58.3355 1017.72 58.2555 1020.48 61.797C1022.38 64.228 1022.63 64.258 1022.68 61.997C1022.74 59.0958 1018.93 55.4444 1017.4 56.935C1016.85 57.4752 1017.09 55.5344 1017.95 52.6232C1018.81 49.712 1019.56 46.9709 1019.62 46.5407C1019.68 46.1005 1020.35 47.1609 1021.13 48.8816C1022.47 51.9429 1022.51 51.9329 1022.62 48.6816C1022.74 44.98 1026.4 41.2284 1028.19 42.9691C1028.82 43.5794 1029.95 43.1193 1030.69 41.9388C1032.33 39.3477 1037.75 40.9784 1036.81 43.7795C1036.45 44.85 1034.52 45.9704 1032.53 46.2505C1030.18 46.5907 1029.22 47.541 1029.79 48.9916C1030.3 50.2922 1029.69 51.2125 1028.31 51.2125C1026.82 51.2125 1025.95 52.7632 1025.95 55.4043V59.596L1029.67 56.1847C1034 52.2231 1035.6 51.9029 1035.6 55.0042C1035.6 56.2247 1036.34 57.4652 1037.23 57.7553C1038.16 58.0554 1037.66 59.9563 1036.05 62.1972C1034.51 64.3481 1033.46 67.3993 1033.74 68.9899C1034.1 71.0708 1033.41 71.7011 1031.29 71.2809C1029.36 70.8908 1028.48 69.5001 1028.74 67.2192C1028.95 65.3084 1028.79 63.7578 1028.38 63.7578C1027.58 63.7578 1022.73 72.4414 1022.73 73.872C1022.73 75.8728 1035.51 74.6022 1036.73 72.4814C1037.83 70.5606 1038.57 70.6307 1041.69 72.9316C1045.23 75.5427 1045.27 75.8328 1042.87 81.4552C1040.03 88.0979 1041.35 88.8282 1049.1 84.8865C1054.63 82.0754 1055.8 82.6956 1053.35 87.1375C1051.92 89.7486 1052.03 90.4088 1053.87 90.4088C1057.1 90.4088 1056.58 102.514 1053.28 103.914C1051.47 104.685 1051.88 105.215 1054.89 106.005C1057.56 106.716 1058.81 108.076 1058.62 110.077C1058.46 111.728 1059.11 113.538 1060.04 114.099C1062.6 115.639 1059.76 118.981 1056.56 118.17C1054.9 117.75 1052.92 118.801 1051.66 120.781C1049.71 123.843 1049.76 123.923 1052.34 121.852C1054.71 119.941 1055.34 119.931 1056.51 121.772C1057.27 122.972 1057.55 124.473 1057.14 125.123C1056.73 125.773 1057.94 127.104 1059.84 128.085C1064.84 130.696 1061.42 133.277 1055.74 131.176L1051.25 129.515L1053.92 133.487C1055.92 136.458 1056.17 138.219 1054.94 140.47C1052.82 144.331 1052.86 146.912 1054.98 143.361C1055.86 141.89 1057.59 141.06 1058.83 141.53C1060.41 142.12 1060.86 141.49 1060.31 139.469C1059.7 137.178 1060.49 136.498 1064.04 136.298C1068.33 136.058 1068.37 136.118 1064.87 137.488C1061.82 138.689 1061.47 139.469 1062.86 142C1064.97 145.852 1065 147.292 1062.93 146.042C1060.85 144.791 1060.9 145.782 1063.16 150.624C1064.17 152.795 1065.44 154.305 1065.97 153.985C1066.5 153.665 1066.94 155.836 1066.94 158.807C1066.94 163.789 1066.62 164.139 1062.94 163.239C1060.74 162.699 1058.39 161.428 1057.73 160.428C1056.82 159.037 1056.53 159.037 1056.51 160.448C1056.47 163.359 1060.79 166.81 1066.93 168.781C1073.14 170.782 1073.82 172.103 1070.12 175.094C1066.3 178.185 1068.61 178.745 1073.17 175.834C1075.42 174.394 1077.95 173.633 1078.79 174.144C1079.63 174.654 1081.53 174.614 1083.01 174.064C1085.17 173.253 1085.28 172.783 1083.56 171.673C1081.84 170.562 1081.98 169.872 1084.29 168.151C1086.77 166.3 1088.07 166.42 1093.54 169.001C1097.04 170.652 1099.91 172.873 1099.91 173.933C1099.91 176.455 1093.11 179.316 1082.46 181.286C1072.62 183.107 1070.52 184.078 1071.89 186.219C1072.5 187.179 1073.72 187.059 1075.16 185.898C1076.97 184.438 1078.15 184.648 1080.71 186.909C1083.34 189.24 1083.78 189.31 1082.98 187.289C1082.44 185.918 1082.77 184.328 1083.71 183.757C1084.77 183.127 1085.43 184.288 1085.43 186.739C1085.43 188.94 1086.2 190.75 1087.13 190.75C1088.06 190.75 1088.41 190.09 1087.91 189.29C1087.4 188.489 1087.72 187.389 1088.62 186.849C1089.52 186.309 1090.31 186.439 1090.37 187.129C1090.66 190.12 1091.71 193.452 1094.05 198.784C1095.42 201.905 1096.09 204.906 1095.54 205.447C1094.98 205.987 1095.73 206.437 1097.22 206.437C1098.7 206.437 1099.9 207.137 1099.9 208.008C1099.9 208.878 1099.09 209.578 1098.11 209.578C1097.01 209.578 1096.71 210.939 1097.37 213.1C1099.37 219.783 1100.04 222.914 1100.67 228.386C1101.01 231.407 1101.99 237.75 1102.85 242.492C1103.7 247.234 1104.03 251.706 1103.57 252.436C1103.12 253.166 1103.64 255.387 1104.73 257.378C1106.12 259.909 1106.25 262.33 1105.18 265.451C1103.99 268.913 1104.31 271.074 1106.62 275.085C1108.28 277.967 1109.26 282.018 1108.85 284.229C1108.33 287.03 1108.72 287.981 1110.19 287.43C1111.33 287 1113.28 287.36 1114.53 288.221C1116.36 289.491 1116.29 289.631 1114.14 288.971C1110.22 287.761 1109.42 289.401 1112.05 293.313C1114.14 296.424 1114.03 297.115 1110.94 300.356C1108.47 302.927 1108.04 304.267 1109.42 305.098C1110.48 305.738 1111.22 306.889 1111.07 307.679C1110.43 310.99 1111.34 312.071 1112.93 309.89C1114.44 307.799 1114.55 307.799 1113.91 309.89C1113.51 311.18 1112.37 312.061 1111.38 311.851C1110.39 311.631 1109.56 312.461 1109.56 313.681C1109.56 314.902 1109.12 317.023 1108.59 318.383C1108.04 319.774 1108.44 320.864 1109.49 320.864C1110.55 320.864 1110.93 320.164 1110.38 319.294C1109.83 318.433 1110.07 317.723 1110.9 317.723C1111.73 317.723 1112.81 319.204 1113.3 321.014C1114.02 323.696 1113.59 324.156 1110.98 323.485C1108.4 322.825 1108.14 323.085 1109.62 324.826C1110.72 326.096 1111.16 330.148 1110.72 334.69C1110.06 341.623 1110.28 342.313 1112.99 341.623C1114.65 341.203 1116 341.563 1116 342.433C1116 344.344 1111.42 346.255 1109.53 345.114C1108.78 344.664 1107.68 345.094 1107.06 346.065C1106.44 347.035 1106.86 348.386 1107.99 349.066C1109.11 349.746 1109.58 351.477 1109.01 352.908C1108.44 354.338 1107.44 355.189 1106.76 354.788C1106.09 354.388 1105.37 360.301 1105.15 367.944C1104.82 379.699 1105.18 382.09 1107.56 383.58C1109.94 385.061 1109.97 385.211 1107.71 384.541C1105.27 383.81 1105.12 388.042 1105.85 437.313L1106.64 490.885L1102.88 497.928C1099.95 503.41 1097.65 505.501 1092.51 507.332C1088.88 508.632 1084.82 510.583 1083.47 511.673C1080.36 514.205 1075.3 512.444 1076.55 509.263C1077.06 507.962 1075.96 503.83 1074.11 500.099C1071 493.866 1070.73 490.685 1070.8 461.743C1070.87 431.03 1070.78 430.1 1067.31 427.229C1063.95 424.447 1063.91 424.147 1066.56 422.136C1070.09 419.465 1070.14 418.005 1066.71 418.005C1064.25 418.005 1064.26 417.775 1066.77 415.073C1069.35 412.292 1069.29 412.172 1065.52 412.572C1062.68 412.883 1061.8 412.372 1062.42 410.792C1062.9 409.581 1062.49 408.591 1061.51 408.591C1060.53 408.591 1059.73 409.651 1059.73 410.942C1059.73 412.232 1058.95 413.293 1058.02 413.293C1057.09 413.293 1056.76 412.592 1057.31 411.722C1057.86 410.862 1057.58 410.151 1056.7 410.151C1055.82 410.151 1054.65 410.862 1054.1 411.722C1053.56 412.582 1053.96 413.293 1055.01 413.293C1056.41 413.293 1056.36 413.943 1054.85 415.714C1053.29 417.544 1053.24 418.565 1054.65 419.945C1057.58 422.797 1056.85 424.267 1052.49 424.267C1050.28 424.267 1048.47 423.557 1048.47 422.697C1048.47 421.836 1049.24 421.126 1050.17 421.126C1051.1 421.126 1051.34 420.286 1050.69 419.265C1049.89 417.995 1049.01 418.495 1047.94 420.836C1047.08 422.727 1045.65 424.267 1044.79 424.267C1042.17 424.267 1037.05 430.99 1037.95 433.271C1038.41 434.441 1038.08 434.972 1037.2 434.452C1036.32 433.921 1035.53 431.24 1035.43 428.489C1035.32 425.738 1034.91 424.728 1034.51 426.228C1034.1 427.739 1032.73 428.969 1031.47 428.969C1030.21 428.969 1029.18 430.03 1029.18 431.32C1029.18 432.611 1028.23 433.671 1027.07 433.671C1025.91 433.671 1023.41 435.082 1021.51 436.802C1017.82 440.154 1015.3 440.784 1014.44 438.583C1014.14 437.833 1012.58 437.683 1010.96 438.253C1008.16 439.233 1008.18 439.474 1011.36 443.135C1013.55 445.656 1014.37 446.046 1013.73 444.245C1012.58 441.024 1013.96 440.494 1015.21 443.675C1015.68 444.876 1015.01 447.317 1013.72 449.108C1011.72 451.889 1010.8 452.109 1007.41 450.608C1003.16 448.717 1002.16 445.406 1005.45 444.115C1006.99 443.515 1007 443.295 1005.49 443.205C1004.41 443.135 1002.4 445.196 1001.03 447.787C998.047 453.409 996.506 453.669 994.054 448.958C992.393 445.776 992.253 445.736 992.513 448.567C993.003 453.91 990.511 459.072 987.909 458.091C986.138 457.431 985.798 457.991 986.558 460.332C987.349 462.763 986.838 463.454 984.246 463.454C981.654 463.454 980.924 462.453 980.924 459.442C980.924 457.121 980.233 455.85 979.293 456.421C978.392 456.961 977.952 457.881 978.322 458.471C978.682 459.062 977.932 460.492 976.631 461.663C974.629 463.463 974.149 463.283 973.388 460.452C972.667 457.781 972.047 457.491 970.205 458.972C968.944 459.992 968.224 461.613 968.614 462.583C969.065 463.734 967.263 464.214 963.46 463.984C957.946 463.634 957.886 463.674 962.439 464.744C965.712 465.514 966.603 466.285 965.231 467.125C964.111 467.815 963.57 468.956 964.01 469.666C964.461 470.376 963.72 471.377 962.349 471.887C960.988 472.397 960.017 473.708 960.197 474.798C960.378 475.889 959.967 478.02 959.287 479.54C957.495 483.532 961.318 487.383 965.932 486.253C967.994 485.753 969.675 485.973 969.675 486.753C969.675 487.534 968.224 488.534 966.452 488.984C964.681 489.434 963.24 490.655 963.24 491.685C963.24 492.716 964.271 493.176 965.542 492.706C966.813 492.235 968.204 492.686 968.624 493.716C969.205 495.107 969.445 495.087 969.535 493.636C969.725 490.585 972.857 491.325 976.18 495.207C977.941 497.258 979.222 497.878 979.252 496.677C979.282 495.547 980.033 495.067 980.914 495.597C982.275 496.417 983.246 493.446 982.765 489.884C982.695 489.324 984.076 489.234 985.838 489.684C987.889 490.205 988.75 491.415 988.229 493.046C987.779 494.446 988.119 496.647 988.96 497.948C990.341 500.039 990.511 500.039 990.581 497.948C990.621 496.657 991.722 494.226 993.023 492.546C994.865 490.185 995.826 489.915 997.317 491.375C998.808 492.826 998.808 493.246 997.317 493.246C996.256 493.246 995.385 494.396 995.385 495.787C995.385 497.738 995.886 497.928 997.547 496.587C998.738 495.627 1000.18 495.307 1000.76 495.867C1001.34 496.437 1001.82 496.077 1001.82 495.067C1001.82 494.056 1003.3 493.236 1005.12 493.236C1008.15 493.236 1008.05 493.586 1003.91 497.388C999.679 501.289 999.628 501.489 1003.05 500.659C1005.1 500.159 1007.64 500.699 1008.87 501.889C1010.53 503.51 1011.48 503.57 1012.93 502.159C1014.79 500.349 1016.57 501.769 1018.47 506.551C1018.86 507.552 1020.29 507.432 1022.37 506.241C1025.23 504.601 1025.76 504.821 1026.58 508.002C1027.1 510.003 1029.44 512.874 1031.79 514.385C1035.96 517.046 1036.05 517.036 1035.22 513.924C1034.06 509.603 1039.83 508.032 1042.04 512.064C1043.26 514.285 1043.01 515.055 1040.95 515.445C1039.48 515.725 1038.17 517.466 1038.02 519.327C1037.85 521.588 1038.48 522.428 1039.96 521.878C1041.17 521.428 1042.04 521.678 1041.9 522.428C1041.75 523.178 1041.74 525.909 1041.86 528.5C1042 531.582 1042.53 532.502 1043.38 531.192C1045.1 528.55 1044.7 524.639 1042.27 520.277C1040.05 516.295 1041.45 515.845 1047.58 518.566C1050.27 519.757 1051.67 521.638 1051.67 524.049C1051.67 528.33 1052.8 528.62 1056.57 525.299C1059.05 523.118 1059.41 523.118 1060.29 525.359C1061.49 528.42 1057.87 529.961 1052.57 528.67C1047.67 527.47 1046.45 529.201 1049.4 533.132C1050.65 534.793 1051.67 535.313 1051.67 534.293C1051.67 533.272 1053.03 532.432 1054.7 532.432C1057.34 532.432 1059.32 535.363 1060.5 541.056C1060.68 541.916 1061.38 543.857 1062.05 545.367C1062.72 546.878 1062.83 549.229 1062.29 550.6C1061 553.891 1062.9 556.952 1064.59 554.291C1065.57 552.74 1066.44 552.88 1068.52 554.911C1069.99 556.342 1070.42 557.523 1069.47 557.523C1068.52 557.523 1067.75 558.223 1067.75 559.093C1067.75 561.274 1073.14 561.054 1075.47 558.783C1076.73 557.553 1077.4 557.492 1077.4 558.583C1077.4 559.513 1076.31 561.154 1074.99 562.224C1073.67 563.295 1072.58 565.706 1072.58 567.587C1072.58 569.467 1071.71 571.848 1070.64 572.879C1069.14 574.339 1069.32 574.76 1071.45 574.76C1074.96 574.76 1074.93 576.2 1071.37 578.901C1068.96 580.732 1068.94 580.912 1071.21 580.142C1072.68 579.652 1074.41 580.112 1075.08 581.162C1075.86 582.393 1075.63 582.673 1074.44 581.963C1073.42 581.352 1072.58 581.592 1072.58 582.503C1072.58 583.413 1073.38 584.164 1074.36 584.164C1075.34 584.164 1075.73 585.204 1075.24 586.464C1074.74 587.735 1075.04 589.196 1075.91 589.716C1076.78 590.236 1077.29 589.776 1077.04 588.685C1076.8 587.595 1077.86 586.434 1079.41 586.104C1081.16 585.734 1082.22 586.444 1082.22 587.975C1082.22 589.326 1081.5 590.436 1080.61 590.436C1079.72 590.436 1079 592.627 1079 595.318C1079 600.17 1079.03 600.18 1083.02 597.639C1086.96 595.118 1087.05 595.158 1087.05 599.19C1087.05 602.211 1086.41 603.071 1084.64 602.411C1083.31 601.911 1082.22 602.191 1082.22 603.031C1082.22 604.432 1084.54 605.182 1087.45 604.732C1089.09 604.482 1088.93 607.963 1087.19 610.655C1086.37 611.925 1084.62 612.415 1083.04 611.825C1078.87 610.264 1076.83 612.405 1080.11 614.886C1082.91 616.997 1082.9 617.177 1079.9 619.438C1077.18 621.489 1077.13 621.789 1079.5 621.789C1080.99 621.789 1082.21 622.499 1082.21 623.36C1082.21 624.22 1081.49 624.93 1080.6 624.93C1079.71 624.93 1078.99 625.941 1078.99 627.181C1078.99 628.862 1077.06 629.352 1071.37 629.142C1065.48 628.912 1063.65 629.432 1063.26 631.393C1062.96 632.924 1064.22 634.384 1066.45 635.065C1069.82 636.105 1069.58 636.385 1063.71 638.276C1060.18 639.416 1058.18 640.417 1059.29 640.477C1060.4 640.547 1061.3 641.357 1061.3 642.278C1061.3 644.388 1057.13 648.56 1056.06 647.52C1055.63 647.1 1054.89 648.18 1054.42 649.931C1053.63 652.882 1053.81 652.942 1056.98 650.771C1062.56 646.96 1065.04 647.77 1061.94 652.372C1059.35 656.233 1059.39 656.333 1064.32 658.004C1071.2 660.345 1070.68 662.646 1063.71 660.775C1056.79 658.914 1053.54 660.475 1050.72 667.008C1048.94 671.13 1048.97 672.25 1050.94 674.161C1054.03 677.172 1053.88 678.783 1050.62 677.562C1048.42 676.742 1048.32 676.972 1050 678.943C1051.11 680.243 1052.59 680.964 1053.31 680.533C1054.02 680.113 1055.02 680.643 1055.54 681.724C1056.29 683.295 1056.67 683.295 1057.42 681.744C1057.94 680.663 1059.33 679.783 1060.5 679.783C1062.05 679.783 1062.31 680.974 1061.45 684.095C1060.68 686.886 1059.18 688.407 1057.18 688.407C1055.49 688.407 1053.86 689.647 1053.57 691.148C1052.95 694.319 1049.94 694.719 1047.16 692.008C1045.68 690.578 1044.77 690.568 1043.35 691.958C1041.92 693.349 1042.11 694.029 1044.15 694.789C1049.26 696.7 1046.81 698.321 1039.19 698.061C1034.11 697.894 1031.69 699.458 1031.94 702.753C1032.25 706.684 1031.75 707.625 1029.53 707.305C1026.29 706.834 1021.1 709.616 1021.1 711.816C1021.1 712.647 1021.97 712.477 1023.03 711.436C1025.64 708.895 1029.13 709.055 1029.13 711.726C1029.13 712.917 1030.76 714.407 1032.75 715.028C1035.82 715.988 1035.94 716.278 1033.56 716.888C1032.01 717.289 1030.74 718.209 1030.74 718.929C1030.74 719.65 1032.18 719.87 1033.94 719.42C1035.96 718.899 1037.5 719.53 1038.13 721.12C1038.68 722.501 1039.72 723.281 1040.45 722.841C1041.18 722.401 1042.28 722.831 1042.89 723.801C1043.68 725.042 1042.41 725.252 1038.58 724.512C1034.53 723.731 1033.77 723.881 1035.57 725.132C1037.71 726.613 1037.71 726.963 1035.57 728.333C1032.38 730.374 1031.17 730.314 1029.74 728.063C1029.09 727.033 1029.41 725.922 1030.45 725.582C1031.49 725.242 1032.34 724.402 1032.34 723.711C1032.34 721.851 1026.06 720.59 1025.02 722.241C1024.52 723.021 1023.33 723.661 1022.36 723.661C1021.39 723.661 1021.95 722.211 1023.59 720.43C1026.16 717.669 1026.25 716.989 1024.24 715.758C1022.64 714.778 1021.31 715.078 1020.05 716.698C1018.29 718.989 1015.6 718.949 1007.23 716.548C1004.7 715.818 1003.62 716.368 1002.99 718.719C1002.36 721.08 1002.81 721.69 1004.78 721.15C1006.23 720.76 1005.78 721.27 1003.8 722.291C1001.81 723.311 1000.18 725.452 1000.18 727.043C1000.18 728.633 999.468 729.934 998.608 729.934C997.747 729.934 997.457 727.883 998.007 725.232C998.658 722.041 998.327 720.53 996.986 720.53C995.896 720.53 995.385 721.51 995.856 722.701C996.326 723.891 995.776 726.182 994.635 727.793C991.702 731.925 990.031 737.767 991.772 737.767C992.583 737.767 994.935 736.347 996.996 734.596C1001.8 730.534 1005.34 733.065 1001.15 737.567C998.127 740.828 998.638 741.489 1005.39 743.059C1012.54 744.72 1010.68 747.471 1002.98 746.611C999.218 746.191 994.625 745.39 992.763 744.82C989.491 743.82 989.39 744.25 989.551 757.896C989.701 770.021 990.211 772.512 993.183 775.653C997.887 780.615 1004.99 793.36 1004.98 796.842C1004.98 798.402 1002.81 801.083 1000.16 802.814C996.256 805.345 995.345 807.056 995.335 811.728C995.335 814.909 996.056 817.95 996.936 818.481C999.648 820.121 998.718 826.924 995.325 830.236C991.442 834.017 983.696 834.277 971.276 831.056C966.452 829.805 962.269 829.005 961.989 829.295C961.699 829.575 962.119 831.486 962.91 833.547C963.71 835.608 964.011 839.579 963.58 842.381C962.97 846.342 963.38 847.473 965.391 847.473C966.823 847.473 968.044 848.003 968.114 848.653C968.184 849.303 968.524 853.965 968.864 859.028C969.215 864.09 969.895 869.462 970.386 870.962C970.956 872.693 969.475 875.584 966.372 878.826C961.899 883.488 960.858 883.858 954.673 882.987C935.788 880.326 931.555 877.005 933.937 866.681C935.008 862.029 934.688 859.518 932.506 855.556C930.884 852.615 929.233 851.154 928.623 852.115C928.032 853.045 926.881 853.395 926.061 852.895C923.729 851.494 924.299 847.763 926.941 847.203C928.643 846.842 928.873 846.042 927.742 844.341C926.501 842.471 925.901 842.401 924.84 844.001C923.259 846.392 917.704 844.762 918.645 842.19C919.005 841.22 920.837 840.59 922.728 840.8C926.431 841.2 927.462 838.849 924.159 837.539C922.578 836.908 922.598 836.438 924.249 835.298C926.441 833.797 925.44 826.254 922.838 824.683C922.088 824.233 921.887 822.822 922.388 821.542C922.888 820.271 922.568 818.351 921.677 817.28C919.105 814.219 918.995 809.447 921.407 804.595C923.368 800.623 923.308 799.893 920.877 798.152C917.514 795.761 917.214 791.94 920.486 793.17C923.899 794.451 924.77 792.11 923.579 784.847C922.698 779.444 922.047 778.594 919.445 779.394C915.993 780.465 911.689 777.694 911.689 774.412C911.689 771.711 918.345 771.571 921.217 774.212C922.968 775.823 923.148 775.103 922.228 770.101C921.617 766.759 920.326 762.788 919.355 761.277C917.534 758.436 917.164 758.556 910.719 764.258C908.587 766.139 907.866 766.049 905.545 763.648C904.063 762.117 903.673 761.297 904.694 761.847C907.296 763.258 908.487 759.276 906.285 756.525C904.214 753.944 900.751 753.644 897.298 755.745C896.017 756.525 892.214 757.005 888.851 756.815C883.087 756.485 880.795 758.366 884.348 760.507C885.238 761.037 885.959 762.848 885.959 764.518C885.959 766.189 885.238 767.56 884.348 767.56C883.457 767.56 882.737 766.779 882.737 765.829C882.737 764.878 881.636 764.498 880.295 765.008C878.944 765.509 876.412 764.528 874.67 762.828C870.927 759.186 869.646 758.876 870.847 761.917C871.708 764.108 868.786 767.019 867.245 765.509C866.494 764.778 865.473 760.887 865.183 757.575C865.113 756.825 863.942 757.105 862.581 758.216C860.699 759.736 859.648 759.776 858.237 758.406C857.217 757.405 854.985 756.585 853.284 756.585C850.732 756.585 850.541 756.185 852.173 754.254C853.784 752.363 853.674 751.733 851.582 750.953C850.161 750.422 849.37 749.402 849.811 748.692C851.072 746.701 848.29 745.65 845.778 747.171C844.397 748.001 841.784 747.641 839.002 746.241C836 744.73 833.518 744.44 831.667 745.37C828.254 747.091 822.699 746.391 821.929 744.15C821.589 743.169 820.408 743.45 818.967 744.85C816.224 747.521 811.04 747.941 809.559 745.62C809.019 744.76 807.087 744.05 805.276 744.05C803.044 744.05 802.273 743.309 802.884 741.749C804.095 738.677 800.732 736.797 798.951 739.538C797.87 741.199 797.54 741.229 797.52 739.668C797.5 738.557 796.589 737.757 795.488 737.897C790.985 738.467 789.813 737.547 788.803 732.685C787.982 728.683 787.422 728.093 786.211 729.944C784.98 731.835 784.67 731.595 784.65 728.713C784.63 725.662 785.08 725.372 787.742 726.753C791.815 728.883 792.736 728.803 791.795 726.412C790.704 723.651 783.018 723.451 783.018 726.182C783.018 728.914 780.726 728.984 778.335 726.182C777.304 724.982 775.052 724.362 773.311 724.802C771.579 725.242 768.297 724.422 766.025 722.961C762.712 720.85 761.421 720.71 759.51 722.251C757.758 723.671 757.628 724.482 759.019 725.312C760.08 725.952 760.36 727.323 759.65 728.433C758.699 729.934 757.878 729.734 756.257 727.563C754.856 725.702 754.656 724.081 755.657 722.901C756.738 721.63 755.527 720.46 751.604 718.959C748.531 717.779 746.019 716.208 746.019 715.458C746.019 714.708 746.74 714.528 747.63 715.058C748.511 715.598 749.232 715.618 749.232 715.108C749.232 713.557 740.575 710.626 737.172 711.016L733.95 711.386L737.172 709.005C739.364 707.385 739.614 706.734 737.973 706.964C736.652 707.155 734.78 707.785 733.81 708.365C731.237 709.936 725.073 705.194 726.144 702.463C726.644 701.192 726.254 700.152 725.273 700.152C724.292 700.152 723.491 701.212 723.491 702.503C723.491 703.793 722.721 704.853 721.78 704.853C720.839 704.853 720.199 703.623 720.359 702.112C721 695.99 720.029 694.939 717.977 699.531C716.426 703.003 714.374 704.673 710.801 705.374C707.289 706.054 705.798 707.244 705.798 709.355C705.798 712.467 701.784 714.938 699.222 713.397C696.47 711.746 697.691 706.154 700.974 705.324C702.745 704.874 704.196 703.843 704.196 703.053C704.196 702.262 705.467 701.802 707.008 702.062C710.701 702.673 711.902 695.85 708.34 694.519C706.958 693.999 706.158 693.039 706.578 692.388C706.988 691.738 705.727 691.298 703.756 691.408C701.364 691.548 700.333 692.478 700.634 694.229C700.944 696 700.053 696.78 697.901 696.62C695.46 696.44 695.129 695.91 696.48 694.329C698.111 692.408 697.291 690.167 694.829 689.857C691.586 689.447 688.274 687.106 689.094 685.816C689.615 684.995 691.116 685.596 692.417 687.156C693.728 688.717 694.269 688.937 693.628 687.646C691.556 683.475 687.733 679.863 686.302 680.724C685.532 681.184 684.901 680.463 684.901 679.123C684.901 677.782 684.181 676.682 683.3 676.682C681.779 676.682 681.018 678.983 681.548 681.934C681.679 682.664 679.897 681.814 677.585 680.033C673.592 676.972 673.222 676.942 670.4 679.513C668.759 680.994 666.667 684.145 665.746 686.516C664.125 690.658 663.945 690.718 660.812 688.107C657.44 685.285 656.359 679.813 659.171 679.813C660.051 679.813 660.782 678.763 660.782 677.462C660.782 676.162 661.603 675.281 662.594 675.501C663.594 675.721 664.755 674.951 665.186 673.801C666.577 670.079 658.5 672.47 656.789 676.282C655.918 678.223 654.527 679.803 653.707 679.803C652.886 679.803 652.686 679.343 653.266 678.773C653.847 678.203 653.547 676.822 652.586 675.701C650.644 673.421 652.145 669.849 654.457 671.25C655.278 671.75 655.958 671.4 655.958 670.489C655.958 669.579 654.868 668.829 653.547 668.829C652.225 668.829 651.135 669.539 651.135 670.399C651.135 671.26 650.044 671.97 648.723 671.97C647.402 671.97 646.311 672.78 646.311 673.761C646.311 674.741 645.04 676.512 643.499 677.682C640.867 679.683 640.887 679.753 643.759 678.763C645.74 678.082 646.461 678.302 645.78 679.373C645.19 680.313 641.037 680.834 636.273 680.574C630.458 680.253 626.966 680.844 625.104 682.474C623.603 683.775 621.431 684.505 620.27 684.105C619.109 683.705 616.838 684.045 615.216 684.855C611.413 686.766 609.892 685.275 612.504 682.204C614.166 680.253 614.125 679.813 612.274 679.813C609.452 679.813 608.761 686.336 611.403 687.977C612.554 688.687 611.413 689.187 608.611 689.197C604.378 689.217 604.178 689.437 606.69 691.218C610.513 693.949 608.601 699.191 604.548 697.08C602.987 696.26 601.245 696.04 600.695 696.59C600.134 697.13 599.674 696.05 599.674 694.179C599.674 692.308 598.833 690.788 597.793 690.788C596.752 690.788 596.392 691.248 596.972 691.818C597.552 692.388 597.302 693.709 596.411 694.749C594.02 697.55 596.271 701.732 600.245 701.872C602.146 701.942 602.786 702.352 601.676 702.783C600.575 703.213 599.664 704.573 599.664 705.794C599.664 707.215 597.933 708.015 594.84 708.015C592.188 708.015 590.107 707.485 590.207 706.844C590.817 703.043 589.706 700.182 587.604 700.182C586.273 700.182 585.193 700.932 585.193 701.842C585.193 702.753 585.903 703.073 586.784 702.543C587.725 701.972 587.945 702.663 587.335 704.233C586.374 706.684 586.123 706.664 584.132 704.013C582.471 701.802 581.98 701.672 581.98 703.483C581.98 704.773 582.871 706.684 583.962 707.755C585.533 709.285 584.692 709.485 579.939 708.755C574.204 707.865 573.053 708.665 573.724 713.057C573.814 713.677 572.703 713.737 571.242 713.187C569.18 712.417 568.78 712.907 569.43 715.348C570.621 719.78 565.097 723.121 561.334 720.26C559.012 718.489 558.912 718.529 560.563 720.61C561.794 722.151 561.955 723.841 561.014 725.312C559.823 727.193 558.962 727.253 556.35 725.682C554.348 724.472 552.797 724.322 552.187 725.292C551.646 726.132 552.337 726.833 553.718 726.833C555.099 726.833 556.22 727.893 556.22 729.184C556.22 730.474 555.499 731.535 554.609 731.535C553.718 731.535 553.008 730.944 553.008 730.224C553.008 729.504 551.917 728.914 550.595 728.914C549.274 728.914 548.524 729.244 548.924 729.644C550.195 730.874 546.492 736.367 545.001 735.466C544.231 735.006 543.26 735.866 542.849 737.377C542.159 739.958 542.099 739.948 541.929 737.307C541.829 735.746 541.018 734.906 540.137 735.446C539.247 735.976 538.526 735.636 538.526 734.696C538.526 733.585 537.726 733.695 536.284 734.996C533.893 737.147 534.513 740.038 537.035 738.517C537.856 738.017 538.536 738.688 538.536 739.998C538.536 741.309 537.075 743.149 535.294 744.08C532.742 745.41 531.851 745.25 531.09 743.31C530.4 741.569 529.549 741.319 528.148 742.449C527.067 743.32 525.706 743.58 525.115 743.009C524.535 742.439 524.055 743.229 524.055 744.76C524.055 746.581 523.224 747.231 521.663 746.651C520.232 746.111 518.55 747.071 517.48 749.022C516.459 750.883 516.369 751.873 517.289 751.323C518.17 750.793 519.291 751.393 519.791 752.653C521.002 755.745 518.63 756.925 513.667 755.705C507.041 754.084 501.677 756.045 502.678 759.746C503.248 761.857 502.728 762.888 501.097 762.888C498.965 762.888 498.695 775.593 498.895 870.642C499.115 973.655 498.985 978.607 496.093 983.279C490.418 992.403 480.951 995.464 472.384 990.922L472.364 990.712Z" fill="black"/>
</svg>
