<svg width="472" height="391" viewBox="0 0 472 391" fill="none" xmlns="http://www.w3.org/2000/svg">
<path fill-rule="evenodd" clip-rule="evenodd" d="M425.3 75.0764C424.18 79.4564 422.85 83.8065 422.15 88.2365C421.91 89.6665 422.89 92.0865 424.18 92.6465C427.08 93.9065 429.84 92.8364 430.85 90.0564C431.38 88.5764 431.23 86.9164 431.4 85.3464C431.72 82.3664 432.05 79.3864 432.56 74.8564C434.91 80.4264 438.96 85.0364 437.62 87.8464C434.22 94.9264 436.08 101.846 435.84 108.776C435.41 120.926 432.76 132.246 423.3 141.056C423.41 145.486 424.24 149.467 423.43 153.197C421.9 160.176 419.33 166.996 417.36 173.916C415.56 180.306 414.41 186.846 412.17 193.126C409.64 200.216 405.97 207.006 403.32 214.066C401.07 220.046 398.27 226.076 401.57 232.596C402.29 234.026 401.9 236.456 400.86 237.826C396.74 243.306 391.63 248.297 387.91 253.947C384.94 258.477 379.13 262.547 382.45 269.227C371.76 269.577 371.15 277.766 365.94 282.566C373.85 287.036 376.38 287.066 381.96 282.126C386.94 277.716 392.02 273.266 396.08 268.276C401.55 261.586 410.35 256.876 412.84 248.366C413.33 246.716 415.73 245.466 417.24 244.026C417.97 244.336 418.7 244.657 419.42 244.967C417.17 251.327 414.56 257.606 412.75 264.056C410.87 270.726 409.76 277.536 408.1 285.256C413.48 279.976 418.19 275.376 422.88 270.776C423.36 273.456 422.68 275.456 421.4 277.116C417.82 281.766 413.07 285.947 410.44 290.936C406.01 299.316 399.2 306.146 392.74 313.306C386.77 319.916 377.91 324.857 375.69 333.717C375.42 334.777 373.48 335.497 372.45 336.467C369.59 339.157 365.71 341.536 364.2 344.697C361.27 350.837 355.78 354.467 349.57 357.737C346.64 359.277 343.58 360.636 341.92 361.426C337.66 361.036 334.33 359.937 331.85 360.707C328.9 361.627 326.67 364.166 324.67 365.616C321.27 365.246 318.06 364.197 315.27 364.717C306.36 366.347 297.57 368.466 288.81 370.576C280.99 372.466 273.41 374.067 267.36 367.467C266.96 367.027 265.61 367.196 264.66 367.076C263.93 367.696 263.17 368.196 262.66 368.816C257.94 374.666 255.33 374.616 250.73 368.866C249.66 367.526 247.7 366.306 245.86 365.826C242.56 364.976 239.05 364.657 235.61 364.227C227.96 363.277 219.419 363.936 215.779 356.096C215.509 355.516 214.16 355.326 213.42 354.846C211.07 353.326 208.78 351.746 205.56 349.586C200.12 352.796 193.88 350.496 187.59 348.546C181.16 346.556 174.8 344.387 168.26 342.697C163.1 341.357 157.5 341.806 153.27 337.646C151.57 335.976 146.72 335.996 143.42 336.256C142.07 336.366 141.04 339.167 140.06 340.487C135.51 340.307 131.2 340.127 126.91 339.957C121.39 330.477 114.15 323.066 100.17 322.586C96.1801 322.456 94.2799 319.517 93.7599 316.487C92.77 310.687 87.52 308.896 82.0099 307.406C79.9799 306.846 77.6897 306.986 77.0197 306.926C68.7897 297.716 61.4803 289.146 53.6603 280.916C45.1603 271.966 36.8997 262.996 32.2697 252.056C28.9497 244.206 25.8998 236.216 21.5598 228.756C19.0998 224.536 18.2201 220.407 17.4401 215.967C15.3001 203.867 19.3599 190.947 10.6599 179.707C10.3599 179.317 10.5797 178.666 10.5197 178.136C9.59972 168.606 10.1398 159.336 4.05976 150.046C-1.09024 142.186 -0.50003 132.016 2.02997 122.826C6.67997 105.966 13.9101 89.8765 24.9601 75.1565C29.4601 69.1465 34.3399 63.5365 41.1999 58.9165C47.2299 54.8565 51.1595 48.6864 56.7795 44.1064C61.4095 40.3264 66.8697 35.2963 72.4797 34.7763C80.7597 34.0363 85.1803 30.1665 90.4103 26.1965C93.6503 23.7265 97.0299 21.0864 100.93 19.5464C123.23 10.7064 146.18 3.37641 171.13 1.84641C179.33 1.34641 187.58 1.12645 195.8 1.13645C211.61 1.15645 227.81 -0.343444 243.13 1.99656C267.21 5.68656 291.5 9.5464 314.41 17.3364C320.83 19.5364 326.27 22.2865 328.58 28.9065C330.06 33.1565 331.849 39.2965 340.279 39.1665C341.439 39.1565 342.97 40.4665 343.76 41.4665C346.71 45.2065 349.55 49.0065 352.16 52.9065C356.61 59.5465 360.87 66.2864 365.58 73.5464C361.56 73.6764 359.17 75.5165 360.32 79.6465C354.91 78.8065 350.49 78.1164 345.15 77.2964C347.67 83.1464 353.76 87.6665 349.95 93.4665C354.57 95.3265 358.65 96.9765 364.11 99.1665C360.6 101.056 358.62 102.126 355.8 103.646C365.42 119.416 379.74 132.206 391.01 147.326C398.63 139.956 400.779 132.107 400.529 123.747C400.359 118.547 398 113.137 399.11 108.217C401.85 96.0365 406.01 84.0964 409.67 72.0764C409.73 71.8864 410.65 71.8863 411.33 71.7663C411.69 73.5763 412.04 75.3665 412.38 77.1665C414.38 74.6265 414.91 72.0864 415.68 69.5964C416.32 67.5564 416.51 64.7165 418.18 63.7265C424.79 59.8165 426.68 54.2264 427.97 48.1164C428.44 45.8764 430.15 44.1665 433.05 45.6465C434.03 53.3165 434.97 60.6964 435.91 68.0564C428.35 68.5364 426.649 69.7064 425.279 75.1064L425.3 75.0764ZM134.41 330.467C134.33 331.097 134.62 331.766 134.87 332.866C135.9 332.256 136.97 331.906 137 331.526C137.03 330.986 136.339 330.356 135.779 329.916C135.619 329.796 134.44 330.237 134.41 330.477V330.467ZM275.94 347.717C267.34 349.447 259.46 351.036 251.57 352.626C264.77 356.106 271.15 354.557 275.94 347.717ZM236.65 338.026C243.56 342.116 246.79 341.887 255.46 336.686C253.72 335.876 252.25 334.586 250.85 334.646C245.96 334.816 241.11 335.516 236.65 338.026ZM242.16 328.516C241.45 328.396 240.59 328.847 239.16 329.217C240.22 329.887 240.79 330.546 241.4 330.566C242.15 330.596 242.93 330.116 243.71 329.856C243.2 329.376 242.76 328.616 242.17 328.506L242.16 328.516ZM269.2 337.096C268.45 337.536 268.2 339.786 268.83 340.396C270.94 342.416 273.15 341.736 275.37 339.306C273.75 336.846 271.87 335.496 269.2 337.106V337.096ZM349.07 68.9265C344.42 63.0165 339.999 56.9565 334.779 51.4165C331.389 47.8065 326.78 45.0064 322.71 41.8464C322.36 50.5264 331.92 60.3365 349.68 72.1365C349.41 70.6165 349.58 69.5765 349.06 68.9265H349.07ZM379.84 211.296C371.17 212.786 371.24 218.727 368.13 222.487C365.04 226.217 360.65 229.336 360.69 234.536C368.43 228.006 375.2 220.956 379.84 211.296ZM251.88 318.256C252.18 317.846 251.63 317.006 251.39 316.146C250.33 316.356 249.54 316.506 248.76 316.656C249.08 317.456 249.39 318.246 249.7 319.046C250.46 318.796 251.57 318.716 251.89 318.256H251.88ZM219.36 301.096C224.6 301.236 229.86 300.686 235.11 300.436C235.26 299.706 235.41 298.977 235.56 298.237C234.02 297.777 232.26 296.656 230.95 296.947C223.88 298.487 217.21 298.216 210.88 294.916C210.36 294.646 209.63 294.337 209.12 294.447C207.72 294.737 206.389 295.246 205.029 295.666C205.779 296.926 206.23 299.036 207.34 299.306C211.22 300.266 215.33 300.996 219.37 301.096H219.36ZM73.8195 235.997C73.8395 232.057 70.9835 228.006 65.2502 223.846C65.0002 230.216 66.9995 233.067 73.8195 235.997ZM118.42 205.737C118.35 205.737 118.29 205.747 118.22 205.747C118.22 205.827 118.2 205.916 118.2 206.006C111.98 205.936 110.22 207.466 112.98 211.266C115.81 215.196 119.67 218.606 123.82 221.806C123.77 217.256 124.89 212.546 118.14 210.416C117.58 210.246 118.11 207.647 118.21 205.997C118.26 205.997 118.29 205.997 118.34 205.997C118.37 205.907 118.4 205.817 118.42 205.727C123.26 205.507 122.38 203.317 120.33 199.467C119.46 202.297 118.93 204.037 118.42 205.727V205.737ZM150.48 121.947C158.69 120.677 162.31 116.476 166.17 112.296C158.88 112.536 154.84 114.877 150.48 121.947ZM342.24 113.836C335.36 107.406 328.51 100.736 319.04 96.6565C318.2 96.2965 317.5 95.4565 316.66 95.3965C308.3 94.8865 299.54 92.4264 291.67 95.3364C286.61 97.2064 283.08 97.4965 278.57 95.1865C276.61 94.1765 273.97 94.1063 271.25 93.5263C270.75 95.6763 270.43 97.1164 269.98 99.0964C257.85 93.2664 246.41 99.5365 234 99.4665C234.14 101.377 234.26 102.856 234.44 105.266C229.51 106.056 224.41 107.216 219.22 107.606C214.22 107.996 210.66 108.676 208.01 113.176C206.24 116.176 202.3 120.616 195.89 116.866C194.88 116.276 192.15 117.756 189.37 118.526C191.45 120.816 192.89 122.406 194.67 124.356C193.27 125.856 192.32 127.826 190.61 128.556C180.14 133.066 173.29 140.816 165.87 147.916C151.4 161.746 146.24 178.507 147.42 196.436C148.33 210.366 150.86 224.206 152.61 238.096C152.73 239.036 152.41 240.026 152.15 242.266C146.92 237.736 145.56 233.046 144.45 228.356C143.47 224.216 144.24 219.466 142.09 215.896C137.3 207.966 138.98 198.906 134.66 191.036C134.15 190.086 133.3 188.936 133.56 188.076C136.01 179.896 133.11 171.156 137.94 163.176C141.75 156.856 143.25 149.926 144.32 141.866C136.11 144.366 133.35 149.766 132.41 154.276C130.83 161.806 124.75 166.886 120.68 172.916C116.52 179.106 115.43 181.076 121.27 188.406C123.89 185.746 126.25 183.356 130.21 179.326C129.83 183.286 129.45 185.426 129.42 187.576C129.35 193.606 129.21 199.646 129.55 205.656C129.66 207.646 130.72 209.867 132.17 211.467C134.11 213.597 135.38 215.307 132.98 217.717C132.47 218.217 132.44 219.286 132.64 220.006C135.27 230.276 137.299 240.746 146.779 248.656C147.889 249.576 148.82 250.657 149.71 251.737C154.17 257.117 155.24 257.246 162.23 252.886C164.87 256.836 167.56 260.727 170.05 264.686C170.9 266.056 171.73 267.626 171.76 269.126C171.98 278.086 174.79 280.836 184.32 284.876C191.91 288.086 199.599 288.026 208.279 288.836C207.759 285.886 207.43 283.936 206.92 281.036C215.85 281.166 224.19 279.996 227.59 273.896C241.81 272.666 254.62 271.186 267.47 270.526C282.32 269.776 294.47 263.876 306.85 257.916C319.44 251.866 328.529 242.636 339.029 234.666C353.039 224.056 363.21 210.897 373.89 198.227C379.54 191.537 381.7 182.766 385.29 174.896C386.4 172.476 387.05 169.916 387.9 167.416C387.9 167.446 387.92 167.477 387.92 167.497C387.72 170.277 387.95 173.126 387.17 175.796C384.74 184.216 381.85 192.546 379.29 200.936C378.96 202.026 379.49 203.286 380.58 204.626C393.16 192.926 391.55 177.396 396.18 163.126C395.19 161.676 393.42 160.967 391.44 162.957C390.04 164.357 389.11 166.066 387.96 167.636C387.96 167.586 387.93 167.537 387.92 167.497C387.92 167.427 387.92 167.376 387.93 167.316C387.92 167.346 387.9 167.386 387.9 167.416C387.59 166.416 386.92 165.316 387.29 164.566C391.19 156.776 384.34 152.986 378.99 148.656C376.55 146.676 373.63 145.056 371.44 142.906C361.64 133.266 352.33 123.256 342.24 113.836ZM409.81 95.8564C408.24 109.796 406.66 123.736 405.08 137.666C405.9 137.836 406.709 138.027 407.529 138.207C408.359 136.517 409.75 134.866 409.94 133.126C410.92 124.206 411.64 115.266 412.34 106.326C412.61 102.786 412.59 99.2265 412.71 95.6765C411.75 95.7365 410.78 95.7964 409.81 95.8564ZM145.3 355.566C153.91 366.126 154.47 366.386 193.34 377.806C193.14 379.136 192.92 380.556 192.72 381.836C204.79 387.766 218.3 389.517 231.71 390.487C238.23 390.957 245.06 388.407 251.74 387.237C253.8 386.877 256.54 385.736 257.83 386.426C263.96 389.726 269.66 388.796 275.57 386.286C276.59 385.846 277.82 385.766 278.97 385.566C272.15 380.866 264.72 379.727 255.81 381.237C249.99 382.237 243.61 380.936 237.47 380.606C237.45 380.666 237.42 380.726 237.41 380.786C237.22 380.706 237.03 380.626 236.83 380.556C234.59 380.326 232.37 380.126 230.14 379.936C230.39 379.336 230.65 378.736 230.9 378.126C232.88 378.936 234.85 379.746 236.83 380.556C236.98 380.566 237.14 380.576 237.29 380.596C237.35 380.596 237.4 380.596 237.47 380.606C237.85 379.406 238.25 378.176 238.93 376.046C225.28 376.596 213.88 369.866 200.05 370.676C186.57 371.466 175.16 365.227 165.4 357.947C158.89 353.077 152.6 356.196 145.3 355.566ZM279.25 385.516C279.16 385.536 279.06 385.546 278.97 385.566C279.06 385.636 279.17 385.686 279.27 385.756L279.25 385.526V385.516ZM441.96 230.936C440.71 225.296 443.35 220.696 445.95 215.886C447.29 213.416 450.39 209.356 445.58 207.536C440.2 205.506 440 210.487 438.49 212.967C433.19 221.707 433.67 224.296 441.95 230.936H441.96ZM433.57 278.906C440.55 275.006 444.37 269.866 444.38 261.786C433.09 265.846 429.22 272.356 433.57 278.906ZM279.56 385.467C282.52 385.007 285.53 384.706 288.41 384.026C291.63 383.256 294.72 382.116 299.07 380.756C289.78 378.636 286.01 379.677 279.56 385.467ZM279.56 385.467C279.46 385.487 279.35 385.496 279.24 385.516C279.24 385.516 279.26 385.747 279.26 385.737C279.36 385.637 279.46 385.567 279.56 385.467ZM368.02 84.1565C368.73 86.3165 369.43 88.4864 370.37 91.3064C373.377 88.3997 373.316 85.8097 370.19 83.5364C369.47 83.7464 368.74 83.9465 368.02 84.1565ZM430.13 250.596C432.51 247.826 433.8 246.306 435.45 244.406C431.077 244.593 429.303 246.656 430.13 250.596ZM379.86 100.977C379.15 98.0065 378.62 95.7865 377.77 92.2165C373.21 96.6865 373.73 98.9065 379.86 100.977ZM429.69 192.237C429.4 193.997 429.1 195.756 428.81 197.516C429.32 197.566 429.83 197.626 430.35 197.676C430.6 195.916 430.84 194.156 431.09 192.396C430.63 192.346 430.16 192.297 429.69 192.237ZM471.77 40.6665C471.16 40.4265 470.56 40.1765 469.95 39.9465C469.41 41.0765 468.87 42.2164 468.33 43.3464C468.77 43.5164 469.2 43.6864 469.63 43.8564C470.34 42.7964 471.05 41.7365 471.77 40.6665ZM452.12 246.467C452.02 247.107 452.3 247.807 452.54 248.947C453.6 248.307 454.71 247.946 454.73 247.566C454.74 246.996 454.06 246.346 453.5 245.876C453.39 245.766 452.16 246.207 452.13 246.467H452.12ZM453.5 266.116C453.7 266.226 453.89 266.327 454.09 266.436C454.75 265.596 455.41 264.746 456.06 263.906C455.77 263.806 455.47 263.706 455.18 263.616C454.62 264.446 454.06 265.276 453.49 266.116H453.5ZM330.91 128.046C334.45 127.896 338.07 128.587 342.38 128.957C339.89 123.957 336.15 122.046 330.72 121.316C321.54 120.066 312.47 118.226 303.05 116.596C303.23 117.086 303.25 118.797 304.26 119.467C312.01 124.657 320.41 128.526 330.91 128.056V128.046ZM306.22 110.796C304.83 109.986 303.45 109.176 302.07 108.376C301.66 108.926 301.26 109.476 300.85 110.026C302.37 110.666 303.88 111.306 305.41 111.926C305.68 111.546 305.95 111.176 306.22 110.796ZM348.93 140.816C349.49 141.556 350.58 142.006 351.45 142.596C351.76 142.356 352.09 142.116 352.41 141.876C351.33 140.446 350.24 139.016 349.15 137.586C348.71 137.706 348.28 137.837 347.84 137.967C348.18 138.927 348.32 140.006 348.94 140.826L348.93 140.816ZM377.31 162.406C377.36 162.186 376.49 161.816 376.05 161.516C375.55 161.646 375.05 161.776 374.56 161.916C375.13 162.826 375.69 163.736 376.26 164.646C376.63 163.906 377.13 163.176 377.31 162.396V162.406Z" fill="black"/>
</svg>
