<svg width="304" height="43" viewBox="0 0 304 43" fill="none" xmlns="http://www.w3.org/2000/svg">
<g filter="url(#filter0_f_516_19414)">
<path d="M260.315 34.2C261.135 34.0378 262.967 33.1315 263.615 32.5672C264.035 32.2014 264.099 31.7705 264.002 29.9423C263.916 28.327 263.981 27.7512 264.252 27.7381C264.492 27.7264 264.471 27.6923 264.192 27.6381C263.907 27.5819 263.729 27.2698 263.654 26.6828C263.557 25.9251 263.608 25.8151 264.039 25.8472C264.491 25.8807 264.489 25.8711 264.027 25.7474C263.733 25.6685 263.528 25.4565 263.542 25.2486C263.563 24.905 263.806 24.8292 264.498 24.9513C264.667 24.9812 265.238 24.9739 265.766 24.9358C266.668 24.8697 266.711 24.885 266.51 25.1828C266.391 25.3573 266.149 25.4948 265.973 25.4882C265.364 25.4658 265.344 25.8108 265.946 25.9881C266.654 26.1979 266.853 26.1412 266.958 25.6966C267.008 25.4863 267.274 25.3248 267.705 25.2455C268.127 25.168 268.307 25.1677 268.192 25.2447C268.092 25.3122 268.164 25.3611 268.353 25.3531C268.542 25.345 268.604 25.3996 268.492 25.475C268.349 25.571 268.481 25.5639 268.934 25.4524C269.488 25.315 269.58 25.3245 269.589 25.5159C269.595 25.6576 269.794 25.7249 270.133 25.7008C270.503 25.6738 270.639 25.7327 270.577 25.8892C270.487 26.1079 270.516 26.1074 271.276 25.8839C271.712 25.7553 272.203 25.6763 272.369 25.7079C272.535 25.7395 272.672 25.6964 272.673 25.6124C272.674 25.5202 272.865 25.5433 273.157 25.672C273.614 25.8747 273.626 25.8698 273.404 25.5567C273.223 25.3013 273.261 25.2461 273.579 25.3061C273.871 25.3613 273.929 25.3328 273.788 25.2043C273.649 25.0786 273.724 25.0383 274.037 25.0703C274.28 25.0955 274.419 25.158 274.341 25.2104C274.155 25.3358 275.099 25.5995 275.957 25.6617C276.513 25.7019 276.673 25.6549 276.823 25.4055C276.994 25.1194 277.549 24.9508 277.559 25.18C277.561 25.2372 277.91 25.2617 278.331 25.2348C278.79 25.2055 279.039 25.1317 278.952 25.0522C278.866 24.9733 278.985 24.937 279.242 24.964C279.482 24.9887 279.651 25.0439 279.616 25.0877C279.582 25.1308 279.69 25.1604 279.86 25.1531C280.03 25.1459 280.147 25.0822 280.125 25.011C280.101 24.9355 280.348 24.8974 280.727 24.9184C281.081 24.9382 281.203 24.9835 280.997 25.0184C280.792 25.0532 280.625 25.1279 280.627 25.1851C280.63 25.2422 280.861 25.2442 281.142 25.1913C281.522 25.1193 281.606 25.144 281.469 25.2918C281.341 25.4304 281.417 25.4636 281.728 25.4049C282.19 25.3175 282.334 25.1062 281.918 25.124C281.357 25.1479 281.608 24.6637 282.231 24.5219C282.842 24.3829 282.853 24.3853 282.355 24.5613C281.856 24.7379 281.853 24.7655 282.318 24.9196C282.993 25.1435 284.162 25.3307 283.871 25.1685C283.749 25.1015 283.865 25.0408 284.134 25.0294C284.403 25.0179 284.608 24.9304 284.604 24.8347C284.6 24.7389 284.733 24.6544 284.903 24.6472C285.073 24.6399 285.207 24.5502 285.202 24.4471C285.197 24.3336 285.026 24.2926 284.762 24.3425C284.161 24.4559 283.9 24.1555 284.433 23.9626C284.786 23.8345 284.871 23.8465 284.882 24.0222C284.894 24.2053 284.942 24.2107 285.189 24.0522C285.451 23.8856 285.518 23.8828 285.794 24.0264C285.966 24.1149 286.055 24.2449 285.993 24.3144C285.798 24.5376 287.021 24.4334 287.423 24.1925C287.637 24.0651 288.22 23.9258 288.718 23.8822C289.267 23.835 289.627 23.7348 289.63 23.6292C289.639 23.3419 290.42 22.78 290.833 22.7624C291.539 22.7322 292.195 22.844 292.202 22.9946C292.205 23.0769 292.404 23.1644 292.644 23.1883C292.989 23.2241 293.025 23.1661 292.809 22.907C292.38 22.3856 292.214 22.3377 291.473 22.5202C290.894 22.6631 290.856 22.6596 291.179 22.4934C291.385 22.388 291.47 22.2751 291.371 22.2421C291.272 22.2092 291.272 22.0746 291.372 21.9433C291.614 21.6274 292.576 21.6466 292.718 21.9705C292.788 22.1303 293.009 22.2034 293.315 22.1673C293.946 22.0935 294.182 21.8032 293.591 21.8285C293.143 21.8476 292.558 21.3217 292.875 21.1856C292.967 21.1467 293.044 21.2021 293.049 21.3082C293.053 21.4143 293.116 21.4994 293.185 21.4964C293.254 21.4935 293.568 21.515 293.879 21.5449C294.412 21.5957 294.41 21.5861 293.848 21.3715C293.264 21.1482 293.263 21.1437 293.838 21.1229C294.555 21.0967 295.504 21.3149 295.512 21.5071C295.522 21.7267 296.195 21.5604 296.45 21.2752C296.654 21.0472 296.587 21.0308 295.782 21.1127C295.24 21.1686 294.884 21.1533 294.881 21.0747C294.878 21.0034 294.995 20.9672 295.141 20.9952C295.285 21.0224 295.342 20.9056 295.264 20.735C295.133 20.4514 295.159 20.4399 295.568 20.609C296.058 20.8118 297.021 20.8235 297.013 20.6261C297.01 20.5578 296.455 20.4373 295.777 20.3585C294.565 20.2177 294.166 20.0779 294.917 20.057C295.948 20.0271 296.261 19.9305 296.786 19.4769C297.221 19.1008 297.486 18.9966 297.919 19.0301C298.302 19.0598 298.48 19.0158 298.475 18.8919C298.47 18.7747 298.192 18.7211 297.7 18.7421C297.016 18.7713 296.79 18.8903 296.914 19.1541C296.935 19.2015 296.612 19.2546 296.197 19.2724C295.649 19.2958 295.487 19.2544 295.609 19.1228C295.702 19.0229 295.955 18.9334 296.172 18.9241C296.39 18.9148 296.647 18.7737 296.745 18.6097C296.843 18.4465 297.263 18.2129 297.676 18.0912C298.327 17.8999 298.815 17.5417 298.193 17.7124C298.067 17.7468 297.798 17.7151 297.594 17.6406C297.299 17.5343 297.378 17.4885 297.959 17.4213C298.364 17.3743 298.625 17.384 298.537 17.4427C298.452 17.5014 298.652 17.5374 298.986 17.5232C299.718 17.4919 299.961 17.2667 299.554 16.9942C299.388 16.8838 299.333 16.7591 299.429 16.7178C299.525 16.6766 299.606 16.7036 299.609 16.7785C299.613 16.8535 299.892 16.9025 300.229 16.8881C300.855 16.8614 301.1 16.4636 300.554 16.3598C300.406 16.3319 300.34 16.1609 300.404 15.9804L300.524 15.6527L299.987 15.996C299.691 16.1848 299.323 16.3447 299.167 16.3514C299.011 16.3581 299.108 16.2581 299.383 16.1288C299.656 16.0005 299.878 15.8297 299.875 15.7503C299.872 15.6709 300.066 15.5206 300.308 15.4174C300.55 15.3134 300.665 15.1539 300.564 15.0623C300.413 14.9253 300.295 14.9259 299.901 15.0646C299.579 15.1779 299.613 15.1215 300.006 14.8921C300.609 14.5408 301.047 14.4351 301.056 14.6399C301.059 14.7037 301.208 14.7501 301.385 14.7425C301.563 14.735 301.629 14.6838 301.531 14.63C301.434 14.5755 301.526 14.4972 301.736 14.4555C301.946 14.4146 301.815 14.3889 301.447 14.3994C300.697 14.4211 300.11 14.1956 300.67 14.1004C300.867 14.0667 301.025 13.9596 301.021 13.8624C301.016 13.754 301.19 13.7035 301.466 13.7319C302.071 13.7938 302.337 13.5884 302.093 13.2502C301.905 12.9906 300.979 12.8845 300.989 13.1241C300.992 13.185 300.641 13.1182 300.211 12.9752C299.585 12.7686 299.449 12.6279 299.536 12.2816C299.596 12.0426 299.511 11.7928 299.35 11.7246C299.163 11.6478 299.16 11.5721 299.341 11.522C299.498 11.4782 299.71 11.5167 299.811 11.6082C299.91 11.6999 300.144 11.7679 300.327 11.7601C300.511 11.7523 300.569 11.6941 300.454 11.6306C300.34 11.5671 300.535 11.474 300.888 11.424C301.555 11.3294 301.775 11.1163 301.182 11.1416C300.995 11.1496 300.919 11.0748 301.01 10.9743C301.115 10.862 301.003 10.7999 300.719 10.812C300.358 10.8274 300.328 10.8778 300.585 11.043C300.858 11.2201 300.814 11.2562 300.32 11.2632C299.993 11.2682 299.732 11.2429 299.738 11.2077C299.801 10.8921 299.601 10.7267 299.241 10.7949C298.75 10.8879 297.94 10.4312 298.239 10.2296C298.35 10.1542 298.657 10.0839 298.92 10.0727C299.332 10.0551 299.338 10.0266 298.971 9.87353C298.605 9.72115 298.606 9.70697 298.976 9.77517C299.271 9.82949 299.339 9.81543 299.186 9.73052C299.063 9.6622 298.763 9.61405 298.521 9.62439C298.015 9.64597 297.922 9.46638 298.373 9.34007C298.541 9.29276 298.679 9.3188 298.683 9.39744C298.686 9.47609 298.781 9.50031 298.893 9.45239C299.006 9.40447 298.798 9.27285 298.43 9.15996C297.853 8.98389 297.808 8.91224 298.106 8.64232C298.536 8.25228 297.983 8.0975 296.679 8.24388C295.926 8.32881 295.855 8.3155 296.176 8.15235C296.435 8.02092 296.444 7.96626 296.205 7.97644C296.016 7.9845 295.858 7.94072 295.855 7.87839C295.853 7.81607 296.094 7.78421 296.389 7.80655C296.903 7.84482 296.903 7.84186 296.386 7.73903C295.897 7.64174 295.887 7.59754 296.275 7.28662C296.815 6.85476 296.41 6.68694 294.98 6.74801C294.423 6.77179 293.967 6.73553 293.964 6.66801C293.961 6.60049 294.082 6.56856 294.234 6.597C294.384 6.62552 294.674 6.56484 294.876 6.46182C295.173 6.30938 295.142 6.26385 294.709 6.21918C294.367 6.18471 294.073 6.23888 293.897 6.36904C293.642 6.55836 292.736 6.69513 292.73 6.54525C292.726 6.45028 293.389 6.1804 294.031 6.01545C294.523 5.88892 294.531 5.86031 294.102 5.74558C293.694 5.63588 293.577 5.66468 293.33 5.93314C293.011 6.28128 292.235 6.41102 292.524 6.0679C292.677 5.8867 292.641 5.89047 292.26 6.09628C292.017 6.22781 291.894 6.37729 291.982 6.42705C292.072 6.47747 291.941 6.4972 291.691 6.47143C291.442 6.44566 291.155 6.35011 291.054 6.26003C290.954 6.16913 290.735 6.13316 290.565 6.17981C290.397 6.22713 290.257 6.21007 290.254 6.14256C290.251 6.07504 290.456 6.0105 290.708 5.99975C290.96 5.989 291.165 5.92449 291.162 5.85697C291.16 5.78945 291.021 5.77231 290.855 5.8188C290.555 5.90298 290.488 5.80624 290.389 5.1489C290.362 4.96273 290.183 4.79791 289.991 4.78157C289.799 4.76597 289.669 4.84586 289.699 4.95981C289.729 5.07376 289.579 5.16116 289.369 5.15454C289.157 5.14799 288.987 5.19316 288.989 5.25697C288.992 5.32078 288.683 5.38525 288.304 5.40071C287.924 5.41692 287.063 5.47672 286.391 5.53366C285.719 5.5906 285.477 5.59798 285.855 5.54987C286.657 5.44725 286.63 5.48704 286.199 5.05648C285.854 4.70996 284.661 4.51189 284.673 4.80274C284.677 4.88732 284.852 4.97274 285.065 4.9919C285.278 5.01106 285.361 5.06923 285.25 5.11929C284.905 5.27822 283.761 5.01785 283.751 4.77819C283.744 4.61941 283.531 4.55787 283.051 4.57765C282.551 4.5975 282.474 4.57331 282.77 4.48856C283.068 4.40298 282.913 4.3479 282.188 4.28371C281.08 4.18535 280.658 4.25536 280.67 4.53657C280.676 4.67458 280.584 4.69639 280.337 4.61472C280.091 4.53306 280.125 4.42086 280.458 4.20744C280.9 3.9254 280.886 3.91411 280.121 3.92969C279.665 3.93877 279.481 3.97634 279.693 4.01635C279.961 4.06736 279.887 4.17234 279.424 4.39502C278.971 4.61357 278.831 4.64186 278.945 4.49278C279.059 4.34297 278.94 4.28932 278.526 4.30699C278.21 4.32051 277.883 4.39989 277.8 4.48368C277.712 4.5744 277.639 4.55377 277.619 4.43274C277.598 4.30429 277.81 4.22089 278.199 4.20428C278.97 4.17138 278.964 4.12405 278.146 3.80886C277.509 3.56178 276.467 3.58843 276.741 3.84504C276.815 3.914 276.776 4.0792 276.654 4.21228L276.433 4.45436L276.19 4.23206C276.057 4.1099 275.738 3.92654 275.478 3.82541C274.897 3.59823 274.045 3.61304 274.302 3.84664C274.415 3.94811 274.309 4.021 274.036 4.03264C273.788 4.04323 273.584 3.99399 273.581 3.9235C273.578 3.85301 273.224 3.70684 272.795 3.59803C272.366 3.48998 272.083 3.35561 272.167 3.3C272.249 3.24448 272.099 3.17656 271.832 3.14855C271.153 3.07944 270.718 3.10839 270.902 3.21055C270.988 3.25817 270.934 3.37792 270.784 3.47727C270.57 3.61796 270.506 3.59913 270.493 3.39302C270.474 3.06605 269.75 2.97878 268.786 3.18717C268.16 3.32319 268.081 3.31615 268.215 3.13947C268.354 2.95364 268.331 2.95386 267.968 3.1366C267.486 3.3802 266.802 3.34769 266.785 3.07934C266.774 2.91182 266.734 2.9113 266.483 3.07292C266.226 3.23774 266.192 3.23848 266.179 3.07994C266.171 2.98142 266.322 2.83303 266.513 2.75201C266.772 2.64135 266.695 2.62753 266.203 2.69759C265.844 2.74859 265.554 2.87622 265.556 2.98092C265.562 3.1115 265.278 3.18678 264.646 3.22272C264.14 3.25098 263.725 3.22637 263.722 3.16776C263.72 3.10914 263.582 3.09941 263.414 3.14672C263.246 3.19329 263.107 3.1732 263.104 3.10123C263.101 3.02926 262.974 3.00643 262.821 3.04938C262.668 3.09159 262.488 3.06809 262.418 2.996C262.324 2.89743 262.051 2.90759 261.319 3.03622C260.604 3.16189 260.345 3.17297 260.34 3.07799C260.337 3.00676 260.251 2.9852 260.145 3.02983C259.789 3.18182 258.156 2.8442 258.237 2.63558C258.287 2.50709 258.149 2.45498 257.857 2.49349C256.774 2.63637 256.022 2.66624 256.018 2.56681C256.015 2.50745 255.862 2.50209 255.677 2.5531C255.445 2.61802 255.441 2.6665 255.667 2.70891C255.857 2.74463 255.888 2.84142 255.743 2.93903C255.55 3.06993 255.446 3.05577 255.284 2.8791C255.028 2.59793 254.152 2.49186 253.838 2.70373C253.71 2.78948 253.509 2.82706 253.389 2.78759C253.269 2.74812 253.361 2.61783 253.59 2.498C253.871 2.35149 253.883 2.31456 253.628 2.38417C253.418 2.44144 252.339 2.54623 251.23 2.61662C249.862 2.70402 249.026 2.8185 248.63 2.97369C248.183 3.14889 247.96 3.17399 247.679 3.08118C247.133 2.9001 246.104 2.97301 246.329 3.17675C246.583 3.40747 246.359 3.394 245.637 3.13566C245.299 3.01479 244.844 2.94727 244.62 2.98508C244.398 3.02354 244.045 2.97842 243.834 2.88631C243.49 2.73378 243.453 2.73755 243.452 2.92122C243.451 3.03351 243.298 3.13145 243.111 3.13943C242.925 3.14741 242.847 3.07417 242.938 2.97587C243.03 2.87757 242.97 2.77235 242.808 2.74134C242.646 2.71034 242.515 2.76501 242.519 2.86295C242.523 2.97276 242.35 3.02255 242.066 2.99305C241.813 2.96744 241.68 2.89581 241.771 2.83469C241.862 2.77356 241.789 2.72984 241.612 2.73741C241.434 2.74499 241.291 2.8299 241.295 2.92561C241.299 3.02132 241.079 3.10951 240.805 3.12123C240.423 3.13752 240.385 3.1027 240.643 2.97201C240.903 2.83901 240.799 2.77803 240.175 2.69765C239.604 2.6239 239.413 2.52725 239.515 2.36605C239.601 2.23007 239.47 2.11822 239.196 2.09054C238.833 2.05325 238.776 2.104 238.936 2.32387C239.097 2.54374 239.04 2.59449 238.673 2.55737C238.416 2.53118 238.209 2.56751 238.212 2.638C238.215 2.70849 238.563 2.75162 238.986 2.73355C239.679 2.70399 239.718 2.72535 239.381 2.94933C239.175 3.08598 238.896 3.20274 238.758 3.20861C238.621 3.21447 238.586 3.16614 238.681 3.10115C238.939 2.92808 237.889 2.8027 236.895 2.8875C236.208 2.94657 236.1 2.92666 236.362 2.79358C236.612 2.66617 236.558 2.61197 236.15 2.56996C235.852 2.53955 235.561 2.57279 235.505 2.64283C235.449 2.71362 235.28 2.74756 235.13 2.71979C234.976 2.69068 234.972 2.54519 235.121 2.38196C235.479 1.99427 234.808 1.67057 234 1.83889C233.683 1.90517 233.313 1.95444 233.179 1.94975C233.045 1.94433 233.099 2.04535 233.297 2.17365C233.58 2.35632 233.57 2.43331 233.249 2.52506C232.625 2.70337 232.381 2.68627 232.366 2.46244C232.355 2.28898 232.311 2.28639 232.063 2.44636C231.82 2.60394 231.772 2.59929 231.76 2.41767C231.75 2.27389 231.594 2.23077 231.289 2.2884C231.027 2.33822 230.829 2.31026 230.825 2.22345C230.822 2.13664 230.615 2.0808 230.365 2.09146C229.997 2.10718 229.983 2.14123 230.296 2.27132C230.619 2.40546 230.593 2.42291 230.142 2.37898C229.845 2.34931 229.605 2.37812 229.608 2.44267C229.615 2.60591 228.374 2.39503 227.71 2.12007C227.216 1.91594 227.157 1.91549 226.975 2.11061C226.865 2.22754 226.583 2.33101 226.348 2.34103C226.114 2.35104 225.924 2.43644 225.928 2.52993C225.933 2.63751 225.757 2.68217 225.446 2.65085C225.062 2.61148 225.042 2.57743 225.353 2.48979C225.57 2.42849 225.653 2.34693 225.535 2.30812C225.201 2.19748 223.961 2.24297 223.541 2.38133C223.291 2.46339 223.16 2.45706 223.156 2.36134C223.152 2.25005 223.037 2.25717 222.665 2.39275C222.255 2.54109 222.121 2.54233 221.821 2.40351C221.417 2.21632 220.584 2.30096 220.908 2.49601C221.029 2.56887 220.997 2.58658 220.835 2.53777C220.68 2.49087 220.533 2.40571 220.51 2.34799C220.486 2.29027 220.448 2.20789 220.425 2.16427C220.402 2.12139 220.184 2.19613 219.94 2.3307C219.523 2.56032 219.506 2.55215 219.657 2.20747C219.779 1.92872 219.692 1.82539 219.299 1.78569C218.591 1.71334 218.292 1.81755 217.795 2.3078C217.562 2.53702 217.219 2.73157 217.032 2.73955C216.845 2.74753 216.789 2.68896 216.908 2.60881C217.055 2.50963 216.955 2.49532 216.589 2.56446C215.84 2.70643 215.381 2.59448 215.809 2.3755C216.54 2.0031 215.575 1.73508 214.554 2.02621C214.173 2.1354 214.208 2.20079 214.804 2.47489C215.697 2.88575 215.683 2.92944 214.663 2.93285C214.092 2.93494 213.848 2.98402 213.909 3.08545C213.959 3.16808 213.855 3.20818 213.678 3.17487C213.501 3.14155 213.425 3.06673 213.511 3.00956C213.739 2.85486 212.327 3.0735 212.072 3.23231C211.945 3.30982 211.846 3.25609 211.835 3.10712C211.825 2.94479 211.632 2.85416 211.323 2.86736C210.936 2.88389 210.905 2.92088 211.183 3.03389C211.465 3.14821 211.404 3.19839 210.893 3.27149C210.536 3.32241 210.329 3.41003 210.431 3.46738C210.533 3.52399 210.414 3.64354 210.166 3.73368C209.789 3.86942 209.714 3.85404 209.705 3.63739C209.697 3.45189 209.561 3.40344 209.224 3.46691C208.949 3.51878 208.772 3.49585 208.797 3.41004C208.954 2.8741 208.37 2.84625 207.849 3.36501C207.461 3.75178 206.644 3.89447 206.63 3.57839C206.625 3.45003 206.436 3.4172 206.031 3.47461C205.676 3.52546 205.367 3.49256 205.258 3.39242C205.153 3.29657 204.874 3.26459 204.601 3.31638C204.237 3.38544 204.169 3.35045 204.31 3.16603C204.554 2.84637 203.706 2.8789 203.026 3.21563C202.559 3.44671 202.498 3.45155 202.129 3.28293C201.759 3.11291 201.71 3.11576 201.34 3.32628C200.965 3.53853 200.86 3.53782 199.315 3.32356C198.006 3.14158 197.562 3.12709 197.061 3.2518C196.719 3.33628 196.356 3.37929 196.257 3.34635C196.158 3.3134 196.237 3.27957 196.433 3.27118C196.63 3.26279 196.789 3.17424 196.784 3.07482C196.78 2.97539 196.906 2.91801 197.065 2.94835C197.223 2.97877 197.451 2.93708 197.57 2.85768C197.7 2.76962 197.655 2.74849 197.457 2.80452C197.275 2.85537 197.038 2.84768 196.931 2.78686C196.821 2.72613 196.88 2.67084 197.057 2.66327C197.234 2.65569 197.378 2.57671 197.374 2.48768C197.371 2.39864 197.574 2.28662 197.824 2.23952C198.471 2.11678 198.383 1.93915 197.613 1.81665C197.123 1.73873 196.903 1.7481 196.745 1.8537C196.63 1.93146 196.303 1.97144 196.018 1.94202C195.62 1.90175 195.549 1.93377 195.708 2.07936C195.829 2.19014 195.741 2.32176 195.494 2.39475C195.141 2.49902 195.16 2.54132 195.606 2.65087C196.106 2.77298 196.094 2.79952 195.446 3.04501C194.391 3.44387 192.244 3.38238 192.779 2.96857C193.195 2.64604 192.577 2.49032 191.665 2.68835C191.055 2.82068 190.846 2.80728 190.324 2.60511C189.984 2.47319 189.786 2.31069 189.884 2.24479C189.982 2.17815 189.773 2.19601 189.418 2.28329C189.064 2.37123 188.771 2.409 188.77 2.36671C188.768 2.32441 188.563 2.36362 188.317 2.45368C188.068 2.54308 187.937 2.65572 188.022 2.70267C188.108 2.74954 188.098 2.8741 187.999 2.97941C187.86 3.12954 187.691 3.14866 187.201 3.07148C186.747 2.99944 186.669 2.93434 186.913 2.82952C187.448 2.60005 187.296 2.49799 186.473 2.53317C185.996 2.55352 185.709 2.63194 185.713 2.74027C185.722 2.94654 185.688 2.9495 184.663 2.84607C184.168 2.79659 183.869 2.67706 183.862 2.52718C183.849 2.21555 183.007 2.13405 182.414 2.38757C181.904 2.60708 182.124 2.83482 182.818 2.80518C183.06 2.79484 183.263 2.84119 183.265 2.90797C183.268 2.97474 183.097 3.02817 182.886 3.02674C182.133 3.02172 181.737 3.08621 181.742 3.21309C181.745 3.28358 181.96 3.30117 182.22 3.25218C182.491 3.20121 182.616 3.21521 182.51 3.28515C182.409 3.35261 182.051 3.41995 181.714 3.43436C181.376 3.44877 181.183 3.40423 181.285 3.33594C181.387 3.26765 181.259 3.22034 181.002 3.23133C180.712 3.24371 180.604 3.31448 180.717 3.41817C180.835 3.52392 180.721 3.59268 180.408 3.60604C180.12 3.61833 179.91 3.53068 179.904 3.3949C179.898 3.2376 179.69 3.17136 179.263 3.1896C178.916 3.20442 178.72 3.26483 178.828 3.32491C178.933 3.38432 178.806 3.44254 178.543 3.45378C178.28 3.46502 178.063 3.39771 178.059 3.30422C178.054 3.18922 177.77 3.15453 177.181 3.19601C176.653 3.23341 176.325 3.32103 176.346 3.41824C176.367 3.50654 176.207 3.60999 175.991 3.64821C175.777 3.68635 175.619 3.67226 175.642 3.61704C175.739 3.38247 175.571 3.30118 175.326 3.46403C174.911 3.73669 174.034 3.41066 174.415 3.12678C174.626 2.97059 174.575 2.92446 174.203 2.94034C173.932 2.95191 173.795 3.00905 173.901 3.06772C174.02 3.13398 173.727 3.16211 173.121 3.14192C172.231 3.11226 172.167 3.12988 172.367 3.35027C172.503 3.49906 172.456 3.59696 172.242 3.60608C172.052 3.61423 171.973 3.56851 172.068 3.505C172.163 3.44149 172.096 3.36182 171.921 3.32843C171.746 3.29503 171.663 3.22647 171.737 3.17721C171.809 3.12729 171.743 3.01563 171.587 2.9294C171.352 2.80042 171.194 2.80273 170.688 2.94549C170.167 3.09188 170.071 3.09001 170.064 2.93345C170.06 2.8318 169.884 2.77764 169.675 2.81331C169.457 2.85087 169.32 3.047 169.355 3.27373C169.389 3.49081 169.346 3.60562 169.262 3.52891C169.179 3.45219 168.998 3.42053 168.86 3.45912C168.724 3.49763 168.682 3.408 168.769 3.26006C168.857 3.11213 168.819 3.0342 168.687 3.08664C168.554 3.13917 168.26 3.0997 168.034 2.99785C167.658 2.8303 167.622 2.84074 167.624 3.11419C167.627 3.45228 167.38 3.60632 166.96 3.52687C166.8 3.49653 166.825 3.39885 167.019 3.29986C167.412 3.10024 167.149 2.89217 166.539 2.91823C166.31 2.928 166.067 2.8789 165.999 2.80822C165.909 2.71468 165.556 2.73569 164.672 2.8879C163.142 3.15172 162.728 3.1731 161.777 3.03608C161.334 2.97245 160.966 2.97333 160.911 3.03809C160.855 3.10665 160.535 3.12255 160.101 3.07863C159.706 3.03901 159.301 3.04144 159.199 3.08442C159.1 3.12732 159.014 3.07526 159.009 2.96916C158.999 2.73914 159.336 2.70617 159.901 2.88198C160.235 2.98595 160.232 2.96452 159.893 2.77085C159.497 2.54616 159.44 2.54416 158.916 2.75015C158.463 2.92781 158.309 2.94183 158.097 2.82374C157.808 2.66217 157.158 2.79101 157.173 3.00594C157.181 3.10742 157.242 3.10631 157.402 3.00211C157.564 2.89782 157.72 2.8956 157.992 2.99401C158.287 3.0996 158.21 3.14523 157.627 3.21253C157.222 3.25881 156.937 3.26352 156.995 3.22241C157.288 3.01293 156.5 2.64887 155.816 2.6781C155.131 2.70733 154.565 3.04594 154.69 3.33793C154.709 3.38542 154.589 3.42921 154.421 3.43638C154.253 3.44354 154.112 3.40052 154.109 3.34042C154.106 3.28032 153.828 3.25132 153.493 3.2753C153.156 3.29935 152.881 3.3631 152.884 3.41727C152.886 3.47143 152.761 3.49164 152.607 3.46254C152.453 3.43344 152.397 3.29756 152.483 3.16009C152.603 2.97063 152.703 2.94553 152.906 3.05503C153.053 3.13425 153.172 3.14183 153.171 3.07274C153.169 2.84982 152.807 2.81699 152.208 2.98526C151.827 3.09223 151.547 3.1116 151.398 3.04211C151.274 2.98351 150.826 2.87701 150.401 2.80597C149.656 2.68167 149.646 2.68431 150.136 2.87599C150.474 3.00725 150.568 3.15636 150.419 3.31736C150.21 3.53959 150.172 3.54418 149.964 3.36575C149.653 3.1003 149.186 3.14176 149.199 3.4341C149.205 3.56617 149.068 3.64631 148.895 3.61358C148.722 3.58084 148.672 3.49227 148.784 3.4169C148.914 3.32884 148.806 3.31411 148.48 3.37635C148.201 3.42913 147.97 3.4234 147.967 3.3633C147.965 3.3032 147.758 3.29344 147.508 3.34054C147.248 3.38954 146.969 3.35016 146.858 3.24862C146.751 3.15063 146.537 3.10549 146.386 3.14836C146.233 3.19057 146.19 3.27044 146.288 3.32498C146.386 3.37953 146.244 3.40196 145.973 3.37411C145.566 3.33276 145.515 3.38179 145.687 3.64948C145.845 3.89548 145.814 3.93618 145.568 3.81511C145.386 3.72697 145.066 3.66185 144.855 3.67089C144.643 3.67993 144.29 3.56415 144.07 3.413C143.85 3.2626 143.671 3.20331 143.673 3.28056C143.672 3.35863 143.466 3.40089 143.212 3.37528C142.65 3.31827 142.614 3.49006 143.149 3.66866C143.461 3.77279 143.343 3.7934 142.557 3.77493C142.012 3.76178 141.49 3.80933 141.383 3.88231C141.249 3.97276 141.058 3.97794 140.766 3.89972C140.532 3.83686 140.028 3.83313 139.643 3.89121C139.096 3.97327 139.042 3.96516 139.394 3.85496C139.783 3.73356 139.767 3.71641 139.286 3.73545C138.975 3.74724 138.462 3.88662 138.144 4.0444C137.825 4.20219 137.58 4.27807 137.6 4.21328C137.621 4.14849 137.615 3.97182 137.588 3.82135C137.545 3.57715 137.481 3.56721 137.01 3.72929C136.534 3.89309 136.521 3.88995 136.877 3.69781C137.096 3.57995 137.572 3.45482 137.937 3.4199C138.83 3.33348 138.939 2.98168 138.115 2.85107C137.344 2.72865 137.248 2.75358 137.12 3.11509C137.016 3.41091 136.412 3.6307 135.861 3.57394C135.666 3.55405 135.185 3.65932 134.792 3.80767C134.32 3.98541 133.971 4.04269 133.769 3.97548C133.568 3.90827 133.323 3.9477 133.056 4.09068C132.706 4.2773 132.698 4.2613 132.993 3.97588C133.259 3.71774 133.247 3.609 132.94 3.48312C132.374 3.25306 131.03 3.32976 131.11 3.58727C131.145 3.698 131.158 3.86766 131.142 3.96427C131.112 4.12089 131.074 4.12252 130.794 3.97909C130.519 3.83846 130.43 3.84601 130.077 4.03873C129.687 4.25312 129.117 4.37185 129.374 4.18542C129.445 4.1341 129.219 3.99953 128.872 3.88649C128.525 3.77345 128.335 3.73624 128.447 3.80506C128.558 3.87387 128.435 3.97059 128.171 4.02049C127.483 4.15095 127.37 4.14241 127.613 3.97964C127.758 3.88203 127.624 3.86471 127.193 3.92623C126.769 3.98668 126.604 3.96699 126.695 3.86868C126.787 3.77038 126.466 3.73055 125.746 3.75086C125.149 3.76819 124.661 3.83587 124.664 3.9019C124.667 3.96794 124.933 3.97888 125.253 3.92653C126.166 3.77755 126.341 4.03839 125.443 4.20683C124.457 4.39164 124.295 4.4008 124.505 4.25878C124.596 4.19766 124.454 4.12569 124.191 4.09826C123.922 4.07108 123.804 3.98544 123.925 3.90447C124.053 3.81798 124.008 3.79685 123.808 3.85222C123.626 3.90307 122.977 3.8602 122.365 3.75773C121.151 3.55239 120.942 3.53901 121.01 3.66765C121.035 3.71416 120.96 3.92103 120.846 4.12584C120.681 4.42055 120.477 4.50512 119.868 4.5311C119.352 4.55316 119.23 4.52713 119.496 4.45258C119.715 4.3912 120.039 4.36622 120.216 4.39657C120.395 4.42683 120.47 4.4244 120.384 4.39089C120.299 4.35737 120.089 4.32544 119.92 4.31851C119.75 4.31166 119.413 4.20933 119.169 4.09041C118.779 3.90043 118.794 3.85369 119.29 3.69278C119.718 3.5541 119.766 3.48216 119.489 3.39067C119.214 3.2991 119.081 3.3189 118.939 3.4729C118.834 3.58439 118.581 3.68218 118.371 3.69114C117.869 3.71255 116.89 4.17808 117.101 4.29542C117.342 4.43009 115.972 4.47075 115.701 4.33664C115.564 4.26888 115.472 4.30551 115.475 4.42653C115.478 4.53865 115.341 4.63594 115.173 4.6431C115.005 4.65027 114.863 4.58276 114.859 4.49298C114.855 4.38688 114.639 4.36039 114.243 4.41674C113.906 4.46454 113.632 4.56323 113.633 4.63528C113.632 4.70816 113.496 4.69466 113.33 4.60587C113.058 4.46211 113.022 4.46366 112.992 4.62028C112.973 4.71697 112.976 4.83503 112.999 4.88236C113.021 4.92903 112.902 4.97348 112.732 4.98073C112.563 4.98798 112.425 4.94182 112.422 4.87726C112.414 4.6888 111.188 4.7969 110.997 5.00281C110.9 5.10656 110.624 5.17185 110.382 5.14724C110.138 5.12197 110.028 5.14971 110.136 5.20904C110.242 5.26771 110.183 5.32224 110.004 5.32989C109.824 5.33755 109.676 5.26584 109.672 5.16938C109.668 5.07292 109.882 4.98573 110.149 4.97433C110.416 4.96293 110.573 4.8908 110.498 4.81376C110.422 4.73672 110.065 4.7029 109.703 4.7384C109.199 4.78817 109.089 4.75571 109.233 4.60088C109.341 4.48627 109.234 4.36296 108.988 4.31477C108.396 4.19879 107.788 4.23367 107.795 4.38281C107.798 4.45033 107.936 4.46748 108.104 4.42091C108.27 4.37442 108.407 4.35297 108.408 4.37301C108.408 4.39304 108.54 4.56804 108.699 4.7612C108.965 5.08434 108.936 5.11012 108.329 5.08622C107.793 5.06524 107.756 5.0795 108.134 5.16519C108.52 5.25278 108.482 5.27518 107.908 5.30118C107.323 5.32766 107.212 5.26774 107.165 4.89806C107.136 4.65921 107.122 4.4264 107.139 4.38107C107.155 4.33581 106.658 4.33769 106.033 4.38592C105.348 4.43823 104.598 4.41079 104.131 4.31623C103.407 4.16878 103.374 4.1709 103.579 4.35765C103.72 4.48691 103.633 4.58729 103.327 4.64492C103.07 4.69384 102.931 4.80011 103.02 4.88103C103.124 4.97474 103.018 5.0112 102.734 4.98244C102.489 4.95725 102.268 4.89085 102.245 4.83461C102.151 4.61189 102.099 4.55688 101.858 4.42667C101.497 4.23101 101.031 4.28361 101.037 4.51972C101.038 4.63192 100.93 4.79632 100.793 4.88618C100.462 5.10324 98.9129 5.02221 98.9029 4.78775C98.8964 4.63713 98.9707 4.63172 99.419 4.74936C99.8808 4.87013 99.9168 4.86265 99.7238 4.68283C99.6024 4.57056 99.504 4.45657 99.5028 4.42912C99.5001 4.36531 98.2699 4.68618 97.7833 4.87792C97.5766 4.95885 97.4869 5.05187 97.5838 5.08342C97.6807 5.11496 97.3617 5.11595 96.877 5.08536C96.3923 5.05402 96.0294 4.96768 96.0683 4.89391C96.1071 4.81941 95.992 4.76485 95.8128 4.77251C95.6335 4.78016 95.5644 4.68351 95.6694 4.54598C95.796 4.38001 95.7148 4.31137 95.4058 4.32456C94.786 4.35102 94.5308 4.68453 95.062 4.77409C95.3295 4.81842 95.406 4.91103 95.2574 5.01029C95.0587 5.14365 94.9366 5.14739 94.5819 5.03096C93.958 4.82643 93.1165 4.76276 92.9085 4.90321C92.5798 5.12463 92.2335 4.93499 92.3783 4.61289C92.4744 4.40066 92.412 4.32677 92.1873 4.38914C92.0042 4.44081 91.9426 4.56385 92.0538 4.66391C92.1989 4.79523 92.139 4.82381 91.8443 4.76726C91.5708 4.71576 91.5084 4.73106 91.659 4.81457C91.8645 4.92919 91.4783 5.01185 90.8165 4.99402C90.6692 4.9899 90.6369 5.12953 90.7437 5.30337C90.9264 5.60033 90.9171 5.60445 90.5824 5.3727C90.3855 5.2369 90.0925 5.13197 89.9285 5.13897C89.7645 5.14597 89.7993 5.06569 90.005 4.96102C90.2107 4.85634 90.5696 4.76223 90.8023 4.7523C91.3096 4.73064 91.3531 4.54146 90.8716 4.45052C90.6828 4.41473 90.4209 4.45638 90.2928 4.54362C90.1591 4.63332 89.8286 4.67865 89.5273 4.64766C89.1263 4.6068 89.0322 4.64203 89.1457 4.79255C89.2611 4.9452 89.0992 5.00268 88.4531 5.03918C87.8203 5.07512 87.6526 5.04138 87.7824 4.90279C87.8956 4.77976 87.8314 4.75352 87.584 4.82206C87.382 4.879 87.0226 4.87354 86.7887 4.81068C86.466 4.72337 86.3022 4.73557 86.1145 4.8588C85.9788 4.94784 85.6394 5.09984 85.3607 5.19499C84.9277 5.34431 84.8682 5.33793 84.9406 5.15495C84.9872 5.037 85.1782 4.94708 85.3658 4.95543C85.7486 4.97104 85.649 4.56201 85.2368 4.43986C85.0916 4.39626 85.0697 4.4195 85.1893 4.49096C85.3128 4.56522 85.1498 4.68515 84.8095 4.76955C84.0741 4.95185 83.5462 4.98258 84.1596 4.80772C84.405 4.73778 84.5062 4.64722 84.3823 4.60717C84.2601 4.5663 83.87 4.64615 83.5128 4.78331C82.8756 5.02979 82.8699 5.03003 83.0489 4.79121C83.3037 4.44955 82.2851 4.26485 81.235 4.4628C80.5641 4.58883 80.4106 4.57457 80.1646 4.36133C80.0078 4.22456 79.8713 4.15904 79.8622 4.21518C79.8532 4.27131 79.6349 4.25981 79.374 4.19067C78.9778 4.0842 78.9342 4.0935 79.1031 4.2461C79.2125 4.34624 79.1859 4.44029 79.0413 4.45464C77.8979 4.56813 77.3635 4.58127 77.2167 4.49983C77.1228 4.44735 76.918 4.43974 76.7632 4.48351C76.6084 4.52729 76.4758 4.46384 76.4707 4.34289C76.4655 4.22195 76.6634 4.11462 76.9075 4.1042C77.1516 4.09378 77.2851 4.13194 77.2015 4.18828C76.949 4.35814 77.3851 4.50529 77.8665 4.41412C78.1129 4.36792 78.3098 4.23611 78.3049 4.12185C78.2873 3.70857 76.3566 3.77391 76.2139 4.19254C76.1104 4.49801 75.9354 4.51664 75.1962 4.29695C74.6757 4.14301 74.6204 4.14538 74.445 4.33424C74.2697 4.52384 74.2163 4.52611 73.6687 4.36366C73.3455 4.26819 72.6761 4.20684 72.1822 4.22793C71.6882 4.24902 71.2921 4.23544 71.3001 4.19794C71.3764 3.881 71.1661 3.61049 70.9037 3.68413C70.73 3.73318 70.3816 3.71757 70.1323 3.6509C69.7361 3.54443 69.7459 3.5061 70.2094 3.35326C70.7068 3.19004 70.7096 3.16688 70.2212 3.00265C69.5563 2.77905 68.5734 2.93773 68.91 3.214C69.0387 3.32 69.1306 3.54799 69.1131 3.72044C69.0889 3.95934 69.2412 4.03609 69.7516 4.04254C70.5756 4.05345 70.8351 4.27057 70.1755 4.39536C69.9083 4.44617 69.7628 4.43826 69.8538 4.37788C69.943 4.31758 69.7908 4.24454 69.5164 4.21686C68.9676 4.16075 68.0975 4.41125 68.3519 4.55277C68.4399 4.60104 68.3499 4.6859 68.1555 4.74029C67.9478 4.79822 67.8804 4.78623 67.9918 4.71011C68.0977 4.63869 67.9878 4.52817 67.7482 4.46333C67.4022 4.37106 67.2827 4.39177 67.1773 4.56203C67.0539 4.76057 67.0387 4.76196 66.9983 4.57563C66.9482 4.34287 65.8573 4.34337 65.6303 4.57606C65.5479 4.65911 65.4574 4.59831 65.4257 4.4391C65.3882 4.24694 65.281 4.24185 65.1041 4.42383C64.7893 4.74724 64.0507 4.81149 63.6308 4.55142C63.4404 4.43392 62.9012 4.37816 62.1492 4.39763C61.5004 4.41493 60.7259 4.39967 60.4283 4.3648C60.0423 4.31959 59.891 4.3543 59.8967 4.48786C59.901 4.59025 60.0783 4.66891 60.2881 4.66218C60.5037 4.65521 60.4154 4.73479 60.0839 4.84557C59.3605 5.08682 59.0376 4.9512 59.1674 4.45729C59.2493 4.13937 59.2144 4.126 58.7904 4.30838C58.5314 4.41904 58.1135 4.51865 57.8617 4.52939C57.549 4.54275 57.4662 4.61764 57.5985 4.76363C57.8531 5.04266 57.3451 5.18255 56.8337 4.97395C56.5129 4.84419 56.383 4.84378 56.165 4.97499C55.9806 5.08544 55.9488 5.05707 56.0619 4.88796C56.2038 4.67452 56.0936 4.64429 55.306 4.67792C54.7987 4.69958 54.3846 4.75739 54.3867 4.8071C54.3889 4.85682 54.1156 4.90045 53.7776 4.90521C53.4397 4.90998 53.1596 4.84017 53.1558 4.74965C53.1503 4.62203 53.2454 4.61204 53.5837 4.70315C53.9161 4.79227 54.0477 4.78591 54.1365 4.67507C54.2817 4.4942 55.2876 4.3836 55.2946 4.54757C55.2978 4.62103 55.471 4.60546 55.7401 4.50848C55.9828 4.42081 56.344 4.38012 56.5444 4.41765C56.762 4.4589 56.8544 4.43118 56.7745 4.34763C56.7005 4.27125 56.1112 4.16187 55.4611 4.10563C54.3718 4.01091 54.2691 4.02049 54.1368 4.23279C54.0437 4.38022 53.7248 4.47412 53.2442 4.49464C52.7255 4.51679 52.5653 4.47903 52.7193 4.37137C52.8492 4.28108 52.7066 4.29905 52.3734 4.41511C52.0609 4.52435 51.8995 4.54685 52.0183 4.46521C52.1444 4.37732 51.9758 4.27524 51.6065 4.21668C51.0775 4.13297 50.9808 4.15197 50.9889 4.34117C50.9998 4.59715 50.2022 4.79847 49.9701 4.59876C49.8848 4.52584 49.8079 4.5581 49.7993 4.67071C49.7895 4.79898 49.5391 4.88549 49.129 4.903C48.7686 4.91839 48.2803 4.84781 48.0428 4.74571C47.7684 4.62734 47.6437 4.61633 47.6996 4.71652C47.8423 4.97059 47.1183 5.02009 46.9299 4.76871C46.8347 4.64195 46.6089 4.54454 46.4297 4.55219C46.2504 4.55984 46.187 4.64135 46.2884 4.73291C46.501 4.92527 46.0119 4.97143 45.1752 4.83843C44.7924 4.77821 44.3289 4.79725 43.8058 4.89615C43.1235 5.02415 42.9739 5.01047 42.7259 4.79657C42.5672 4.65988 42.4336 4.61949 42.4259 4.70679C42.4183 4.79854 42.2179 4.84575 41.9492 4.81783C41.6518 4.78741 41.4897 4.84042 41.495 4.96433C41.5014 5.11495 41.42 5.13108 41.1292 5.03422C40.6932 4.89005 40.1466 4.88736 40.405 5.03094C40.5028 5.08474 40.3034 5.11333 39.9644 5.09436C39.6255 5.07538 39.1314 5.1381 38.868 5.23334C38.4559 5.38176 38.402 5.37366 38.4834 5.17618C38.5422 5.03243 38.405 4.9528 38.1171 4.9651C37.8653 4.97585 37.6946 5.04855 37.74 5.12689C37.7854 5.20523 37.651 5.2801 37.4395 5.29434C37.2299 5.30849 36.817 5.34767 36.5223 5.38106C36.2276 5.4152 35.986 5.39505 35.9836 5.33717C35.9811 5.2793 35.6186 5.24647 35.1799 5.2652C34.4648 5.29573 34.4033 5.33181 34.591 5.61072C34.748 5.84411 34.7191 5.88177 34.477 5.76128C34.2994 5.67297 34.2289 5.45297 34.3186 5.27297C34.4171 5.0755 34.3507 4.95124 34.1524 4.95971C33.9693 4.96753 33.8227 5.02433 33.8253 5.08666C33.828 5.14899 33.621 5.17789 33.3638 5.1517C33.1067 5.12551 32.6943 5.17731 32.4479 5.26663C32.1995 5.35677 31.9963 5.38699 31.9941 5.33431C31.9918 5.28163 31.8212 5.31123 31.6148 5.39958C31.3164 5.52753 31.334 5.58029 31.7024 5.66119C32.1112 5.75003 32.1116 5.75821 31.7016 5.73334C31.4468 5.71746 31.2177 5.63209 31.191 5.54255C31.1642 5.453 31.1093 5.32898 31.0665 5.26688C31.0238 5.20478 30.9972 5.12117 31.0089 5.08128C31.0318 4.99184 28.5823 5.16854 28.3347 5.275C28.2352 5.3179 28.3688 5.40437 28.6314 5.46824C29.1797 5.60167 29.0824 6.00723 28.4608 6.17054C28.2284 6.23175 28.0426 6.35564 28.0465 6.44616C28.0504 6.53668 27.7794 6.67833 27.4447 6.761C27.112 6.84359 26.836 6.86877 26.8338 6.81609C26.8274 6.66621 25.1482 6.8048 25.1127 6.95795C25.0237 7.33416 24.9527 7.37212 24.7242 7.16779C24.5872 7.04579 24.3519 6.95029 24.1993 6.95532C23.6899 6.9741 23.1385 6.81255 23.3112 6.69591C23.406 6.6324 23.3371 6.58628 23.1579 6.59393C22.9786 6.60159 22.8395 6.74431 22.8466 6.91199C22.8572 7.15907 22.7447 7.20994 22.2448 7.18148C21.9058 7.16251 21.7025 7.18755 21.7925 7.23796C22.1174 7.41884 21.2863 7.50786 20.7503 7.34937C20.013 7.1311 19.8592 7.15253 19.9563 7.4591C20.0341 7.70008 20.2405 7.75916 20.5753 7.63634C21.0212 7.47532 21.2048 7.56708 21.0751 7.88556C21.0544 7.93922 21.3123 7.93788 21.6519 7.88249C22.1263 7.805 22.2265 7.82525 22.0914 7.97151C21.9946 8.07599 21.5975 8.1747 21.2066 8.1914C20.8156 8.20809 20.4313 8.28993 20.3508 8.37364C20.263 8.46436 20.1894 8.44371 20.169 8.32342C20.1509 8.21196 20.2824 8.11491 20.4597 8.10734C20.6371 8.09977 20.692 8.04241 20.5804 7.98027C20.4649 7.91607 19.9127 7.91512 19.3154 7.9763C18.6915 8.04085 18.3246 8.03795 18.4248 7.96974C18.605 7.84832 18.0304 7.68181 17.7884 7.7858C17.7114 7.81882 17.8046 7.98803 17.9955 8.16125L18.3395 8.47736L17.6777 8.28113C17.2378 8.15125 17.0855 8.17954 17.2209 8.36604C17.3935 8.60545 17.2762 8.67662 16.42 8.84921C15.8668 8.96054 15.005 9.09249 14.5009 9.143C13.9986 9.19344 13.4892 9.29991 13.3704 9.38006C13.2515 9.46021 13.08 9.51513 12.9897 9.50337C12.8994 9.49162 12.8166 9.52117 12.8072 9.56915C12.7978 9.61786 12.4932 9.73343 12.1284 9.82631C11.6862 9.93935 11.7201 9.98771 12.2302 9.97138C12.9628 9.94753 12.9707 9.95463 12.4226 10.1379C12.1061 10.2435 11.7401 10.309 11.6073 10.2842C11.4744 10.2594 11.2796 10.3517 11.1728 10.49C11.066 10.6284 10.917 10.7202 10.8376 10.6946C10.6264 10.6249 8.89401 11.3983 8.60837 11.6892C8.37588 11.9266 8.35862 11.9244 8.30882 11.653L8.25823 11.3637L7.97643 11.6553C7.8209 11.8158 7.67161 12.0771 7.64402 12.2366C7.61644 12.3961 7.41512 12.5593 7.19906 12.6005C6.87875 12.661 6.87879 12.7064 7.20158 12.8383C7.51856 12.9682 7.52242 13.0141 7.21896 13.0665C7.00841 13.1022 6.84074 13.2031 6.84445 13.2899C6.84815 13.3767 6.54582 13.5442 6.1687 13.6614C5.7181 13.8025 5.60565 13.898 5.83496 13.944C6.24734 14.026 5.86085 14.5509 5.37261 14.5718C5.19907 14.5792 5.05841 14.6409 5.0613 14.7085C5.06418 14.776 5.23676 14.7909 5.44671 14.741C5.65665 14.6912 5.52615 14.7659 5.15955 14.9064C4.79299 15.047 4.58521 15.1926 4.69952 15.2301C4.81387 15.2676 4.96034 15.4316 5.02466 15.5953C5.15303 15.9169 4.3082 16.3566 3.66583 16.3023C3.05801 16.2516 3.22072 16.0797 3.94366 16.0079C4.71611 15.9318 5.0797 15.6316 4.36261 15.6622C3.5292 15.6978 2.72468 16.1403 2.90662 16.464C3.03705 16.6993 2.91112 16.7931 2.27692 16.931C1.83961 17.0254 1.48375 17.1484 1.48613 17.2041C1.4885 17.2597 1.8074 17.2104 2.19611 17.0964C2.58479 16.9817 2.99673 16.9195 3.11299 16.9577C3.22737 16.9959 3.31795 16.9705 3.31503 16.9022C3.31212 16.834 3.58935 16.7931 3.93214 16.812C4.40331 16.8387 4.47413 16.8869 4.22921 17.0126C3.8253 17.2179 3.97554 17.5601 4.52794 17.6993C4.8698 17.7858 4.8529 17.8371 4.42955 17.9905C3.97987 18.1531 3.86134 18.1507 3.47344 17.9711C3.068 17.7825 3.04942 17.7952 3.24526 18.131C3.41437 18.4226 3.35659 18.5008 2.95989 18.5178C2.68527 18.5295 2.46433 18.591 2.46709 18.6555C2.47342 18.8039 2.6717 18.7932 3.4393 18.6036C4.21443 18.4107 6.14412 18.4554 6.15308 18.6654C6.15676 18.7515 6.36892 18.8435 6.62219 18.8691C6.87553 18.8954 7.08712 18.9734 7.0901 19.0431C7.09307 19.1129 6.95682 19.1432 6.78541 19.1111C6.61399 19.0791 6.47898 19.1383 6.48351 19.2444C6.48804 19.3505 6.7694 19.4523 7.10649 19.4713C7.74998 19.507 7.97224 19.7012 7.4001 19.7256C7.19222 19.7345 7.15008 19.8657 7.28529 20.0784C7.46962 20.3686 7.38677 20.442 6.70523 20.5893C6.21872 20.6948 5.97578 20.8227 6.08114 20.9185C6.17653 21.0044 6.25609 21.1229 6.25859 21.1815C6.26582 21.3507 7.37764 21.2579 7.77783 21.0542C7.97791 20.952 8.05051 20.8181 7.93896 20.7559C7.82741 20.6938 7.88227 20.6364 8.06155 20.6288C8.2408 20.6211 8.38913 20.6936 8.39322 20.7893C8.39731 20.885 8.64281 20.9533 8.93652 20.9408C9.32368 20.9243 9.47643 21.0114 9.48686 21.2555C9.49478 21.441 9.41263 21.5761 9.30475 21.5554C9.19687 21.5348 8.92878 21.6094 8.70811 21.7214C8.37529 21.8917 8.38894 21.9424 8.79997 22.0378C9.2052 22.132 9.22059 22.1789 8.89002 22.3127C8.67029 22.4017 8.36409 22.4794 8.20771 22.4861C7.79579 22.5037 7.13139 22.874 7.36981 22.9537C7.48217 22.9906 8.05024 22.9143 8.63306 22.7823C9.48085 22.5915 9.8465 22.564 10.4651 22.6439C11.4219 22.7673 11.4371 22.8559 10.5503 23.1167C9.94835 23.2933 9.74438 23.3043 9.02892 23.1936C8.25765 23.0741 8.16839 23.0869 7.71084 23.3785C6.81804 23.9473 7.95182 24.2342 9.30432 23.7824C9.93163 23.5735 10.9025 23.4897 11.7257 23.5742C12.1709 23.6199 12.1536 23.6608 11.5745 23.9241C10.9803 24.1933 10.9649 24.2371 11.4011 24.3827C11.6685 24.4709 12.0324 24.5364 12.2136 24.5287C12.6846 24.5085 12.6256 24.6917 12.1006 24.8821C11.8523 24.9715 11.7273 25.0883 11.8232 25.1407C11.9171 25.1932 11.8276 25.2439 11.6197 25.2527C11.4119 25.2616 11.3254 25.295 11.4223 25.3281C11.5211 25.3603 12.0337 25.2826 12.5632 25.1552C13.176 25.0079 13.8493 24.9368 14.4177 24.9593C15.0052 24.9833 15.5434 24.9232 15.9921 24.7829C17.1554 24.4195 17.9891 24.4805 17.8033 24.9151C17.7789 24.9719 17.9494 24.9825 18.1787 24.9385C18.41 24.8952 18.796 24.8973 19.0349 24.9443C19.3374 25.0035 19.356 25.0347 19.0928 25.0474C18.8851 25.0577 18.7383 25.1562 18.7678 25.2672C18.8861 25.7096 18.7358 25.9041 18.3098 25.8606C17.8531 25.8139 17.8263 25.9912 18.2587 26.2285C18.5619 26.3954 18.5844 26.3848 17.3172 26.6857C16.1388 26.9657 15.9949 27.2201 17.1022 27.0665C17.5429 27.0053 17.8679 27.0108 17.8708 27.0791C17.8738 27.1473 18.0914 27.1886 18.3546 27.1773C18.7074 27.1623 18.7771 27.0924 18.6147 26.9157C18.4444 26.7282 18.4998 26.6857 18.8683 26.7228C19.1369 26.7507 19.4134 26.6928 19.5102 26.5891C19.7751 26.3042 20.3546 26.4965 20.1226 26.7911C20.0083 26.9343 19.9499 27.2214 19.9931 27.4285C20.0364 27.6355 19.9633 27.8029 19.8313 27.8004C19.0932 27.7858 18.7955 27.8818 18.8928 28.1036C18.9836 28.3063 19.3536 28.4251 20.3398 28.5673C20.5474 28.5971 18.8384 29.7828 18.3135 29.974C17.5854 30.2385 17.0709 30.673 17.2697 30.8548C17.3592 30.9357 17.8453 31.0889 18.3523 31.1944C19.3181 31.3969 19.3636 31.5214 18.855 32.5889C18.7183 32.8772 18.8273 33.0131 19.3293 33.1797C20.2401 33.4812 21.5146 33.3941 23.686 32.8807C24.7018 32.6411 25.5787 32.4602 25.6368 32.4792C25.9314 32.5767 25.2787 34.5625 24.8334 34.9175C24.0297 35.5598 24.0266 36.1576 24.8223 36.4916C25.7911 36.8969 26.6059 36.8733 28.9249 36.3714C31.4768 35.8194 31.789 35.6574 31.521 35.0192C31.4062 34.7461 31.4508 34.4038 31.6184 34.2583C32.3369 33.6345 32.7942 32.9787 32.9762 32.3175C33.0818 31.9287 33.3754 31.465 33.6276 31.287C34.0412 30.9943 34.032 30.8698 33.5444 30.009C32.9555 28.9705 33.1436 27.6475 33.9118 27.4281C34.1289 27.3661 34.1862 27.3198 34.0355 27.3247C33.8866 27.3296 34.1223 27.211 34.5591 27.06C34.9959 26.9091 35.4615 26.8059 35.5925 26.8308C35.7235 26.8557 35.8782 27.1672 35.9354 27.5223C36.0183 28.0339 35.9421 28.1725 35.576 28.1881C35.3223 28.1989 35.115 28.2657 35.118 28.3362C35.121 28.4067 35.3244 28.427 35.5708 28.3801C35.8171 28.3331 36.0866 28.3343 36.1727 28.3819C36.2588 28.4295 36.3837 29.4306 36.4511 30.6067C36.6448 33.9805 37.3529 35.127 39.3861 35.3583C41.2388 35.5691 43.0638 35.0393 43.6682 34.1155C43.8978 33.7645 43.9209 33.2321 43.7405 32.4979C43.5925 31.8955 43.3877 30.5424 43.2854 29.4898C43.1316 27.9019 43.1687 27.6074 43.5058 27.761C43.9637 27.969 44.3096 27.8828 44.296 27.5638C44.2903 27.431 44.0657 27.3603 43.6995 27.3759C43.2018 27.3972 43.1105 27.3171 43.1 26.8485C43.0947 26.5447 43.1555 26.3585 43.2371 26.4353C43.4402 26.6273 44.4044 26.5683 44.8607 26.3355C45.1898 26.1683 45.3529 26.1836 46.1325 26.4551C46.6309 26.6286 47.0321 26.8954 47.0391 27.0579C47.0465 27.233 47.2269 27.342 47.4882 27.3308C47.8582 27.315 47.8522 27.2625 47.4446 26.9789C46.9306 26.621 47.0696 26.2508 47.6985 26.3035C47.9286 26.3227 48.0501 26.4847 47.9985 26.7077C47.9521 26.9186 48.0581 27.0739 48.245 27.0659C48.4319 27.0579 48.5724 26.9932 48.5693 26.9212C48.5606 26.7172 49.3973 26.981 49.5958 27.2453C49.7193 27.4088 49.6094 27.4737 49.1803 27.492C48.858 27.5058 48.5978 27.5867 48.6014 27.6721C48.6119 27.9169 48.9793 27.9771 49.4441 27.8085C49.7997 27.6796 49.8553 27.73 49.7915 28.1148C49.7186 28.555 49.7577 28.5749 50.6822 28.5696L51.6487 28.564L51.8452 29.4514C51.9539 29.9395 52.0593 31.334 52.0825 32.5498L52.1234 34.7602L50.696 36.1443L49.2687 37.5283L49.4402 38.9928C49.6353 40.654 49.9776 40.9761 52.0334 41.4235C54.7391 42.0127 58.3798 41.2298 58.7979 39.9692C58.8876 39.6977 58.7313 37.1563 58.4516 34.3205C58.1701 31.4856 58.0069 29.0946 58.0873 29.0087C58.1676 28.922 58.4203 28.8428 58.6492 28.833C58.878 28.8233 59.2092 28.7043 59.3848 28.5682C59.6549 28.359 59.5838 28.3055 58.921 28.2201C58.0334 28.1056 57.8861 27.8777 58.6139 27.7396C58.9001 27.6858 59.0235 27.5779 58.9105 27.4817C58.8054 27.391 58.6341 27.2281 58.5302 27.1203C58.3601 26.941 58.383 26.9407 58.8089 27.1158C59.1745 27.266 59.5133 27.2798 60.3879 27.18C61.5838 27.0434 61.8122 26.7103 60.7188 26.6961C60.3976 26.6919 59.9107 26.6087 59.6371 26.5111C59.3616 26.4136 59.304 26.3618 59.508 26.3962C59.8909 26.4601 60.6218 26.0364 60.306 25.9325C60.2091 25.9002 60.2262 25.8095 60.3432 25.7302C60.4844 25.6357 60.6789 25.6712 60.9151 25.8343C61.3758 26.1529 62.1259 26.2249 61.9799 25.9375C61.8963 25.7701 62.066 25.7175 62.7926 25.6865C63.298 25.6649 63.8656 25.7128 64.0505 25.7934C64.3347 25.9165 64.5308 25.8992 65.2744 25.6846C66.1426 25.4342 66.1502 25.4339 65.7095 25.6713C65.291 25.895 65.3087 25.9054 65.9525 25.8147C66.5526 25.7304 66.6359 25.7573 66.5764 26.0178C66.4872 26.391 67.152 26.4771 67.4198 26.1275C67.5464 25.9608 67.7802 25.8884 68.0892 25.9198C68.5017 25.9616 68.4967 25.9328 68.0512 25.7006C67.6173 25.4731 67.6102 25.44 68.0036 25.4804C68.2588 25.5067 68.468 25.5743 68.4705 25.6314C68.4729 25.6885 68.6828 25.7264 68.9345 25.7157C69.1863 25.7049 69.3966 25.7539 69.3996 25.8244C69.4026 25.8949 69.6174 25.9132 69.8789 25.8634C70.1386 25.8144 70.2747 25.8257 70.1819 25.8884C70.089 25.9511 70.1554 26.0293 70.3269 26.0628C70.5003 26.0956 70.6381 26.0585 70.6348 25.9798C70.6243 25.7342 71.0622 25.9683 71.1842 26.2745C71.2504 26.4367 71.1727 26.5418 71.0109 26.5108C70.851 26.4805 70.6397 26.5416 70.5429 26.6468C70.2853 26.9246 70.3088 26.9377 70.9821 26.909C71.3292 26.8942 71.5928 26.8049 71.5885 26.704C71.5832 26.5786 71.8312 26.5249 72.4253 26.5225C72.9965 26.5205 73.2408 26.4714 73.1791 26.3699C73.1298 26.2873 73.2312 26.2466 73.4046 26.28C73.5799 26.3134 73.7199 26.2814 73.7169 26.2102C73.7138 26.139 73.8577 26.1076 74.0349 26.1416C74.2603 26.184 74.2632 26.2523 74.0463 26.3626C73.8742 26.4503 73.8251 26.5527 73.9394 26.5902C74.3096 26.7127 74.5875 26.6428 74.5368 26.4398C74.4726 26.1913 75.5331 26.1037 76.3397 26.29C76.6561 26.3635 76.7507 26.43 76.5486 26.4387C76.3464 26.4473 76.1989 26.5718 76.2184 26.7144C76.2409 26.8852 76.309 26.9127 76.4147 26.7938C76.7082 26.4638 77.4916 26.1516 77.7147 26.2751C77.8302 26.3393 78.2067 26.3872 78.5523 26.3828C79.2034 26.3736 79.1914 26.6737 78.5393 26.7045C78.1599 26.7229 78.9609 26.9132 79.3577 26.8993C79.4894 26.8951 79.7113 26.7682 79.852 26.618L80.1059 26.3448L80.4336 26.6348C80.7334 26.9007 81.7351 27.1367 81.7325 26.9413C81.7313 26.8247 83.1779 26.5169 83.393 26.588C83.4899 26.6203 83.4873 26.8277 83.3898 27.0497C83.2172 27.4384 83.2426 27.4507 84.0916 27.3773C84.794 27.3168 84.9873 27.2357 85.0547 26.9779C85.1136 26.7464 85.0009 26.6598 84.6577 26.6745C83.8281 26.7099 84.1266 26.4964 85.0618 26.3851C85.6758 26.3121 85.9937 26.1937 86.0793 26.0072C86.1771 25.7912 86.2141 25.8074 86.2586 26.088C86.2898 26.2822 86.1712 26.5028 85.9929 26.5788C85.764 26.6763 85.816 26.7313 86.171 26.7674C86.4608 26.7974 86.5897 26.7733 86.4781 26.7112C86.3666 26.6498 86.683 26.5872 87.2227 26.5642C87.7624 26.5411 88.4237 26.4111 88.7708 26.2625C89.2755 26.0462 89.4124 26.0292 89.5615 26.1648C89.6608 26.2549 89.6754 26.374 89.5938 26.4295C89.2984 26.6279 90.2645 26.9234 90.8792 26.8228C91.2719 26.7585 91.5425 26.7856 91.6717 26.9027C91.9222 27.1314 93.2088 27.0155 93.3275 26.754C93.3746 26.6472 93.1745 26.481 92.8818 26.3835C92.4322 26.2347 92.4168 26.1878 92.7774 26.0847C93.4493 25.8925 93.7484 25.9169 93.6018 26.1513C93.5088 26.3003 93.6491 26.3641 94.0596 26.3585C94.5465 26.3511 94.5835 26.3228 94.2705 26.1956C94.0605 26.1102 93.9775 26.003 94.0864 25.9567C94.1952 25.9104 94.4725 25.9603 94.7025 26.0672C95.0417 26.2251 95.3632 26.2374 96.3847 26.1314C97.6344 26.0022 97.6441 26.004 97.3684 26.3042C97.1474 26.5433 97.1844 26.6042 97.541 26.5889C97.7889 26.5784 97.9975 26.6743 98.0029 26.8019C98.0084 26.9295 98.1444 27.0285 98.3046 27.0217C98.4648 27.0148 98.5799 26.8917 98.5567 26.7492C98.4566 26.1068 98.5945 25.8452 99.035 25.8264C99.2887 25.8156 99.5138 25.8974 99.5338 26.0088C99.5606 26.1437 99.6509 26.1101 99.8067 25.9102C99.9605 25.7096 100.053 25.6767 100.079 25.8108C100.119 26.0143 101.039 26.0523 101.469 25.8682C101.683 25.7766 101.795 25.7584 102.579 25.69C102.756 25.6742 102.797 25.6004 102.666 25.5264C102.513 25.4393 102.622 25.4406 102.97 25.5321C103.385 25.6407 103.422 25.6986 103.126 25.7811C102.629 25.9205 102.813 25.9699 103.993 26.0146C104.728 26.0435 104.998 26.0052 105.139 25.8527C105.398 25.5748 105.042 25.4228 104.36 25.5203C103.804 25.5998 103.588 25.5109 103.958 25.3531C104.316 25.1988 106.225 25.5767 106.262 25.81C106.296 26.0189 106.326 26.0139 106.571 25.7604C106.721 25.6053 106.975 25.5038 107.135 25.5341C107.295 25.5644 107.509 25.533 107.613 25.4631C107.715 25.3933 108.007 25.3281 108.261 25.3173C108.514 25.3065 108.65 25.3453 108.562 25.404C108.475 25.462 108.601 25.6008 108.843 25.7124C109.268 25.9091 109.289 25.9075 109.521 25.6515C109.736 25.4149 109.821 25.4023 110.364 25.5278C110.96 25.6666 110.96 25.6681 110.371 25.6948C109.902 25.7163 109.868 25.74 110.213 25.807C110.741 25.9101 111.769 25.6506 111.759 25.4169C111.754 25.2871 111.841 25.2804 112.218 25.381C112.526 25.463 112.682 25.463 112.679 25.3799C112.676 25.3102 113.168 25.3419 113.773 25.4499C114.749 25.6245 114.851 25.6863 114.686 26.0011C114.515 26.3295 114.552 26.3465 115.218 26.2415C115.613 26.1786 116.242 26.0068 116.614 25.8586C117.27 25.5987 117.294 25.5969 117.307 25.8133C117.319 26.0031 117.369 26.0084 117.643 25.8481C117.9 25.6974 117.936 25.7144 117.821 25.9327C117.697 26.1676 117.769 26.1906 118.338 26.0972C118.702 26.0378 119.206 25.9709 119.457 25.949C120.39 25.8683 121.012 25.6715 120.837 25.5125C120.728 25.4138 120.809 25.3643 121.043 25.3855C121.254 25.4047 121.397 25.5563 121.358 25.7222C121.317 25.8882 121.45 26.0557 121.651 26.094C121.872 26.1358 121.933 26.1169 121.805 26.0458C121.69 25.9816 121.724 25.8916 121.883 25.8477C122.041 25.803 122.33 25.8524 122.526 25.9578C122.762 26.0874 122.925 26.102 123.026 26.0033C123.109 25.9232 123.363 25.8774 123.593 25.9003C124.125 25.9549 125.35 25.658 125.121 25.531C125.027 25.4785 125.089 25.3971 125.261 25.3489C125.43 25.3015 125.658 25.3401 125.761 25.4353C125.866 25.5304 126.09 25.5699 126.258 25.5226C126.426 25.4753 126.698 25.5038 126.862 25.5845C127.075 25.6892 127.1 25.6584 126.957 25.4794C126.836 25.3307 126.887 25.22 127.079 25.2118C127.259 25.2041 127.409 25.2854 127.414 25.3915C127.418 25.4976 127.501 25.5513 127.596 25.5108C127.692 25.4696 128.141 25.4608 128.593 25.4906C129.045 25.5203 129.692 25.4912 130.025 25.4264C130.541 25.3271 130.551 25.3111 130.097 25.3238C129.801 25.3319 129.559 25.2843 129.556 25.2183C129.552 25.1426 129.808 25.1413 130.247 25.2133C130.63 25.2772 131.069 25.3098 131.223 25.2854C131.376 25.2617 131.339 25.325 131.141 25.4264C130.847 25.5764 130.883 25.6032 131.325 25.5709C131.626 25.5491 131.972 25.4741 132.095 25.4049C132.375 25.248 132.986 25.5401 132.731 25.7108C132.633 25.7774 132.717 25.7835 132.927 25.7255C133.131 25.6685 133.221 25.5516 133.126 25.4658C132.917 25.2755 133.292 25.2461 133.8 25.4139C134.091 25.51 134.172 25.4969 134.166 25.3544C134.161 25.2328 134.439 25.1592 134.988 25.1357C135.444 25.1163 135.865 25.0426 135.923 24.971C136.035 24.8309 136.91 24.8753 136.917 25.0214C136.919 25.0704 136.508 25.16 136.004 25.2195C135.137 25.3226 135.098 25.3518 135.29 25.7592C135.523 26.2584 135.588 26.2943 136.024 26.1723C136.535 26.0293 136.386 25.7443 135.812 25.7688C135.451 25.7842 135.387 25.7498 135.602 25.6573C135.809 25.569 136.179 25.5495 136.685 25.6007C137.144 25.6473 137.628 25.6288 137.883 25.5555C138.187 25.4689 138.199 25.4372 137.93 25.4472C137.335 25.4696 137.468 25.2335 138.072 25.1944C138.495 25.1674 138.471 25.1498 137.962 25.1121C137.325 25.0649 137.323 25.0598 137.889 24.8074C138.369 24.5937 138.432 24.5866 138.27 24.7622C138.123 24.9194 138.231 24.9661 138.686 24.9466C139.024 24.9322 139.388 25.0007 139.495 25.0987C139.609 25.2009 139.887 25.2402 140.147 25.1912C140.414 25.1404 140.605 25.1717 140.609 25.2659C140.612 25.355 140.443 25.4581 140.234 25.4953C140.026 25.5324 139.95 25.5981 140.069 25.6406C140.187 25.6831 140.646 25.5624 141.087 25.3726C141.53 25.1827 141.968 25.0533 142.061 25.0843C142.154 25.1152 142.388 25.0502 142.58 24.9394C142.899 24.7563 142.975 24.7546 143.454 24.9125C143.741 25.0081 143.975 25.036 143.972 24.9751C143.966 24.8238 145.144 24.6657 145.365 24.7893C145.463 24.8439 145.329 24.9284 145.065 24.9783C144.804 25.0274 144.592 25.1182 144.594 25.179C144.597 25.2399 144.724 25.2545 144.877 25.2123C145.03 25.1693 145.213 25.1719 145.288 25.2171C145.36 25.2623 145.376 25.2363 145.321 25.1591C145.266 25.0819 145.562 24.9719 145.974 24.915C146.397 24.856 146.634 24.7611 146.517 24.6963C146.39 24.6259 146.495 24.6005 146.785 24.6298C147.046 24.6566 147.396 24.6201 147.563 24.549C147.766 24.4623 148.01 24.5322 148.298 24.7592C148.745 25.1103 149.338 25.1823 149.598 24.917C149.681 24.8332 149.762 24.8647 149.781 24.9873C149.8 25.1091 149.903 25.1709 150.012 25.1238C150.121 25.0768 150.426 25.0951 150.686 25.1627C151.067 25.2617 151.115 25.2596 150.927 25.151C150.797 25.0769 150.837 25.0091 151.016 25.0015C151.428 24.9839 151.448 25.1793 151.045 25.2916C150.587 25.4204 150.7 25.7962 151.214 25.8493C151.464 25.8743 151.874 25.807 152.127 25.6988C152.538 25.523 152.534 25.4674 152.095 25.1732L151.603 24.8441L152.775 24.8632C153.42 24.8735 154.177 24.8999 154.459 24.9206C154.86 24.9511 154.932 24.9056 154.788 24.714C154.653 24.5347 154.721 24.4798 155.036 24.5095C155.274 24.532 155.439 24.6059 155.406 24.6728C155.372 24.7404 155.563 24.8177 155.832 24.8449C156.169 24.8795 156.265 24.8457 156.142 24.7343C155.796 24.4197 157.137 24.552 157.591 24.8776C158.024 25.1884 158.045 25.1904 158.243 24.933C158.355 24.787 158.525 24.6942 158.624 24.7257C158.72 24.758 158.952 24.7287 159.14 24.6605C159.353 24.5838 159.651 24.5755 159.934 24.6385C160.314 24.7234 160.303 24.7335 159.872 24.6999C159.588 24.6778 159.177 24.7511 158.958 24.8631C158.644 25.0244 158.642 25.0735 158.947 25.0991C159.16 25.1168 159.24 25.1974 159.127 25.2766C159.012 25.3558 159.15 25.3388 159.435 25.2382C160.105 24.9999 162.084 24.8649 162.092 25.0563C162.095 25.1342 162.284 25.2481 162.512 25.3097C162.823 25.393 163.083 25.3567 163.566 25.1621C163.919 25.0199 164.368 24.8974 164.565 24.889C164.836 24.8775 164.834 24.8381 164.554 24.7252C164.288 24.6169 164.281 24.551 164.526 24.4818C164.713 24.43 164.961 24.4187 165.078 24.4568C165.283 24.5246 165.317 24.5677 165.426 24.8805C165.465 24.9925 165.528 24.9891 165.72 24.8642C166.129 24.5955 167.013 24.7704 166.824 25.0825C166.638 25.3914 167.211 25.5662 167.71 25.3523C167.945 25.2516 167.93 25.1296 167.656 24.9198C167.322 24.665 167.336 24.6347 167.771 24.6785C168.046 24.7062 168.328 24.7269 168.398 24.7239C168.469 24.7209 168.529 24.8008 168.534 24.9009C168.539 25.0145 168.745 25.0584 169.075 25.0168C169.37 24.9797 169.581 24.8971 169.545 24.8332C169.51 24.7693 169.887 24.6989 170.383 24.6778C170.879 24.6566 171.283 24.6698 171.279 24.7072C171.261 24.8789 170.425 25.2193 169.972 25.2387C169.695 25.2505 169.454 25.3396 169.437 25.4362C169.42 25.5328 169.383 25.6786 169.354 25.7601C169.253 26.0447 169.545 26.0701 170.432 25.8561C170.936 25.7342 171.322 25.546 171.317 25.4236C171.307 25.1839 171.874 25.0415 173.029 24.9922C173.447 24.9744 173.708 24.9141 173.608 24.8589C173.509 24.8037 173.551 24.7231 173.704 24.6809C174.108 24.5678 174.372 24.8851 174.006 25.0427C173.835 25.1161 173.753 25.2378 173.825 25.3128C173.917 25.41 174.103 25.3864 174.467 25.2296C174.748 25.1091 175.235 25.0154 175.549 25.0221C175.862 25.0288 176.369 24.9447 176.678 24.8364C176.998 24.7224 177.14 24.7037 177.012 24.7924C176.89 24.8779 176.934 24.9414 177.114 24.9338C177.293 24.9261 177.441 24.9971 177.445 25.0906C177.45 25.2026 177.268 25.2446 176.914 25.2129C176.461 25.172 176.441 25.1877 176.784 25.3091C177.135 25.4331 177.251 25.4222 177.579 25.2357C177.79 25.1152 178.055 25.0474 178.165 25.0844C178.278 25.1212 178.365 25.0647 178.36 24.9578C178.356 24.851 178.489 24.7583 178.659 24.7511C178.829 24.7438 178.97 24.8159 178.974 24.9123C178.978 25.0088 179.195 25.0776 179.458 25.0663C179.721 25.0551 179.854 25.0003 179.755 24.9459C179.657 24.8906 179.818 24.8094 180.112 24.7648C180.408 24.7202 180.979 24.6342 181.384 24.5723C181.993 24.4786 182.084 24.4948 181.923 24.6697C181.78 24.8222 181.851 24.8556 182.178 24.7933C182.427 24.7463 182.714 24.7549 182.815 24.8115C182.917 24.8681 183.217 24.9058 183.478 24.8947C183.821 24.88 183.902 24.803 183.768 24.6199C183.586 24.3735 183.599 24.3736 184.222 24.6303C184.624 24.7952 184.797 24.822 184.687 24.7011C184.43 24.4214 185.061 24.2993 185.665 24.5129C185.991 24.6291 186.021 24.6686 185.746 24.6217C185.455 24.5716 185.385 24.5888 185.536 24.6723C185.659 24.7406 185.952 24.7891 186.184 24.7791C186.417 24.7692 186.828 24.8683 187.097 24.9988C187.655 25.2701 187.746 25.1629 187.239 24.8344C186.955 24.6511 187.004 24.5999 187.532 24.5246C187.879 24.4748 188.163 24.3631 188.159 24.2763C188.154 24.1591 188.337 24.1371 188.872 24.1908C189.292 24.2331 189.769 24.2128 190.02 24.1403C190.583 23.9796 190.991 23.9621 190.774 24.1082C190.679 24.1724 190.745 24.2514 190.921 24.2848C191.096 24.3182 191.151 24.4065 191.04 24.4804C190.902 24.5725 191.185 24.5797 191.933 24.501C192.781 24.4127 193.072 24.4285 193.233 24.5733C193.424 24.745 193.472 24.7423 193.833 24.535C194.199 24.3269 194.241 24.3311 194.434 24.5971C194.548 24.7543 194.742 24.8783 194.866 24.8715C195.253 24.852 195.75 24.668 195.925 24.4784C196.066 24.326 196.098 24.3276 196.124 24.4855C196.17 24.7542 197.228 24.7789 198.023 24.5308C198.395 24.4146 198.611 24.3794 198.501 24.4532C198.279 24.6024 199.13 24.7281 199.557 24.6088C199.708 24.5667 199.838 24.6191 199.843 24.7259C199.849 24.8736 200.03 24.8949 200.599 24.8155C201.135 24.7414 201.522 24.7739 201.953 24.9287C202.341 25.0675 202.629 25.0968 202.757 25.0118C202.867 24.938 202.786 24.8857 202.58 24.8945C202.374 24.9033 202.293 24.8733 202.398 24.8272C202.505 24.7818 202.777 24.7932 203.003 24.8541C203.523 24.994 204.883 24.9114 204.447 24.7665C204.048 24.6341 204.047 24.4825 204.446 24.4655C204.619 24.4581 204.9 24.5799 205.071 24.7369C205.379 25.0203 205.995 24.9933 205.982 24.6972C205.975 24.5251 208.202 24.2791 208.376 24.4329C208.545 24.5811 209.655 24.4928 209.673 24.33C209.681 24.2494 209.811 24.2832 209.963 24.4053C210.153 24.5585 210.239 24.5719 210.249 24.4474C210.258 24.3385 210.594 24.2438 211.105 24.2057C211.567 24.1711 211.99 24.0891 212.044 24.0228C212.099 23.9566 212.268 23.9263 212.422 23.9554C212.58 23.9851 212.608 23.8523 212.491 23.6507C212.293 23.3105 212.314 23.2992 212.93 23.4179C213.433 23.5146 213.503 23.5815 213.237 23.7162C212.977 23.8477 213.003 23.9113 213.34 23.9772C213.585 24.0247 213.922 24.0549 214.09 24.0433C214.257 24.0317 214.222 24.0042 214.011 23.9805C213.387 23.912 213.56 23.7589 214.366 23.6658C214.822 23.6129 215.179 23.6378 215.28 23.7293C215.471 23.9026 216.386 23.8977 216.378 23.7233C216.369 23.5111 217.041 23.5746 217.213 23.8029C217.306 23.926 217.489 23.997 217.619 23.961C217.749 23.9242 217.938 23.9697 218.04 24.0605C218.238 24.2408 219.164 24.2556 219.156 24.0782C219.154 24.0189 219.425 23.9248 219.761 23.8703C220.096 23.8151 220.366 23.675 220.361 23.5578C220.356 23.4405 220.551 23.3081 220.793 23.262C221.087 23.2064 221.18 23.2366 221.07 23.3542C220.869 23.5702 221.318 23.5637 221.868 23.3432C222.199 23.2109 222.228 23.2149 222.026 23.3655C221.889 23.4672 221.529 23.6305 221.224 23.7275C220.632 23.9171 220.794 24.1792 221.396 24.0086C221.593 23.9526 221.961 23.8968 222.214 23.8844C222.518 23.87 222.658 23.754 222.626 23.5435C222.601 23.3684 222.715 23.2193 222.883 23.2122C223.051 23.205 223.121 23.3708 223.035 23.5997C222.949 23.8256 223.035 24.0501 223.231 24.1153C223.685 24.2654 224.589 24.2246 224.86 24.0413C224.992 23.9525 224.939 23.9354 224.722 23.9959C224.53 24.0502 224.369 24.0393 224.366 23.971C224.363 23.9027 224.118 23.8537 223.824 23.8618C223.503 23.8703 223.441 23.8447 223.669 23.8008C223.877 23.7592 224.047 23.5862 224.046 23.4153C224.043 23.1642 224.099 23.1387 224.34 23.2808C224.505 23.3771 225.049 23.5033 225.55 23.5599C226.132 23.6258 226.403 23.7257 226.303 23.8348C226.18 23.9656 226.397 23.9883 227.218 23.9302C227.809 23.8887 228.238 23.8228 228.169 23.7848C228.101 23.7469 228.237 23.6786 228.474 23.6335C228.711 23.5885 228.982 23.623 229.079 23.7095C229.177 23.7975 229.461 23.8285 229.72 23.7788C230.046 23.7166 230.192 23.7609 230.199 23.9249C230.206 24.1074 230.382 24.1453 230.983 24.0943C231.41 24.0582 232.108 24.1169 232.535 24.225C233.048 24.354 233.278 24.3687 233.217 24.268C233.149 24.1587 233.424 24.1112 234.182 24.1027C235.446 24.0873 235.722 24.1536 235.12 24.3258C234.643 24.4621 234.645 24.4628 235.631 24.4638C235.988 24.4641 236.666 24.5615 237.14 24.6803C238.163 24.9384 238.584 24.9428 238.309 24.6936C238.17 24.5679 238.243 24.5239 238.542 24.5506C238.782 24.5723 238.96 24.6777 238.94 24.7863C238.914 24.9324 239.062 24.9573 239.521 24.8819C239.861 24.8265 240.226 24.8273 240.333 24.8837C240.591 25.0191 242.334 25.1067 242.091 24.9729C241.991 24.9177 242.239 24.8655 242.646 24.857C243.051 24.8494 243.32 24.884 243.243 24.9356C243.05 25.0665 243.383 25.0389 244.075 24.8673C244.779 24.6931 244.835 24.7576 244.212 25.0243C243.931 25.1456 243.877 25.2423 244.07 25.2786C244.242 25.3122 244.38 25.2803 244.377 25.209C244.374 25.1378 244.512 25.1059 244.683 25.138C244.855 25.1708 245.074 25.1116 245.17 25.0072C245.267 24.9034 245.496 24.8111 245.681 24.8032C245.906 24.7936 245.897 24.8401 245.655 24.9441C245.25 25.1175 245.179 25.2974 245.531 25.2631C245.993 25.2181 247.147 25.3531 247.152 25.4533C247.154 25.5097 247.364 25.5468 247.616 25.5361C247.867 25.5253 248.073 25.4578 248.07 25.3859C248.066 25.2968 248.219 25.2962 248.543 25.3842C248.94 25.4907 249.174 25.4636 249.907 25.2234C250.96 24.8789 251.424 24.8397 251.435 25.095C251.441 25.2211 251.631 25.2561 252.011 25.202C252.323 25.1574 252.804 25.1592 253.079 25.2054C253.418 25.2623 253.825 25.2174 254.338 25.0669C255.07 24.8513 255.13 24.8547 256.05 25.1596C256.949 25.4572 256.994 25.511 256.82 26.099C256.718 26.4415 256.388 27.0213 256.084 27.3866C254.654 29.1068 254.568 29.2792 254.615 30.3022C254.665 31.3705 255.619 32.9978 256.635 33.7438C257.108 34.0931 258.437 34.3976 259.264 34.3466C259.484 34.3328 259.949 34.2654 260.301 34.1961L260.315 34.2Z" fill="#49C235"/>
</g>
<defs>
<filter id="filter0_f_516_19414" x="0.486328" y="0.765015" width="302.697" height="41.8582" filterUnits="userSpaceOnUse" color-interpolation-filters="sRGB">
<feFlood flood-opacity="0" result="BackgroundImageFix"/>
<feBlend mode="normal" in="SourceGraphic" in2="BackgroundImageFix" result="shape"/>
<feGaussianBlur stdDeviation="0.5" result="effect1_foregroundBlur_516_19414"/>
</filter>
</defs>
</svg>
