<svg width="1338" height="301" viewBox="0 0 1338 301" fill="none" xmlns="http://www.w3.org/2000/svg">
<path d="M1334.13 180.24L1329.86 179.98L1327.22 183.48L1326.53 182.4L1326.59 181.31L1325.43 179.88L1325.14 180.19L1324.99 179.96L1323.93 181.5L1321.99 183.59V184.29L1321.53 184.97L1322.02 185.94L1322.09 190.95L1323 193.07L1319.98 197.45L1317.69 197.61L1315.39 193.84L1308.81 193.43L1302.74 202.16L1301.31 201.05L1298.35 199.58L1298.2 196.76L1295.79 193.98L1296.16 192.21L1302.53 193.03L1299.58 189.08L1299.93 187.99L1297.59 185.05L1296.15 178.15L1298.41 181.04L1301.84 176.81L1302.02 173.6L1302.21 173.93L1306.06 173.25L1307.1 168.45L1308.32 169.93L1308.06 169.91L1307.65 175.65L1310.13 172.91L1312.32 172.98L1313.14 172.08L1312.42 170.21L1310.58 170.09L1313.35 165.06L1312.48 160.6L1309.75 164.28L1308.27 164.04L1307.26 162.5L1307.31 159.6L1305.26 153.55L1303.77 151.43L1304.14 150.78L1303.77 150.13L1305.26 148.01L1307.31 141.96L1307.26 139.06L1308.27 137.52L1309.75 137.27L1312.48 140.95L1313.35 136.49L1310.58 131.47L1312.42 131.34L1313.14 129.47L1312.32 128.57L1310.13 128.64L1307.65 125.9L1308.06 131.64L1308.32 131.62L1307.1 133.1L1306.06 128.3L1302.21 127.63L1302.02 127.96L1301.84 124.75L1298.41 120.52L1296.15 123.41L1297.59 116.52L1299.93 113.57L1299.58 112.48L1302.53 108.53L1296.16 109.35L1295.79 107.57L1298.2 104.8L1298.35 101.98L1301.31 100.51L1302.74 99.3999L1308.81 108.13L1315.39 107.72L1317.69 103.96L1319.98 104.12L1323 108.5L1322.09 110.62L1322.02 115.63L1321.53 116.6L1322 117.27V117.97L1323.92 120.06L1324.98 121.6L1325.13 121.37L1325.42 121.68L1326.58 120.25L1326.52 119.16L1327.21 118.07L1329.85 121.57L1334.12 121.3L1335.48 126.17L1337.72 126.41L1337.09 111.91L1335.28 110.23L1331.92 110.27L1330.13 108.38L1329.83 101.43L1305.07 96.6699L1305.35 96.3301L1302.35 91.95L1297.89 91.72L1295.13 97.1699L1294.3 96.03L1294.74 87.8601L1294.14 86.47L1293.41 85.4199L1291.17 83.23L1290.18 86.9299L1292.17 90.0901L1288.67 93.96L1285.78 93.0601L1287.61 89.75L1287.92 84.0801L1286.12 81.0801L1290.56 78.3401L1288.51 75.1101L1288.68 72L1285.83 70.5801L1283.03 73.3999L1281.15 73.46L1275.09 80.45L1276.07 81.8501L1280.44 82.47L1281.17 83.47L1277.48 85.3301L1277.5 87.8899L1277.54 87.8501L1277.51 88.6799L1277.77 90.3999L1276.52 89.02L1277.02 88.45L1275.46 87.73L1271.93 91.79L1271.61 97.9199L1267.23 101.84L1257.88 101.76L1257.27 106.7L1253.54 113.43L1253.71 117.34L1257.26 121.95L1259.42 118.72L1265.92 118.31L1265.83 120.25L1266.98 121.68L1269.2 119.29L1270.85 121.49L1275.24 121.21L1276.87 123.39L1276.83 124.19L1273.28 127.85L1271.12 125.28L1262.19 124.83L1260.75 126.35L1257 126.77V127.35L1255.29 127.26L1252.63 130.1L1250.57 130L1248.25 132.34L1242.88 125.41L1242.05 120.99L1239.53 123.54L1237.2 123.43L1234.14 118.55L1235.85 112.03L1239.58 117.36L1241.39 113.39L1244.92 106.6L1246.01 106.53L1251.63 106.81L1253.34 99.03L1253.85 96.3601L1255.8 95.4299L1256.73 93.0701L1261.52 90.22L1266.3 87.4099L1267.18 85.8L1264.62 81.3601L1262.29 81.4099L1259.56 83.6699L1258.84 82.6599L1259.75 78.74L1268.11 77.21L1265.11 73.0701L1262.9 72.6001L1260.31 75.25L1258.13 75.28L1255.9 72.29L1252.42 76.29L1254.3 79.3899L1249.73 82.1499L1249.19 92.21L1251.69 91.26L1251.55 91.0601H1252.19L1253.55 90.6899L1252.44 92.3201L1252.11 91.8401L1250.85 102.33L1249.35 103.29L1248.69 102.23L1249.2 92.21L1246.98 92.0901L1245.87 92.03L1242.95 90.9199L1244.94 87.3501L1245.2 82.47L1242.91 80.3501L1240.92 77.78L1238.63 74.28L1235.56 74.1299L1233.19 71.1201L1230.04 72.23L1226.24 73.3101L1223.92 71.1499L1222.23 73.0901L1221.21 73.3899L1208.98 72.8101L1205.77 73.1201L1204.85 75.47L1217.02 76.1599L1218.04 77.8501L1214.71 81.77L1212.48 81.6599L1209.96 84.4299L1204.39 84.1499L1204.29 85.5601L1201.96 88.4299L1201.65 94.22L1203.4 97.49L1200.32 98.45L1198.06 95.48L1195.91 95.3701L1193.39 97.9199L1192.55 93.8701L1194.98 90.8701L1195.37 83.7L1194.27 83.6699L1189.47 89.1299L1187.04 89.3799L1184.42 91.8601L1177.63 90.97L1177.04 89.96L1177.85 88.99L1178.87 88.6799L1181.12 88.77L1183.84 84.3401L1183.1 80.2L1189.81 80.54L1192.45 77.7L1196.86 77.9199L1200.32 73.9299L1194.47 72.53L1192.45 74.8601L1182.74 74.3501L1180.72 73.6499L1176.15 67.1101L1174.93 62.4299L1172.81 62.3301L1170.32 64.8301L1168.09 62.25L1166.01 64.6399L1163.54 61.74L1158.27 69.03L1159.09 70.21L1161.23 70.0601L1163.59 67.8301L1165.39 70.4099L1167.78 68.1299L1169.92 68.01L1170.87 69.52L1167.71 73.6699L1165.43 73.55L1162.93 76.0601L1160.58 73.24L1153.99 73.26L1151.34 75.6899L1147.67 75.4299L1146.37 73.8401L1148.18 72.6201L1149.42 72.6899L1152.03 69.96L1154.13 70.0701L1155.47 67.9099L1156.07 65.3L1157.87 63.1499L1156.05 60.02L1158.28 57.1899L1156.33 54.1201L1159.39 52.8401L1161 49.6101L1160.8 48.3L1159.08 44.8899L1158.01 41.26L1153.53 41.03L1152.69 42.04L1151.81 51.98L1151.19 54.5701L1149.4 56.6399L1153.44 62.8401L1149.95 66.8601L1145.47 66.6299L1144.42 63.0701L1142.47 58.3799L1141.32 55.1001L1137.92 59.01L1139.88 62.0901L1137.69 65L1141.5 70.45L1140.34 72.1599L1133.94 71.9099L1131.27 74.49L1129.64 72.1699L1126.71 74.45L1120.47 74.1101L1118.96 72.8301L1120.59 62.71L1125.96 61.97L1127.53 57.0901L1131.19 57.28L1131.35 54.5801L1130.19 51.71L1127.76 54.25L1125.69 54.1499L1123.2 56.8401L1122.12 57.47L1121.41 59.03L1120.71 59.3601L1120.36 57.53L1122.15 56.8899L1122.12 57.48L1122.21 55.48L1119.89 52.3101L1125.3 46.5901L1121.29 44.6499L1120.69 42.26L1118.9 41.24L1119.05 34.6899L1119.79 33.79L1120.99 35.3899L1120.69 42.25L1121.79 42.27L1124.39 39.47L1128.72 39.6899L1139.24 35.8101L1133.7 28.8301L1129 33.8899L1125.99 29.5801L1128.31 26.6399L1127.73 22.8601L1125.09 24.9299L1120.3 24.6899L1116.31 30.4399L1112.29 30.24L1112.19 31.6299L1109.88 34.49L1111.8 37.6599L1108.5 41.6599L1106.23 38.79L1103.75 41.3799L1099.39 41.1599L1096.86 43.9199L1095.89 41.6899L1095.74 36.21L1093.94 35.1201L1093.84 36.53L1091.45 39.47L1091.17 42.27L1088.73 45.45L1088.43 51.02L1085.6 56.9199L1079.76 63.1101L1078.19 60.8601L1073.28 62.9299L1071.11 60.1699L1070.11 60L1068.09 60.8101L1068.71 62.8899L1069.66 66.6799L1070.78 68.53L1072.51 66.5901L1076.3 67.5L1073.92 70.5L1072.66 74.4099L1070.48 71.76L1068 74.3899L1055.65 73.77L1055.38 79.48L1054.47 81.8999L1052.95 80.8201L1052.09 79.5701L1047.87 79.3501L1045.33 76.28L1040.93 76.0601L1038.56 78.46L1038.7 72.95L1045.25 73.28L1048.08 67.6001L1052.46 67.8201L1053.82 72.6699L1055.67 73.76L1056.6 71.3899L1061.84 70.77L1065.18 66.71L1065.48 55.1299L1064.73 54L1062.23 56.6499L1061.08 57.27L1060.37 58.8301L1059.66 59.1599L1059.31 57.3301L1061.1 56.6899L1061.08 57.28L1061.17 55.24L1059.15 52.1399L1059.31 49.26L1065.02 45.3101L1067.24 48.1799L1068.46 46.0701L1069.07 43.48L1070.93 44.6201L1071.72 51.1399L1074.19 48.6599L1079.69 47.48L1079.82 45.1001L1075.66 41.7L1080.15 35.5701L1079.4 34.55L1076.51 29.47L1080.77 24.5601L1079.63 22.8701L1072.77 22.45L1071.48 26.99L1069.49 29.49L1071.6 32.8601L1067.58 34.4399L1060.75 42.1399L1052.91 41.75L1052.86 43.1499L1054.85 46.22L1052.66 49.05L1054.42 52.0801L1051.04 56.1599L1042.07 55.71L1041.32 54.75L1039.98 52.7L1037.64 52.52L1037.05 50.53L1037.13 42.52L1039.46 39.52L1035.09 36.6699L1021.9 29.05L1022.83 31.4399L1023.41 36.3999L1019 41.49L1018.65 46.9399L1017.22 48.24L1016.51 47.21L1016.64 44.24L1013.4 39.9199L1006.74 39.5801L1004.32 42.03L1002.13 42.0901L999.87 39.0801L993.19 38.74L990.67 41.45L981.73 41L979.521 38.1699L970.59 37.72L967.89 40.3501L958.12 38.4399L957.47 34.45L956.57 33.99L944.2 33.4199L942.48 34.8201L941.101 38.8301L936.66 38.6101L934.45 35.8501L927.76 35.52L925.26 38.1899L920.851 37.97L918.23 40.8101L913.89 40.6001L911.37 43.2L886.67 41.96L884.291 39.05L881.86 38.9399L879.71 39.1899L873.37 38.6699L870.74 41.27L867.64 41.1499L865.71 40.1599L867.99 36.51L876.76 34.48L863.03 39.4299L859.63 43.3501L857.34 43.51L855.021 40.53L848.43 40.2L846.101 37.1101L843.93 37L842.9 33.22L840.34 28.8L838.7 29.49L838.541 32.3401L840.57 35.49L840.41 38.3301L836.96 42.29L834.69 42.3401L832.45 39.3601L831.36 39.27L827.64 41.7L826.98 40.73L827.37 39.8301L828.21 39.1399L831.37 39.27L831.75 32.02L828.68 27.6699L824.15 27.4399L821.66 30.03L817.351 29.8101L814.72 32.5701L811.01 27.28L809.38 27.98L808.22 32.04L798.791 31.5701L794.87 25.97L792.68 25.6799L791.86 23.79L792.7 22.8701L801.64 23.28L803.82 26.0901L806.62 23.5801L808.75 23.24L811.25 21.3701L812.74 23.51L818.041 23.45L819.831 21.3799L824.36 21.6101L826.561 24.53L828.8 24.6399L832.39 20.4299L832.96 9.32007L832.48 8.1499L831 6.03003L830.98 4.62988L829.63 1.96997L828.73 4.41992L827.76 6.72998L826.25 5.45996L825.44 4.31006L822.87 6.95996L818.48 6.78003L817.63 7.67993L818.41 9.56006L822.72 9.8501L823.25 12.04L820.07 12.6001L817.03 13.79L816.86 15.1299L816.041 17.6299L814.47 16.6899L812.41 13.53V10.72L810.51 7.55005L809.73 0.679932L806.74 1.31006L808.09 4.45996L804.291 8.90991L799.021 10.0901L798.69 16.1599L795.97 17.3601L792.45 12.9199L791.53 8.33008L784.601 7.97998L782.3 4.93994L776.84 10.6101L773 10.4099L770.2 12.46L768.71 10.3301L759.09 9.01001L757.43 6.63989L754.89 9.32007L749.26 9.67993L748.55 11.24L747.84 11.5701L747.49 9.73999L749.28 9.1001L749.351 7.62012L746.55 6.02002L744.8 9.05005L743.541 11.53L739.3 11.3101L736.55 14.1499L732.12 13.9299L729.9 10.96L727.74 10.8501L725.46 7.8501L723.28 7.93994L720.55 10.6699L698.25 9.55005L695.97 12.1799L687.55 11.76L679.68 11.3799L670.87 11.25L662.07 11.3799L654.19 11.76L645.78 12.1799L643.5 9.55005L621.2 10.6699L618.47 7.93994L616.291 7.8501L614.01 10.8501L611.86 10.96L609.64 13.9299L605.21 14.1499L602.46 11.3101L598.23 11.53L596.96 9.05005L595.22 6.02002L592.42 7.62012L592.49 9.1001L594.28 9.73999L593.93 11.5701L593.22 11.24L592.51 9.67993L586.89 9.32007L584.351 6.63989L582.69 9.01001L573.07 10.3301L571.581 12.46L568.78 10.4099L564.94 10.6101L559.48 4.93994L557.18 7.97998L550.24 8.33008L549.32 12.9199L545.8 17.3601L543.081 16.1599L542.75 10.0901L537.48 8.90991L533.68 4.45996L535.03 1.31006L532.041 0.679932L531.271 7.55005L529.351 10.72V13.53L527.311 16.6899L525.75 17.6299L524.92 15.1299L524.75 13.79L521.72 12.6001L518.541 12.04L519.061 9.8501L523.37 9.56006L524.15 7.67993L523.3 6.78003L518.91 6.95996L516.34 4.31006L515.521 5.45996L514.021 6.72998L513.05 4.41992L512.16 1.96997L510.8 4.62988L510.78 6.03003L509.3 8.1499L508.811 9.32007L509.38 20.4299L512.98 24.6399L515.21 24.53L517.41 21.6101L521.94 21.3799L523.73 23.45L529.021 23.51L530.521 21.3701L533.021 23.24L535.14 23.5801L537.94 26.0901L540.11 23.28L549.05 22.8701L549.88 23.79L549.07 25.6799L546.88 25.97L542.97 31.5701L533.53 32.04L532.37 27.98L530.74 27.28L527.03 32.5701L524.4 29.8101L520.09 30.03L517.59 27.4399L513.061 27.6699L509.98 32.02L510.37 39.27L513.521 39.1399L514.36 39.8301L514.74 40.73L514.081 41.7L510.37 39.27L509.271 39.3601L507.03 42.3401L504.75 42.29L501.311 38.3301L501.15 35.49L503.18 32.3401L503.03 29.49L501.38 28.8L498.82 33.22L497.791 37L495.62 37.1101L493.3 40.2L486.72 40.53L484.4 43.51L482.11 43.3501L478.71 39.4299L475.26 38.1201L476.03 40.1499L474.101 41.1399L471 41.26L468.37 38.6599L462.03 39.1799L459.88 38.9299L457.45 39.04L455.081 41.95L430.38 43.1899L427.86 40.5901L423.521 40.8L420.89 37.96L416.48 38.1799L413.98 35.51L407.3 35.8401L405.09 38.6001L400.65 38.8201L399.271 34.8101L397.561 33.4099L385.19 33.98L384.291 34.4399L383.64 38.4299L373.87 40.3401L371.18 37.71L362.25 38.1599L360.041 40.99L351.101 41.4399L348.59 38.73L341.91 39.0701L339.65 42.0801L337.46 42.02L335.041 39.5701L328.38 39.9099L325.14 44.23L325.26 47.2L324.55 48.23L323.12 46.9299L322.78 41.48L306.68 36.6599L302.311 39.51L304.64 42.51L304.73 50.52L304.13 52.51L301.791 52.6899L300.46 54.74L299.7 55.7L290.73 56.1499L287.351 52.0701L289.11 49.04L286.93 46.21L288.91 43.1399L288.86 41.74L281.021 42.1299L274.19 34.4299L270.17 32.8501L272.28 29.48L261.62 35.5601L266.11 41.6899L261.95 45.0901L262.081 47.47L267.57 48.6499L270.041 51.1299L270.831 44.6101L272.68 43.47L273.291 46.0601L274.5 48.1699L276.72 45.3L282.43 49.25L282.581 52.1299L280.561 55.23L280.65 57.27L280.62 56.6799L282.41 57.3201L282.07 59.1499L281.36 58.8201L280.65 57.26L279.5 56.6399L277 53.99L276.25 55.1201L276.55 66.7L279.89 70.76L285.13 71.3799L286.061 73.75L287.91 72.6599L289.271 67.8101L293.64 67.5901L296.47 73.27L303.021 72.9399L303.16 78.45L300.791 76.05L296.38 76.27L293.84 79.3401L289.62 79.5601L288.76 80.8101L287.24 81.8899L286.34 79.47L286.061 73.76L273.72 74.3799L271.23 71.75L269.05 74.3999L267.791 70.49L265.41 67.49L269.21 66.5801L270.92 68.52L272.05 66.6699L273.01 62.8799L273.63 60.8L271.62 59.99L270.62 60.1599L268.45 62.9199L263.541 60.8501L261.97 63.1001L256.13 56.9099L253.3 51.01L253 45.4399L250.561 42.26L247.9 36.51L247.791 35.1001L245.99 36.1899L245.84 41.6699L244.87 43.8999L242.331 41.1399L219.93 42.26L221.03 42.24L220.42 44.6299L216.42 46.5701L221.831 52.29L219.51 55.46L219.601 57.46L219.581 56.8701L221.37 57.51L221.021 59.3401L220.311 59.01L219.601 57.45L218.53 56.8201L216.03 54.1299L213.96 54.23L210.37 54.5601L210.53 57.26L214.19 57.0701L215.771 61.95L221.14 62.6899L222.771 72.8101L221.271 74.0901L215.021 74.4299L212.09 72.1499L210.47 74.47L207.8 71.8899L201.4 72.1399L200.24 70.4299L204.05 64.98L201.87 62.0701L203.82 58.99L200.42 55.0801L197.32 63.05L196.271 66.6101L191.791 66.8401L188.3 62.8201L192.34 56.6201L185.4 54.1001L183.86 63.1299L185.67 65.28L186.28 67.8899L187.62 70.05L189.72 69.9399L192.331 72.6699L193.57 72.6001L195.39 73.8201L194.09 75.4099L190.42 75.6699L187.76 73.24L181.17 73.22L178.82 76.04L176.331 73.53L174.05 73.6499L170.89 69.5L171.84 67.99L173.98 68.1101L176.36 70.3899L178.16 67.8101L180.51 70.04L182.65 70.1899L183.48 69.01L178.21 61.72L175.75 64.6201L173.67 62.23L171.44 64.8101L168.94 62.3101L166.82 62.4099L165.61 67.0901L161.041 73.6299L159.021 74.3301L149.311 74.8401L147.291 72.51L141.44 73.9099L144.9 77.8999L149.3 77.6799L151.94 80.52L158.65 80.1799L157.92 84.3201L160.64 88.75L162.89 88.6599L163.91 88.97L164.72 89.9399L164.13 90.95L157.351 91.8401L154.73 89.3601L152.291 89.1101L147.5 83.6499L146.4 83.6799L146.78 90.8501L149.22 93.8501L148.37 97.8999L145.851 95.3501L143.7 95.46L141.44 98.4299L138.36 97.47L140.11 94.2L139.8 88.4099L137.47 85.54L137.37 84.1299L131.811 84.4099L129.291 81.6399L127.05 81.75L123.72 77.8301L124.75 76.1399L136.92 75.45L136 73.1001L132.791 72.79L120.55 73.3701L119.53 73.0701L117.851 71.1299L115.53 73.29L111.74 72.21L108.601 71.1001L106.22 74.1101L103.15 74.26L100.86 77.76L98.8701 80.3301L96.5903 82.45L96.8604 87.3301L98.8506 90.8999L95.9204 92.01L94.8105 92.0701L92.5903 92.1899L93.1006 102.21L92.4404 103.27L90.9404 102.31L89.6802 91.8201L89.3506 92.3L88.2402 90.6699L89.5903 91.05H90.2305L90.0903 91.24L92.6006 92.1899L92.0503 82.1299L87.4805 79.3701L89.3604 76.27L85.8901 72.27L83.6602 75.26L81.4805 75.23L78.8901 72.5801L76.6802 73.05L73.6704 77.1899L82.0303 78.72L82.9502 82.6399L82.2305 83.6499L79.5005 81.3899L77.1704 81.3401L74.6201 85.78L75.5005 87.3899L80.2803 90.2L85.0605 93.05L85.9805 95.4099L87.9404 96.3401L88.4502 99.01L90.1704 106.79L95.7905 106.51L96.8804 106.58L100.41 113.37L102.22 117.34L105.95 112.01L107.66 118.53L104.601 123.41L102.26 123.52L99.7402 120.97L98.9102 125.39L93.5405 132.32L91.2202 129.98L89.1602 130.08L86.4902 127.24L82.1104 127.46L79.6006 124.81L70.6704 125.26L68.5103 127.83L64.9604 124.17L64.8105 121.31L67.3003 121.47L69.8003 118.14L71.6504 118.26L74.8003 121.67L75.9604 120.24L75.8804 118.53L78.7305 118.71L80.8901 121.94L84.4404 117.33L84.6104 113.42L80.8701 106.69L80.2705 101.75L74.5205 101.79L70.1802 97.8999L69.8403 91.77L66.3105 87.71L64.7505 88.4299L65.2505 89L64.0103 90.3799L64.2705 88.6599L64.2505 87.8301L64.2803 87.8701L64.3105 85.3101L60.6104 83.45L61.3403 82.45L65.7104 81.8301L66.7002 80.4299L60.6401 73.4399L58.7603 73.3799L55.9604 70.5601L53.1104 71.98L53.2803 75.0901L51.2202 78.3201L55.6602 81.0601L53.8701 84.0601L54.1802 89.73L56.0103 93.04L53.1201 93.9399L49.6201 90.0701L51.6201 86.9099L50.6304 83.21L48.3901 85.3999L47.6504 86.45L47.0503 87.8401L47.4902 96.01L46.6704 97.1499L43.9004 91.7L39.4404 91.9299L36.6802 95.96L8.33057 101.41L8.03027 108.36L6.24023 110.25L2.87012 110.21L1.05029 111.89L0.430176 126.39L2.66016 126.15L4.02051 121.28L8.28027 121.55L10.9204 118.05L13.1401 121.58L16.5903 116.58L14.5806 112.6L14.7305 109.04L18.1504 104.09L20.4302 103.93L22.7305 107.69L29.3105 108.1L37.0005 97.02L38.6201 99.0601L40.4404 100.48L43.3901 101.95L43.4102 102.32L41.7603 110.22L42.4404 111.58L41.8105 113.54L44.1401 116.49L45.5903 123.38L47.8506 120.49L51.2905 124.72L51.5903 130.35L50.6006 131.97L49.8901 129.22L46.9204 123.88L44.6904 123.74L39.6602 130.67L37.3804 130.21L35.8901 127.58L32.0405 128.25L31.0005 133.05L28.3701 129.87L24.7505 136.44L25.6201 140.9L28.3506 137.22L30.6006 137.6L33.5903 142.98L33.4404 146.38L37.7603 150.67L37.7402 150.73L37.7603 150.8L33.4404 155.09L33.5903 158.49L30.6006 163.87L28.3506 164.24L25.6201 160.56L24.7505 165.02L28.3701 171.59L31.0005 168.41L32.0405 173.21L35.8901 173.89L37.3804 171.26L39.6602 170.8L44.6904 177.73L46.9204 177.6L49.8901 172.26L50.6006 169.51L51.5903 171.13L51.2905 176.77L47.8506 181L45.5903 178.11L44.1401 185.01L41.8105 187.95L42.4404 189.91L41.7603 191.27L43.4102 199.18L43.3901 199.55L40.4404 201.02L38.6201 202.44L37.0005 204.48L29.3105 193.41L22.7305 193.82L20.4302 197.59L18.1504 197.43L14.7305 192.49L14.5806 188.93L16.5903 184.96L13.1401 179.96L10.9204 183.49L8.28027 179.99L4.02051 180.25L2.66016 175.38L0.430176 175.14L1.05029 189.64L2.87012 191.33L6.24023 191.29L8.03027 193.18L8.33057 200.13L36.6802 205.58L39.4404 209.61L43.9004 209.83L46.6704 204.38L47.4902 205.52L47.0503 213.69L47.6504 215.08L48.3901 216.13L50.6304 218.32L51.6201 214.62L49.6201 211.46L53.1201 207.59L56.0103 208.49L54.1802 211.8L53.8701 217.47L55.6602 220.47L51.2202 223.21L53.2803 226.43L53.1104 229.54L55.9604 230.96L58.7603 228.14L60.6401 228.08L66.7002 221.09L65.7104 219.69L61.3403 219.07L60.6104 218.08L64.3105 216.22L64.2803 213.65L64.2505 213.69L64.2705 212.87L64.0103 211.15L65.2505 212.53L64.7505 213.1L66.3105 213.82L69.8403 209.76L70.1802 203.63L74.5205 199.74L80.2705 199.79L80.8701 194.85L84.6104 188.12L84.4404 184.21L80.8901 179.6L78.7305 182.83L75.8804 183.01L75.9604 181.3L74.8003 179.87L71.6504 183.28L69.8003 183.4L67.3003 180.07L64.8105 180.23L64.9604 177.37L68.5103 173.71L70.6704 176.28L79.6006 176.73L82.1104 174.08L86.4902 174.3L89.1602 171.46L91.2202 171.56L93.5405 169.22L98.9102 176.14L99.7402 180.56L102.26 178.01L104.601 178.13L107.66 183.01L105.95 189.53L102.22 184.19L100.41 188.16L96.8804 194.96L95.7905 195.03L90.1704 194.75L88.4502 202.53L87.9404 205.2L85.9805 206.13L85.0605 208.5L80.2803 211.35L75.5005 214.16L74.6201 215.77L77.1704 220.21L79.5005 220.16L82.2305 217.91L82.9502 218.92L82.0303 222.84L73.6704 224.38L76.6802 228.52L78.8901 228.99L81.4805 226.34L83.6602 226.31L85.8901 229.3L89.3604 225.3L87.4805 222.2L92.0503 219.44L92.6006 209.38L90.0903 210.33L90.2305 210.53H89.5903L88.2402 210.91L89.3506 209.27L89.6802 209.75L90.9404 199.26L92.4404 198.3L93.1006 199.36L92.5903 209.38L94.8105 209.5L95.9204 209.57L98.8506 210.68L96.8604 214.25L96.5903 219.13L98.8701 221.25L100.86 223.82L103.15 227.31L106.22 227.46L108.601 230.47L111.74 229.36L115.53 228.28L117.851 230.44L119.53 228.49L120.55 228.2L132.791 228.77L136 228.45L136.92 226.1L124.75 225.41L123.72 223.72L127.05 219.8L129.291 219.91L131.811 217.14L137.37 217.42L137.47 216L139.8 213.13L140.11 207.34L138.36 204.07L141.44 203.11L143.7 206.09L145.851 206.2L148.37 203.65L149.22 207.7L146.78 210.7L146.4 217.87L147.5 217.89L152.291 212.43L154.73 212.17L157.351 209.69L164.13 210.58L164.72 211.59L163.91 212.56L162.89 212.87L160.64 212.78L157.92 217.22L158.65 221.37L151.94 221.03L149.3 223.87L144.9 223.65L141.44 227.64L147.291 229.03L149.311 226.7L159.021 227.22L161.041 227.91L165.61 234.45L166.82 239.12L168.94 239.22L171.44 236.72L173.67 239.31L175.75 236.92L178.21 239.82L183.48 232.53L182.65 231.34L180.51 231.49L178.16 233.72L176.36 231.14L173.98 233.42L171.84 233.53L170.89 232.02L174.05 227.87L176.331 227.99L178.82 225.48L181.17 228.29L187.76 228.27L190.42 225.84L194.09 226.1L195.39 227.68L193.57 228.9L192.331 228.83L189.72 231.56L187.62 231.45L186.28 233.61L185.67 236.22L183.86 238.38L185.69 241.51L183.45 244.33L185.4 247.4L182.331 248.68L180.72 251.91L180.92 253.22L182.64 256.63L183.72 260.27L188.19 260.49L189.03 259.48L189.91 249.54L190.53 246.95L192.331 244.88L188.291 238.68L191.78 234.66L196.26 234.89L197.311 238.45L199.26 243.14L200.41 246.42L203.811 242.5L201.86 239.42L204.041 236.51L200.23 231.06L201.39 229.35L207.791 229.61L210.46 227.03L212.081 229.35L215.01 227.07L221.26 227.42L222.76 228.69L221.13 238.81L215.76 239.55L214.18 244.42L210.521 244.24L210.36 246.94L211.51 249.81L213.94 247.27L216.01 247.37L218.51 244.67L219.581 244.05L220.291 242.49L221 242.16L221.351 243.99L219.561 244.63L219.581 244.04L219.49 246.04L221.811 249.21L216.4 254.93L220.4 256.86L221.01 259.25L222.791 260.26L222.65 266.81L221.9 267.71L220.7 266.12L221.01 259.26L219.91 259.24L217.3 262.04L212.98 261.82L229.51 269.88L231.82 267.02L229.9 263.85L233.21 259.86L235.48 262.73L237.96 260.14L242.311 260.36L244.851 257.6L245.82 259.83L245.97 265.31L247.771 266.4L247.88 264.99L250.26 262.05L250.541 259.24L252.98 256.06L253.28 250.5L256.11 244.6L261.95 238.41L263.521 240.66L268.43 238.58L270.601 241.34L271.601 241.51L273.61 240.7L272.99 238.62L272.03 234.83L270.9 232.98L269.19 234.91L265.39 234L267.771 231L269.03 227.09L271.21 229.74L273.7 227.11L286.041 227.73L286.32 222.03L287.22 219.61L288.74 220.69L289.601 221.94L293.82 222.15L296.36 225.22L300.771 225.44L303.14 223.04L303 228.55L296.45 228.22L293.62 233.9L289.25 233.68L287.89 228.83L286.041 227.74L285.11 230.11L279.87 230.73L276.53 234.8L276.23 246.37L276.98 247.5L279.48 244.86L280.63 244.24L281.34 242.68L282.05 242.35L282.39 244.18L280.601 244.82L280.63 244.23L280.541 246.27L282.561 249.37L282.41 252.25L276.7 256.2L274.48 253.33L273.271 255.44L272.66 258.03L270.811 256.89L270.021 250.38L267.55 252.86L262.061 254.04L261.93 256.42L266.09 259.83L261.601 265.95L262.351 266.98L274.17 267.09L281 259.39L288.84 259.78L288.89 258.38L286.91 255.31L289.09 252.48L287.331 249.45L290.71 245.38L299.68 245.83L300.44 246.79L301.771 248.84L304.11 249.02L304.71 251.01L304.62 259.02L302.291 262.02L306.66 264.87L318.34 265.14L322.76 260.05L323.101 254.59L324.53 253.3L325.24 254.33L325.12 257.3L328.36 261.62L335.021 261.96L337.44 259.51L339.63 259.45L341.89 262.46L348.57 262.79L351.081 260.08L360.021 260.53L362.23 263.36L371.16 263.81L373.851 261.18L383.62 263.09L384.271 267.08L385.17 267.53L397.541 268.1L399.25 266.7L400.63 262.69L405.07 262.91L407.28 265.66L413.96 265.99L416.46 263.32L420.87 263.54L423.5 260.7L427.84 260.91L430.36 258.31L455.061 259.55L457.43 262.46L459.86 262.57L462.01 262.31L468.351 262.83L470.98 260.23L474.081 260.35L476.01 261.34L475.24 263.37L473.73 264.99L478.69 262.07L482.09 258.15L484.38 257.99L486.7 260.97L493.28 261.3L495.601 264.39L497.771 264.5L498.8 268.27L501.36 272.7L503.01 272L503.16 269.16L501.13 266L501.291 263.15L504.73 259.19L507.01 259.14L509.25 262.12L510.351 262.21L514.061 259.77L514.72 260.75L514.34 261.65L513.5 262.33L510.351 262.21L509.96 269.45L513.041 273.81L517.57 274.04L520.07 271.45L524.38 271.67L527.01 268.91L530.72 274.2L532.351 273.5L533.51 269.44L542.95 269.91L546.86 275.51L549.05 275.8L549.86 277.69L549.03 278.61L540.09 278.21L537.92 275.39L535.12 277.9L533 278.24L530.5 280.11L529 277.97L523.71 278.03L521.92 280.1L517.39 279.87L515.19 276.95L512.96 276.84L509.36 281.05L508.791 292.17L509.28 293.34L510.76 295.46L510.78 296.86L512.14 299.53L513.03 297.08L514 294.77L515.5 296.04L516.32 297.19L518.89 294.54L523.28 294.71L524.13 293.82L523.351 291.94L519.041 291.65L518.521 289.46L521.7 288.9L524.73 287.71L524.9 286.38L525.73 283.88L527.291 284.82L529.351 287.98V290.79L531.26 293.95L532.03 300.82L535.021 300.19L533.67 297.03L537.47 292.58L542.74 291.4L543.07 285.33L545.791 284.13L549.311 288.57L550.23 293.16L557.17 293.51L559.47 296.55L564.93 290.88L568.771 291.08L571.57 289.04L573.061 291.17L582.68 292.48L584.34 294.86L586.88 292.18L592.5 291.82L593.21 290.26L593.92 289.93L594.271 291.76L592.48 292.4L592.41 293.88L595.21 295.48L596.95 292.45L598.22 289.98L602.45 290.2L605.2 287.36L609.63 287.58L611.851 290.55L614 290.66L616.28 293.66L618.46 293.57L621.19 290.84L643.49 291.96L645.771 289.33L654.18 289.76L662.061 290.13L670.86 290.26L679.67 290.13L687.541 289.76L695.96 289.33L698.24 291.96L720.541 290.84L723.271 293.57L725.45 293.66L727.73 290.66L729.89 290.55L732.11 287.58L736.541 287.36L739.291 290.2L743.53 289.98L744.791 292.45L746.541 295.48L749.34 293.88L749.271 292.4L747.48 291.76L747.831 289.93L748.541 290.26L749.25 291.82L754.88 292.18L757.42 294.86L759.081 292.48L768.7 291.17L770.19 289.04L772.99 291.08L776.831 290.88L782.291 296.55L784.59 293.51L791.521 293.16L792.44 288.57L795.96 284.13L798.68 285.33L799.01 291.4L804.28 292.58L808.081 297.03L806.73 300.19L809.72 300.82L810.5 293.95L812.42 290.79V287.98L814.46 284.82L816.03 283.88L816.851 286.38L817.021 287.71L820.061 288.9L823.24 289.46L822.71 291.65L818.4 291.94L817.62 293.82L818.47 294.71L822.86 294.54L825.43 297.19L826.24 296.04L827.75 294.77L828.72 297.08L829.62 299.53L830.97 296.86L830.99 295.46L832.47 293.34L832.95 292.17L832.38 281.05L828.791 276.84L826.55 276.95L824.351 279.87L819.82 280.1L818.03 278.03L812.73 277.97L811.24 280.11L808.74 278.24L806.61 277.9L803.811 275.39L801.63 278.21L792.69 278.61L791.851 277.69L792.67 275.8L794.86 275.51L798.78 269.91L808.21 269.44L809.37 273.5L811 274.2L814.71 268.91L817.34 271.67L821.65 271.45L824.14 274.04L828.67 273.81L831.74 269.45L831.36 262.21L828.2 262.33L827.36 261.65L826.97 260.75L827.63 259.77L831.351 262.21L832.44 262.12L834.68 259.14L836.95 259.19L840.4 263.15L840.561 266L838.53 269.16L838.69 272L840.331 272.7L842.89 268.27L843.92 264.5L846.09 264.39L848.42 261.3L855.01 260.97L857.331 257.99L859.62 258.15L863.021 262.07L863.17 264.9L866.47 263.37L867.63 260.35L870.73 260.23L873.36 262.83L879.7 262.31L881.851 262.57L884.28 262.46L886.66 259.55L911.36 258.31L913.88 260.91L918.22 260.7L920.84 263.54L925.25 263.32L927.75 265.99L934.44 265.66L936.65 262.91L941.09 262.69L942.47 266.7L944.19 268.1L956.561 267.53L957.46 267.08L958.11 263.09L967.88 261.18L970.581 263.81L979.51 263.36L981.72 260.53L990.66 260.08L993.18 262.79L999.86 262.46L1002.12 259.45L1004.31 259.51L1006.73 261.96L1013.39 261.62L1016.63 257.3L1016.5 254.33L1017.21 253.3L1018.64 254.59L1018.99 260.05L1023.4 265.14L1022.82 270.1L1021.89 272.49L1023.54 275.73L1025.68 275.92L1037.81 273.67L1035.39 270.72L1035.07 264.87L1039.44 262.02L1037.11 259.02L1037.03 251.01L1037.62 249.02L1039.96 248.84L1041.3 246.79L1042.05 245.83L1051.02 245.38L1054.4 249.45L1052.64 252.48L1054.83 255.31L1052.84 258.38L1052.89 259.78L1060.73 259.39L1069.47 272.04L1079.39 266.98L1080.14 265.95L1075.65 259.83L1079.81 256.42L1079.68 254.04L1074.18 252.86L1071.71 250.38L1070.92 256.89L1069.06 258.03L1068.45 255.44L1067.23 253.33L1065.01 256.2L1059.3 252.25L1059.14 249.37L1061.16 246.27L1061.07 244.23L1061.09 244.82L1059.3 244.18L1059.65 242.35L1060.36 242.68L1061.07 244.24L1062.22 244.86L1064.72 247.5L1065.47 246.37L1065.17 234.8L1061.83 230.73L1056.59 230.11L1055.66 227.74L1053.81 228.83L1052.45 233.68L1048.07 233.9L1045.24 228.22L1038.69 228.55L1038.55 223.04L1040.92 225.44L1045.32 225.22L1047.86 222.15L1052.08 221.94L1052.94 220.69L1054.46 219.61L1055.37 222.03L1055.64 227.73L1067.99 227.11L1070.47 229.74L1072.65 227.09L1073.91 231L1076.29 234L1072.5 234.91L1070.77 232.98L1069.65 234.83L1068.7 238.62L1068.08 240.7L1070.1 241.51L1071.1 241.34L1073.27 238.58L1078.18 240.66L1079.75 238.41L1085.59 244.6L1088.42 250.5L1088.72 256.06L1091.16 259.24L1091.44 262.05L1093.83 264.99L1093.93 266.4L1095.73 265.31L1095.88 259.83L1096.85 257.6L1099.38 260.36L1103.74 260.14L1106.22 262.73L1108.49 259.86L1111.79 263.85L1124.39 262.04L1121.79 259.24L1120.69 259.26L1118.9 260.27L1120.69 259.26L1121.29 256.87L1125.3 254.94L1119.89 249.22L1122.21 246.05L1122.12 244.05L1122.15 244.64L1120.36 244L1120.71 242.17L1121.41 242.5L1122.12 244.06L1123.2 244.68L1125.69 247.38L1127.76 247.28L1130.19 249.82L1131.35 246.95L1131.19 244.25L1127.53 244.43L1125.96 239.56L1120.59 238.82L1118.96 228.7L1120.47 227.43L1126.71 227.08L1129.64 229.36L1131.27 227.04L1133.94 229.62L1140.34 229.36L1141.5 231.07L1137.69 236.52L1139.88 239.43L1137.92 242.51L1141.32 246.43L1142.47 243.15L1144.42 238.46L1145.47 234.9L1149.95 234.67L1153.44 238.69L1149.4 244.89L1151.19 246.96L1159.4 248.69L1156.34 247.41L1158.29 244.34L1156.06 241.52L1157.88 238.39L1156.08 236.23L1155.48 233.62L1154.14 231.46L1152.04 231.57L1149.43 228.84L1148.19 228.91L1146.38 227.69L1147.68 226.11L1151.35 225.85L1154 228.28L1160.59 228.3L1162.94 225.49L1165.44 228L1167.72 227.88L1170.88 232.03L1169.93 233.54L1167.79 233.43L1165.4 231.15L1163.6 233.73L1161.24 231.5L1159.1 231.35L1158.28 232.54L1163.55 239.83L1166.02 236.93L1168.1 239.32L1170.33 236.73L1172.82 239.23L1174.94 239.13L1176.16 234.46L1180.73 227.92L1182.75 227.23L1192.46 226.71L1194.48 229.04L1200.33 227.65L1196.87 223.66L1192.46 223.88L1189.82 221.04L1183.11 221.38L1183.85 217.23L1181.13 212.79L1178.88 212.88L1177.86 212.57L1177.05 211.6L1177.64 210.59L1184.43 209.7L1187.05 212.18L1189.48 212.44L1194.28 217.9L1195.38 217.88L1194.99 210.71L1192.56 207.71L1193.4 203.66L1195.92 206.21L1198.07 206.1L1200.33 203.12L1203.41 204.08L1201.66 207.35L1201.97 213.14L1204.3 216.01L1204.4 217.43L1209.97 217.15L1212.49 219.92L1214.72 219.81L1218.05 223.73L1217.03 225.42L1204.86 226.11L1205.78 228.46L1208.99 228.78L1221.22 228.21L1222.24 228.5L1223.93 230.45L1226.25 228.29L1230.05 229.37L1233.2 230.48L1235.57 227.47L1238.64 227.32L1240.93 223.83L1242.92 221.26L1245.21 219.14L1244.95 214.26L1242.96 210.69L1245.88 209.58L1246.99 209.51L1249.21 209.39L1248.7 199.37L1249.36 198.31L1250.86 199.27L1252.12 209.76L1252.45 209.28L1253.56 210.92L1252.2 210.54H1251.56L1251.7 210.35L1249.2 209.4L1249.74 219.46L1254.31 222.22L1252.43 225.32L1255.91 229.32L1258.14 226.33L1260.32 226.36L1262.91 229.01L1265.12 228.54L1268.12 224.4L1259.76 222.86L1258.85 218.94L1259.57 217.93L1262.3 220.18L1264.63 220.23L1267.19 215.79L1266.31 214.18L1261.53 211.37L1256.74 208.52L1255.81 206.15L1253.86 205.22L1253.35 202.55L1251.64 194.77L1246.02 195.05L1244.93 194.98L1241.4 188.18L1239.59 184.21L1235.86 189.55L1234.15 183.03L1237.21 178.15L1239.54 178.03L1242.06 180.58L1242.89 176.16L1248.26 169.24L1250.58 171.58L1252.64 171.48L1255.3 174.32L1256.99 174.24V174.81L1260.75 175.23L1262.19 176.75L1271.12 176.3L1273.28 173.73L1276.83 177.39L1276.87 178.19L1275.24 180.37L1270.85 180.09L1269.2 182.29L1266.98 179.9L1265.83 181.33L1265.92 183.27L1259.42 182.86L1257.26 179.63L1253.71 184.24L1253.54 188.15L1257.27 194.88L1257.88 199.82L1267.23 199.75L1271.61 203.67L1271.93 209.8L1275.46 213.86L1277.02 213.14L1276.52 212.57L1277.77 211.19L1277.51 212.91L1277.54 213.73L1277.5 213.69L1277.48 216.26L1281.17 218.12L1280.44 219.11L1276.07 219.73L1275.09 221.13L1281.15 228.12L1283.03 228.18L1285.83 231L1288.68 229.58L1288.51 226.47L1290.56 223.25L1286.12 220.51L1287.92 217.51L1287.61 211.84L1285.78 208.53L1288.67 207.63L1292.17 211.5L1290.18 214.66L1291.17 218.36L1293.41 216.17L1294.14 215.12L1294.74 213.73L1294.3 205.56L1295.13 204.42L1297.89 209.87L1302.35 209.65L1305.35 205.27L1305.07 204.93L1329.83 200.18L1330.13 193.23L1331.92 191.34L1335.28 191.38L1337.09 189.69L1337.72 175.19L1335.48 175.43L1334.12 180.3L1334.13 180.24ZM827.84 33.78L829.24 34.8301L828.48 35.73L827.061 34.6599L827.831 33.78H827.84ZM513.19 35.73L512.42 34.8301L513.82 33.78L514.59 34.6599L513.18 35.73H513.19ZM193.37 95.8101L194.51 105.01L192.5 100.9L193.37 95.8101ZM154.51 95.3301L156.021 96.26L155.351 97.21L153.84 96.3L154.51 95.3301ZM152.53 116.75L152.581 115.49L153.99 112.28L159.73 111.99L166.601 118.92L165.86 123.28L162.34 123.46L160.021 126.93L159.05 129.18L157.82 127.37L156.39 123.76L154.22 123.86L152.01 126.78L150.55 120L152.541 116.75H152.53ZM150.5 135.65L152.69 138.43L153 144.22L150.521 144.34L148.331 141.56L148.021 135.78L150.5 135.65ZM131.95 87.26L135.24 91.75L133.46 96.6299L132.63 101.7L130.66 91.4399L128.88 88.5701L131.95 87.26ZM115.521 79.4199L117.72 76.47L121.05 80.3L121.36 82.97L120.17 84.9099L111.38 85.4399L111.12 79.6499L115.521 79.4199ZM116.831 89.03L116.17 90.9399L115.39 90.0601L116.07 88.1499L116.831 89.03ZM114.36 93.98L117.41 95.1799L115.53 98.27L116.61 105.06L125.4 105.08L127.19 106.46L128.271 110.3L132.75 104.66L134.94 104.55L137.18 101.61L138.65 108.5L140.99 111.52L141.291 117.05L143.081 118.54L146.45 118.51L148.26 119.85L148.88 131.39L146.65 131.2L145.291 127.32L141.021 127.53L138.37 124.75L136.16 127.56L132.71 123.58L134.72 120.42L134.57 117.59L131.15 113.65L128.87 113.52L126.57 116.51L119.99 116.84L111.39 106.98L110.851 97.04L114.34 93.96L114.36 93.98ZM144.25 151.14L144.98 152.13L144.021 153.91L136.76 153.62L133.271 158.57L128.96 160.08L131.14 163.48L126.69 163.13L127.23 153.14L126.86 152.33L126.25 153.04L125.32 151.3L126.311 151.15L126.15 150.79L126.311 150.43L125.32 150.28L126.25 148.54L126.86 149.25L127.23 148.44L126.69 138.45L131.14 138.1L128.96 141.5L133.271 143.01L136.76 147.96L144.021 147.67L144.98 149.45L144.25 150.44L137.57 150.8L144.25 151.16V151.14ZM144.23 163.49L143.57 165.41L141.311 165.36L139.87 163.47L139.3 161.35L142.68 158.61L144.23 163.5V163.49ZM136.61 162.32L134.311 164.81L133.65 163.83L134.03 162.93L134.87 162.25L136.61 162.32ZM133.65 137.71L134.311 136.74L136.61 139.23L134.87 139.3L134.03 138.62L133.65 137.71ZM139.3 140.2L139.87 138.08L141.311 136.19L143.57 136.13L144.23 138.05L142.68 142.93L139.3 140.19V140.2ZM119.081 124.2L118.42 125.17L116.9 124.25L117.57 123.29L119.07 124.19L119.081 124.2ZM106.39 92.55L110.65 92.99L110.87 97.04L106.39 92.55ZM61.6504 172.98L59.4604 172.91L57.0503 175.57L56.9902 175.49L57.3901 169.91L61.7505 170.21L62.4702 172.08L61.6504 172.98ZM57.0503 125.97L59.4604 128.63L61.6504 128.56L62.4702 129.46L61.7505 131.33L57.3901 131.63L56.9902 126.05L57.0503 125.97ZM67.6304 153.07L72.6401 154.44L68.0205 160.31L67.9404 161.68H67.9204L64.9302 150.77L67.9204 139.86H67.9404L68.0205 141.24L72.6401 147.11L67.6304 148.48L66.9004 150.77L67.6304 153.07ZM67.9302 139.8V139.78H68.1006L67.9302 139.8ZM67.9302 161.75H68.1006L67.9302 161.77V161.75ZM55.6304 97.1599L59.7803 101.93L50.9404 102L52.2803 99.3999L55.6401 97.1599H55.6304ZM46.1602 159.41L45.1401 157.19L45.8804 155.93L53.7402 155.38L53.6401 153.61L51.7002 150.78L53.6401 147.95L53.7402 146.18L45.8804 145.63L45.1401 144.37L46.1602 142.15L50.5103 142.33L54.0303 137.23L53.4702 134.72L56.7905 134.63L58.6504 135.89L56.5903 139.06L56.6401 141.82L55.4404 142.78L53.7402 146.18L55.1802 146.27L54.5903 148.01L53.1006 150.13L53.4604 150.78L53.1006 151.43L54.5903 153.55L55.1802 155.29L53.7402 155.38L55.4404 158.77L56.6401 159.74L56.5903 162.5L58.6504 165.67L56.7905 166.93L53.4702 166.84L54.0303 164.33L50.5103 159.23L46.1602 159.41ZM55.6304 204.39L52.2705 202.16L50.9302 199.55L59.7705 199.62L55.6201 204.39H55.6304ZM104.62 172.25L102.4 172.14L99.4302 167.89L98.0503 163.65L96.3105 165.65L95.1602 161.55L98.6802 157.5L103.03 157.65L104.05 155.88L103.32 154.88L95.4502 154.44L93.7505 157.14L89.3901 159.93L86.1104 159.77L85.6704 166.82L84.2002 167.94L82.7002 165.79L81.2002 166.75L81.2402 164.57L75.6504 164.92L73.5005 162L76.0503 159.25L86.0903 159.76L86.1904 158.44L90.1401 154.16L95.4302 154.43L95.5303 153.02L97.4702 150.77L95.5303 148.52L95.4302 147.11L90.1401 147.38L86.1904 143.1L86.0903 141.78L76.0503 142.29L73.5005 139.54L75.6504 136.63L81.2402 136.98L81.2002 134.8L82.7002 135.76L84.2002 133.61L85.6704 134.73L86.1104 141.78L89.3901 141.61L93.7505 144.4L95.4502 147.1L103.32 146.67L104.05 145.66L103.03 143.9L98.6802 144.05L95.1602 140L96.3105 135.9L98.0503 137.9L99.4302 133.66L102.4 129.41L104.62 129.3L109.65 134.81L111.93 134.45L113.42 132.36L117.271 132.89L118.311 136.71L120.94 134.18L124.561 139.41L123.69 142.96L120.96 140.03L118.71 140.33L115.71 144.61L115.86 147.32L111.541 150.73V150.84L115.86 154.25L115.71 156.96L118.71 161.23L120.96 161.53L123.69 158.6L124.561 162.15L120.94 167.37L118.311 164.84L117.271 168.66L113.42 169.2L111.93 167.11L109.65 166.74L104.62 172.26V172.25ZM80.9604 150.8L83.1602 150.91L82.9004 156.7L80.7002 156.58L80.9604 150.8ZM80.7002 144.95L82.9004 144.84L83.1602 150.63L80.9604 150.74L80.7002 144.95ZM119.2 145.91L121.4 145.8L121.62 150.76L121.4 155.73L119.2 155.62L119.42 150.76L119.2 145.91ZM119.061 177.33L117.561 178.23L116.89 177.27L118.41 176.35L119.07 177.32L119.061 177.33ZM110.63 208.54L106.37 208.98L110.851 204.49L110.63 208.54ZM121.021 221.25L117.69 225.08L115.49 222.13L111.09 221.9L111.351 216.12L120.14 216.65L121.331 218.59L121.021 221.26V221.25ZM115.37 211.48L116.15 210.6L116.811 212.51L116.05 213.4L115.37 211.48ZM131.93 214.29L128.86 212.98L130.64 210.1L132.61 199.84L133.44 204.91L135.22 209.79L131.93 214.28V214.29ZM148.26 181.68L146.45 183.02L143.081 182.99L141.291 184.49L140.99 190.02L138.65 193.03L137.18 199.92L134.94 196.99L132.75 196.88L128.271 191.24L127.19 195.08L125.4 196.46L116.61 196.48L115.53 203.27L117.41 206.36L114.36 207.56L110.87 204.48L111.41 194.54L120.01 184.68L126.59 185.01L128.89 188L131.17 187.87L134.59 183.94L134.74 181.11L132.73 177.95L136.18 173.97L138.39 176.78L141.041 174L145.311 174.21L146.67 170.33L148.9 170.14L148.28 181.67L148.26 181.68ZM148 165.76L148.311 159.97L150.5 157.19L152.98 157.31L152.67 163.1L150.48 165.89L148 165.76ZM154.49 206.2L153.82 205.23L155.331 204.33L156 205.29L154.49 206.21V206.2ZM159.7 189.55L153.96 189.26L152.55 186.05L152.5 184.79L150.51 181.54L151.97 174.76L154.18 177.68L156.351 177.79L157.78 174.18L159.01 172.37L159.98 174.62L162.3 178.09L165.82 178.27L166.561 182.63L159.69 189.56L159.7 189.55ZM166.44 157.95L162.041 157.77L159.84 154.76L155.4 154.49L154.69 153.48L155.67 151.72L162.291 151.97L163.4 150.75L162.291 149.53L155.67 149.78L154.69 148.03L155.4 147.02L159.84 146.75L162.041 143.74L166.44 143.56L167.84 144.98L167.17 150.75L167.84 156.53L166.44 157.94V157.95ZM193.351 205.73L192.48 200.64L194.49 196.53L193.351 205.73ZM209.061 180.44L208.14 180.67L204.66 184.53L204.5 187.47L203.64 188.43L200.101 185.55L200.32 181.45L199.5 180.29L196 183.5L194.94 190.29L193.01 191.22L192.91 192.59L189.4 196.56L184.66 196.9L183.37 201.19L185.51 203.97L185.47 205.34L186.57 205.42L189.541 209.63L186.311 211.33L182.69 215.24L182.521 218.28L184.28 219.72L188.51 220.64L188.9 221.64L188.09 222.6L176.99 222.08L174.19 225.02L167.541 224.68L167.82 218.88L168.89 217.64L169.311 212.31L170.601 210.65L172.75 213.2L174.63 211.11L176.72 210.64L178.521 209.13L178.66 206.48L181.041 203.43L181.21 200.39L178.16 196.27L175.89 193.26L173.69 193.15L174 190.34L177.46 186.49L178.081 185.4L179 184.75L187.92 184.84L188.72 183.88L188.24 182.87L180.76 181.45L180.09 178.97L177.05 178.75L175.73 175.86L172.521 175.61L171.561 173.88L174.92 170.01L179.13 170.3L180.4 172.08L180.09 178.97L183.45 179.14L186.081 173.62L188.32 176.48L209.76 177.53L211.55 178.83L209.07 180.42L209.061 180.44ZM189.32 159.57L190.05 164.76L184.26 164.47L180.97 160.11L189.32 159.56V159.57ZM180.97 141.42L184.26 137.06L190.05 136.77L189.32 141.96L180.97 141.42ZM198.9 158.59L199.46 156.03L200.69 153.97L201.53 159.04L200.19 162.59L198.041 162.43L197.32 160.54L198.91 158.58L198.9 158.59ZM197.311 140.99L198.03 139.11L200.18 138.94L201.521 142.49L200.68 147.56L199.45 145.5L198.89 142.94L197.3 140.98L197.311 140.99ZM209.76 123.99L188.32 125.04L186.081 127.9L183.45 122.39L180.09 122.56L180.4 129.44L179.13 131.22L174.92 131.52L171.561 127.65L172.521 125.92L175.73 125.67L177.05 122.78L180.09 122.56L180.76 120.07L188.24 118.64L188.72 117.64L187.92 116.68L179 116.77L178.081 116.11L177.46 115.02L174 111.18L173.69 108.36L175.89 108.25L178.16 105.23L181.21 101.11L181.041 98.0701L178.66 95.02L178.521 92.3701L176.72 90.8501L174.63 90.3799L172.75 88.3L170.601 90.8501L169.311 89.1899L168.89 83.8601L167.82 82.6201L167.541 76.8201L174.19 76.49L176.99 79.4299L188.09 78.9099L188.9 79.8701L188.51 80.8701L184.28 81.79L182.521 83.24L182.69 86.28L186.311 90.1799L189.541 91.8899L186.57 96.0901L185.47 96.1799L185.51 97.55L183.37 100.33L184.66 104.62L189.4 104.96L192.91 108.94L193.01 110.3L194.94 111.23L196 118.03L199.5 121.24L200.32 120.08L200.101 115.98L203.64 113.1L204.5 114.06L204.66 117L208.14 120.86L209.061 121.09L211.541 122.68L209.75 123.98L209.76 123.99ZM212.51 186.37L211.84 184.45L212.62 183.57L213.28 185.47L212.51 186.36V186.37ZM212.62 117.98L211.84 117.11L212.51 115.2L213.28 116.08L212.62 117.98ZM269 121.49L270.51 122.39L269.851 123.36L268.331 122.44L269 121.48V121.49ZM261.86 150.29L261.09 149.41L261.72 147.45L262.51 148.39L261.851 150.29H261.86ZM262.521 153.16L261.73 154.1L261.101 152.15L261.87 151.26L262.53 153.16H262.521ZM261.91 125.93L263.771 122.75L263.89 125.29L263.38 126.34L262.69 126.8L261.91 125.92V125.93ZM261.37 67.01L262.061 66.54L262.84 67.4199L260.98 70.6899L260.86 68.0601L261.37 67.01ZM261.081 73.3701L259.831 74.74L260.68 72.9099L261.081 73.3701ZM260.061 72.2L260.101 72.24L259.14 73.9399L260.07 72.2H260.061ZM259.51 104.22L263.01 108.25L262.41 112.08L259.811 110.02L257.61 112.72L256.64 112.88L254.72 113.85L255.46 115.89L255.71 121.76L253.351 124.88L250.12 123.77L252.331 120.3L250.92 116.23L244.331 116.25L241.42 113.66L237.73 113.77L236.32 112.29L237.99 110.92L239.25 110.86L243.601 104.93L246.07 107.55L257.22 106.99L259.49 104.19L259.51 104.22ZM258.61 138.42L257.851 137.52L259.25 136.47L260.021 137.36L258.61 138.42ZM260.021 164.19L259.25 165.08L257.851 164.03L258.61 163.13L260.021 164.19ZM243.811 158.47L242.311 157.5L240.07 154.66L244.75 154.74L243.811 158.47ZM243.91 162.88L243.05 164.71L242.37 163.76L243.24 161.93L243.91 162.89V162.88ZM240.061 146.89L242.3 144.05L243.8 143.07L244.74 146.8L240.061 146.88V146.89ZM242.36 137.8L243.041 136.85L243.9 138.68L243.23 139.63L242.36 137.8ZM237.771 122.57L233.37 122.79L232.4 120.96L233.101 119.91L237.5 119.69L238.47 121.53L237.771 122.58V122.57ZM238.47 180.05L237.5 181.89L233.101 181.67L232.4 180.62L233.37 178.78L237.771 179.01L238.47 180.05ZM241.88 94.52L241.37 95.5701L240.68 96.04L239.89 95.1599L241.68 90.48L242.3 88.05L243.42 90.3899L241.68 90.47L241.87 94.51L241.88 94.52ZM240.23 84.72L239.15 84.8101L237.12 83.01L238.91 81.9299L240 81.8999L240.94 83.72L240.22 84.72H240.23ZM243.96 90.4199L245.75 91.0601L245.4 92.8899L244.69 92.5601L243.95 90.4199H243.96ZM253 91.28L252.34 92.3201L250.84 91.3799L250.32 82.9299L254.811 82.53L254.97 85.6101L252.87 88.2L253 91.28ZM252.7 70.04L256.53 73.8899L253.69 77.95L249.84 74.1201L252.7 70.04ZM248.43 49.51L250.39 50.3401L249.84 52.3799L247.9 55.3701L245.45 55.5L245.16 49.71L248.44 49.51H248.43ZM238.21 47.1599L238.47 52.9399L236.271 53.05L238.21 47.1499V47.1599ZM234.11 61.3799L235.041 57.9199L236.51 56.0601L240.72 60.8899L241.51 61.1101L246.73 59.8L244.7 62.9299L243.97 66.8899L243 67.21L240.78 67.3401L238.331 70.6499L238.55 74.6899L235.3 79.3301L229.74 72.1101L229.88 71.55L231.791 70.6201L233.581 66.4399L232.14 58.95L231.07 57.3701L232.101 58.74L231.67 56.5L233.061 57.75L232.23 58.9299L234.081 61.3899L234.11 61.3799ZM225.95 50.6799L232.271 46.25L229.36 50.51L225.96 50.6799L226.14 54.72L225.64 55.78L224.95 56.24L224.17 55.3601L225.96 50.6799H225.95ZM220.5 89.1299L221.26 90.03L219.86 91.0801L219.09 90.2L220.5 89.1299ZM219.541 117.74L220.15 118.44L220.521 117.64L221.101 115.3L222.98 114.62L224.68 115.75L223.67 117.4L220.42 118.73L220.561 118.9L219.311 120.27L219.93 118.93L218.62 119.47L219.55 117.73L219.541 117.74ZM218.21 138.1L219.07 139.93L218.4 140.89L217.521 139.06L218.2 138.11L218.21 138.1ZM217.53 162.52L218.41 160.68L219.081 161.64L218.22 163.47L217.541 162.52H217.53ZM220.49 212.45L219.081 211.38L219.851 210.5L221.25 211.55L220.49 212.45ZM221.09 186.27L220.51 183.94L220.14 183.14L219.53 183.85L218.601 182.11L219.91 182.65L219.291 181.31L220.541 182.68L220.4 182.85L223.65 184.18L224.66 185.83L222.96 186.96L221.081 186.28L221.09 186.27ZM228.84 256.63L225.94 250.9L224.15 246.22L224.93 245.34L225.62 245.81L226.12 246.87L225.94 250.91L229.34 251.08L232.25 255.33L228.831 256.64L228.84 256.63ZM238.2 254.42L236 254.31L236.26 248.52L238.46 248.63L238.2 254.42ZM241.521 240.47L240.73 240.7L236.521 245.52L235.05 243.66L234.12 240.2L232.271 242.65L233.101 243.83L231.71 245.07L232.14 242.83L231.11 244.2L232.18 242.62L233.62 235.13L231.831 230.95L229.92 230.02L229.78 229.46L235.34 222.24L238.59 226.88L238.37 230.93L240.82 234.24L243.041 234.37L244.01 234.69L244.74 238.65L246.771 241.78L241.55 240.47H241.521ZM243.42 211.19L242.3 213.53L241.68 211.1L239.89 206.42L240.68 205.54L241.37 206L241.88 207.06L241.69 211.1L243.43 211.19H243.42ZM240.22 216.86L240.94 217.86L240 219.69L238.91 219.66L237.12 218.58L239.15 216.78L240.23 216.87L240.22 216.86ZM243.95 211.16L244.69 209.01L245.4 208.68L245.75 210.52L243.96 211.16H243.95ZM248.43 252.07L245.15 251.87L245.44 246.09L247.89 246.21L249.831 249.2L250.38 251.25L248.42 252.08L248.43 252.07ZM252.7 231.54L249.84 227.46L253.69 223.63L256.53 227.69L252.7 231.54ZM254.97 215.97L254.811 219.05L250.32 218.65L250.84 210.2L252.34 209.26L253 210.3L252.87 213.38L254.97 215.97ZM260.061 229.38L259.13 227.64L260.09 229.34L260.05 229.38H260.061ZM259.831 226.84L261.081 228.21L260.68 228.67L259.831 226.83V226.84ZM262.061 235.04L261.37 234.57L260.86 233.52L260.98 230.9L262.84 234.17L262.061 235.05V235.04ZM259.51 197.36L257.24 194.56L246.09 194L243.62 196.63L239.271 190.69L238.01 190.63L236.34 189.26L237.75 187.79L241.44 187.9L244.351 185.31L250.94 185.33L252.351 181.26L250.14 177.79L253.37 176.68L255.73 179.8L255.48 185.68L254.74 187.72L256.66 188.69L257.63 188.85L259.831 191.55L262.43 189.5L263.03 193.33L259.53 197.36H259.51ZM261.92 175.64L262.7 174.76L263.39 175.22L263.9 176.28L263.78 178.82L261.92 175.64ZM264.2 182.62L263.75 180.34L265.4 181.22L265.63 182.11L264.19 182.61L264.2 182.62ZM265.41 120.38L263.76 121.26L264.21 118.98L265.65 119.48L265.42 120.38H265.41ZM267.46 215.25L266.78 214.3L267.66 212.46L268.331 213.42L267.46 215.25ZM267.66 89.1399L266.78 87.3L267.46 86.3501L268.331 88.1799L267.66 89.1399ZM269.021 180.09L268.351 179.13L269.87 178.21L270.53 179.18L269.021 180.09ZM270.811 188.88L270.14 187.92L271.66 187.01L272.32 187.98L270.811 188.88ZM271.66 114.6L270.14 113.68L270.811 112.73L272.32 113.63L271.66 114.6ZM282.851 181.25L278.45 181.07L277.72 180.07L278.601 178.18L283 178.4L283.68 180.37L282.851 181.25ZM283 123.22L278.601 123.44L277.72 121.54L278.45 120.54L282.851 120.36L283.68 121.24L283 123.21V123.22ZM299.26 214.03L299.541 208.22L301.76 205.2L302.291 213.17L299.26 214.03ZM301.76 96.4299L299.541 93.4099L299.26 87.6001L302.291 88.45L301.76 96.4299ZM320.25 57.6101L321.03 58.49L320.36 60.4099L319.59 59.52L320.25 57.6201V57.6101ZM316.32 69.3999L317.2 71.23L316.521 72.1799L315.66 70.3501L316.32 69.3899V69.3999ZM310.89 30.28L310.78 27.52L310.3 37.51L308.811 33.46L310.89 30.28ZM310.78 274.09L310.89 271.33L308.811 268.16L310.3 264.11L313.271 268.36L310.791 274.1L310.78 274.09ZM312.78 179.39L311.38 178.34L312.14 177.44L313.55 178.51L312.78 179.39ZM312.14 124.16L311.38 123.26L312.78 122.21L313.55 123.09L312.14 124.16ZM315.66 231.25L316.521 229.42L317.2 230.37L316.32 232.21L315.66 231.26V231.25ZM317.32 249.2L316.61 248.21L318.16 247.34L318.831 248.3L317.32 249.2ZM318.16 54.25L316.61 53.3701L317.32 52.3799L318.831 53.28L318.16 54.24V54.25ZM320.25 244L319.59 242.09L320.36 241.21L321.03 243.13L320.25 244.01V244ZM320.2 237.75L319.53 236.79L321.05 235.87L321.71 236.84L320.2 237.75ZM321.05 65.72L319.53 64.8L320.2 63.8401L321.71 64.74L321.05 65.71V65.72ZM338.93 249.63L335.561 253.52L330.43 246.18L333.09 244.7L335.541 247.21L337.041 246.19L337.24 243.43L341.601 243.86L338.94 249.63H338.93ZM337.23 58.1699L337.03 55.4099L335.53 54.3899L333.081 56.8999L330.42 55.4199L335.55 48.0801L338.92 51.97L341.581 57.74L337.22 58.1699H337.23ZM349.74 242.59L349.07 240.67L349.851 239.8L350.51 241.7L349.74 242.59ZM349.84 61.8101L349.061 60.9299L349.73 59.01L350.5 59.8899L349.84 61.8V61.8101ZM353 244.21L353.94 240.48L355.44 241.46L357.68 244.3L352.99 244.22L353 244.21ZM355.45 60.1499L353.95 61.1299L353.01 57.3999L357.7 57.3201L355.46 60.1599L355.45 60.1499ZM364.84 248.71L364.18 247.74L365.68 246.84L366.351 247.8L364.84 248.71ZM365.68 54.76L364.18 53.8601L364.84 52.8899L366.351 53.8101L365.68 54.76ZM385.63 247.29L384.95 246.34L385.831 244.5L386.5 245.46L385.64 247.29H385.63ZM385.82 57.0901L384.94 55.25L385.62 54.3L386.48 56.1299L385.811 57.0901H385.82ZM392.22 264.13L391.4 264.98L389.23 264.87L388.51 263.89L388.63 262.92L392.34 263.18L392.23 264.14L392.22 264.13ZM388.63 38.6699L388.51 37.7L389.23 36.72L391.4 36.6101L392.22 37.46L392.331 38.4199L388.62 38.6699H388.63ZM513.84 267.78L512.44 266.73L513.21 265.84L514.62 266.9L513.851 267.78H513.84ZM522.291 259.07L522.271 258.09L526 258.22V259.18L522.291 259.06V259.07ZM526 43.3501L522.271 43.48L522.291 42.5L526 42.3799V43.3401V43.3501ZM528.9 262.31L528.88 261.33L532.61 261.46V262.43L528.9 262.31ZM532.61 40.1201L528.88 40.25L528.9 39.28L532.62 39.1599V40.1299L532.61 40.1201ZM553.87 273.14L553.19 272.19L554.07 270.36L554.74 271.32L553.88 273.15L553.87 273.14ZM554.07 31.22L553.19 29.3799L553.87 28.4299L554.73 30.26L554.061 31.22H554.07ZM558.21 270.03L557.55 269.06L559.061 268.16L559.73 269.12L558.21 270.04V270.03ZM559.061 33.4199L557.55 32.52L558.21 31.55L559.73 32.47L559.061 33.4199ZM608.73 284.67L607.65 284.57L606.91 282.66L607.73 281.74L608.811 281.76L610.64 283.76L608.73 284.67ZM608.811 19.8201L607.73 19.8401L606.91 18.9199L607.65 17.02L608.73 16.9199L610.64 17.8301L608.811 19.8301V19.8201ZM734.05 284.57L732.98 284.67L731.07 283.76L732.9 281.76L733.98 281.74L734.8 282.66L734.061 284.57H734.05ZM733.97 19.8401L732.89 19.8201L731.061 17.8201L732.97 16.9099L734.041 17.01L734.78 18.9099L733.96 19.8301L733.97 19.8401ZM783.49 270.03L781.97 269.11L782.64 268.15L784.15 269.05L783.49 270.02V270.03ZM782.64 33.4199L781.97 32.47L783.49 31.55L784.15 32.52L782.64 33.4199ZM787.82 273.14L786.96 271.31L787.63 270.35L788.51 272.18L787.831 273.13L787.82 273.14ZM787.63 31.22L786.96 30.26L787.82 28.4299L788.5 29.3799L787.62 31.22H787.63ZM812.8 262.3L809.09 262.42V261.45L812.82 261.32L812.8 262.3ZM809.09 40.1101V39.1399L812.8 39.26L812.82 40.23L809.09 40.1001V40.1101ZM819.41 259.07L815.7 259.19V258.23L819.43 258.1L819.41 259.08V259.07ZM815.7 43.3501V42.3899L819.41 42.51L819.43 43.49L815.7 43.3601V43.3501ZM828.5 265.83L829.26 266.72L827.86 267.77L827.09 266.89L828.51 265.83H828.5ZM952.47 264.86L950.3 264.97L949.47 264.12L949.36 263.16L953.07 262.9L953.19 263.87L952.47 264.85V264.86ZM953.07 38.6599L949.36 38.4099L949.47 37.45L950.3 36.6001L952.47 36.71L953.19 37.6899L953.07 38.6599ZM956.07 247.27L955.21 245.44L955.88 244.48L956.76 246.32L956.081 247.27H956.07ZM955.87 57.0701L955.2 56.1101L956.061 54.28L956.74 55.23L955.86 57.0701H955.87ZM976.851 248.69L975.34 247.78L976.01 246.82L977.521 247.72L976.86 248.69H976.851ZM976.01 54.74L975.34 53.79L976.851 52.8701L977.51 53.8401L976 54.74H976.01ZM984 244.27L986.24 241.43L987.74 240.45L988.69 244.18L984 244.26V244.27ZM987.74 61.1101L986.24 60.1299L984 57.29L988.69 57.3701L987.74 61.1001V61.1101ZM991.96 242.57L991.19 241.68L991.851 239.78L992.63 240.65L991.96 242.57ZM991.851 61.79L991.19 59.8799L991.96 59L992.63 60.9199L991.851 61.8V61.79ZM1006.14 253.5L1002.77 249.61L1000.11 243.84L1004.46 243.41L1004.66 246.17L1006.16 247.19L1008.61 244.68L1011.27 246.16L1006.14 253.5ZM1008.61 56.8799L1006.16 54.3701L1004.66 55.3899L1004.46 58.1499L1000.11 57.72L1002.77 51.95L1006.14 48.0601L1011.27 55.3999L1008.61 56.8799ZM1024.38 52.3799L1025.09 53.3701L1023.54 54.25L1022.87 53.29L1024.38 52.3899V52.3799ZM1021.44 57.5901L1022.11 59.49L1021.34 60.3799L1020.67 58.46L1021.44 57.5801V57.5901ZM1021.44 243.99L1020.67 243.11L1021.34 241.19L1022.11 242.07L1021.44 243.98V243.99ZM1021.5 237.74L1019.99 236.83L1020.65 235.86L1022.17 236.78L1021.5 237.74ZM1020.65 65.71L1019.99 64.74L1021.5 63.8401L1022.17 64.8L1020.65 65.72V65.71ZM1024.38 249.19L1022.87 248.29L1023.54 247.33L1025.09 248.2L1024.38 249.19ZM1025.37 232.19L1024.5 230.35L1025.18 229.4L1026.04 231.23L1025.37 232.18V232.19ZM1025.18 72.1599L1024.5 71.21L1025.37 69.3799L1026.04 70.3401L1025.18 72.1699V72.1599ZM1029.55 177.42L1030.32 178.32L1028.91 179.37L1028.14 178.49L1029.54 177.42H1029.55ZM1028.15 123.07L1028.92 122.19L1030.33 123.24L1029.56 124.14L1028.16 123.07H1028.15ZM1030.81 271.3L1030.92 274.06L1030.23 275.06L1028.79 273.9L1028.43 268.32L1031.4 264.07L1032.89 268.12L1030.81 271.29V271.3ZM1031.4 37.47L1028.43 33.22L1028.79 27.6499L1030.81 30.25L1032.89 33.4299L1031.4 37.48V37.47ZM1039.41 213.13L1039.94 205.16L1042.17 208.18L1042.45 213.99L1039.42 213.13H1039.41ZM1042.16 93.3601L1039.93 96.3799L1039.4 88.3999L1042.43 87.55L1042.15 93.3601H1042.16ZM1063.25 181.03L1058.85 181.21L1058.02 180.33L1058.7 178.36L1063.09 178.14L1063.98 180.03L1063.25 181.03ZM1063.09 123.4L1058.7 123.18L1058.02 121.21L1058.85 120.33L1063.25 120.51L1063.98 121.51L1063.09 123.41V123.4ZM1121.17 89.1101L1122.58 90.1799L1121.81 91.0601L1120.4 90.01L1121.16 89.1101H1121.17ZM1120.57 115.28L1121.14 117.62L1121.51 118.42L1122.13 117.72L1123.05 119.46L1121.74 118.92L1122.36 120.26L1121.11 118.89L1121.25 118.72L1118 117.39L1116.98 115.74L1118.68 114.61L1120.56 115.29L1120.57 115.28ZM1112.81 44.9199L1115.72 50.6599L1117.5 55.3401L1116.71 56.22L1116.02 55.76L1115.51 54.7L1115.7 50.6599L1112.29 50.49L1109.39 46.23L1112.8 44.9199H1112.81ZM1103.45 47.1399L1105.66 47.25L1105.41 53.04L1103.2 52.9299L1103.45 47.1499V47.1399ZM1100.14 61.0901L1100.93 60.8701L1105.14 56.04L1106.62 57.8999L1107.55 61.3601L1109.39 58.8999L1108.57 57.72L1109.95 56.47L1109.52 58.71L1110.55 57.3401L1109.48 58.9199L1108.04 66.4099L1109.83 70.5901L1111.75 71.52L1111.88 72.0801L1106.32 79.3L1103.08 74.6599L1103.3 70.6201L1100.84 67.3101L1098.62 67.1799L1097.66 66.8601L1096.92 62.8999L1094.89 59.77L1100.12 61.0801L1100.14 61.0901ZM1108.3 122.77L1103.9 122.55L1103.2 121.5L1104.17 119.66L1108.57 119.88L1109.28 120.93L1108.31 122.76L1108.3 122.77ZM1109.27 180.6L1108.56 181.65L1104.16 181.87L1103.19 180.03L1103.89 178.99L1108.29 178.76L1109.26 180.6H1109.27ZM1098.23 90.3799L1099.36 88.04L1099.97 90.47L1101.76 95.1499L1100.97 96.03L1100.28 95.5601L1099.77 94.51L1099.96 90.47L1098.22 90.3899L1098.23 90.3799ZM1101.43 84.7L1100.71 83.7L1101.66 81.8799L1102.74 81.9099L1104.54 82.99L1102.51 84.79L1101.44 84.7H1101.43ZM1097.7 90.3999L1096.96 92.55L1096.25 92.8799L1095.9 91.05L1097.69 90.4099L1097.7 90.3999ZM1093.23 49.49L1096.5 49.6899L1096.21 55.48L1093.76 55.3501L1091.82 52.3601L1091.27 50.3201L1093.23 49.49ZM1088.96 70.02L1091.81 74.1001L1087.95 77.9299L1085.12 73.8701L1088.95 70.02H1088.96ZM1086.69 85.6001L1086.86 82.52L1091.34 82.9199L1090.82 91.3701L1089.32 92.3101L1088.66 91.27L1088.79 88.1899L1086.69 85.6001ZM1081.6 72.1899L1082.53 73.9299L1081.57 72.23L1081.61 72.1899H1081.6ZM1081.83 74.73L1080.58 73.3601L1080.98 72.8999L1081.83 74.73ZM1079.61 66.53L1080.3 67L1080.8 68.05L1080.67 70.6799L1078.81 67.4099L1079.6 66.53H1079.61ZM1082.16 104.21L1084.43 107.01L1095.58 107.57L1098.05 104.95L1102.41 110.88L1103.67 110.94L1105.34 112.31L1103.94 113.79L1100.24 113.68L1097.33 116.27L1090.73 116.25L1089.33 120.32L1091.54 123.79L1088.31 124.9L1085.95 121.78L1086.2 115.91L1086.94 113.87L1085.02 112.9L1084.04 112.74L1081.85 110.04L1079.25 112.1L1078.65 108.27L1082.15 104.24L1082.16 104.21ZM1097.87 158.46L1096.93 154.73L1101.61 154.65L1099.37 157.49L1097.87 158.46ZM1099.31 163.75L1098.63 164.7L1097.77 162.87L1098.44 161.91L1099.32 163.74L1099.31 163.75ZM1096.93 146.8L1097.87 143.07L1099.37 144.05L1101.61 146.89L1096.93 146.81V146.8ZM1097.77 138.66L1098.63 136.83L1099.31 137.78L1098.43 139.61L1097.76 138.66H1097.77ZM1083.06 138.41L1081.65 137.35L1082.42 136.46L1083.82 137.51L1083.06 138.41ZM1083.82 164.01L1082.42 165.06L1081.65 164.17L1083.06 163.11L1083.82 164.01ZM1079.8 150.27L1079.14 148.37L1079.93 147.43L1080.56 149.39L1079.8 150.27ZM1080.56 152.13L1079.93 154.08L1079.14 153.14L1079.8 151.24L1080.56 152.13ZM1079.74 125.92L1078.95 126.8L1078.26 126.34L1077.75 125.29L1077.87 122.75L1079.74 125.93V125.92ZM1077.46 118.94L1077.91 121.22L1076.26 120.34L1076.02 119.44L1077.47 118.94H1077.46ZM1070.86 112.68L1071.53 113.63L1070.01 114.55L1069.35 113.58L1070.86 112.68ZM1070.86 188.83L1069.35 187.93L1070.01 186.96L1071.53 187.87L1070.86 188.83ZM1072.65 180.04L1071.14 179.13L1071.81 178.16L1073.33 179.08L1072.66 180.04H1072.65ZM1071.8 123.34L1071.13 122.37L1072.64 121.47L1073.31 122.43L1071.79 123.35L1071.8 123.34ZM1074.2 215.2L1073.34 213.37L1074.01 212.41L1074.88 214.25L1074.2 215.2ZM1074.01 89.0901L1073.34 88.1299L1074.2 86.3L1074.88 87.25L1074.01 89.0901ZM1077.46 182.58L1076.01 182.08L1076.25 181.19L1077.9 180.31L1077.45 182.59L1077.46 182.58ZM1077.87 178.78L1077.75 176.24L1078.26 175.18L1078.95 174.72L1079.74 175.6L1077.87 178.78ZM1080.29 234.53L1079.6 235L1078.81 234.12L1080.67 230.85L1080.8 233.47L1080.3 234.52L1080.29 234.53ZM1080.57 228.17L1081.82 226.8L1080.97 228.64L1080.57 228.18V228.17ZM1081.59 229.34L1081.55 229.3L1082.51 227.6L1081.58 229.34H1081.59ZM1082.14 197.32L1078.64 193.29L1079.24 189.46L1081.84 191.51L1084.03 188.81L1085.01 188.65L1086.93 187.68L1086.19 185.64L1085.94 179.76L1088.3 176.64L1091.53 177.75L1089.32 181.22L1090.72 185.29L1097.32 185.27L1100.23 187.86L1103.93 187.75L1105.33 189.22L1103.66 190.59L1102.4 190.65L1098.04 196.59L1095.57 193.96L1084.42 194.52L1082.15 197.32H1082.14ZM1099.77 207.03L1100.28 205.97L1100.97 205.51L1101.76 206.39L1099.97 211.07L1099.36 213.5L1098.23 211.16L1099.97 211.07L1099.78 207.03H1099.77ZM1101.42 216.83L1102.49 216.74L1104.52 218.54L1102.72 219.62L1101.64 219.65L1100.69 217.82L1101.41 216.82L1101.42 216.83ZM1097.69 211.13L1095.9 210.49L1096.25 208.65L1096.96 208.98L1097.7 211.13H1097.69ZM1088.65 210.27L1089.31 209.23L1090.81 210.17L1091.33 218.62L1086.85 219.02L1086.68 215.94L1088.78 213.35L1088.65 210.27ZM1088.95 231.51L1085.12 227.66L1087.95 223.6L1091.81 227.43L1088.96 231.51H1088.95ZM1093.22 252.04L1091.26 251.21L1091.81 249.16L1093.75 246.17L1096.2 246.05L1096.49 251.83L1093.22 252.03V252.04ZM1103.43 254.39L1103.18 248.6L1105.39 248.49L1105.64 254.28L1103.43 254.39ZM1107.53 240.17L1106.6 243.63L1105.12 245.49L1100.91 240.67L1100.12 240.44L1094.89 241.75L1096.92 238.62L1097.66 234.66L1098.62 234.34L1100.84 234.21L1103.3 230.9L1103.08 226.85L1106.32 222.21L1111.88 229.43L1111.75 229.99L1109.83 230.92L1108.04 235.1L1109.48 242.59L1110.55 244.17L1109.52 242.8L1109.95 245.04L1108.57 243.8L1109.39 242.62L1107.55 240.17H1107.53ZM1115.69 250.87L1112.78 256.6L1109.37 255.29L1112.27 251.04L1115.68 250.87L1115.49 246.83L1116 245.77L1116.69 245.3L1117.48 246.18L1115.7 250.86L1115.69 250.87ZM1121.14 212.42L1120.38 211.52L1121.79 210.47L1122.56 211.35L1121.15 212.42H1121.14ZM1122.09 183.81L1121.47 183.1L1121.1 183.9L1120.53 186.23L1118.65 186.91L1116.95 185.78L1117.97 184.13L1121.22 182.8L1121.08 182.63L1122.33 181.26L1121.71 182.6L1123.02 182.06L1122.1 183.8L1122.09 183.81ZM1123.41 163.44L1122.55 161.61L1123.22 160.65L1124.09 162.49L1123.41 163.44ZM1123.22 140.86L1122.55 139.9L1123.41 138.07L1124.09 139.02L1123.22 140.85V140.86ZM1271.52 161.84L1273.72 161.73V161.98L1271.52 161.84ZM1273.72 161.67L1273.64 160.3L1269.02 154.43L1274.02 153.06L1274.75 150.76L1274.02 148.47L1269.02 147.1L1273.64 141.23L1273.72 139.85H1273.74L1276.73 150.76L1273.74 161.67H1273.72ZM1273.72 139.54V139.79L1271.52 139.68L1273.72 139.54ZM1294.38 186.88L1296.19 188.96L1295.57 189.67L1294.26 187.04L1294.38 186.88ZM1290.49 176.78L1290.46 176.26L1291.21 177.62L1293.43 177.75L1293.67 177.43V180.7L1290.49 176.78ZM1291.87 159.39L1287.52 159.21L1283.99 164.31L1284.52 166.67L1283.01 165.65L1285.07 162.48L1285.02 159.58L1286.4 155.51L1292.15 155.91L1292.88 157.17L1291.86 159.39H1291.87ZM1292.16 145.6L1286.41 146L1285.03 141.93L1285.08 139.03L1283.02 135.86L1284.53 134.84L1284 137.2L1287.53 142.3L1291.88 142.12L1292.9 144.34L1292.17 145.6H1292.16ZM1282.21 128.61L1284.69 125.87L1284.28 131.61L1279.92 131.31L1279.2 129.44L1280.02 128.54L1282.21 128.61ZM1279.92 170.19L1284.28 169.89L1284.69 175.63L1282.21 172.89L1280.02 172.96L1279.2 172.06L1279.92 170.19ZM1293.44 123.76L1291.22 123.9L1290.47 125.26L1290.5 124.74L1293.68 120.82V124.09L1293.44 123.77V123.76ZM1290.75 116.22L1290.7 118.72L1287.43 119.17L1287.62 118.86L1288.45 113.31L1290.74 116.22H1290.75ZM1290.7 182.78L1290.75 185.28L1288.46 188.19L1287.63 182.64L1287.44 182.33L1290.71 182.78H1290.7ZM1294.39 114.63L1294.27 114.47L1295.58 111.84L1296.2 112.55L1294.39 114.63ZM1286.03 97.1299L1286.54 97.46L1288.4 101.98L1281.87 101.93L1286.03 97.1299ZM1271.76 131.49L1271.55 131.88L1270.98 131.42L1271.76 131.49ZM1231.02 92.98L1235.27 92.54L1230.8 97.03L1231.02 92.98ZM1220.63 80.27L1223.95 76.4399L1226.15 79.3899L1230.55 79.6201L1230.29 85.4099L1221.5 84.8799L1220.31 82.9399L1220.62 80.27H1220.63ZM1226.28 90.04L1225.5 90.9199L1224.84 89.01L1225.6 88.1299L1226.28 90.04ZM1209.72 87.24L1212.79 88.55L1211.01 91.4199L1209.03 101.68L1208.2 96.6101L1206.42 91.73L1209.71 87.24H1209.72ZM1193.39 119.84L1195.2 118.5L1198.57 118.53L1200.36 117.04L1200.65 111.51L1203 108.49L1204.47 101.6L1206.72 104.54L1208.91 104.65L1213.39 110.29L1214.47 106.45L1216.26 105.07L1225.05 105.05L1226.13 98.26L1224.25 95.1699L1227.3 93.97L1230.79 97.05L1230.26 106.99L1221.66 116.85L1215.08 116.52L1212.77 113.53L1210.49 113.66L1207.08 117.6L1206.92 120.43L1208.94 123.59L1205.48 127.57L1203.27 124.76L1200.62 127.54L1196.35 127.33L1194.99 131.21L1192.76 131.4L1193.38 119.86L1193.39 119.84ZM1224.77 124.25L1223.25 125.17L1222.59 124.2L1224.1 123.3L1224.77 124.26V124.25ZM1215.55 150.76L1215.38 151.12L1216.37 151.27L1215.45 153.01L1214.84 152.3L1214.46 153.11L1215 163.1L1210.54 163.45L1212.71 160.05L1208.41 158.54L1204.92 153.59L1197.67 153.88L1196.7 152.1L1197.42 151.11L1204.1 150.75L1197.42 150.39L1196.7 149.4L1197.67 147.62L1204.92 147.91L1208.41 142.96L1212.71 141.45L1210.54 138.05L1215 138.4L1214.46 148.39L1214.84 149.2L1215.45 148.49L1216.37 150.23L1215.38 150.38L1215.55 150.74V150.76ZM1208.02 163.82L1207.36 164.8L1205.06 162.31L1206.8 162.24L1207.63 162.92L1208.02 163.82ZM1202.36 161.33L1201.79 163.45L1200.36 165.34L1198.1 165.39L1197.44 163.47L1198.99 158.58L1202.36 161.32V161.33ZM1197.44 138.05L1198.1 136.13L1200.36 136.19L1201.79 138.08L1202.36 140.2L1198.99 142.94L1197.44 138.06V138.05ZM1205.06 139.22L1207.36 136.73L1208.02 137.7L1207.63 138.61L1206.8 139.29L1205.06 139.22ZM1193.65 135.76L1193.34 141.54L1191.15 144.32L1188.66 144.2L1188.98 138.41L1191.17 135.63L1193.65 135.76ZM1187.17 95.3201L1187.83 96.29L1186.32 97.2L1185.65 96.25L1187.17 95.3201ZM1181.95 111.98L1187.69 112.27L1189.1 115.48L1189.15 116.74L1191.14 119.99L1189.68 126.77L1187.46 123.85L1185.29 123.75L1183.86 127.36L1182.62 129.17L1181.66 126.92L1179.34 123.45L1175.83 123.27L1175.08 118.91L1181.95 111.98ZM1148.3 95.8L1149.18 100.89L1147.17 105L1148.3 95.8ZM1132.6 121.09L1133.52 120.86L1136.99 117L1137.15 114.06L1138.01 113.1L1141.56 115.98L1141.34 120.08L1142.16 121.24L1145.66 118.03L1146.72 111.23L1148.65 110.3L1148.75 108.94L1152.27 104.96L1157.01 104.62L1158.3 100.33L1156.16 97.55L1156.2 96.1799L1155.11 96.0901L1152.13 91.8899L1155.36 90.1799L1158.98 86.28L1159.14 83.24L1157.38 81.79L1153.14 80.8701L1152.76 79.8701L1153.57 78.9099L1164.67 79.4299L1167.48 76.49L1174.13 76.8201L1173.85 82.6201L1172.78 83.8601L1172.36 89.1899L1171.08 90.8501L1168.93 88.3L1167.05 90.3799L1164.95 90.8501L1163.15 92.3701L1163.01 95.02L1160.63 98.0701L1160.46 101.11L1163.51 105.23L1165.77 108.25L1167.97 108.36L1167.67 111.18L1164.2 115.02L1163.58 116.11L1162.66 116.77L1153.74 116.68L1152.94 117.64L1153.42 118.64L1160.9 120.07L1161.57 122.56L1164.6 122.78L1165.92 125.67L1169.13 125.92L1170.09 127.65L1166.74 131.52L1162.53 131.22L1161.25 129.44L1161.56 122.56L1158.19 122.39L1155.56 127.9L1153.32 125.04L1131.89 123.99L1130.1 122.69L1132.59 121.1L1132.6 121.09ZM1152.34 141.96L1151.6 136.77L1157.4 137.06L1160.69 141.42L1152.34 141.96ZM1160.69 160.11L1157.4 164.47L1151.6 164.76L1152.34 159.57L1160.69 160.12V160.11ZM1142.76 142.94L1142.21 145.5L1140.98 147.56L1140.14 142.49L1141.48 138.94L1143.63 139.11L1144.35 140.99L1142.75 142.95L1142.76 142.94ZM1144.36 160.54L1143.64 162.43L1141.49 162.59L1140.15 159.04L1140.99 153.97L1142.22 156.03L1142.77 158.59L1144.37 160.55L1144.36 160.54ZM1129.16 186.35L1128.39 185.46L1129.04 183.56L1129.83 184.44L1129.16 186.36V186.35ZM1129.05 117.96L1128.4 116.06L1129.17 115.18L1129.84 117.09L1129.05 117.96ZM1148.31 205.73L1147.18 196.53L1149.19 200.64L1148.31 205.73ZM1167.5 225.03L1164.69 222.09L1153.59 222.61L1152.78 221.65L1153.16 220.65L1157.4 219.73L1159.16 218.29L1159 215.25L1155.38 211.34L1152.15 209.64L1155.13 205.43L1156.22 205.35L1156.18 203.98L1158.32 201.2L1157.03 196.91L1152.29 196.57L1148.77 192.6L1148.67 191.23L1146.74 190.3L1145.68 183.51L1142.18 180.3L1141.36 181.46L1141.58 185.56L1138.03 188.44L1137.17 187.48L1137.01 184.54L1133.54 180.68L1132.62 180.45L1130.13 178.86L1131.92 177.56L1153.35 176.51L1155.59 173.65L1158.22 179.17L1161.59 179L1161.28 172.11L1162.56 170.33L1166.77 170.04L1170.12 173.91L1169.16 175.64L1165.95 175.89L1164.63 178.78L1161.6 179L1160.93 181.48L1153.45 182.9L1152.97 183.91L1153.77 184.87L1162.69 184.78L1163.61 185.43L1164.23 186.52L1167.7 190.37L1168 193.18L1165.8 193.29L1163.54 196.3L1160.49 200.42L1160.66 203.46L1163.04 206.51L1163.18 209.16L1164.98 210.67L1167.08 211.14L1168.96 213.23L1171.11 210.68L1172.39 212.34L1172.81 217.67L1173.88 218.91L1174.16 224.71L1167.51 225.05L1167.5 225.03ZM1173.84 156.54L1174.51 150.76L1173.84 144.99L1175.23 143.57L1179.63 143.75L1181.83 146.76L1186.27 147.03L1186.98 148.04L1185.99 149.79L1179.38 149.54L1178.27 150.76L1179.38 151.98L1185.99 151.73L1186.98 153.49L1186.27 154.5L1181.83 154.77L1179.63 157.78L1175.23 157.96L1173.84 156.55V156.54ZM1187.18 206.2L1185.66 205.28L1186.33 204.32L1187.84 205.22L1187.18 206.19V206.2ZM1189.16 184.79L1189.11 186.05L1187.7 189.26L1181.96 189.55L1175.09 182.62L1175.84 178.26L1179.35 178.08L1181.67 174.61L1182.63 172.36L1183.87 174.17L1185.3 177.78L1187.47 177.67L1189.69 174.75L1191.15 181.53L1189.16 184.78V184.79ZM1191.19 165.89L1189 163.1L1188.68 157.31L1191.17 157.19L1193.36 159.97L1193.67 165.76L1191.19 165.89ZM1209.74 214.29L1206.45 209.8L1208.23 204.92L1209.06 199.85L1211.04 210.11L1212.82 212.99L1209.75 214.3L1209.74 214.29ZM1226.17 222.12L1223.97 225.07L1220.65 221.24L1220.34 218.57L1221.53 216.63L1230.32 216.1L1230.58 221.88L1226.18 222.11L1226.17 222.12ZM1224.85 212.51L1225.51 210.6L1226.29 211.48L1225.61 213.4L1224.85 212.51ZM1227.32 207.56L1224.27 206.36L1226.15 203.27L1225.07 196.48L1216.28 196.46L1214.49 195.08L1213.41 191.24L1208.93 196.88L1206.74 196.99L1204.49 199.92L1203.02 193.03L1200.67 190.02L1200.38 184.49L1198.59 182.99L1195.22 183.02L1193.41 181.68L1192.79 170.15L1195.02 170.34L1196.38 174.22L1200.65 174.01L1203.3 176.79L1205.51 173.98L1208.97 177.96L1206.95 181.12L1207.11 183.95L1210.52 187.88L1212.8 188.01L1215.11 185.02L1221.69 184.69L1230.29 194.55L1230.82 204.49L1227.33 207.57L1227.32 207.56ZM1222.6 177.33L1223.26 176.36L1224.78 177.28L1224.11 178.24L1222.6 177.34V177.33ZM1235.29 208.98L1231.04 208.54L1230.82 204.49L1235.29 208.98ZM1255.98 166.8L1255.54 159.75L1252.27 159.91L1247.9 157.12L1246.21 154.42L1238.34 154.86L1237.61 155.86L1238.63 157.63L1242.98 157.48L1246.5 161.53L1245.35 165.63L1243.61 163.63L1242.24 167.87L1239.27 172.12L1237.04 172.23L1232.01 166.71L1229.73 167.08L1228.24 169.17L1224.39 168.63L1223.35 164.81L1220.72 167.34L1217.1 162.12L1217.97 158.57L1220.7 161.5L1222.95 161.2L1225.94 156.93L1225.8 154.22L1230.12 150.81L1230.1 150.75L1230.12 150.7L1225.8 147.29L1225.94 144.58L1222.95 140.3L1220.7 140L1217.97 142.93L1217.1 139.38L1220.72 134.15L1223.35 136.68L1224.39 132.86L1228.24 132.33L1229.73 134.42L1232.01 134.78L1237.04 129.27L1239.27 129.38L1242.24 133.63L1243.61 137.87L1245.35 135.87L1246.5 139.97L1242.98 144.02L1238.63 143.87L1237.61 145.63L1238.34 146.64L1246.21 147.07L1247.9 144.37L1252.27 141.58L1255.54 141.75L1255.98 134.7L1256.82 134.06L1256.76 136.95L1262.34 136.6L1264.91 140.08L1267.77 139.9L1265.57 142.26L1255.53 141.75L1255.44 143.07L1251.49 147.35L1246.2 147.08L1246.1 148.49L1244.15 150.74L1246.1 152.99L1246.2 154.4L1251.49 154.13L1255.44 158.41L1255.53 159.73L1265.57 159.22L1267.77 161.58L1264.91 161.4L1262.34 164.88L1256.76 164.53L1256.82 167.42L1255.98 166.78V166.8ZM1222.46 155.62L1220.26 155.73L1220.04 150.76L1220.26 145.8L1222.46 145.91L1222.25 150.76L1222.46 155.62ZM1260.7 150.74L1258.5 150.63L1258.76 144.84L1260.96 144.95L1260.7 150.74ZM1260.96 156.58L1258.76 156.7L1258.5 150.91L1260.7 150.8L1260.96 156.58ZM1270.98 170.1L1271.55 169.64L1271.76 170.03L1270.98 170.1ZM1281.86 199.59L1288.39 199.54L1286.53 204.06L1286.02 204.39L1281.86 199.59Z" fill="black"/>
</svg>
