<svg width="1031" height="229" viewBox="0 0 1031 229" fill="none" xmlns="http://www.w3.org/2000/svg">
<path d="M458.06 148.18L453.29 146.11C468.78 145.27 484.42 144.11 499.9 144.29L693.98 143.71L829.32 144.41C821.56 141.02 811.12 145.79 805.26 140.93C830.29 140.93 855.19 142.07 880.22 140.92C857.98 138.23 835.04 139.7 812.69 137.14L812.1 135.73C827.24 135.73 842.64 133.85 857.48 135.67C864.21 133.17 872.94 139.52 876.92 132.47C874.75 131.92 870.61 134.03 870.37 130.77C890.89 128.65 910.22 133.56 930.77 131.44C922.97 132.15 915.34 127.25 910.32 129.52C906.79 128.95 899.7 127.24 894.59 129.68C894.3 128.96 893.61 128.11 894.67 127.38L890.98 128.11L891.56 129.51C881.97 128.05 885.47 130.74 877.74 127C833.95 126 790.4 124.7 746.68 124.65L741.95 122.62C786.34 120.57 829.92 124.02 874.27 123.17C872.91 122.55 871.4 122.11 871.36 120.72C877.19 118.4 885.63 126.17 888.28 121.12C935.84 120.44 983.57 126.1 1030.26 123.48C1025.03 122.01 1017.88 125.12 1014.57 121.35L1015.14 122.76C1006.92 121.88 996.73 123.68 990.45 120.15L989.19 121.93L958.37 121.37C952.22 119.06 947.45 120.26 941.57 118.65C937.45 123.3 928.61 119.65 923.99 119.2C919.03 119.55 912.43 116.1 909.47 119.86C904.06 115.74 894.73 120.41 890.17 118.42C888.58 118.5 886.9 119.71 885.32 118.65C866.56 114.77 841.92 118.95 823.27 113.76C834.58 110.71 846.76 116.61 855.96 111.69C856.87 114.8 862.43 114.69 864.42 113.02L864.96 114.43C873.55 110.41 887.68 115.78 889.81 112.43L821.62 109.54L814.5 106.43C839.95 105.08 866.24 107.22 890.77 104.66L800.17 102.52L795.41 100.41C804.75 98.6701 814.56 102.37 823.28 98.5901C851.07 101.57 883.27 100.22 907.81 100.41L816.72 96.8601L639.73 93.2301L634.99 91.1601C655.98 89.8101 677.77 91.72 697.89 90.57L697.34 89.1701L704.02 88.56L983.05 93.56C982.37 93.14 981.96 92.6801 981.67 92.2401C981.79 92.4701 981.88 92.73 981.88 93.07C972.01 92.24 953.92 93.13 952.34 90.69L952.88 92.1001C950.65 91.4901 946.56 93.5901 946.27 90.3701L946.94 89.4801C927.8 89.3001 905.08 87.5701 889.53 88.9701L890.07 90.3801L888.26 90.7701C886.86 89.7601 883.76 89.7601 884.16 87.7901C841.89 86.8701 796.54 84.4001 752.52 84.0501L747.75 81.9801C787.65 79.7401 827.56 84.3 866.22 82.33C862.66 80.75 857 83.16 855.43 79.95C862.43 80.65 868.59 75.7401 873.52 80.83L874.81 79.0301C898.55 79.3101 925.98 79.96 946.1 79.82C943.49 79.05 938.99 80.9801 938.3 77.5501C860.88 74.5301 783.35 73.3801 705.84 70.7601L699.97 68.1501C788.13 67.5101 875.65 70.2601 963.27 73.2901L986.31 71.69L970.58 71.7901C938.84 69.2701 907.02 69.01 875.25 67.57L666.31 62.8001C658.31 62.4201 648.29 64.6701 642.19 61.6201C718.89 58.4901 794.86 59.5601 870.57 63.2201L879.78 61.3701C895.97 64.1301 913.72 61.94 929.77 63.07C929.58 61.85 928.18 61.49 926.89 60.95L739.79 54.0301L739.25 52.6001C743.26 52.8001 741.36 50.4201 744.21 50.1001C745.57 50.3301 745.61 51.3101 745.92 52.0201C749.71 52.5101 755.73 53.9401 758.07 50.2901C758.36 53.5501 766.06 53.0101 764.67 52.0201L764.12 50.6101L771.97 50.5501C780.05 57.7701 778.95 47.37 788.89 50.93C795.12 49.14 802.08 51.7901 806.36 52.7201L802.67 53.43C814.99 52.95 831.7 56.1701 839.67 52.0501C858.36 51.2601 878 54.0101 895.82 52.0501C831.19 49.9301 766.79 46.1601 702.02 45.7201L697.28 43.6601C731.1 42.2501 768.12 45.7701 798.18 44.4601L798.11 43.45L761.28 42.5901L761.34 43.57C740.3 41.01 717.23 44.14 698.11 38.18C733.37 38.36 768.59 38.5701 803.88 38.7801C800.5 37.3001 796.99 38.13 793.59 37.82C778.28 38.11 762.18 34.4301 747.73 36.4701C734.84 33.0201 719.74 35.5801 708.6 32.2701L710.42 31.8901C709.04 31.2701 707.57 30.8401 707.51 29.4201C729.35 24.3901 752.05 30.77 771.64 27.06L688.39 23.4101L683.65 21.3401C743.05 19.0701 799.36 25.13 857.69 22.57L857.61 21.57L797.84 20.0001L797.92 21.0301L791.95 18.43L806.52 17.7601L752.75 16.5001L751.64 13.6601C771.55 12.0301 794.71 15.3501 810.91 13.8501L810.81 12.82L655.61 9.31003L655.69 10.31L650.88 8.22006C655.71 9.18006 661 5.46005 665.43 7.58005C666.14 5.93005 669.5 3.71012 667.46 2.65012C517.43 -0.189884 368.63 -2.06989 217.65 20.0201C223.65 21.4801 231.62 17.9601 235.76 20.9101C234.42 21.1001 233.07 21.4301 231.73 21.7401C235.62 21.2001 239.46 20.7901 241.7 23.5101C231.2 24.7601 220.41 26.7001 210.14 26.0901L209.6 24.68C209.84 24.39 210.11 24.1701 210.38 23.9901L195.74 24.4801L195.21 23.07L213.45 19.3801C192.45 23.2301 172.78 16.6001 151.75 20.4601L151.21 19.0301L160.37 17.2L141.17 20.1101C142.01 20.3001 142.75 20.6701 143.26 21.4201C117.31 26.4101 90.69 29.2001 63.89 33.4601C60.56 37.0201 56.52 40.5 51.5 43.83C29.67 58.28 14.33 74.76 5.26001 91.93C4.05001 113.3 2.38998 134.64 0.47998 155.95C10.68 182.6 36.4599 206.94 77.7 223.77C81.03 225.12 84.02 226.62 86.85 228.14C97.98 224.67 110.99 223.04 120.41 218.04L120.96 219.43C140.52 215.36 161.68 214.25 182.39 210.08L156.85 212.93L156.31 211.54L148.36 213.89L147.27 211.09C271.37 190.52 395.93 184.94 519.01 180.66L514.24 178.59C583.71 176.81 653.05 176.69 722.17 178.25L718.08 175.28L719.89 174.93C718.51 174.31 717.01 173.87 716.98 172.49L722.47 171.37L720.06 170.32L548.5 167.86L547.97 166.45C593.65 165.19 641.12 164.67 687.65 165.53L917.16 169.92L956.44 169.55C922.77 169.67 889.36 166.16 855.63 166.41C841.6 163.83 827.29 164.19 812.76 165.21C808.34 164.83 802.1 161.95 799.52 164.11C783.41 163.34 764.56 164.23 751.25 161.73C728.75 157.95 703.11 163.9 682.51 157.41C724.23 157.34 769.67 157.12 807.65 157.15L733.93 155.36L729.21 153.3C819.07 153.21 911.99 157.18 998.01 157.34C818 154.68 639.26 142.29 458.01 148.21L458.06 148.18Z" fill="#020202"/>
</svg>
