<svg width="1243" height="247" viewBox="0 0 1243 247" fill="none" xmlns="http://www.w3.org/2000/svg">
<path d="M33.7505 196.83C23.0405 200.25 10.4902 196.79 0.490234 203.71C2.36023 210.47 7.15035 209.34 10.8604 209.41C32.5004 209.88 54.1606 209.99 75.8306 210.42C91.5706 210.73 107.331 211.95 123.051 211.7C142.911 211.39 162.771 210.38 182.561 208.97C221.291 206.21 259.921 202.18 298.681 200.37C312.791 199.71 327.141 203.95 341.391 205.84C348.081 206.73 354.841 207.2 361.521 208.2C379.241 210.89 396.811 213.5 413.061 222.3C419.191 225.63 427.83 225.13 435.33 225.16C441.13 225.19 446.59 223.1 451.32 228.93C452.99 230.98 457.87 231 461.29 231.1C472.97 231.43 483.41 226.99 493.45 221.82C503.57 216.6 513.781 213.88 525.561 213.33C549.851 212.2 574.071 209.08 598.261 206.32C660.141 199.26 722.05 193.19 784.36 190.47C815.78 189.09 847.34 186.63 878.44 180.04C892.3 177.11 907.17 178.4 921.57 178.5C925.25 178.52 929.77 180.44 932.44 182.97C938.39 188.62 945.35 190.76 953.19 191.5C956.79 191.83 960.341 192.66 963.931 192.93C993.171 195.12 1022.48 196.64 1051.65 199.56C1068.2 201.22 1084.58 204.89 1100.89 208.25C1103.96 208.88 1107.76 211.8 1108.89 214.57C1113.08 225 1123.31 228.94 1130.93 235.61C1133.03 237.45 1136.64 237.87 1139.67 238.41C1146.67 239.66 1153.77 240.48 1160.78 241.68C1170.33 243.31 1179.87 245.07 1189.41 246.82C1192.79 241.65 1197.2 237.21 1202.04 233.04C1202.22 232.25 1202.47 231.46 1202.62 230.66C1203.37 226.89 1206.75 225.95 1209.64 226.89C1210.77 226.05 1211.87 225.18 1213.02 224.32C1237.07 206.36 1246.52 192.32 1241.65 162.86C1238.12 141.48 1235.05 120.3 1233.49 98.72C1231.89 76.55 1223.02 59.88 1225.26 38.05C1209.13 32.73 1206.56 22.7899 1199.48 6.68994C1197.68 8.08994 1195.46 9.20011 1192.32 9.61011C1180.53 11.1301 1168.86 10.2899 1157.78 5.43994C1153.68 3.64994 1149.59 1.79995 1145.99 0.199951C1141.51 4.85995 1138.11 10.2 1133.21 13.03C1125.69 17.34 1123.03 15.97 1117.44 9.05005C1115.78 7.01005 1113.94 5.09005 1112 3.30005C1111.45 2.78005 1110.32 2.90002 1108.47 2.52002C1104.18 12.94 1095.99 12.7501 1087.35 8.33008C1083.03 13.1101 1080.01 19.15 1075.29 21.02C1069.39 23.34 1062.1 22.3 1055.4 22.55C1053.15 22.64 1050.7 21.5899 1048.67 22.1699C1032.33 26.9199 1015.78 25.1299 999.15 24.6899C977.53 24.1199 955.87 24.75 934.23 24.98C926.11 25.07 918.001 25.49 909.891 25.77C892.321 26.4 874.731 26.85 857.181 27.79C850.441 28.15 843.771 29.5199 837.101 30.6399C828.661 32.0299 820.241 35.0101 811.851 34.8601C796.141 34.5901 780.64 40.52 764.79 36.05C762.42 35.39 759.51 36.64 756.83 36.97C745.28 38.45 733.761 40.24 722.181 41.29C705.591 42.8 688.94 43.47 672.38 45.05C658.05 46.41 643.961 49.5899 629.301 47.1699C623.831 46.2699 617.66 48.08 612.04 49.51C586.84 55.97 561.59 58.9801 535.87 52.3101C532.48 51.4301 528.531 50.7801 525.221 51.5901C499.491 57.7501 473.171 56.2799 447.091 57.8799C435.861 58.5799 424.751 60.92 413.511 61.55C401.861 62.2 390.08 62.4 378.45 61.53C346.48 59.16 314.53 56.0099 282.42 58.1799C256.3 59.9499 230.22 62.3301 204.12 64.3401C187.01 65.6601 169.88 66.6701 152.79 68.1001C148.21 68.5001 143.73 69.96 139.37 72.23C148.84 79.53 159.02 75.22 168.79 75.29C178.84 75.36 189.03 72.3299 199.07 75.6899C198.85 76.9799 198.861 77.71 198.681 77.75C176.901 84.28 155.71 93.63 132.19 92.26C112 91.09 92.8005 96.1601 73.5405 100.84C71.0805 101.43 69.2206 104.4 67.0806 106.28C69.4706 108.5 71.5203 111.85 74.3403 112.68C78.0403 113.76 82.3599 112.9 86.4199 112.8C89.5699 112.72 92.9803 111.73 95.7803 112.63C98.2003 113.41 99.9002 116.3 101.91 118.25C99.9702 119.78 98.16 122.36 96.04 122.61C91.62 123.17 87.0505 122.33 82.5405 122.37C76.3505 122.43 70.0104 122.35 63.9604 128.82C67.9204 130.27 70.5402 132.04 73.1802 132.06C82.1902 132.1 91.21 131.57 100.25 131.2C103.84 131.05 107.58 130.05 111 130.69C114.27 131.3 118.44 132.85 119.86 135.3C120.77 136.89 117.49 140.86 115.96 143.7C115.36 144.83 114.491 145.8 113.591 147.07C117.391 153.73 129.46 150.26 130.4 160.03C126.77 165.06 122.211 162.51 117.891 162.27C100.821 161.26 83.7602 160.29 66.6602 159.71C61.8402 159.55 56.7502 160.43 54.9702 167.16C69.3502 173.93 85.4705 165.15 101.811 173.22C89.0705 177.63 78.5202 181.29 67.9702 184.96C56.5702 188.92 45.2705 193.17 33.7505 196.82V196.83ZM239.341 147.44C240.531 144.01 244.28 141.43 245.86 139.65C253.98 139.98 259.79 145.05 259.07 149.53C258.16 155.19 253.57 155.9 248.88 155.8C242.65 155.68 237.841 151.86 239.341 147.44V147.44Z" fill="black"/>
</svg>
