<svg width="18" height="20" viewBox="0 0 18 20" fill="none" xmlns="http://www.w3.org/2000/svg">
<path fill-rule="evenodd" clip-rule="evenodd" d="M14.3799 5.0689C16.1774 6.86639 17.0042 8.87957 17.0042 11.4679C17.0042 16.5009 13.3493 20 8.11265 20H2.98383L0 17.0162V0H5.22469C8.02877 0 10.3895 1.00659 11.9952 2.69623L14.3799 5.0689ZM2.82805 2.68424H2.79209V3.2834L5.34452 5.81186V5.20072L2.82805 2.68424ZM5.77592 5.11684L3.34332 2.68424H2.99581L5.42841 5.11684H5.77592ZM6.62673 5.11684L4.19413 2.68424H3.51109L5.94369 5.11684H6.62673ZM5.26064 2.68424H4.36189L6.79449 5.11684H7.69323L5.26064 2.68424ZM8.56801 5.12882L6.18335 2.74416C5.9317 2.70821 5.69204 2.69622 5.42841 2.68424L7.861 5.11684H8.11265C8.26843 5.11684 8.42421 5.11684 8.56801 5.12882ZM9.33493 5.2127L7.01019 2.88796C6.80647 2.84002 6.59077 2.80407 6.37507 2.76812L8.74776 5.1408C8.95147 5.15279 9.15518 5.18874 9.33493 5.2127ZM10.03 5.38047L7.76514 3.11564C7.59737 3.05572 7.41762 2.99581 7.23787 2.94787L9.55063 5.26063C9.7184 5.29658 9.87418 5.33253 10.03 5.38047ZM10.2936 5.46435C10.4494 5.53625 10.6171 5.60815 10.7609 5.68005L8.55602 3.47514C8.40024 3.39125 8.23248 3.30737 8.06471 3.23547L10.2936 5.46435ZM2.79209 8.01678L3.22349 8.44817L3.12762 8.54404L2.79209 8.20851V14.4877H5.34452V5.97963L2.79209 3.47514V4.06231L5.21271 6.47094L5.11684 6.55482L2.79209 4.24206V4.84122L4.80528 6.86639L4.72139 6.96225L2.79209 5.02097V5.63211L4.40983 7.26183L4.32595 7.3577L2.79209 5.81186V6.42301L4.01438 7.65728L3.93051 7.75315L2.79209 6.60276V7.22588L3.61894 8.05273L3.52307 8.14859L2.79209 7.40563V8.01678ZM10.5692 5.32055C10.1618 4.68544 9.62253 4.1462 8.97543 3.72678L10.5692 5.32055ZM14.1402 5.30857L13.1696 4.31396C13.8167 5.52427 14.2361 7.02217 14.2361 8.57999C14.2361 8.74775 14.2361 8.91552 14.2241 9.0713L16.6687 11.5279V11.4679C16.6687 8.96345 15.8538 7.0701 14.1402 5.30857ZM5.68005 14.4757C9.16717 14.284 11.42 11.9952 11.42 8.57999C11.42 7.69323 11.2642 6.87837 10.9766 6.15938C10.2457 5.65608 9.40683 5.45237 8.11265 5.45237H5.68005V14.4757ZM13.7208 11.6597L16.2612 14.2001C16.5009 13.4212 16.6447 12.5824 16.6687 11.6956L14.2121 9.23906C14.1522 10.1019 13.9844 10.9047 13.7208 11.6597ZM16.2133 14.32L13.6729 11.7795C13.4452 12.3787 13.1576 12.9419 12.8101 13.4452L15.3985 16.0336C15.734 15.5063 16.0096 14.9311 16.2133 14.32ZM14.3439 17.3277C14.7154 16.9682 15.0389 16.5608 15.3265 16.1294L12.7502 13.553C12.4506 13.9724 12.115 14.3679 11.7316 14.7154L14.3439 17.3277ZM10.5932 15.6141L13.2175 18.2385C13.589 17.9868 13.9365 17.7112 14.26 17.4116L11.6477 14.7993C11.3242 15.0989 10.9766 15.3745 10.5932 15.6141ZM9.44278 16.2493L12.0671 18.8736C12.4266 18.7058 12.7741 18.5141 13.1097 18.3104L10.4853 15.686C10.1618 15.9017 9.81426 16.0815 9.44278 16.2493ZM8.31636 16.6687L10.9287 19.281C11.2762 19.1851 11.6237 19.0533 11.9473 18.9215L9.32296 16.2972C8.99941 16.441 8.66387 16.5728 8.31636 16.6687ZM7.22589 16.9323L9.82625 19.5327C10.1618 19.4727 10.4853 19.4008 10.7969 19.317L8.19652 16.7166C7.88496 16.8005 7.56142 16.8724 7.22589 16.9323ZM7.0701 16.9563C6.78251 17.0162 6.48293 17.0521 6.18335 17.0761L8.75973 19.6405C9.0713 19.6285 9.37088 19.5926 9.67047 19.5566L7.0701 16.9563ZM7.76514 19.6645H8.11265C8.28041 19.6645 8.4362 19.6645 8.59198 19.6525L6.02756 17.0881C5.76393 17.1001 5.50031 17.112 5.22469 17.112H5.21271L7.76514 19.6645ZM0.575196 17.112L3.12762 19.6645H3.29539L0.754949 17.112H0.575196ZM0.922717 17.112L3.47513 19.6645H3.69083L1.13841 17.112H0.922717ZM1.30617 17.112L3.8586 19.6645H4.13422L1.58179 17.112H1.30617ZM1.74956 17.112L4.30198 19.6645H4.6495L2.09707 17.112H1.74956ZM2.26484 17.112L4.81725 19.6645H5.23667L2.68425 17.112H2.26484ZM2.85201 17.112L5.40444 19.6645H5.90773L3.35531 17.112H2.85201ZM3.53505 17.112L6.08748 19.6645H6.69862L4.14619 17.112H3.53505ZM4.31396 17.112L6.86639 19.6645H7.59737L5.03295 17.112H4.31396Z" fill="#fff"/>
</svg>
