<svg width="26" height="20" viewBox="0 0 26 20" fill="none" xmlns="http://www.w3.org/2000/svg">
<path d="M13 0.982026C7.82427 0.982026 4.19353 3.38485 4.19353 3.38485C6.18271 1.46259 9.65895 0.355201 9.65895 0.355201L9.33064 0C6.06684 0.0626825 3.11203 2.5073 3.11203 2.5073C-0.209705 10.0083 0.00273193 16.4855 0.00273193 16.4855C2.70647 20.2673 6.72346 19.9957 6.72346 19.9957L8.09464 18.1152C5.68059 17.5511 4.15491 15.2318 4.15491 15.2318C4.15491 15.2318 7.78564 17.9063 13 17.9063C18.2144 17.9063 21.8451 15.2318 21.8451 15.2318C21.8451 15.2318 20.3194 17.5511 17.9054 18.1152L19.2765 19.9957C19.2765 19.9957 23.2935 20.2673 25.9973 16.4855C25.9973 16.4855 26.2097 10.0083 22.888 2.5073C22.888 2.5073 19.9332 0.0626825 16.6694 0L16.3411 0.355201C16.3411 0.355201 19.8173 1.46259 21.8065 3.38485C21.8065 3.38485 18.1757 0.982026 13 0.982026ZM9.00233 8.90091C10.2576 8.90091 11.2812 10.0919 11.2619 11.5545C11.2619 12.9962 10.2576 14.208 9.00233 14.208C7.76633 14.208 6.76208 12.9962 6.76208 11.5545C6.76208 10.0919 7.74702 8.90091 9.00233 8.90091ZM17.0556 8.90091C18.3109 8.90091 19.3152 10.0919 19.3152 11.5545C19.3152 12.9962 18.3109 14.208 17.0556 14.208C15.8196 14.208 14.8154 12.9962 14.8154 11.5545C14.8154 10.0919 15.8003 8.90091 17.0556 8.90091Z" fill="#fff"/>
</svg>
