<svg width="25" height="20" viewBox="0 0 25 20" fill="none" xmlns="http://www.w3.org/2000/svg">
<path d="M23.0052 2.35053L25 0.422105V0H18.0896L13.1646 12.3874L7.56146 0H0.315625V0.422105L2.64583 3.25684C2.87292 3.46632 2.99167 3.77263 2.96146 4.08105V15.2211C3.03333 15.6221 2.90417 16.0347 2.625 16.3263L0 19.5411V19.9579H7.44271V19.5358L4.81771 16.3263C4.53333 16.0337 4.39896 15.6284 4.45625 15.2211V5.58526L10.9896 19.9632H11.749L17.3667 5.58526V17.0389C17.3667 17.3411 17.3667 17.4032 17.1708 17.6011L15.15 19.5768V20H24.9542V19.5779L23.0063 17.6505C22.8354 17.52 22.7469 17.3011 22.7833 17.0884V2.91263C22.7469 2.69895 22.8344 2.48 23.0052 2.35053Z" fill="#fff"/>
</svg>
